<svg id="centurian_svg" xmlns="http://www.w3.org/2000/svg" xmlns:xlink="http://www.w3.org/1999/xlink" width="128" height="128" viewBox="0 0 128 128"><style>.centurian0{fill:#eb4a8d}.centurian1{opacity:.58;clip-path:url(#centurian_2_);fill:#c91c6a}.centurian2{fill:#ffe5c2}.centurian3{fill:#413c3f}.centurian4{fill:#58505b}.centurian5{fill:#FFF}.centurian6{fill:#ffb345}.centurian7{fill:#d75400}.centurian8{fill:#ecf0f1}.centurian9{fill:#756a79}</style><circle class="centurian0" cx="64" cy="64" r="64"/><defs><circle id="centurian_1_" cx="64" cy="64" r="64"/></defs><clipPath id="centurian_2_"><use xlink:href="#centurian_1_" overflow="visible"/></clipPath><path class="centurian1" d="M34 98.4L63.4 128H128V65.6L99.7 37.5l-4.4-.6L75.4 17l-22.7 8.8 6.3 6.3-13.5 4.5-5 2.1-6.1 1.1 2.4 16.1z"/><path class="centurian2" d="M99.7 37.5l-4.2-4.2c-.8-.8-2.2-.8-3 0L77.9 47.9c-.8.8-.8 2.2 0 3l4.2 4.2c.8.8 2.2.8 3 0l14.6-14.6c.8-.9.8-2.2 0-3zm-64.5-4.2c-.8-.8-2.2-.8-3 0L28 37.5c-.8.8-.8 2.2 0 3l14.6 14.6c.8.8 2.2.8 3 0l4.2-4.2c.8-.8.8-2.2 0-3L35.2 33.3z"/><path class="centurian3" d="M57.3 44.6V24.5c0-1.3 1.1-2.4 2.4-2.4h8.5c1.3 0 2.4 1.1 2.4 2.4v20.1c0 1.3-1.1 2.4-2.4 2.4h-8.5c-1.3 0-2.4-1.1-2.4-2.4z"/><circle class="centurian4" cx="64" cy="70.3" r="41.1"/><circle class="centurian5" cx="64" cy="70.3" r="32.3"/><circle class="centurian4" cx="38.2" cy="69.7" r="1.9"/><circle class="centurian4" cx="89.8" cy="69.7" r="1.9"/><circle class="centurian4" cx="45.8" cy="51.4" r="1.9"/><circle class="centurian4" cx="82.2" cy="87.9" r="1.9"/><circle class="centurian4" cx="82.2" cy="51.4" r="1.9"/><circle class="centurian4" cx="45.8" cy="87.9" r="1.9"/><circle class="centurian4" cx="64" cy="95.5" r="1.9"/><path class="centurian6" d="M63.9 72.9h-.2c-1.7 0-3.2-1.4-3.2-3.2V44.8c0-1.7 1.4-3.2 3.2-3.2h.2c1.7 0 3.2 1.4 3.2 3.2v24.9c-.1 1.8-1.5 3.2-3.2 3.2z"/><path class="centurian7" d="M79 72.9H63.8c-1.8 0-3.2-1.5-3.2-3.2 0-1.8 1.5-3.2 3.2-3.2H79c1.8 0 3.2 1.5 3.2 3.2.1 1.8-1.4 3.2-3.2 3.2z"/><circle class="centurian8" cx="63.8" cy="69.7" r="1.9"/><path class="centurian4" d="M73.9 26.4H54.1c-1.1 0-2.1-.9-2.1-2.1v-6c0-1.1.9-2.1 2.1-2.1h19.7c1.1 0 2.1.9 2.1 2.1v6c0 1.2-.9 2.1-2 2.1z"/><path class="centurian9" d="M57 17.8c-.7 0-1.2.3-1.2.7v5.8c0 .4.5.7 1.2.7s1.2-.3 1.2-.7v-5.8c0-.4-.5-.7-1.2-.7zM61.7 17.8c-.7 0-1.2.3-1.2.7v5.8c0 .4.5.7 1.2.7s1.2-.3 1.2-.7v-5.8c0-.4-.5-.7-1.2-.7zM66.4 17.8c-.7 0-1.2.3-1.2.7v5.8c0 .4.5.7 1.2.7s1.2-.3 1.2-.7v-5.8c0-.4-.5-.7-1.2-.7zM71.1 17.8c-.7 0-1.2.3-1.2.7v5.8c0 .4.5.7 1.2.7s1.2-.3 1.2-.7v-5.8c0-.4-.6-.7-1.2-.7z"/></svg>
