<?xml version="1.0" encoding="utf-8"?>
<!-- Generator: Adobe Illufriendrator 18.0.0, SVG Export Plug-In . SVG Version: 6.00 Build 0)  -->
<!DOCTYPE svg PUBLIC "-//W3C//DTD SVG 1.1//EN" "http://www.w3.org/Graphics/SVG/1.1/DTD/svg11.dtd">
<svg version="1.1" id="friend_svg" xmlns="http://www.w3.org/2000/svg" xmlns:xlink="http://www.w3.org/1999/xlink" x="0px" y="0px"
	 width="128px" height="128px" viewBox="0 0 128 128" style="enable-background:new 0 0 128 128;" xml:space="preserve">
<style type="text/css">
	.friend0{fill:#A8CE38;}
	.friend1{clip-path:url(#friend_2_);fill:#83B83E;}
	.friend2{fill:#584D51;}
	.friend3{fill:#0094D5;}
	.friend4{clip-path:url(#friend_4_);}
	.friend5{fill:none;friendroke:#2C70AB;friendroke-width:6;friendroke-miterlimit:10;}
	.friend6{opacity:0.4;}
	.friend7{fill:#005B9F;}
	.friend8{opacity:0.5;}
	.friend9{fill:#77D1F6;}
	.friend10{fill:#EEAE82;}
	.friend11{fill:#FFCD47;}
	.friend12{clip-path:url(#friend_6_);fill:#453F41;}
	.friend13{fill:#FDE3CB;}
	.friend14{fill:#FCCDAC;}
	.friend15{fill:#FDEFE7;}
	.friend16{opacity:0.3;}
	.friend17{opacity:0.86;clip-path:url(#friend_8_);fill:#E69E65;}
	.friend18{clip-path:url(#friend_10_);fill:#E2961D;}
	.friend19{fill:#FBB714;}
	.friend20{fill:#FFF1E5;}
</style>
<g>
	<circle class="friend0" cx="64" cy="64" r="64"/>
	<g>
		<defs>
			<circle id="friend_1_" cx="64" cy="64" r="64"/>
		</defs>
		<clipPath id="friend_2_">
			<use xlink:href="#friend_1_"  style="overflow:visible;"/>
		</clipPath>
		<polygon class="friend1" points="26.6,103.6 51,128 128,128 128,67.8 84.8,24.6 63,50.5 63,79 		"/>
	</g>
	<path class="friend2" d="M93.1,44.7c0,15.8-12.8,23.1-28.6,23.1s-28.6-7.3-28.6-23.1s12.8-28.6,28.6-28.6S93.1,28.9,93.1,44.7z"/>
	<path class="friend3" d="M99.5,104.9h-70c-2.1,0-3.8-1.7-3.8-3.8v-1.7c0-12.1,9.8-21.9,21.9-21.9h33.8c12.1,0,21.9,9.8,21.9,21.9v1.7
		C103.3,103.2,101.6,104.9,99.5,104.9z"/>
	<g>
		<defs>
			<path id="friend_3_" d="M99.5,104.9h-70c-2.1,0-3.8-1.7-3.8-3.8v-1.7c0-12.1,9.8-21.9,21.9-21.9h33.8c12.1,0,21.9,9.8,21.9,21.9
				v1.7C103.3,103.2,101.6,104.9,99.5,104.9z"/>
		</defs>
		<clipPath id="friend_4_">
			<use xlink:href="#friend_3_"  style="overflow:visible;"/>
		</clipPath>
		<g class="friend4">
			<line class="friend5" x1="36.5" y1="70.4" x2="36.5" y2="106.2"/>
			<line class="friend5" x1="47.7" y1="70.4" x2="47.7" y2="106.2"/>
			<line class="friend5" x1="58.9" y1="70.4" x2="58.9" y2="106.2"/>
			<line class="friend5" x1="70.1" y1="70.4" x2="70.1" y2="106.2"/>
			<line class="friend5" x1="81.3" y1="70.4" x2="81.3" y2="106.2"/>
			<line class="friend5" x1="92.5" y1="70.4" x2="92.5" y2="106.2"/>
		</g>
	</g>
	<g class="friend6">
		<path class="friend7" d="M81.4,77.5h-3.2c12.1,0,21.9,9.8,21.9,21.9v1.7c0,2.1-1.7,3.8-3.8,3.8h3.2c2.1,0,3.8-1.7,3.8-3.8v-1.7
			C103.3,87.3,93.5,77.5,81.4,77.5z"/>
	</g>
	<g class="friend8">
		<path class="friend9" d="M47.6,77.5h3.2c-12.1,0-21.9,9.8-21.9,21.9v1.7c0,2.1,1.7,3.8,3.8,3.8h-3.2c-2.1,0-3.8-1.7-3.8-3.8v-1.7
			C25.7,87.3,35.5,77.5,47.6,77.5z"/>
	</g>
	<rect x="51.5" y="69.2" class="friend10" width="26.1" height="12.7"/>
	<polygon class="friend11" points="64.5,81.9 56.9,104.9 62.5,104.9 66.5,104.9 72.1,104.9 	"/>
	<g>
		<defs>
			<path id="friend_5_" d="M93.1,44.7c0,15.8-12.8,23.1-28.6,23.1s-28.6-7.3-28.6-23.1s12.8-28.6,28.6-28.6S93.1,28.9,93.1,44.7z"/>
		</defs>
		<clipPath id="friend_6_">
			<use xlink:href="#friend_5_"  style="overflow:visible;"/>
		</clipPath>
		<polygon class="friend12" points="81.3,36.1 93.8,48.5 90.7,60.2 83.6,66 79,66 75.9,46.9 		"/>
	</g>
	<path class="friend13" d="M65.8,73.7h-2.5C53.2,73.7,45,68,45,57.9V45.6c0-10.1,8.2-18.3,18.3-18.3h2.5c10.1,0,18.3,8.2,18.3,18.3v12.3
		C84,68,75.8,73.7,65.8,73.7z"/>
	<g>
		<path class="friend14" d="M71.5,28.3c5.5,3.3,9.2,9.3,9.2,16.2V59c0,6.9-3.7,10.7-9.2,14C79.1,71.2,84,66,84,57.9V45.6
			C84,37.5,78.8,30.7,71.5,28.3z"/>
	</g>
	<g>
		<path class="friend15" d="M57.5,28.3c-5.5,3.3-9.2,9.3-9.2,16.2V59c0,6.9,3.7,10.7,9.2,14C50,71.2,45,66,45,57.9V45.6
			C45,37.5,50.2,30.7,57.5,28.3z"/>
	</g>
	<g class="friend16">
		<defs>
			<path id="friend_7_" class="friend16" d="M65.8,73.7h-2.5C53.2,73.7,45,68,45,57.9V45.6c0-10.1,8.2-18.3,18.3-18.3h2.5
				c10.1,0,18.3,8.2,18.3,18.3v12.3C84,68,75.8,73.7,65.8,73.7z"/>
		</defs>
		<clipPath id="friend_8_">
			<use xlink:href="#friend_7_"  style="overflow:visible;"/>
		</clipPath>
		<polygon class="friend17" points="44.8,48.2 72.9,76.2 97.8,51.4 80.5,34 51,34 44.1,48.4 		"/>
	</g>
	<path class="friend2" d="M78.8,25.1c-3.1-4.2-6.5-1.5-9.3-4.9c-0.2,0.2-4.4-0.4-4.6-0.2c-1.8,1.8-2.8,3.4-3.3,5c-2.1-1.6-4.5-2.6-6.9-3
		c-0.1-0.1-0.1-0.2-0.2-0.3c-0.1,0.1-0.3,0.1-0.4,0.2c-0.1,0-0.1,0-0.2,0c0,0,0,0.1,0,0.1c-4.3,1.7-10.6,5.4-11.7,12.5
		c-0.8,4.9-1.4,10-1.9,14.2c0.3,0,0.6,0,0.9,0c5.9,0,11.1-3.1,14.1-7.7c2.6,3.5,5.3,7,7.7,10c0.2-0.2,0.4-0.4,0.6-0.6
		c3.3-3.3,5-7.7,4.9-12.1c0.2,0.2,0.3,0.3,0.5,0.5c2.9,2.9,6.4,4.5,10.2,5C81.1,39.4,83.5,31.5,78.8,25.1z"/>
	<g>
		<defs>
			<polygon id="friend_9_" points="64.5,81.9 56.9,104.9 62.5,104.9 66.5,104.9 72.1,104.9 			"/>
		</defs>
		<clipPath id="friend_10_">
			<use xlink:href="#friend_9_"  style="overflow:visible;"/>
		</clipPath>
		<polygon class="friend18" points="61.7,90.2 71.8,100.3 69.4,91.2 64.6,87.4 		"/>
	</g>
	<path class="friend19" d="M64.4,81.9l6.4,4.9L66.7,91c-1.1,1.1-3,1.1-4.2,0l-4.2-4.2L64.4,81.9z"/>
	<g>
		<path class="friend20" d="M64.5,81.9L77.9,73l4.1,4.5l-6.3,12.3c-0.6,1.2-2.2,1.4-3.1,0.5L64.5,81.9z"/>
		<path class="friend20" d="M64.5,81.9L51.1,73L47,77.4l6.3,12.3c0.6,1.2,2.2,1.4,3.1,0.5L64.5,81.9z"/>
	</g>
</g>
</svg>
