<svg id="gifted_svg" xmlns="http://www.w3.org/2000/svg" xmlns:xlink="http://www.w3.org/1999/xlink" width="128" height="128" viewBox="0 0 128 128"><style>.gifted0{fill:#526981}.gifted1{clip-path:url(#gifted_2_);fill:#475b70}.gifted2{fill:#fef4f3}.gifted3{opacity:.6;clip-path:url(#gifted_4_);fill:#d3c2b8}.gifted4{fill:#ff5929}.gifted5{fill:#f54f33}.gifted6{fill:#d3c2b8}.gifted7{opacity:.48;clip-path:url(#gifted_6_);fill:#c1272d}.gifted8{opacity:.69;fill:#c1272d}.gifted9{opacity:.48;fill:#c1272d}</style><circle class="gifted0" cx="64" cy="64" r="64"/><defs><circle id="gifted_1_" cx="64" cy="64" r="64"/></defs><clipPath id="gifted_2_"><use xlink:href="#gifted_1_" overflow="visible"/></clipPath><path class="gifted1" d="M32.7 100.7L60 128h68V66.4L90.8 29.2l-1.1 3-6.2-6.2-14.4 11.2-15.4-15.3-9 6.3 11.1 11.1-20.4-.8 4.1 4.1-10.3 15.8 5.6 5.5z"/><path class="gifted2" d="M94 49.2H34c-1.1 0-2 .9-2 2v48c0 1.1.9 2 2 2h60c1.1 0 2-.9 2-2v-48c0-1.1-.9-2-2-2z"/><defs><path id="gifted_3_" d="M94 49.2H34c-1.1 0-2 .9-2 2v48c0 1.1.9 2 2 2h60c1.1 0 2-.9 2-2v-48c0-1.1-.9-2-2-2z"/></defs><clipPath id="gifted_4_"><use xlink:href="#gifted_3_" overflow="visible"/></clipPath><path class="gifted3" d="M29.2 58.4l44.2 44.1 25.6-.1V55.5H32z"/><path class="gifted4" d="M32 70h64v6.5H32z"/><path class="gifted2" d="M97.4 41.2H30.6c-1.1 0-2 .9-2 2V57c0 1.1.9 2 2 2h66.7c1.1 0 2-.9 2-2V43.2c.1-1.1-.8-2-1.9-2z"/><path class="gifted4" d="M66 41.2L91.4 39c1.3-.1 2.1-1.3 1.7-2.6L91.2 30c-.4-1.2-1.8-1.8-2.9-1.2L66 41.2z"/><path class="gifted5" d="M66 41.2l17-12.7c1.1-.8 1.1-2.6-.2-3.3l-6-3.6c-1-.6-2.4-.2-2.9.9L66 41.2z"/><path class="gifted4" d="M62 41.2L36.6 39c-1.3-.1-2.1-1.3-1.7-2.6l1.9-6.4c.4-1.2 1.8-1.8 2.9-1.2L62 41.2z"/><path class="gifted5" d="M62 41.2L45 28.6c-1.1-.8-1.1-2.6.2-3.3l6-3.6c1-.6 2.4-.2 2.9.9L62 41.2z"/><path class="gifted6" d="M32 59h64v2.1H32z"/><path class="gifted4" d="M60.8 59h6.5v42.3h-6.5z"/><defs><path id="gifted_5_" d="M96 70H67.3V41.3h-6.5V70H32v6.5h28.8v24.7h6.5V76.5H96z"/></defs><clipPath id="gifted_6_"><use xlink:href="#gifted_5_" overflow="visible"/></clipPath><path class="gifted7" d="M29.2 58.4l44.2 44.1 25.6-.1V59H32z"/><path class="gifted4" d="M63 40.9l-13.8 9.7c-1.2.8-1.1 2.7.2 3.4l3 1.7c.9.5 2 .3 2.6-.5l10-13.1-2-1.2z"/><path class="gifted4" d="M65 40.9l13.8 9.7c1.2.8 1.1 2.7-.2 3.4l-3 1.7c-.9.5-2 .3-2.6-.5L63 42.1l2-1.2z"/><path class="gifted8" d="M60.8 59h6.5v2.1h-6.5z"/><path class="gifted4" d="M60.8 42.8h6.5v16.1h-6.5z"/><path class="gifted4" d="M67.2 45.3h-6.4c-1.3 0-2.3-1-2.3-2.3v-3.4c0-1.3 1-2.3 2.3-2.3h6.4c1.3 0 2.3 1 2.3 2.3V43c0 1.2-1 2.3-2.3 2.3z"/><path class="gifted9" d="M60.8 45.3l6.5 6.5v-6.5z"/></svg>
