<svg xmlns="http://www.w3.org/2000/svg" xmlns:xlink="http://www.w3.org/1999/xlink" viewBox="0 0 128 128"><circle fill="#2B6AC2" cx="64" cy="64" r="64"/><defs><circle id="a" cx="64" cy="64" r="64"/></defs><clipPath id="b"><use xlink:href="#a" overflow="visible"/></clipPath><path clip-path="url(#b)" fill="#1155C2" d="M22.65 102.377l25.487 25.486L128 128V64L86.42 24.737z"/><path fill="#92C600" d="M103.424 103.59h-34.01c-2.2 0-4-1.8-4-4V79.492c0-2.2 1.8-4 4-4h34.01c2.2 0 4 1.8 4 4V99.59c0 2.2-1.8 4-4 4z"/><path fill="#63B100" d="M82.72 74.806h9.087v28.785H82.72z"/><path fill="#63B100" d="M74.066 86.664h33.293v5.07h-33.3z"/><g fill="#D4ECC4"><path d="M90.233 75.65l14.7-.11c.73-.006 1.296-.813 1.173-1.67l-.65-4.506c-.124-.866-.887-1.342-1.57-.98L90.233 75.65z"/><path d="M90 76.61l11.41-9.253c.766-.62.658-1.82-.206-2.295l-4.292-2.357a1.39 1.39 0 0 0-1.968.73L90 76.61zm-1.54 0l-11.41-9.253a1.388 1.388 0 0 1 .207-2.295l4.292-2.357a1.39 1.39 0 0 1 1.96.73l4.95 13.175z"/><path d="M88.245 75.65l-14.7-.11c-.73-.006-1.296-.813-1.173-1.67l.65-4.506c.124-.866.887-1.342 1.57-.98l13.653 7.267zm2.59.313l4.968 7.528c.433.66-.062 1.49-.922 1.55l-2.02.14c-.58.04-1.104-.3-1.23-.8l-2.09-8.273 1.305-.133zm-2.813 0l-4.967 7.528c-.433.66.062 1.49.922 1.55l2.028.14c.58.04 1.107-.3 1.233-.8l2.088-8.272-1.304-.133z"/><path d="M90.727 77.584h-2.984a2.332 2.332 0 0 1-2.332-2.332v-.964a2.332 2.332 0 0 1 2.34-2.332h2.987a2.332 2.332 0 0 1 2.33 2.332v.964a2.332 2.332 0 0 1-2.33 2.332z"/></g><path fill="#EE458A" d="M83.1 103.59H48.315c-2.2 0-4-1.8-4-4V26.962c0-2.2 1.8-4 4-4H83.1c2.2 0 4 1.8 4 4V99.59c0 2.2-1.8 4-4 4z"/><defs><path id="c" d="M83.1 103.59H48.315c-2.2 0-4-1.8-4-4V26.962c0-2.2 1.8-4 4-4H83.1c2.2 0 4 1.8 4 4V99.59c0 2.2-1.8 4-4 4z"/></defs><clipPath id="d"><use xlink:href="#c" overflow="visible"/></clipPath><g clip-path="url(#d)" fill="none" stroke="#FCB9DA" stroke-width="4" stroke-miterlimit="10"><path d="M89.574-10.667L42.808 36.1M89.574 3.3L42.808 50.066m46.766-32.798L42.808 64.033m46.766-32.798L42.808 78m46.766-32.798L42.808 91.968M89.574 59.17l-46.766 46.765m46.766-32.8l-46.766 46.767m46.766-32.8L42.808 133.87"/></g><defs><path id="e" d="M83.1 103.59H48.315c-2.2 0-4-1.8-4-4V26.962c0-2.2 1.8-4 4-4H83.1c2.2 0 4 1.8 4 4V99.59c0 2.2-1.8 4-4 4z"/></defs><clipPath id="f"><use xlink:href="#e" overflow="visible"/></clipPath><path opacity=".24" clip-path="url(#f)" fill="#D01D96" d="M68.69 50.07l19.16 19.158v35.105H60.795V52.667z"/><path fill="#FED612" d="M65.292 103.59h-39.78c-2.2 0-4-1.8-4-4V52.163c0-2.2 1.8-4 4-4h39.78c2.2 0 4 1.8 4 4V99.59c0 2.2-1.8 4-4 4z"/><path fill="#FEB212" d="M41.133 48.163H49.7v55.423h-8.567z"/><path fill="#FEB212" d="M21.508 65.337h47.795v7.65H21.508z"/><defs><path id="g" d="M65.292 103.59h-39.78c-2.2 0-4-1.8-4-4V52.163c0-2.2 1.8-4 4-4h39.78c2.2 0 4 1.8 4 4V99.59c0 2.2-1.8 4-4 4z"/></defs><clipPath id="h"><use xlink:href="#g" overflow="visible"/></clipPath><path opacity=".15" clip-path="url(#h)" fill="#D75B41" d="M25.515 70.626l33.82 33.818H70.5V68.812L60.403 58.647l-10.966 8.395-11.388-11.39-7.75 5.062 8.272 8.276z"/><g fill="#FFF1E5"><path d="M46.608 71.1l17.84-.134c.886-.007 1.573-.987 1.423-2.028l-.78-5.467c-.15-1.05-1.08-1.62-1.903-1.18l-16.58 8.81z"/><path d="M46.326 72.265l13.846-11.23c.93-.753.8-2.208-.25-2.784l-5.21-2.86a1.685 1.685 0 0 0-2.387.89l-6 15.99zm-1.868 0l-13.846-11.23c-.93-.753-.8-2.208.25-2.784l5.21-2.86a1.685 1.685 0 0 1 2.387.89l5.99 15.99z"/><path d="M44.195 71.1l-17.84-.134c-.886-.007-1.573-.987-1.423-2.028l.788-5.467c.15-1.05 1.078-1.62 1.906-1.18l16.57 8.82zm3.145.38l6.027 9.136c.525.796-.075 1.8-1.12 1.872l-2.46.168c-.705.048-1.343-.367-1.497-.975l-2.534-10.03 1.583-.16zm-3.415 0l-6.028 9.136c-.525.796.075 1.8 1.12 1.872l2.46.168c.705.048 1.343-.367 1.497-.975l2.534-10.03-1.583-.16z"/><path d="M47.706 73.447H43.09a2.332 2.332 0 0 1-2.333-2.332V68.95a2.332 2.332 0 0 1 2.332-2.332h4.61a2.332 2.332 0 0 1 2.33 2.332v2.166a2.333 2.333 0 0 1-2.33 2.33z"/></g></svg>
