<svg width="48" height="48" viewBox="0 0 48 48" fill="none" xmlns="http://www.w3.org/2000/svg">
<g filter="url(#filter0_i)">
<rect x="2" y="2" width="44" height="44" rx="22" fill="url(#paint0_linear)"/>
</g>
<rect x="1" y="1" width="46" height="46" rx="23" stroke="#727272" stroke-width="2"/>
<g filter="url(#filter1_i)">
<rect x="2" y="2" width="44" height="44" rx="22" fill="url(#paint1_linear)"/>
</g>
<rect x="1.5" y="1.5" width="45" height="45" rx="22.5" stroke="white"/>
<g filter="url(#filter2_i)">
<rect x="2" y="2" width="44" height="44" rx="22" fill="url(#paint2_linear)"/>
</g>
<mask id="mask0" mask-type="alpha" maskUnits="userSpaceOnUse" x="2" y="2" width="44" height="44">
<rect x="2" y="2" width="44" height="44" rx="22" fill="url(#paint3_linear)"/>
</mask>
<g mask="url(#mask0)">
<g filter="url(#filter3_i)">
<rect x="2" y="2" width="44" height="44" rx="22" fill="url(#paint4_radial)"/>
</g>
<g filter="url(#filter4_i)">
<rect x="2" y="2" width="44" height="44" rx="22" fill="url(#paint5_linear)" fill-opacity="0.71"/>
</g>
<g filter="url(#filter5_i)">
<path d="M2 23.4159C2 11.5882 11.5882 2 23.4159 2H24.5841C36.4118 2 46 11.5882 46 23.4159C46 27.9587 31.9685 17.5752 24.5197 23.4159C21.3832 25.8753 17.2296 28.0388 13.4716 29.7195C7.91892 32.2029 2 29.4986 2 23.4159Z" fill="url(#paint6_linear)" fill-opacity="0.34"/>
</g>
</g>
<path d="M16.1313 6.01763C16.2969 7.39632 18.9254 5.68204 22.3722 5.26807C25.8189 4.8541 28.7786 5.8972 28.613 4.51851C28.4474 3.13982 25.2817 2.3638 21.835 2.77777C18.3883 3.19174 15.9657 4.63894 16.1313 6.01763Z" fill="url(#paint7_linear)"/>
<path d="M12.6964 9.19478C13.0494 9.60326 13.9133 9.18442 14.7709 8.44334C15.6284 7.70226 16.155 6.91958 15.802 6.5111C15.449 6.10262 14.4676 6.37225 13.6101 7.11333C12.7525 7.8544 12.3434 8.7863 12.6964 9.19478Z" fill="url(#paint8_linear)" fill-opacity="0.6"/>
<g style="mix-blend-mode:multiply" opacity="0.6">
<path d="M31.8033 21.8584H29.0032V22.7976H31.8033V21.8584Z" fill="#616263"/>
</g>
<g style="mix-blend-mode:multiply" opacity="0.6">
<path d="M19.0053 21.8584H16.2051V22.7976H19.0053V21.8584Z" fill="#616263"/>
</g>
<path d="M32.7272 23.5973C32.668 23.4661 32.5756 23.3527 32.4592 23.2682C32.2865 23.1557 32.0919 23.0815 31.8882 23.0503H15.8978C15.6895 23.0682 15.4904 23.1436 15.3225 23.2682C15.196 23.3649 15.1124 23.5072 15.0894 23.6648C15.0894 23.6888 15.0894 23.7193 15.0894 23.7498V26.8006C15.0894 38.509 32.786 38.801 32.786 26.8006V23.7476C32.7708 23.6959 32.7511 23.6456 32.7272 23.5973Z" fill="#AAAAAA"/>
<path d="M26.3733 27.4783C26.3733 26.2471 25.3165 25.249 24.0133 25.249C22.7102 25.249 21.6555 26.2471 21.6555 27.4783C21.6626 27.9349 21.8098 28.3783 22.0772 28.7486C22.3446 29.1188 22.7192 29.398 23.1504 29.5484L21.4507 34.641H26.369L24.8327 29.5659C25.2747 29.4213 25.6607 29.1426 25.9368 28.7684C26.2129 28.3942 26.3655 27.9432 26.3733 27.4783Z" fill="#AD561F"/>
<path d="M19.0053 22.7997V21.7341C19.0053 18.7618 21.0384 15.3079 23.6599 15.3079H24.3485C26.9634 15.3079 29.0031 18.7618 29.0031 21.7341V22.7997H31.8054V20.1848C31.7758 18.1378 31.0276 16.1663 29.6917 14.6149C28.2491 12.9239 26.3707 12 24.4051 12H23.6076C21.6464 12 19.7636 12.9305 18.321 14.6149C16.9851 16.1663 16.2369 18.1378 16.2073 20.1848V22.7997H19.0053Z" fill="#616263"/>
<g style="mix-blend-mode:multiply" opacity="0.6">
<path d="M29.6892 14.6105C29.5672 14.4667 29.4408 14.3273 29.3122 14.1943C29.3823 14.3539 29.425 14.524 29.4386 14.6977C29.4509 14.9289 29.4095 15.1597 29.3176 15.3722C29.2257 15.5847 29.0859 15.773 28.9091 15.9224C28.7515 16.0424 28.5634 16.1158 28.3662 16.1343C28.169 16.1528 27.9705 16.1156 27.7934 16.027C27.5339 15.9016 27.2847 15.7558 27.0481 15.5912C26.7678 15.418 26.4715 15.2721 26.1634 15.1553C25.5589 14.9253 24.9186 14.8036 24.2719 14.7958C23.093 14.7644 21.9343 15.1069 20.9618 15.7742C20.0951 16.4234 19.4032 17.2778 18.9483 18.2606C18.6215 18.9383 18.4951 19.7315 17.9939 20.3155C17.9006 20.4441 17.7739 20.5447 17.6276 20.6066C17.4813 20.6684 17.3209 20.6891 17.1636 20.6663C16.9908 20.6307 16.8298 20.5522 16.6953 20.4379C16.5609 20.3237 16.4574 20.1774 16.3944 20.0126C16.3134 19.8031 16.2635 19.5828 16.2462 19.3589C16.2176 19.6296 16.2031 19.9016 16.2026 20.1739V22.7888H19.0028V21.7341C19.0028 18.7618 21.0359 15.3079 23.6574 15.3079H24.346C26.961 15.3079 29.0006 18.7618 29.0006 21.7341V22.7997H31.8052V20.1847C31.7759 18.1359 31.0269 16.1627 29.6892 14.6105Z" fill="#616263"/>
</g>
<path d="M33.9564 23.1288C33.8935 22.966 33.79 22.822 33.6557 22.7105C33.4616 22.5722 33.2376 22.4819 33.002 22.4468H14.9152C14.6741 22.4715 14.4462 22.5688 14.2615 22.7257C14.1154 22.8566 14.0224 23.0364 14 23.2313C14 23.2618 14 23.2988 14 23.338V27.2103C14 42.0458 34 42.4163 34 27.2103V23.3206C33.991 23.2556 33.9764 23.1914 33.9564 23.1288Z" fill="#323535"/>
<path d="M33.549 23.3641C33.4871 23.2128 33.3873 23.08 33.2592 22.9784C33.0738 22.8516 32.8623 22.7682 32.6403 22.7344H15.2705C15.041 22.7572 14.8234 22.8474 14.6451 22.9937C14.5052 23.1118 14.4149 23.2783 14.3923 23.46C14.3923 23.4884 14.3923 23.5232 14.3923 23.5603V27.1318C14.3923 40.8603 33.6035 41.2068 33.6035 27.1318V23.5319C33.5894 23.4748 33.5712 23.4187 33.549 23.3641Z" fill="#77787A"/>
<path d="M22.2984 27.478C22.3117 26.9254 22.5255 26.3965 22.9 25.99C23.2744 25.5834 23.784 25.3269 24.3337 25.2684C24.2274 25.2552 24.1204 25.2487 24.0133 25.2488C22.7059 25.2488 21.6555 26.2468 21.6555 27.478C21.6626 27.9347 21.8098 28.3781 22.0772 28.7483C22.3446 29.1186 22.7192 29.3978 23.1504 29.5482L21.4507 34.6408H22.1044L23.802 29.5482C23.3693 29.399 22.993 29.1203 22.724 28.75C22.455 28.3797 22.3064 27.9356 22.2984 27.478Z" fill="#6C6E6E"/>
<path d="M26.3731 27.4782C26.3592 26.9251 26.1446 26.3959 25.7693 25.9893C25.394 25.5827 24.8837 25.3266 24.3334 25.2686C23.7838 25.3271 23.2742 25.5836 22.8997 25.9901C22.5252 26.3967 22.3114 26.9256 22.2981 27.4782C22.3054 27.9345 22.4524 28.3776 22.7193 28.7477C22.9862 29.1179 23.3602 29.3973 23.7908 29.5484L22.0933 34.641H26.3687L24.8324 29.5658C25.2744 29.4213 25.6604 29.1425 25.9365 28.7683C26.2127 28.3941 26.3653 27.9432 26.3731 27.4782Z" fill="#323535"/>
<path d="M16.5515 19.1302C16.5515 19.1302 17.7457 12.0328 25.1285 12.2965C25.1285 12.2965 18.5716 12.7781 16.5515 19.1302Z" fill="#AAAAAA"/>
<g style="mix-blend-mode:screen">
<path d="M15.6956 23.9088C15.5647 24.2731 15.5772 24.6735 15.7305 25.0289C16.0007 25.5497 18.9992 24.7783 18.9163 24.0679C18.8335 23.3575 16.1445 22.828 15.6956 23.9088Z" fill="#AAAAAA"/>
</g>
<g style="mix-blend-mode:screen">
<path d="M15.6211 26.4345C15.5558 26.7647 15.5625 27.1051 15.6407 27.4325C15.7737 27.8988 17.2598 27.2146 17.2228 26.5761C17.1857 25.9376 15.8456 25.4691 15.6211 26.4345Z" fill="#AAAAAA"/>
</g>
<defs>
<filter id="filter0_i" x="0" y="0" width="52" height="52" filterUnits="userSpaceOnUse" color-interpolation-filters="sRGB">
<feFlood flood-opacity="0" result="BackgroundImageFix"/>
<feBlend mode="normal" in="SourceGraphic" in2="BackgroundImageFix" result="shape"/>
<feColorMatrix in="SourceAlpha" type="matrix" values="0 0 0 0 0 0 0 0 0 0 0 0 0 0 0 0 0 0 127 0" result="hardAlpha"/>
<feOffset dx="4" dy="4"/>
<feGaussianBlur stdDeviation="4.5"/>
<feComposite in2="hardAlpha" operator="arithmetic" k2="-1" k3="1"/>
<feColorMatrix type="matrix" values="0 0 0 0 0.7 0 0 0 0 0.7 0 0 0 0 0.7 0 0 0 0.69 0"/>
<feBlend mode="normal" in2="shape" result="effect1_innerShadow"/>
</filter>
<filter id="filter1_i" x="1" y="1" width="50" height="50" filterUnits="userSpaceOnUse" color-interpolation-filters="sRGB">
<feFlood flood-opacity="0" result="BackgroundImageFix"/>
<feBlend mode="normal" in="SourceGraphic" in2="BackgroundImageFix" result="shape"/>
<feColorMatrix in="SourceAlpha" type="matrix" values="0 0 0 0 0 0 0 0 0 0 0 0 0 0 0 0 0 0 127 0" result="hardAlpha"/>
<feOffset dx="4" dy="4"/>
<feGaussianBlur stdDeviation="4.5"/>
<feComposite in2="hardAlpha" operator="arithmetic" k2="-1" k3="1"/>
<feColorMatrix type="matrix" values="0 0 0 0 0.720833 0 0 0 0 0.720833 0 0 0 0 0.720833 0 0 0 0.69 0"/>
<feBlend mode="normal" in2="shape" result="effect1_innerShadow"/>
</filter>
<filter id="filter2_i" x="2" y="2" width="48" height="48" filterUnits="userSpaceOnUse" color-interpolation-filters="sRGB">
<feFlood flood-opacity="0" result="BackgroundImageFix"/>
<feBlend mode="normal" in="SourceGraphic" in2="BackgroundImageFix" result="shape"/>
<feColorMatrix in="SourceAlpha" type="matrix" values="0 0 0 0 0 0 0 0 0 0 0 0 0 0 0 0 0 0 127 0" result="hardAlpha"/>
<feOffset dx="4" dy="4"/>
<feGaussianBlur stdDeviation="4.5"/>
<feComposite in2="hardAlpha" operator="arithmetic" k2="-1" k3="1"/>
<feColorMatrix type="matrix" values="0 0 0 0 0.745833 0 0 0 0 0.745833 0 0 0 0 0.745833 0 0 0 0.69 0"/>
<feBlend mode="normal" in2="shape" result="effect1_innerShadow"/>
</filter>
<filter id="filter3_i" x="2" y="2" width="48" height="48" filterUnits="userSpaceOnUse" color-interpolation-filters="sRGB">
<feFlood flood-opacity="0" result="BackgroundImageFix"/>
<feBlend mode="normal" in="SourceGraphic" in2="BackgroundImageFix" result="shape"/>
<feColorMatrix in="SourceAlpha" type="matrix" values="0 0 0 0 0 0 0 0 0 0 0 0 0 0 0 0 0 0 127 0" result="hardAlpha"/>
<feOffset dx="4" dy="4"/>
<feGaussianBlur stdDeviation="4.5"/>
<feComposite in2="hardAlpha" operator="arithmetic" k2="-1" k3="1"/>
<feColorMatrix type="matrix" values="0 0 0 0 0.225 0 0 0 0 0.225 0 0 0 0 0.225 0 0 0 0.69 0"/>
<feBlend mode="normal" in2="shape" result="effect1_innerShadow"/>
</filter>
<filter id="filter4_i" x="2" y="2" width="44" height="45" filterUnits="userSpaceOnUse" color-interpolation-filters="sRGB">
<feFlood flood-opacity="0" result="BackgroundImageFix"/>
<feBlend mode="normal" in="SourceGraphic" in2="BackgroundImageFix" result="shape"/>
<feColorMatrix in="SourceAlpha" type="matrix" values="0 0 0 0 0 0 0 0 0 0 0 0 0 0 0 0 0 0 127 0" result="hardAlpha"/>
<feOffset dy="1"/>
<feGaussianBlur stdDeviation="1"/>
<feComposite in2="hardAlpha" operator="arithmetic" k2="-1" k3="1"/>
<feColorMatrix type="matrix" values="0 0 0 0 0.920833 0 0 0 0 0.920833 0 0 0 0 0.920833 0 0 0 1 0"/>
<feBlend mode="normal" in2="shape" result="effect1_innerShadow"/>
</filter>
<filter id="filter5_i" x="2" y="2" width="44" height="29.6376" filterUnits="userSpaceOnUse" color-interpolation-filters="sRGB">
<feFlood flood-opacity="0" result="BackgroundImageFix"/>
<feBlend mode="normal" in="SourceGraphic" in2="BackgroundImageFix" result="shape"/>
<feColorMatrix in="SourceAlpha" type="matrix" values="0 0 0 0 0 0 0 0 0 0 0 0 0 0 0 0 0 0 127 0" result="hardAlpha"/>
<feOffset dy="1"/>
<feGaussianBlur stdDeviation="1"/>
<feComposite in2="hardAlpha" operator="arithmetic" k2="-1" k3="1"/>
<feColorMatrix type="matrix" values="0 0 0 0 0.795833 0 0 0 0 0.795833 0 0 0 0 0.795833 0 0 0 1 0"/>
<feBlend mode="normal" in2="shape" result="effect1_innerShadow"/>
</filter>
<linearGradient id="paint0_linear" x1="2" y1="-1.94872" x2="23.0639" y2="46.4078" gradientUnits="userSpaceOnUse">
<stop stop-color="#525252"/>
<stop offset="1" stop-color="#3C3C3C"/>
</linearGradient>
<linearGradient id="paint1_linear" x1="2" y1="-1.94872" x2="23.0639" y2="46.4078" gradientUnits="userSpaceOnUse">
<stop stop-color="#C4C4C4"/>
<stop offset="1" stop-color="#403B3B"/>
</linearGradient>
<linearGradient id="paint2_linear" x1="2" y1="-1.94872" x2="23.0639" y2="46.4078" gradientUnits="userSpaceOnUse">
<stop stop-color="#949494"/>
<stop offset="1" stop-color="#444444"/>
</linearGradient>
<linearGradient id="paint3_linear" x1="2" y1="-1.94872" x2="23.0639" y2="46.4078" gradientUnits="userSpaceOnUse">
<stop stop-color="#B3B3B3"/>
<stop offset="1" stop-color="#343434"/>
</linearGradient>
<radialGradient id="paint4_radial" cx="0" cy="0" r="1" gradientUnits="userSpaceOnUse" gradientTransform="translate(23.9896 27.1138) rotate(92.234) scale(68.6386 68.0545)">
<stop stop-color="#B9B9B9"/>
<stop offset="1" stop-color="#3E3E3E"/>
</radialGradient>
<linearGradient id="paint5_linear" x1="24" y1="2" x2="24" y2="46" gradientUnits="userSpaceOnUse">
<stop stop-color="#CFCFCF"/>
<stop offset="1" stop-color="#989898"/>
</linearGradient>
<linearGradient id="paint6_linear" x1="24" y1="2" x2="24" y2="44.8318" gradientUnits="userSpaceOnUse">
<stop stop-color="#DFDFDF"/>
<stop offset="1" stop-color="#E3E3E3" stop-opacity="0.15"/>
</linearGradient>
<linearGradient id="paint7_linear" x1="13.0468" y1="4.74257" x2="30.2719" y2="5.83919" gradientUnits="userSpaceOnUse">
<stop stop-color="#DFDFDF"/>
<stop offset="1" stop-color="white" stop-opacity="0"/>
</linearGradient>
<linearGradient id="paint8_linear" x1="11.5103" y1="9.25778" x2="16.3132" y2="6.25748" gradientUnits="userSpaceOnUse">
<stop stop-color="white"/>
<stop offset="1" stop-color="white"/>
</linearGradient>
</defs>
</svg>
