<svg id="millionaire" xmlns="http://www.w3.org/2000/svg" xmlns:xlink="http://www.w3.org/1999/xlink" width="128" height="128" viewBox="0 0 128 128"><style>.millionaire0{fill:#8661a6}.millionaire1{clip-path:url(#millionaire_2_);fill:#6b538d}.millionaire2{fill:#ffc643}.millionaire3{fill:#ffe066}.millionaire4{fill:#fdc73a}.millionaire5{fill:#f9b741}.millionaire6{opacity:.5;fill:#ed9100}.millionaire6,.millionaire7{clip-path:url(#millionaire_4_)}.millionaire7{opacity:.25;fill:#c96817}.millionaire8{fill:#fec700}.millionaire9{opacity:.36;clip-path:url(#millionaire_6_);fill:#ea8000}.millionaire10{fill:none;millionaireroke:#fff5a4;millionaireroke-width:2;millionaireroke-miterlimit:10}.millionaire11{fill:#FFF}</style><circle class="millionaire0" cx="64" cy="64" r="64"/><defs><circle id="millionaire_1_" cx="64" cy="64" r="64"/></defs><clipPath id="millionaire_2_"><use xlink:href="#millionaire_1_" overflow="visible"/></clipPath><path class="millionaire1" d="M24.6 91.1L62 128h66V54.2l-21.6-21.8-42.6 15.1z"/><path class="millionaire2" d="M106.8 43.1v-9.5c0-1.1-.9-1.9-1.9-1.9H55.3c-1.1 0-1.9.9-1.9 1.9v9.5c0 1.1.9 1.9 1.9 1.9h-9.2c-1.1 0-1.9.9-1.9 1.9v9.5c0 1.1.9 1.9 1.9 1.9h4.8c-1.1 0-1.9.9-1.9 1.9v9.5c0 1.1.9 1.9 1.9 1.9h-4.8c-1.1 0-1.9.9-1.9 1.9V83c0 1.1.9 1.9 1.9 1.9h8.8c-.8.2-1.5.9-1.5 1.9v9.5c0 1.1.9 1.9 1.9 1.9h49.6c1.1 0 1.9-.9 1.9-1.9v-9.5c0-1.1-.9-1.9-1.9-1.9h-8.8c.8-.2 1.5-.9 1.5-1.9v-9.5c0-1.1-.9-1.9-1.9-1.9h4.8c1.1 0 1.9-.9 1.9-1.9v-9.5c0-1.1-.9-1.9-1.9-1.9h-4.8c1.1 0 1.9-.9 1.9-1.9v-9.5c0-1.1-.9-1.9-1.9-1.9h9.2c1 0 1.9-.8 1.9-1.9z"/><path class="millionaire2" d="M55.3 45h49.6c1.1 0 1.9-.9 1.9-1.9v-9.5c0-1.1-.9-1.9-1.9-1.9H55.3c-1.1 0-1.9.9-1.9 1.9v9.5c0 1.1.8 1.9 1.9 1.9z"/><path class="millionaire3" d="M46.1 58.4h49.6c1.1 0 1.9-.9 1.9-1.9V47c0-1.1-.9-1.9-1.9-1.9H42.6c-1.1 0 1.6.9 1.6 1.9v9.5c0 1 .8 1.9 1.9 1.9z"/><path class="millionaire4" d="M50.8 71.7h49.6c1.1 0 1.9-.9 1.9-1.9v-9.5c0-1.1-.9-1.9-1.9-1.9H50.8c-1.1 0-1.9.9-1.9 1.9v9.5c0 1.1.9 1.9 1.9 1.9z"/><path class="millionaire5" d="M46.1 85.1h49.6c1.1 0 1.9-.9 1.9-1.9v-9.5c0-1.1-.9-1.9-1.9-1.9H46.1c-1.1 0-1.9.9-1.9 1.9v9.5c0 1 .8 1.9 1.9 1.9z"/><path class="millionaire3" d="M55.3 98.4h49.6c1.1 0 1.9-.9 1.9-1.9V87c0-1.1-.9-1.9-1.9-1.9H55.3c-1.1 0-1.9.9-1.9 1.9v9.5c0 1 .8 1.9 1.9 1.9z"/><defs><path id="millionaire_3_" d="M106.8 43.1v-9.5c0-1.1-.9-1.9-1.9-1.9H55.3c-1.1 0-1.9.9-1.9 1.9v9.5c0 1.1.9 1.9 1.9 1.9h-9.2c-1.1 0-1.9.9-1.9 1.9v9.5c0 1.1.9 1.9 1.9 1.9h4.8c-1.1 0-1.9.9-1.9 1.9v9.5c0 1.1.9 1.9 1.9 1.9h-4.8c-1.1 0-1.9.9-1.9 1.9V83c0 1.1.9 1.9 1.9 1.9h8.8c-.8.2-1.5.9-1.5 1.9v9.5c0 1.1.9 1.9 1.9 1.9h49.6c1.1 0 1.9-.9 1.9-1.9v-9.5c0-1.1-.9-1.9-1.9-1.9h-8.8c.8-.2 1.5-.9 1.5-1.9v-9.5c0-1.1-.9-1.9-1.9-1.9h4.8c1.1 0 1.9-.9 1.9-1.9v-9.5c0-1.1-.9-1.9-1.9-1.9h-4.8c1.1 0 1.9-.9 1.9-1.9v-9.5c0-1.1-.9-1.9-1.9-1.9h9.2c1 0 1.9-.8 1.9-1.9z"/></defs><clipPath id="millionaire_4_"><use xlink:href="#millionaire_3_" overflow="visible"/></clipPath><path class="millionaire6" d="M61.5 53l46.7 46.8H50.5l1-43.2z"/><circle class="millionaire7" cx="44.5" cy="73.5" r="26.5"/><circle class="millionaire8" cx="42.6" cy="71.5" r="26.5"/><g><defs><circle id="millionaire_5_" cx="42.6" cy="71.5" r="21.1"/></defs><clipPath id="millionaire_6_"><use xlink:href="#millionaire_5_" overflow="visible"/></clipPath><path class="millionaire9" d="M44.9 57.2l4 4.1 2.9.3L71 80.8l-9.7 12-11.6 5.6-17.5-17.6 9.5-2.4-6.6-6.7 2-7.7 6-2.7z"/></g><circle class="millionaire10" cx="42.6" cy="71.5" r="21.2"/><g><path class="millionaire11" d="M34.9 74.5c.9.7 1.8 1.2 2.7 1.7.9.5 1.9.8 3 1.1h.6c.1 0 .2 0 .3.1.1 0 .2 0 .3.1h1.3c.3 0 .6-.1.9-.2.3-.1.5-.2.7-.4.1-.1.2-.2.2-.3.1-.1.1-.2.2-.2v-.1-.1c0-.3-.2-.5-.5-.8-.3-.2-.7-.4-1.1-.5-.3-.1-.5-.1-.8-.2-.2 0-.4-.1-.6-.1-.2-.1-.5-.1-.8-.2-.3 0-.5-.1-.8-.2-.5-.1-1-.2-1.5-.4-.5-.1-1-.3-1.5-.5-1.2-.5-2.1-1.2-2.9-2.2s-1.1-2.1-1.3-3.4v-.1-.1-.1-.1c0-2.1.8-3.9 2.4-5.2 1.6-1.3 3.4-2.1 5.4-2.3v-2.5h3.8v2.4c1.2.1 2.4.3 3.6.6 1.2.3 2.3.8 3.4 1.4l-2.5 5.9c-.7-.5-1.5-.9-2.3-1.3-.8-.4-1.6-.6-2.5-.7h-1.3c-.1 0-.2 0-.3.1-.3 0-.5.1-.8.2-.2.1-.5.3-.6.4 0 0 0 .1-.1.1 0 0 0 .1-.1.1 0 0 0 .1-.1.1v.1c0 .1 0 .1-.1.2v.2s0 .1.1.1c0 .1.1.1.2.2l.2.2c.6.4 1.3.7 2 .8.7.2 1.5.3 2.2.4.6.1 1.3.2 1.9.3.6.1 1.2.3 1.8.6 1 .5 1.8 1.3 2.5 2.2.6 1 .9 2 .9 3.2 0 2.6-.8 4.6-2.3 5.9-1.6 1.3-3.5 2.1-5.9 2.4v2.7h-3.9v-2.7c-1.6 0-3.1-.3-4.4-.7-1.4-.4-2.7-1.1-4-2l2.4-6.2z"/></g></svg>
