<svg id="moneybags_svg" xmlns="http://www.w3.org/2000/svg" xmlns:xlink="http://www.w3.org/1999/xlink" width="128" height="128" viewBox="0 0 128 128">
<style>.moneybags0{fill:#009245}.moneybags1{opacity:.73;clip-path:url(#moneybags_2_);fill:#007035}.moneybags2{fill:#ffecab}.moneybags3{fill:#fff6d9}.moneybags4{fill:#f0d792}.moneybags5{fill:#fec700}.moneybags6{opacity:.36;clip-path:url(#moneybags_4_);fill:#ea8000}.moneybags7{fill:#FFF}.moneybags8{fill:#78ba20}.moneybags9{fill:#5c990b}</style>
<circle class="moneybags0" cx="64" cy="64" r="64"/>
<defs><circle id="moneybags_1_" cx="64" cy="64" r="64"/></defs>
<clipPath id="moneybags_2_"><use xlink:href="#moneybags_1_" overflow="visible"/></clipPath>
<path class="moneybags1" d="M28.2 102.5L53.7 128H128V66.2L77.6 16 60.8 34.3z"/>
<path class="moneybags2" d="M100.2 99.3L96.9 91c1.8-3.8 2.5-8.3 1.6-12.8L94.8 58C92.6 45.4 81.7 36.3 69 36.3H58.6c-12.7 0-23.5 9.1-25.8 21.5L29.1 78c-.8 4.6-.1 9 1.6 12.8l-3.3 8.3c-.8 2 .7 4.1 2.8 4.1.4 0 .7-.1 1-.2l7.8-2.9c3.2 2 7 3.1 11.1 3.1h27.1c4.1 0 7.9-1.1 11.1-3.1l7.8 2.9c.3.1.7.2 1 .2 2.4.1 3.8-2 3.1-3.9z"/>
<path class="moneybags3" d="M32.8 57.9l-3.7 20.2c-.8 4.6-.1 9 1.6 12.8l-3.3 8.3c-.8 2 .7 4.1 2.8 4.1.4 0 .7-.1 1-.2l1.5-.6c-.9-.8-1.3-2.1-.8-3.3l3.3-8.3c-1.8-3.8-2.5-8.3-1.6-12.8l3.7-20.2a26.17 26.17 0 0 1 25.8-21.5h-4.5c-12.7-.1-23.5 9-25.8 21.5z"/>
<path class="moneybags4" d="M94.8 57.9l3.7 20.2c.8 4.6.1 9-1.6 12.8l3.3 8.3c.8 2-.7 4.1-2.8 4.1-.4 0-.7-.1-1-.2l-1.5-.6c.9-.8 1.3-2.1.8-3.3l-3.3-8.3c1.8-3.8 2.5-8.3 1.6-12.8l-3.7-20.2a26.17 26.17 0 0 0-25.8-21.5H69c12.7-.1 23.6 9 25.8 21.5z"/><circle class="moneybags5" cx="63.8" cy="75.1" r="19.5"/>
<defs><circle id="moneybags_3_" cx="63.8" cy="75.1" r="19.5"/></defs>
<clipPath id="moneybags_4_"><use xlink:href="#moneybags_3_" overflow="visible"/></clipPath>
<path class="moneybags6" d="M66 61.9l3.7 3.7 2.7.3 17.8 17.7-9.1 11.1-10.7 5.2-16.1-16.2 8.8-2.3-6.2-6.1 1.9-7.1 5.5-2.6z"/>
<g>
  <path class="moneybags7" d="M56.7 77.8c.8.6 1.7 1.1 2.5 1.6.9.5 1.8.8 2.8 1h.5c.1 0 .2 0 .3.1.1 0 .2 0 .2.1h1c.3 0 .5-.1.8-.2.3-.1.5-.2.6-.4.1-.1.2-.2.2-.3.1-.1.1-.2.2-.2v-.1-.1c0-.3-.1-.5-.4-.7-.3-.2-.6-.4-1-.5-.2-.1-.5-.1-.7-.2-.2 0-.4-.1-.5-.1-.2-.1-.5-.1-.7-.2-.3 0-.5-.1-.7-.2-.5-.1-1-.2-1.4-.3s-.9-.3-1.4-.5c-1.1-.5-2-1.1-2.6-2.1s-1.1-2-1.2-3.2v-.1-.1-.1-.1c0-2 .7-3.6 2.2-4.8 1.5-1.2 3.1-2 5-2.2v-2.3h3.5v2.2c1.1.1 2.2.2 3.3.5 1.1.3 2.1.7 3.1 1.3L70 71.4l-2.1-1.2c-.7-.3-1.5-.6-2.3-.6h-1.3c-.1 0-.2 0-.3.1-.2 0-.5.1-.7.2-.2.1-.4.2-.6.4 0 0 0 .1-.1.1 0 0 0 .1-.1.1 0 0 0 .1-.1.1v.1c0 .1 0 .1-.1.2v.2s0 .1.1.1c0 .1.1.1.2.2l.2.2c.6.4 1.2.6 1.9.8.7.1 1.4.3 2.1.4l1.8.3c.6.1 1.1.3 1.6.5 1 .5 1.7 1.2 2.3 2.1.6.9.8 1.9.8 2.9 0 2.4-.7 4.2-2.2 5.4-1.4 1.2-3.3 1.9-5.5 2.2v2.4H62v-2.4c-1.4 0-2.8-.3-4.1-.7-1.3-.4-2.5-1-3.7-1.8l2.5-5.9z"/>
</g>
<path class="moneybags2" d="M77.6 16c-1.1-1.4-3-1.9-4.7-1.2-1.5.6-4.6 1.6-9.1 1.6-4.1 0-7.5-1.1-9.1-1.7-1.4-.5-2.9-.3-4 .6-1.4 1.3-2 3.4-1 5.3L56 33.4h15.7L78 20.7c.8-1.6.6-3.4-.4-4.7z"/>
<path class="moneybags3" d="M55.5 15.4c.1-.1.2-.2.3-.2-.4-.1-.8-.3-1.1-.4-1.4-.5-2.9-.3-4 .6-1.4 1.3-2 3.4-1 5.3L56 33.4h4.9l-6.4-12.7c-1-1.9-.4-4.1 1-5.3z"/>
<path class="moneybags4" d="M72.1 15.4c-.1-.1-.2-.2-.3-.2.4-.1.8-.3 1.1-.4 1.4-.5 2.9-.3 4 .6 1.4 1.3 2 3.4 1 5.3l-6.4 12.7h-4.9L73 20.7c1.1-1.9.5-4.1-.9-5.3z"/>
<path class="moneybags8" d="M77.8 48.3L73 36.9h1.4c1.3 0 2.3-1 2.3-2.3s-1-2.3-2.3-2.3H53.3c-1.3 0-2.3 1-2.3 2.3s1 2.3 2.3 2.3h12.8L62 43.8c-.7 1.1-.3 2.5.8 3.2.4.2.8.3 1.2.3.8 0 1.6-.4 2-1.1l3.4-5.7 4.1 9.7c.4.9 1.2 1.4 2.1 1.4.3 0 .6-.1.9-.2 1.3-.5 1.8-1.9 1.3-3.1z"/>
<path class="moneybags9" d="M73 36.9h-6.9l8.6 4.1z"/>
</svg>
