<svg xmlns="http://www.w3.org/2000/svg" xmlns:xlink="http://www.w3.org/1999/xlink" width="128" height="128" viewBox="0 0 128 128"><circle fill="#3AC0C3" cx="64" cy="64" r="64"/><defs><circle id="a" cx="64" cy="64" r="64"/></defs><clipPath id="b"><use xlink:href="#a" overflow="visible"/></clipPath><path clip-path="url(#b)" fill="#00A9B0" d="M51 54.85l12.575 12.575V70h-21.95l-4.75 2.375L36 78l-.625 4-9.71 15.48L56.184 128H128V78L77.854 28z"/><path fill="#FFF" d="M86 68H66V54h-4v14H42c-4.41 0-8 3.59-8 8v13h4V76c0-2.206 1.794-4 4-4h20v17h4V72h20c2.206 0 4 1.794 4 4v13h4V76c0-4.41-3.59-8-8-8z"/><path fill="#364558" d="M45 98H27a2 2 0 0 1-2-2V82a2 2 0 0 1 2-2h18a2 2 0 0 1 2 2v14a2 2 0 0 1-2 2zM73 98H55a2 2 0 0 1-2-2V82a2 2 0 0 1 2-2h18a2 2 0 0 1 2 2v14a2 2 0 0 1-2 2zM101 98H83a2 2 0 0 1-2-2V82a2 2 0 0 1 2-2h18a2 2 0 0 1 2 2v14a2 2 0 0 1-2 2z"/><circle fill="#364558" cx="64" cy="41" r="19"/><circle fill="#F3C616" cx="64" cy="41" r="13"/><defs><circle id="c" cx="64" cy="41" r="13"/></defs><clipPath id="d"><use xlink:href="#c" overflow="visible"/></clipPath><path clip-path="url(#d)" fill="#E19D26" d="M56.032 39.723l4.92 4.92-1.968 3.68 6.44 6.44 7.95-2.42 4.032-6.78.253-1.477-5.83-5.79-1.518.392-5.527-5.49-2.035 6.427z"/><path fill="#FFF" d="M65.003 33.58l1.2 3.697c.147.45.565.752 1.036.752h3.886c1.022 0 1.447 1.307.62 1.908L68.6 42.223c-.38.277-.54.77-.394 1.217l1.2 3.697c.317.972-.796 1.78-1.623 1.18l-3.145-2.285a1.09 1.09 0 0 0-1.28 0l-3.145 2.285c-.827.6-1.94-.208-1.624-1.18l1.2-3.697c.146-.45-.014-.94-.395-1.217l-3.145-2.285c-.827-.6-.402-1.91.62-1.91h3.887c.472 0 .89-.303 1.035-.75l1.2-3.698c.32-.972 1.696-.972 2.01 0z"/><defs><path id="e" d="M45 98H27a2 2 0 0 1-2-2V82a2 2 0 0 1 2-2h18a2 2 0 0 1 2 2v14a2 2 0 0 1-2 2z"/></defs><clipPath id="f"><use xlink:href="#e" overflow="visible"/></clipPath><path clip-path="url(#f)" fill="#2B3849" d="M29.238 85.64l3.108 3.108-3.002 1 3.002 3.003-3.015.99 4.81 4.808h13.14v-9.69l-4.55-4.54z"/><defs><path id="g" d="M73 98H55a2 2 0 0 1-2-2V82a2 2 0 0 1 2-2h18a2 2 0 0 1 2 2v14a2 2 0 0 1-2 2z"/></defs><clipPath id="h"><use xlink:href="#g" overflow="visible"/></clipPath><path clip-path="url(#h)" fill="#2B3849" d="M57.238 85.64l3.108 3.108-3.002 1 3.002 3.003-3.015.99 4.81 4.808h13.14v-9.69l-4.55-4.54z"/><defs><path id="i" d="M101 98H83a2 2 0 0 1-2-2V82a2 2 0 0 1 2-2h18a2 2 0 0 1 2 2v14a2 2 0 0 1-2 2z"/></defs><clipPath id="j"><use xlink:href="#i" overflow="visible"/></clipPath><path clip-path="url(#j)" fill="#2B3849" d="M85.238 85.64l3.108 3.108-3.002 1 3.002 3.003-3.015.99 4.81 4.808h13.14v-9.69l-4.55-4.54z"/><path fill="#A3DCE8" d="M42 86H30a1 1 0 0 1 0-2h12a1 1 0 0 1 0 2zM42 90H30a1 1 0 0 1 0-2h12a1 1 0 0 1 0 2zM42 94H30a1 1 0 0 1 0-2h12a1 1 0 0 1 0 2zM70 86H58a1 1 0 0 1 0-2h12a1 1 0 0 1 0 2zM70 90H58a1 1 0 0 1 0-2h12a1 1 0 0 1 0 2zM70 94H58a1 1 0 0 1 0-2h12a1 1 0 0 1 0 2zM98 86H86a1 1 0 0 1 0-2h12a1 1 0 0 1 0 2zM98 90H86a1 1 0 0 1 0-2h12a1 1 0 0 1 0 2zM98 94H86a1 1 0 0 1 0-2h12a1 1 0 0 1 0 2z"/></svg>