<svg width="40" height="40" viewBox="0 0 40 40" fill="none" xmlns="http://www.w3.org/2000/svg">
<g clip-path="url(#regular)">
<path d="M20 40C31.0457 40 40 31.0457 40 20C40 8.9543 31.0457 0 20 0C8.9543 0 0 8.9543 0 20C0 31.0457 8.9543 40 20 40Z" fill="#32BA7C"/>
<path d="M14.8896 29.0221L25.1736 39.306C33.6909 37.0347 40.0001 29.2745 40.0001 20C40.0001 19.8108 40.0001 19.6215 40.0001 19.4322L31.9244 11.9874L14.8896 29.0221Z" fill="#0AA06E"/>
<g clip-path="url(#clip1)">
<path d="M32.2096 12.1597C31.6029 11.553 30.7964 11.219 29.9383 11.219C29.0804 11.219 28.2739 11.553 27.6672 12.1597L16.8107 23.0162L12.2911 18.4965C11.6845 17.89 10.8779 17.5558 10.02 17.5558C9.16205 17.5558 8.35558 17.89 7.74887 18.4965C6.49647 19.7489 6.49647 21.7865 7.74887 23.0389L14.5396 29.8296C15.1461 30.4363 15.9528 30.7703 16.8107 30.7703C17.6686 30.7703 18.4753 30.4363 19.0818 29.8296L32.2096 16.7021C32.8161 16.0954 33.1503 15.2887 33.1503 14.4308C33.1503 13.5729 32.8161 12.7662 32.2096 12.1597V12.1597Z" fill="#FFF261"/>
<path d="M18.6429 13.8715C17.9805 13.6239 17.3917 13.2451 16.8917 12.7445C16.3927 12.2459 16.0139 11.6571 15.7661 10.9939C15.6515 10.6877 15.3589 10.4845 15.0318 10.4845C14.7046 10.4845 14.4118 10.6877 14.2972 10.9941C14.0497 11.6569 13.6708 12.2459 13.171 12.7451C12.6716 13.2449 12.0826 13.6239 11.42 13.8713C11.1136 13.9859 10.9102 14.2787 10.9104 14.6061C10.9104 14.9334 11.114 15.2262 11.4206 15.3406C12.0816 15.5868 12.6706 15.9656 13.1714 16.4662C13.671 16.966 14.0501 17.555 14.2972 18.217C14.4118 18.5234 14.7046 18.7266 15.0318 18.7266C15.3589 18.7266 15.6515 18.5234 15.7661 18.217C16.2637 16.8854 17.3123 15.837 18.6427 15.3402C18.9491 15.2258 19.1523 14.933 19.1525 14.6059C19.1525 14.2789 18.9493 13.9861 18.6429 13.8715Z" fill="#FFF261"/>
<path d="M24.988 9.82456C24.4889 9.63807 24.0451 9.3525 23.6681 8.97509C23.2919 8.59929 23.0065 8.15536 22.8197 7.65576C22.7053 7.34929 22.4125 7.14612 22.0853 7.14612C21.7582 7.14612 21.4656 7.34929 21.351 7.65556C21.1641 8.15536 20.8787 8.59929 20.5019 8.97569C20.1255 9.3525 19.6814 9.63807 19.1822 9.82456C18.8755 9.93911 18.6724 10.2319 18.6724 10.5593C18.6726 10.8867 18.8761 11.1795 19.1828 11.2936C19.6808 11.4791 20.1247 11.7647 20.5021 12.1421C20.8789 12.5187 21.1645 12.9628 21.351 13.4618C21.4654 13.7683 21.7582 13.9712 22.0853 13.9712C22.4125 13.9712 22.7051 13.7683 22.8197 13.4618C23.1949 12.458 23.985 11.6678 24.9878 11.2934C25.2943 11.1791 25.4975 10.8863 25.4977 10.5591C25.4977 10.2319 25.2945 9.93911 24.988 9.82456V9.82456Z" fill="#FFF261"/>
<path d="M29.9384 11.219C29.0805 11.219 28.274 11.553 27.6673 12.1597L19.9792 19.8478V28.9325L32.2097 16.7019C32.8162 16.0954 33.1504 15.2887 33.1504 14.4308C33.1504 13.5729 32.8162 12.7662 32.2097 12.1595C31.603 11.553 30.7965 11.219 29.9384 11.219Z" fill="#FDBF00"/>
<path d="M18.643 13.8715C17.9806 13.624 17.3918 13.2451 16.8918 12.7445C16.3928 12.2459 16.014 11.6571 15.7662 10.9939C15.6517 10.6877 15.3591 10.4845 15.0319 10.4845C15.0317 10.4845 15.0317 10.4845 15.0315 10.4845V18.7264H15.0319C15.3591 18.7264 15.6517 18.5234 15.7662 18.217C16.2638 16.8854 17.3124 15.8368 18.6428 15.3402C18.9493 15.2258 19.1525 14.933 19.1527 14.6059C19.1527 14.2789 18.9495 13.9861 18.643 13.8715Z" fill="#FDBF00"/>
<path d="M24.9881 9.82456C24.4889 9.63807 24.0452 9.3525 23.6682 8.97509C23.292 8.59929 23.0066 8.15536 22.8197 7.65576C22.7054 7.34929 22.4126 7.14612 22.0854 7.14612C22.0852 7.14612 22.0852 7.14612 22.0852 7.14612V13.9712H22.0854C22.4126 13.9712 22.7052 13.7683 22.8197 13.4618C23.1949 12.458 23.9851 11.6678 24.9879 11.2934C25.2944 11.1791 25.4976 10.8863 25.4978 10.5591C25.4978 10.2319 25.2946 9.93911 24.9881 9.82456V9.82456Z" fill="#FDBF00"/>
</g>
</g>
<defs>
<clipPath id="regular">
<rect width="40" height="40" fill="white"/>
</clipPath>
<clipPath id="clip1">
<rect x="6.86108" y="5.75708" width="26.3407" height="26.3407" fill="white"/>
</clipPath>
</defs>
</svg>
