<svg id="runner_up" xmlns="http://www.w3.org/2000/svg" xmlns:xlink="http://www.w3.org/1999/xlink" width="128" height="128" viewBox="0 0 128 128"><style>.runner_up0{fill:#48525f}.runner_up1{clip-path:url(#runner_up_2_)}.runner_up2{opacity:.3;fill:#262d33}.runner_up3{fill:#ffe078}.runner_up4{fill:#ffcd03}.runner_up5{fill:#fbb116}.runner_up6{fill:#f7971d}.runner_up7{fill:#eb8623}.runner_up8{clip-path:url(#runner_up_6_);fill:#fbb116}.runner_up9{fill:#FFF}.runner_up10{clip-path:url(#runner_up_8_)}.runner_up11{fill:#54889f}.runner_up12{opacity:.3;clip-path:url(#runner_up_10_);fill:#184562}.runner_up13{fill:#a0bec7}.runner_up14{fill:#e6e5db}.runner_up15{fill:#f1f3ba}</style><circle class="runner_up0" cx="64" cy="64" r="64"/><defs><circle id="runner_up_1_" cx="64" cy="64" r="64"/></defs><clipPath id="runner_up_2_"><use xlink:href="#runner_up_1_" overflow="visible"/></clipPath><g class="runner_up1"><path class="runner_up2" d="M103.9 30.8L128 55v73H79l.1-24H65V69l-20-6.2-11.3-7-5.7-14V33h48z"/><path class="runner_up2" d="M89.6 26.5L128 64.9V128H84.2l-4.1-27H65V69l-20-6.2-11.3-7-5.7-14V33h48z"/><path class="runner_up2" d="M87.8 104l24.2 24H86v-24z"/></g><path class="runner_up3" d="M76.1 69.4c-1.4 0-2.6-1-2.9-2.4-.4-1.6.7-3.2 2.3-3.6.1 0 12.7-2.9 18.7-10.8C98.3 47.2 99 40 99 36H84c-1.7 0-3-1.3-3-3s1.3-3 3-3h17.9c1.5 0 2.8 1.1 3 2.7.1.6 1.5 14-5.9 23.7-7.3 9.6-21.6 12.9-22.2 13h-.7zM54 69.4c1.4 0 2.6-1 2.9-2.4.4-1.6-.7-3.2-2.3-3.6-.1 0-12.7-2.9-18.7-10.8-4.1-5.4-4.8-12.6-4.8-16.6h15c1.7 0 3-1.3 3-3s-1.3-3-3-3H28.2c-1.5 0-2.8 1.1-3 2.7-.1.6-1.5 14 5.9 23.7 7.3 9.6 21.6 12.9 22.2 13h.7z"/><path class="runner_up4" d="M79.1 66.5L65 71.4l-14.1-4.9s10.7 5.3 10.7 15S59.7 95 59.7 95h10.6s-1.9-3.7-1.9-13.5c0-9.7 10.7-15 10.7-15z"/><path class="runner_up5" d="M79.1 66.5L65 71.4V95h5.3s-1.9-3.7-1.9-13.5c0-9.7 10.7-15 10.7-15z"/><path class="runner_up5" d="M74 92H56c-2.8 0-5 2-5 5h28c0-3-2.2-5-5-5z"/><path class="runner_up6" d="M79 97H51c-3.3 0-6 2.7-6 6v1h40v-1c0-3.3-2.7-6-6-6zM74 92h-6c2.8 0 5 2 5 5h6c0-3-2.2-5-5-5z"/><path class="runner_up7" d="M79 97h-6c3.3 0 6 2.7 6 6v1h6v-1c0-3.3-2.7-6-6-6z"/><defs><path id="runner_up_3_" d="M79.1 66.5L65 71.4l-14.1-4.9s10.7 5.3 10.7 15S59.7 95 59.7 95h10.6s-1.9-3.7-1.9-13.5c0-9.7 10.7-15 10.7-15z"/></defs><clipPath id="runner_up_4_"><use xlink:href="#runner_up_3_" overflow="visible"/></clipPath><path class="runner_up4" d="M90.3 27.9c0-1.1-.9-1.9-2-1.9H41.7c-1.1 0-2 .8-2 1.9-.1 6.2.1 23 6.9 34C54.1 74 63.4 75.2 64.8 75.4h.4c1.4-.1 10.7-1.4 18.2-13.5 6.8-11 7-27.8 6.9-34z"/><path class="runner_up5" d="M90.3 27.9c0-1.1-.9-1.9-2-1.9h-7.7c.1 8 .9 26.1-5.6 38.5-2.5 4.7-6.8 8.5-9.3 10.8 2.4-.3 10.8-2.3 17.7-13.4 6.8-11 7-27.8 6.9-34z"/><defs><path id="runner_up_5_" d="M90.3 27.9c0-1.1-.9-1.9-2-1.9H41.7c-1.1 0-2 .8-2 1.9-.1 6.2.1 23 6.9 34C54.1 74 63.4 75.2 64.8 75.4h.4c1.4-.1 10.7-1.4 18.2-13.5 6.8-11 7-27.8 6.9-34z"/></defs><clipPath id="runner_up_6_"><use xlink:href="#runner_up_5_" overflow="visible"/></clipPath><path class="runner_up8" d="M66.4 37.8l8.4 8.3 2.1-.2 11.4 11.4-14 16.8-15.5-15.6 4-10.5z"/><g><path class="runner_up9" d="M95.9 69.9l2.5 6.5.3 7-2.7-6.5z"/><path class="runner_up9" d="M90.4 78l6.5-2.6 7-.3-6.5 2.8z"/><path class="runner_up9" d="M99.6 73.1l-1.7 4-2.9 3.2 1.6-4.1z"/><path class="runner_up9" d="M93.7 74.3l3.9 1.7 3.2 2.9-4-1.6zM34.2 72.3l-.1 7-2.4 6.6-.1-7.1z"/><path class="runner_up9" d="M26.1 77.7l7 .1 6.5 2.4-7 .1z"/><path class="runner_up9" d="M36.4 76.7l-3.1 3-3.9 1.8 3-3.1z"/><path class="runner_up9" d="M30.5 75.5l3 3.1 1.8 3.9-3.1-3z"/><g><path class="runner_up9" d="M112.2 57l.5 3.2-.5 3.3-.6-3.3z"/><path class="runner_up9" d="M108.9 60.2l3.3-.6 3.2.6-3.2.6z"/><path class="runner_up9" d="M113.6 58.8l-1.2 1.7-1.6 1.2 1.1-1.7z"/><path class="runner_up9" d="M110.8 58.8l1.6 1.2 1.2 1.6-1.7-1.1z"/></g><g><path class="runner_up9" d="M103.8 92.8l.5 3.3-.5 3.3-.7-3.3z"/><path class="runner_up9" d="M100.4 96l3.3-.5 3.3.5-3.3.7z"/><path class="runner_up9" d="M105.2 94.7l-1.2 1.6-1.7 1.2 1.2-1.7z"/><path class="runner_up9" d="M102.3 94.6l1.7 1.2 1.2 1.7-1.7-1.2z"/></g><g><path class="runner_up9" d="M15 54.8l.6 3.8-.6 3.7-.8-3.7z"/><path class="runner_up9" d="M11.2 58.5l3.7-.6 3.8.6-3.8.7z"/><path class="runner_up9" d="M16.6 56.9l-1.4 2-1.9 1.3 1.3-1.9z"/><path class="runner_up9" d="M13.3 56.9l1.9 1.4 1.4 1.9-2-1.3z"/></g><g><path class="runner_up9" d="M32.9 99.1l-.9 3.2-1.9 2.7.8-3.2z"/><path class="runner_up9" d="M28.5 100.6l3.2.9 2.7 1.9-3.2-.8z"/><path class="runner_up9" d="M33.3 101.4l-1.7 1-2 .4 1.7-1.1z"/><path class="runner_up9" d="M30.8 100.2l1 1.7.4 2-1.1-1.7z"/></g></g><g><defs><circle id="runner_up_7_" cx="64" cy="64" r="64"/></defs><clipPath id="runner_up_8_"><use xlink:href="#runner_up_7_" overflow="visible"/></clipPath><g class="runner_up10"><path class="runner_up11" d="M65 104H42v24h46v-24z"/><defs><path id="runner_up_9_" d="M65 104H42v24h46v-24z"/></defs><clipPath id="runner_up_10_"><use xlink:href="#runner_up_9_" overflow="visible"/></clipPath><path class="runner_up12" d="M47.6 117.9L58.1 128H91l-8.6-10.1L76 115H54.3z"/><g><path class="runner_up13" d="M82.4 109H74v5.7c0 1.6.9 3.3 2.5 3.3h5.8l-1.8-4.5 1.9-4.5zM49.4 113.5l-1.8 4.5h5.8c1.6 0 2.5-1.7 2.5-3.3V109h-8.4l1.9 4.5z"/></g><path class="runner_up14" d="M65 108H54v8h22v-8z"/></g></g><g><path class="runner_up15" d="M66.6 38.2l2 6.1c.1.4.5.7 1 .7h6.3c1 0 1.4 1.3.6 1.8l-5.1 3.5c-.4.3-.5.7-.4 1.1l1.9 5.9c.3.9-.8 1.7-1.5 1.1l-5.2-3.8c-.4-.3-.8-.3-1.2 0l-5.2 3.7c-.8.6-1.8-.2-1.5-1.1l1.9-5.9c.1-.4 0-.9-.4-1.1l-5.1-3.6c-.8-.6-.4-1.8.6-1.8h6.3c.4 0 .8-.3 1-.7l2-6.1c.4-.7 1.7-.7 2 .2z"/></g></svg>
