<svg id="sharer_svg" xmlns="http://www.w3.org/2000/svg" xmlns:xlink="http://www.w3.org/1999/xlink" width="128" height="128" viewBox="0 0 128 128"><style>.sharer0{fill:#58505b}.sharer1{clip-path:url(#sharer_2_);fill:#463f47}.sharer2{fill:#ffcd00}.sharer3{fill:#fffcdf}.sharer4{fill:#92bf00}.sharer5{fill:#d2784b}.sharer6{fill:#f0f5e0}.sharer7{fill:#3b9c00}.sharer8{opacity:.64;clip-path:url(#sharer_4_);fill:#177a32}.sharer9{fill:#d4ecc4}.sharer10{opacity:.76;clip-path:url(#sharer_6_);fill:#c3cab4}</style><circle class="sharer0" cx="64" cy="64" r="64"/><defs><circle id="sharer_1_" cx="64" cy="64" r="64"/></defs><clipPath id="sharer_2_"><use xlink:href="#sharer_1_" overflow="visible"/></clipPath><path class="sharer1" d="M15.6 65.1L40 89.9l-4.4 10.8 27 27.2 65.4.1V67.8L88.3 28.1l-13.4 16z"/><path class="sharer2" d="M109.7 51.5v5h10.8zM109.7 61.5v-5H98.9zM104.8 70.1l-1.6 3.4 7.4 3.5zM101.5 76.9l1.7-3.4-7.4-3.5zM101.9 36.7l1.3 3.6 7.6-2.8z"/><path class="sharer2" d="M104.5 43.8l-1.3-3.5-7.7 2.7z"/><circle class="sharer3" cx="84.9" cy="57.1" r="10.2"/><circle class="sharer4" cx="24.3" cy="57.1" r="11.9"/><path class="sharer5" d="M48.9 73.4l3.2 10.8c.2.6-.3 1.3-1 1.3H46v-12l2.9-.1z"/><path class="sharer6" d="M40 102.3c-3.8 0-6.9-3.1-6.9-6.9V74.6H47v20.8c0 3.8-3.1 6.9-7 6.9z"/><path class="sharer4" d="M84.7 86.8L57.2 74.6v-35l27.5-12.2c2.1-.9 4.4.6 4.4 2.9v53.6c0 2.3-2.3 3.8-4.4 2.9z"/><path class="sharer7" d="M84.7 86.8c2.1.9 4.4-.6 4.4-2.9V30.3c0-2.3-2.3-3.8-4.4-2.9v59.4zM26.6 74.6h30.7v-35H26.6c-2.2 0-4 1.8-4 4v27c0 2.2 1.8 4 4 4z"/><g><defs><path id="sharer_3_" d="M26.6 74.6h30.7v-35H26.6c-2.2 0-4 1.8-4 4v27c0 2.2 1.8 4 4 4z"/></defs><clipPath id="sharer_4_"><use xlink:href="#sharer_3_" overflow="visible"/></clipPath><path class="sharer8" d="M31.4 50.6l4.8 4.8-4.8 3L37 64l-5.6 2.3 9.1 9.1h17.8V57.3l-9.5-9.5z"/></g><g><path class="sharer9" d="M47.4 51.1H32.7c-1.1 0-2-.9-2-2s.9-2 2-2h14.7c1.1 0 2 .9 2 2-.1 1.1-.9 2-2 2zM47.4 58.9H32.7c-1.1 0-2-.9-2-2s.9-2 2-2h14.7c1.1 0 2 .9 2 2s-.9 2-2 2zM47.4 66.7H32.7c-1.1 0-2-.9-2-2s.9-2 2-2h14.7c1.1 0 2 .9 2 2-.1 1.1-.9 2-2 2z"/></g><g><defs><path id="sharer_5_" d="M40 102.3c-3.8 0-6.8-3.1-6.8-6.8V74.6h13.7v20.9c0 3.8-3.1 6.8-6.9 6.8z"/></defs><clipPath id="sharer_6_"><use xlink:href="#sharer_5_" overflow="visible"/></clipPath><path class="sharer10" d="M32.6 74.7l15.9 16V73.4H32.9z"/></g></svg>
