<svg xmlns="http://www.w3.org/2000/svg" xmlns:xlink="http://www.w3.org/1999/xlink" width="128" height="128" viewBox="0 0 128 128"><circle fill="#EE4089" cx="64" cy="64" r="64"/><defs><circle id="a" cx="64" cy="64" r="64"/></defs><clipPath id="b"><use xlink:href="#a" overflow="visible"/></clipPath><path clip-path="url(#b)" fill="#E72C79" d="M21.36 93l34.914 34.914L128 128V56.625l-21.168-21.45z"/><path fill="#FFF2E6" d="M104 94H24a4 4 0 0 1-4-4V38a4 4 0 0 1 4-4h80a4 4 0 0 1 4 4v52a4 4 0 0 1-4 4z"/><path fill="#4F4553" d="M20 77h88v13H20z"/><path fill="#DEBE98" d="M20 38h88v2H20z"/><g fill="#FFC422"><path d="M87.5 85.59l2.205 1.61c.255.185.6-.065.5-.365l-.848-2.594 2.212-1.598a.325.325 0 0 0-.192-.59l-2.73.007-.837-2.6a.325.325 0 0 0-.618 0l-.838 2.6-2.73-.007a.325.325 0 0 0-.19.59l2.212 1.598-.85 2.595c-.097.3.247.55.502.364l2.202-1.61zM40.5 85.59l2.205 1.61c.255.185.6-.065.5-.365l-.848-2.594 2.212-1.598a.325.325 0 0 0-.192-.59l-2.73.007-.837-2.6a.325.325 0 0 0-.618 0l-.838 2.6-2.73-.007a.325.325 0 0 0-.19.59l2.212 1.598-.85 2.595c-.097.3.247.55.502.364l2.202-1.61zM52.25 85.59l2.205 1.61c.255.185.6-.065.5-.365l-.848-2.594 2.212-1.598a.325.325 0 0 0-.192-.59l-2.73.007-.837-2.6a.325.325 0 0 0-.618 0l-.838 2.6-2.73-.007a.325.325 0 0 0-.19.59l2.212 1.598-.85 2.595c-.097.3.247.55.502.364l2.202-1.61zM64 85.59l2.205 1.61c.255.185.6-.065.5-.365l-.848-2.594 2.212-1.598a.325.325 0 0 0-.192-.59l-2.73.007-.837-2.6a.325.325 0 0 0-.618 0l-.838 2.6-2.73-.007a.325.325 0 0 0-.19.59l2.212 1.598-.85 2.595c-.097.3.247.55.502.364L64 85.59zM75.75 85.59l2.205 1.61c.255.185.6-.065.5-.365l-.848-2.594 2.212-1.598a.325.325 0 0 0-.192-.59l-2.73.007-.837-2.6a.325.325 0 0 0-.618 0l-.838 2.6-2.73-.007a.325.325 0 0 0-.19.59l2.212 1.598-.85 2.595c-.097.3.247.55.502.364l2.202-1.61z"/></g><g fill="#4F4553"><path d="M40.502 48.514l-1.365-.57v-1.217h7v1.19l-1.24.423 2.83 7.944h.173l2.73-7.646-1.563-.695v-1.217h5.51v1.19l-1.562.746L47.75 61.2h-2.258l-4.99-12.686zM54.877 57.08c1.465 0 2.234 1.043 2.234 2.234 0 1.018-.794 2.085-2.233 2.085-1.39 0-2.31-1.02-2.31-2.086 0-1.14.92-2.234 2.31-2.234zM59.27 60.01l1.888-.672v-10.65l-1.887-.744v-1.217h7.797v1.19l-1.763.647v10.75l1.763.67V61.2H59.27v-1.19zM71.113 57.08c1.465 0 2.234 1.043 2.234 2.234 0 1.018-.795 2.085-2.234 2.085-1.39 0-2.31-1.02-2.31-2.086.002-1.14.92-2.234 2.31-2.234zM75.085 60.01l1.887-.672v-10.65l-1.887-.744v-1.217h8.094c3.375 0 5.684 1.44 5.684 4.643 0 2.706-2.185 4.568-6.653 4.568h-1.116v3.376l1.788.67V61.2h-7.796v-1.19zm6.008-11.62v5.91h.373c2.085 0 2.88-.895 2.88-2.88 0-2.087-.97-2.98-2.93-3.03h-.323z"/></g><g fill="#DEBE98"><path d="M41.016 71.98c-.32.135-.645.202-.972.202-.515 0-.98-.09-1.39-.27a2.978 2.978 0 0 1-1.042-.738 3.297 3.297 0 0 1-.65-1.107 4.092 4.092 0 0 1-.226-1.372c0-.502.075-.97.226-1.4.15-.43.368-.805.65-1.125.283-.32.63-.572 1.042-.754.41-.183.875-.273 1.39-.273.346 0 .68.052 1.004.155.324.104.616.256.877.457s.476.45.646.745c.17.295.274.634.313 1.018H41.47c-.09-.377-.26-.66-.51-.85a1.487 1.487 0 0 0-.915-.28c-.333 0-.615.063-.848.192s-.42.3-.565.518-.25.464-.316.74a3.73 3.73 0 0 0-.1.857c0 .283.034.558.1.825.066.267.172.508.316.72.145.215.333.386.565.515s.515.193.848.193c.49 0 .87-.124 1.136-.372.27-.248.424-.608.468-1.08h-1.49v-1.103h2.83v3.64h-.943l-.15-.765c-.267.34-.56.577-.88.712zM44.115 67.295c.15-.43.368-.806.65-1.126.283-.32.63-.573 1.042-.755.41-.183.875-.273 1.39-.273.52 0 .987.09 1.396.273.408.182.754.434 1.037.754.282.32.5.694.65 1.125.15.43.226.897.226 1.4 0 .49-.075.946-.226 1.37-.15.425-.368.794-.65 1.108-.283.314-.63.56-1.037.74-.408.18-.874.268-1.396.268-.515 0-.98-.088-1.39-.268a2.978 2.978 0 0 1-1.042-.74 3.297 3.297 0 0 1-.65-1.106 4.092 4.092 0 0 1-.226-1.372c0-.5.075-.968.225-1.4zm1.353 2.225c.066.267.172.508.316.72.145.215.333.386.565.515s.514.193.847.193.616-.064.85-.193.42-.3.564-.514c.146-.212.25-.453.317-.72.065-.268.1-.542.1-.825 0-.295-.034-.58-.1-.857-.066-.276-.172-.523-.316-.74s-.332-.39-.564-.518-.516-.193-.85-.193-.614.064-.847.193-.422.3-.566.518-.25.464-.316.74a3.73 3.73 0 0 0-.1.857c0 .283.034.557.1.825zM52.994 65.302v5.485h3.28v1.244h-4.76v-6.728h1.48zM60.008 65.302c.434 0 .837.07 1.21.207.375.138.698.345.972.62s.487.623.64 1.038c.155.414.232.9.232 1.46 0 .49-.063.943-.188 1.358a3.006 3.006 0 0 1-.57 1.074c-.255.302-.572.54-.952.712s-.828.26-1.343.26h-2.904V65.3h2.902zm-.105 5.486c.214 0 .42-.034.622-.104s.38-.184.538-.344c.156-.16.282-.37.377-.627.094-.258.14-.572.14-.942 0-.34-.03-.645-.098-.918a1.823 1.823 0 0 0-.325-.703c-.15-.195-.35-.345-.6-.448s-.554-.155-.918-.155h-1.057v4.24h1.32zM71.025 67.097a1.492 1.492 0 0 0-.777-.622 1.53 1.53 0 0 0-.523-.09c-.333 0-.615.065-.848.194s-.42.3-.565.517-.25.464-.316.74a3.73 3.73 0 0 0-.1.857c0 .283.034.558.1.825.066.266.172.507.316.72.145.214.333.385.565.514s.515.193.848.193c.453 0 .807-.138 1.06-.415.256-.276.41-.64.468-1.093h1.433c-.038.42-.135.8-.292 1.14a2.73 2.73 0 0 1-.622.867c-.258.238-.56.42-.905.546a3.31 3.31 0 0 1-1.14.188c-.516 0-.98-.088-1.39-.268a2.978 2.978 0 0 1-1.043-.74 3.297 3.297 0 0 1-.65-1.106 4.092 4.092 0 0 1-.226-1.372c0-.502.075-.97.226-1.4.15-.43.368-.805.65-1.125.283-.32.63-.573 1.042-.755.41-.183.875-.273 1.39-.273.37 0 .722.053 1.052.16.33.106.625.262.886.467.26.203.476.456.646.757.17.302.276.647.32 1.037h-1.433a1.246 1.246 0 0 0-.172-.467zM77.048 65.302l2.517 6.73H78.03l-.51-1.5h-2.517l-.528 1.5h-1.49l2.546-6.73h1.518zm.085 4.128l-.85-2.47h-.018l-.877 2.47h1.745zM83.778 65.302c.302 0 .573.05.815.146.24.098.45.23.622.4.173.17.305.366.396.59.092.223.138.463.138.72 0 .397-.083.74-.25 1.028-.166.29-.438.51-.815.66v.02a1.148 1.148 0 0 1 .745.597c.075.14.13.297.165.467.034.17.058.34.07.51l.02.376c.006.145.017.292.032.443.016.15.04.292.075.428.035.135.087.25.156.344h-1.48a2.607 2.607 0 0 1-.15-.764c-.02-.295-.047-.578-.085-.848-.05-.353-.156-.61-.32-.773-.162-.163-.43-.245-.8-.245h-1.48v2.63h-1.48v-6.73h3.628zm-.528 3.044c.34 0 .594-.075.764-.226.17-.15.255-.396.255-.735 0-.327-.086-.564-.256-.712s-.424-.222-.764-.222h-1.62v1.896h1.62zM89.857 65.302c.434 0 .837.07 1.21.207.375.138.698.345.972.62s.486.623.64 1.038c.154.414.23.9.23 1.46 0 .49-.062.943-.187 1.358a3.006 3.006 0 0 1-.57 1.074c-.255.302-.572.54-.952.712s-.827.26-1.342.26h-2.903V65.3h2.902zm-.104 5.486c.214 0 .42-.034.622-.104s.38-.184.538-.344c.156-.16.282-.37.377-.627.094-.258.14-.572.14-.942 0-.34-.03-.645-.098-.918a1.823 1.823 0 0 0-.325-.703c-.15-.195-.35-.345-.6-.448s-.554-.155-.918-.155h-1.057v4.24h1.32z"/></g></svg>
