<svg id="votes5k_svg" xmlns="http://www.w3.org/2000/svg" xmlns:xlink="http://www.w3.org/1999/xlink" viewBox="-25 27 128 128"><style>.votes5k0{fill:#2d4471}.votes5k1{opacity:.8;clip-path:url(#votes5k_2_)}.votes5k2{fill:#253855}.votes5k3{fill:#0e5b94}.votes5k4{fill:#008ac3}.votes5k5{clip-path:url(#votes5k_4_)}.votes5k6{fill:#ef5034}.votes5k7{opacity:.7;fill:#d83a2e;enable-background:new}.votes5k8{fill:#eceff0}.votes5k9{opacity:.5;fill:#b0bdc1;votes5kroke:#fff;votes5kroke-width:.5;votes5kroke-miterlimit:10;enable-background:new}.votes5k10{fill:#ffd800}.votes5k11{fill:#fcb813}.votes5k12{fill:#f6921e}.votes5k13{opacity:.45;clip-path:url(#votes5k_6_);fill:#97aabb;enable-background:new}.votes5k14{fill:none}.votes5k15{clip-path:url(#votes5k_8_);fill:#c8d6d7}.votes5k16{fill:#fff}.votes5k17{fill:#51326c}.votes5k18{fill:#412459}.votes5k19{fill:#724d95}.votes5k20{fill:#b47db5}</style><circle class="votes5k0" cx="39" cy="91" r="64"/><defs><circle id="votes5k_1_" cx="39" cy="91" r="64"/></defs><clipPath id="votes5k_2_"><use xlink:href="#votes5k_1_" overflow="visible"/></clipPath><path class="votes5k1 votes5k2" d="M6.3 76l70 70-12.9 6.4L-4 85.1zm80 14.8l16.7 16.8v11.2L80.2 96zm-12.7-31L103 89.3v7.4L69.8 63.4z"/><circle class="votes5k3" cx="1" cy="80.4" r="6.9"/><path class="votes5k4" d="M2 86.3c-3.8 0-6.9-3.1-6.9-6.9 0-1.7.6-3.2 1.5-4.4-1.6 1.3-2.5 3.2-2.5 5.4 0 3.8 3.1 6.9 6.9 6.9 2.2 0 4.1-1 5.4-2.5-1.2.9-2.8 1.5-4.4 1.5z"/><circle class="votes5k3" cx="83.2" cy="93.3" r="4"/><path class="votes5k4" d="M83.8 96.6c-2.2 0-4-1.8-4-4 0-.9.3-1.8.9-2.4-.9.7-1.5 1.9-1.5 3.1 0 2.2 1.8 4 4 4 1.3 0 2.4-.6 3.1-1.5-.7.5-1.5.8-2.5.8z"/><circle class="votes5k3" cx="71.8" cy="61.7" r="2.6"/><path class="votes5k4" d="M72.4 63.7c-1.4 0-2.6-1.2-2.6-2.6 0-.6.2-1.1.5-1.5-.7.5-1.1 1.2-1.1 2.1 0 1.4 1.2 2.6 2.6 2.6.9 0 1.7-.4 2.1-1.1-.4.3-.9.5-1.5.5z"/><defs><circle id="votes5k_3_" cx="39" cy="91" r="64"/></defs><clipPath id="votes5k_4_"><use xlink:href="#votes5k_3_" overflow="visible"/></clipPath><g class="votes5k5"><path class="votes5k3" d="M92.1 101.8c0 .6.1 1.2.2 1.8-8.8 1.6-15.8 8.4-17.7 17.1-1.3-.3-2.6-.4-4-.4-6.7 0-12.5 3.3-16 8.4-2.3-5.3-6.5-9.3-14.5-9.3-8.9 0-13.1 4.3-15.7 10.4-3.4-5.7-9.6-9.6-16.8-9.6-1.4 0-2.7.1-4 .4-1.9-8.7-8.9-15.5-17.7-17.1.1-.6.2-1.2.2-1.8 0-6.2-5-11.3-11.1-11.5V155h44.7c.1 0 .3-.2.4-.3 0 .1.1.3.2.3H103V90.3c-6.1.3-10.9 5.3-10.9 11.5z"/><path class="votes5k4" d="M2.4 120.9l1.8-.3c-2-7.1-7-12.9-13.7-15.7 6 3.4 10.4 9.1 11.9 16zm21.7 9.7c.2-.5.4-1 .7-1.5-2.5-3.2-5.9-5.8-9.7-7.4 3.7 2.1 6.8 5.2 9 8.9zm-40-29.4c0 .7-.1 1.3-.2 1.9.7.1 1.5.3 2.2.5.1-.4.1-.9.1-1.4 0-5.8-3.2-9.7-7.8-11.3 3.4 2.1 5.7 5.9 5.7 10.3zM76.4 121l-1.8-.3c1.8-7.3 5.6-12.4 13.3-15.8-6 3.3-10 9.2-11.5 16.1zm-21.2 9.1c-.2-.5-.4-1-.7-1.5 2.5-3.4 5.2-5.9 9.9-7.4-3.6 2.2-7 5.2-9.2 8.9zm38.9-29.3c0 .7.1 1.5.2 2.2-.7.1-1.4.4-2 .6-.1-.5-.1-1-.1-1.6 0-6.1 3.5-9.5 7.8-11.2-3.3 2.5-5.9 5.1-5.9 10z"/></g><path class="votes5k6" d="M56.1 87.2l9.6 9.5c2.2 2.1 3.7 4.8 4.5 7.8l5 19.2c.3 1.3-.7 2.6-2 2.6-2.1 0-3.9-1.2-4.8-3l-5.2-11c-1-2.1-3.1-3.4-5.5-3.4H53l3.1-21.7zm-33.2 0l-9.6 9.5c-2.2 2.1-3.7 4.8-4.5 7.8l-5 19.2c-.3 1.3.7 2.6 2 2.6 2.1 0 3.9-1.2 4.8-3l5.2-11c1-2.1 3.1-3.4 5.5-3.4H26l-3.1-21.7z"/><path class="votes5k7" d="M16.7 93.2l6.2-6 3.2 21.7h-3.9c-2.6-6-4.5-12.1-5.5-15.7zm45.6 0l-6.2-6-3.1 21.7h3.9c2.5-6 4.5-12.1 5.4-15.7z"/><path class="votes5k8" d="M61.1 72.4C58.1 55.9 43 40 39.7 40h-.1c-3.3 0-18.3 16-21.3 32.5-2.3 12.5 3.4 30.3 6.6 39.9 1.4 4.1 2 7.2 6.1 8.3 0 0 4.9 1.1 8.6 1.1h.2c3.7 0 8.6-1.1 8.6-1.1 4.2-1.1 4.8-4.2 6.2-8.3 3.1-9.6 8.8-27.5 6.5-40z"/><circle class="votes5k9" cx="39.6" cy="71.8" r="12.8"/><path class="votes5k10" d="M46 131.2c0 3.5-2.9 13.1-6.4 13.1s-6.4-9.6-6.4-13.1 2.9-4.9 6.4-4.9c3.6 0 6.4 1.4 6.4 4.9z"/><path class="votes5k11" d="M43.8 131c0 2.3-1.9 8.4-4.2 8.4-2.3 0-4.2-6.2-4.2-8.4s1.9-3.2 4.2-3.2c2.3 0 4.2.9 4.2 3.2z"/><path class="votes5k12" d="M42.2 130.8c0 1.2-1.2 4.6-2.6 4.6s-2.6-3.3-2.6-4.6c0-1.2 1.2-1.7 2.6-1.7 1.4-.1 2.6.4 2.6 1.7z"/><defs><circle id="votes5k_5_" cx="39.6" cy="71.8" r="12.5"/></defs><clipPath id="votes5k_6_"><use xlink:href="#votes5k_5_" overflow="visible"/></clipPath><path class="votes5k13" d="M46.3 65l6.7 6.6v14H40l-7-7z"/><defs><path id="votes5k_7_" d="M61.1 72.4C58.1 55.9 43 40 39.7 40h-.1c-3.3 0-18.3 16-21.3 32.5-2.3 12.5 3.4 30.3 6.6 39.9 1.4 4.1 2 7.2 6.1 8.3 0 0 4.9 1.1 8.6 1.1h.2c3.7 0 8.6-1.1 8.6-1.1 4.2-1.1 4.8-4.2 6.2-8.3 3.1-9.6 8.8-27.5 6.5-40z"/></defs><clipPath id="votes5k_8_"><use xlink:href="#votes5k_7_" overflow="visible"/></clipPath><path class="votes5k15" d="M42.3 92.5l14.9 15-3.7 12.5-8 2.5h-5v-30z"/><path class="votes5k16" d="M8.1 50.6l1 2.8c0 .1.1.1.1.1l2.8 1c.2.1.2.3 0 .4l-2.8 1c-.1 0-.1.1-.1.1l-1 2.8c-.1.2-.3.2-.4 0l-1-2.8c0-.1-.1-.1-.1-.1l-2.8-1c-.2-.1-.2-.3 0-.4l2.8-1c.1 0 .1-.1.1-.1l1-2.8c.1-.2.3-.2.4 0zM73 76.2l.8 2.1.1.1 2.1.8c.1.1.1.2 0 .3l-2.1.8-.1.1-.8 2c-.1.1-.2.1-.3 0l-.7-2.1-.1-.1-2.1-.8c-.1-.1-.1-.2 0-.3l2.1-.8.1-.1.8-2.1s.2 0 .2.1z"/><g><path class="votes5k17" d="M39.6 80.8c-5 0-9-4.1-9-9 0-5 4.1-9 9-9 5 0 9 4.1 9 9 .1 5-4 9-9 9z"/><path class="votes5k18" d="M39.6 63.3c4.7 0 8.5 3.8 8.5 8.5s-3.8 8.5-8.5 8.5-8.5-3.8-8.5-8.5 3.8-8.5 8.5-8.5m0-1c-5.3 0-9.5 4.3-9.5 9.5s4.3 9.5 9.5 9.5c5.3 0 9.5-4.3 9.5-9.5s-4.2-9.5-9.5-9.5z"/></g><g><circle class="votes5k19" cx="39.6" cy="71.8" r="5.1"/></g><circle class="votes5k20" cx="39.6" cy="71.7" r="1.6"/><path class="votes5k6" d="M38 91.2l-1.2 1.1c-.5.4-.7 1.1-.6 1.7l1.2 28.3c.3 2.5 4.1 2.5 4.4 0L43 94c.1-.6-.2-1.3-.6-1.7l-1.2-1.1c-1-.8-2.4-.8-3.2 0z"/></svg>
