<svg id="votes_svg" xmlns="http://www.w3.org/2000/svg" xmlns:xlink="http://www.w3.org/1999/xlink" width="128" height="128" viewBox="0 0 128 128"><style>.votes0{fill:#50b748}.votes1{clip-path:url(#votes_2_);fill:#89c540}.votes2{opacity:.5;clip-path:url(#votes_4_);fill:#005b41}.votes3{clip-path:url(#votes_6_);fill:#00764b}.votes4{clip-path:url(#votes_8_);fill:#fff9c5}.votes5{fill:#005223}</style><circle class="votes0" cx="64" cy="64" r="64"/><defs><circle id="votes_1_" cx="64" cy="64" r="64"/></defs><clipPath id="votes_2_"><use xlink:href="#votes_1_" overflow="visible"/></clipPath><path class="votes1" d="M128 33v-2H97V0h-2v31H65V0h-2v31H33V0h-2v31H0v2h31v30H0v2h31v30H0v2h31v31h2V97h30v31h2V97h30v31h2V97h31v-2H97V65h31v-2H97V33h31zm-95 0h30v30H33V33zm0 62V65h30v30H33zm62 0H65V65h30v30zm0-32H65V33h30v30z"/><defs><circle id="votes_3_" cx="64" cy="64" r="64"/></defs><clipPath id="votes_4_"><use xlink:href="#votes_3_" overflow="visible"/></clipPath><path class="votes2" d="M128 64.5L96 48 64 80.4 32 64.5 0 96v32h128z"/><g><defs><path id="votes_5_" d="M128 64.5L96 48 64 80.4 32 64.5 5.7 90.4C15.8 112.6 38.1 128 64 128c35.2 0 63.7-28.4 64-63.5z"/></defs><clipPath id="votes_6_"><use xlink:href="#votes_5_" overflow="visible"/></clipPath><path class="votes3" d="M128 33v-2H97V0h-2v31H65V0h-2v31H33V0h-2v31H0v2h31v30H0v2h31v30H0v2h31v31h2V97h30v31h2V97h30v31h2V97h31v-2H97V65h31v-2H97V33h31zm-95 0h30v30H33V33zm0 62V65h30v30H33zm62 0H65V65h30v30zm0-32H65V33h30v30z"/></g><g><defs><circle id="votes_7_" cx="64" cy="64" r="64"/></defs><clipPath id="votes_8_"><use xlink:href="#votes_7_" overflow="visible"/></clipPath><path class="votes4" d="M106 49.2v-.7c0-5.5-4.5-10-10-10s-10 4.5-10 10c0 1.4.3 2.7.8 3.9L63.3 76.2 41.9 65.5c0-.3.1-.7.1-1 0-5.5-4.5-10-10-10s-10 4.5-10 10c0 1.5.3 2.8.9 4.1L0 91.1v5.3c.7.6 1.5.9 2.3.9.9 0 1.8-.3 2.5-1l23-22.7c1.3.6 2.7.9 4.2.9 2.6 0 5-1 6.8-2.7l23.6 11.8c1.4.7 3 .4 4-.7l25.1-25.4c1.3.7 2.8 1 4.4 1 2.7 0 5.2-1.1 7-2.9l23.4 12c.5.3 1.1.4 1.6.4v-7.4L106 49.2z"/></g><circle class="votes5" cx="32" cy="64.5" r="4.9"/><circle class="votes5" cx="96" cy="48.5" r="4.9"/></svg>
