<svg id="votes1k_svg" xmlns="http://www.w3.org/2000/svg" xmlns:xlink="http://www.w3.org/1999/xlink" width="128" height="128" viewBox="0 0 128 128"><style>.votes1k0{fill:#00b7eb}.votes1k1{clip-path:url(#votes1k_2_);fill:#0097d2}.votes1k2{fill:#FFF}.votes1k3{clip-path:url(#votes1k_4_)}.votes1k4{fill:#58505b}.votes1k5{fill:#ff6097}.votes1k5,.votes1k6{clip-path:url(#votes1k_6_)}.votes1k6{opacity:.32;fill:#1e2625}.votes1k7{fill:#fbb03b}.votes1k8{fill:#ffcd00}.votes1k9{opacity:.4;clip-path:url(#votes1k_8_);fill:#eb5b23}.votes1k10{clip-path:url(#votes1k_10_);fill:#fab600}.votes1k11{fill:#fff487}</style><circle class="votes1k0" cx="64" cy="64" r="64"/><defs><circle id="votes1k_1_" cx="64" cy="64" r="64"/></defs><clipPath id="votes1k_2_"><use xlink:href="#votes1k_1_" overflow="visible"/></clipPath><path class="votes1k1" d="M47.7 64.1l11.6 11.6-23 48.9 7.4 3.4H128V70.4L83.7 26.3z"/><path class="votes1k2" d="M84.9 90.3l.5 5.5c0 .1.1.2.2.3l4.6 3.2c.3.2.2.7-.2.7l-5.5.5c-.1 0-.2.1-.3.2l-3.2 4.6c-.2.3-.7.2-.7-.2l-.5-5.5c0-.1-.1-.2-.2-.3L75 96.1c-.3-.2-.2-.7.2-.7l5.5-.5c.1 0 .2-.1.3-.2l3.2-4.6c.2-.3.7-.1.7.2zM104.4 70.5l1.9 2.3s.1.1.2.1h3c.2 0 .3.3.1.4l-2.3 1.9s-.1.1-.1.2v3c0 .2-.3.3-.4.1l-1.9-2.3s-.1-.1-.2-.1h-3c-.2 0-.3-.3-.1-.4l2.3-1.9s.1-.1.1-.2v-3c0-.1.3-.2.4-.1zM32.2 79.9l-.1 3c0 .1 0 .1.1.2l2.2 2.1c.1.1 0 .4-.2.4l-3-.1c-.1 0-.1 0-.2.1l-2 2.1c-.1.1-.4 0-.4-.2l.1-3c0-.1 0-.1-.1-.2l-2.2-2.1c-.1-.1 0-.4.2-.4l3 .1c.1 0 .1 0 .2-.1l2.1-2.2c.1 0 .4.1.3.3zM103.1 27.5l1.6 3.2c0 .1.1.1.2.1l3.5.9c.2.1.3.4.1.5l-3.2 1.6c-.1 0-.1.1-.1.2l-.9 3.5c-.1.2-.4.3-.5.1l-1.6-3.2c0-.1-.1-.1-.2-.1l-3.5-.9c-.2-.1-.3-.4-.1-.5l3.2-1.6c.1 0 .1-.1.1-.2l.9-3.5c.1-.2.4-.3.5-.1zM39.5 34.5l-4.4-2h-.3l-4.4 2.1c-.3.1-.6-.2-.5-.5l2-4.4v-.3L29.8 25c-.1-.3.2-.6.5-.5l4.4 2h.3l4.4-2.1c.3-.1.6.2.5.5l-2 4.4v.3L40 34c.1.3-.2.6-.5.5zM69.9 17l-2.2-.1s-.1 0-.1.1L66 18.6c-.1.1-.3 0-.3-.1l.1-2.2s0-.1-.1-.1l-1.6-1.5c-.1-.1 0-.3.1-.3l2.2.1s.1 0 .1-.1l1.5-1.6c.1-.1.3 0 .3.1V15s0 .1.1.1l1.6 1.5c.1.2 0 .4-.1.4zM27 57.9l-3.5 1.6c-.1 0-.1.1-.2.2l-1 3.7c-.1.2-.4.3-.5 0l-1.6-3.5c0-.1-.1-.1-.2-.2l-3.7-1c-.2-.1-.3-.4 0-.5l3.5-1.6c.1 0 .1-.1.2-.2l1-3.7c.1-.2.4-.3.5 0l1.6 3.5c0 .1.1.1.2.2l3.7 1c.2 0 .3.3 0 .5z"/><defs><circle id="votes1k_3_" cx="64" cy="64" r="64"/></defs><clipPath id="votes1k_4_"><use xlink:href="#votes1k_3_" overflow="visible"/></clipPath><g class="votes1k3"><path class="votes1k4" d="M38.9 126.4l-6.6-3.2c-1.4-.7-2-2.4-1.3-3.8l37.3-69.8c.7-1.3 2.3-1.8 3.6-1.2 1.3.6 1.9 2.2 1.4 3.6l-30.7 73c-.6 1.4-2.3 2.1-3.7 1.4z"/><defs><path id="votes1k_5_" d="M38.9 126.4l-6.6-3.2c-1.4-.7-2-2.4-1.3-3.8l37.3-69.8c.7-1.3 2.3-1.8 3.6-1.2 1.3.6 1.9 2.2 1.4 3.6l-30.7 73c-.6 1.4-2.3 2.1-3.7 1.4z"/></defs><clipPath id="votes1k_6_"><use xlink:href="#votes1k_5_" overflow="visible"/></clipPath><path class="votes1k5" d="M67.883 75.638l-4.303 9.027-13.812-6.583 4.303-9.027z"/><path class="votes1k6" d="M55.1 71.4l8.1 8.2 6.6-15.1-2.8-4.1-6.6.8z"/></g><path class="votes1k7" d="M84.2 27.7l-2.1 15.7c-.1.7.3 1.5 1 1.8l14.4 6.9c1.5.7 1.2 2.9-.4 3.2l-15.9 3.2c-.7.1-1.3.7-1.4 1.5l-2.1 16c-.2 1.6-2.4 2.1-3.2.6l-7.6-13.9c-.4-.7-1.1-1-1.8-.9l-15.6 2.9c-1.6.3-2.7-1.7-1.6-2.9L59 50c.5-.5.6-1.3.3-2l-7.5-14.3c-.8-1.5.8-3.1 2.3-2.4l14.4 6.9c.7.3 1.5.2 2-.4l10.9-11.5c1-1.2 3-.2 2.8 1.4z"/><path class="votes1k8" d="M69.9 60.7c-.8-1.4-2.2-2.3-3.9-2.3-.3 0-.5 0-.8.1l-11 2.1 7.9-8.4c1.3-1.4 1.6-3.4.7-5.1l-5.4-10.2 10.2 4.8c.6.3 1.2.4 1.9.4 1.2 0 2.4-.5 3.2-1.4l7.6-8-1.4 11c-.2 1.9.7 3.7 2.5 4.5l10.2 4.9-11.3 2.3c-1.8.4-3.2 1.9-3.5 3.7l-1.5 11.3-5.4-9.7z"/><g><defs><path id="votes1k_7_" d="M84.2 27.7l-2.1 15.7c-.1.7.3 1.5 1 1.8l14.4 6.9c1.5.7 1.2 2.9-.4 3.2l-15.9 3.2c-.7.1-1.3.7-1.4 1.5l-2.1 16c-.2 1.6-2.4 2.1-3.2.6l-7.6-13.9c-.4-.7-1.1-1-1.8-.9l-15.6 2.9c-1.6.3-2.7-1.7-1.6-2.9L59 50c.5-.5.6-1.3.3-2l-7.5-14.3c-.8-1.5.8-3.1 2.3-2.4l14.4 6.9c.7.3 1.5.2 2-.4l10.9-11.5c1-1.2 3-.2 2.8 1.4z"/></defs><clipPath id="votes1k_8_"><use xlink:href="#votes1k_7_" overflow="visible"/></clipPath><path class="votes1k9" d="M74.9 60.1l4.6 4.5 6.6-6.1-4.4-4.3-6.2 1.7z"/></g><g><defs><path id="votes1k_9_" d="M69.9 60.7c-.8-1.4-2.2-2.3-3.9-2.3-.3 0-.5 0-.8.1l-11 2.1 7.9-8.4c1.3-1.4 1.6-3.4.7-5.1l-5.4-10.2 10.2 4.8c.6.3 1.2.4 1.9.4 1.2 0 2.4-.5 3.2-1.4l7.6-8-1.4 11c-.2 1.9.7 3.7 2.5 4.5l10.2 4.9-11.3 2.3c-1.8.4-3.2 1.9-3.5 3.7l-1.5 11.3-5.4-9.7z"/></defs><clipPath id="votes1k_10_"><use xlink:href="#votes1k_9_" overflow="visible"/></clipPath><path class="votes1k10" d="M68.8 53.9l8.6 8.6 1.7-4.8 4.3-1.9-8.3-8.3s-3.7 5.8-6.3 6.4z"/></g><circle class="votes1k11" cx="71.9" cy="50.7" r="4.5"/></svg>
