<svg id="votes1_svg" xmlns="http://www.w3.org/2000/svg" xmlns:xlink="http://www.w3.org/1999/xlink" width="128" height="128" viewBox="0 0 128 128"><style>.votes10{fill:#75529d}.votes11{clip-path:url(#votes1_2_);fill:#623a7a}.votes12{clip-path:url(#votes1_4_);fill:#f2f2f2}.votes13{fill:#e94666}.votes14{opacity:.57}.votes15{fill:#f08286}.votes16{fill:none;votes1roke:#FFF;votes1roke-width:2.6043;votes1roke-linecap:round;votes1roke-linejoin:round;votes1roke-miterlimit:10}.votes17{fill:#00caf7}.votes18{fill:#afdff9}.votes19{opacity:.5;clip-path:url(#votes1_6_);fill:#2597ce}.votes110{fill:#fdc300}.votes111{fill:#ffcd00}.votes112{fill:#ffe692}.votes113{fill:#f2f2f2}</style><circle class="votes10" cx="64" cy="64" r="64"/><defs><circle id="votes1_1_" cx="64" cy="64" r="64"/></defs><clipPath id="votes1_2_"><use xlink:href="#votes1_1_" overflow="visible"/></clipPath><path class="votes11" d="M36 97l9 8.9-1.9 1 6.6 6.6V128H128V64.9l-24.7-24.6-13.5-1.9L73 21.7z"/><defs><circle id="votes1_3_" cx="64" cy="64" r="64"/></defs><clipPath id="votes1_4_"><use xlink:href="#votes1_3_" overflow="visible"/></clipPath><path class="votes12" d="M61.9 58.8c-.6 0-1 .4-1 1V128h2V59.8c0-.6-.4-1-1-1zm19.2 38.5c-.6 0-1 .4-1 1V128h2V98.3c0-.5-.5-1-1-1zm-31.4 4.8c-.6 0-1 .4-1 1V128h2v-24.9c0-.6-.5-1-1-1z"/><path class="votes13" d="M79.7 37c0 15.4-11.7 32.2-21 32.2s-21-16.3-21-32.2c0-11.6 9.4-21 21-21s21 9.4 21 21z"/><path class="votes14 votes15" d="M41.4 36.7c0-8.5 4.4-15.9 10.9-19.7-8.5 2.7-14.7 10.7-14.7 20 0 14.6 10 29.7 18.8 31.9-7.6-5.1-15-18.8-15-32.2z"/><path class="votes17" d="M86.9 33.1c-14.1-.8-26.3 9.9-27.1 24.1C58.7 75.9 70.9 96 82 97.8v.4c-.1 1.3-2.5 2-2.9 2.5-.5.5-1 1.5-.5 1.9.5.4 1.3-.4 1.9-.5.6-.1 1.8.7 2.8.8s2.2-.8 3.2-.8c.9 0 1.4.4 1.4-.3s-2.2-1.5-3.2-2.4c-.4-.4-.6-.9-.7-1.5 11.3-.2 26.1-19.3 27.2-37.6.7-14.2-10.1-26.3-24.3-27.2z"/><path class="votes14 votes18" d="M64 56.2c.5-8.3 4.2-15.6 9.8-20.3-7.8 4-13.4 11.9-14 21.3-1 17.4 9.4 35.8 19.8 39.9-8.8-7.3-16.5-24.6-15.6-40.9z"/><defs><path id="votes1_5_" d="M86.9 33.1c-14.1-.8-26.3 9.9-27.1 24.1C58.7 75.9 70.9 96 82 97.8v.4c-.1 1.3-2.5 2-2.9 2.5-.5.5-1 1.5-.5 1.9.5.4 1.3-.4 1.9-.5.6-.1 1.8.7 2.8.8s2.2-.8 3.2-.8c.9 0 1.4.4 1.4-.3s-2.2-1.5-3.2-2.4c-.4-.4-.6-.9-.7-1.5 11.3-.2 26.1-19.3 27.2-37.6.7-14.2-10.1-26.3-24.3-27.2z"/></defs><clipPath id="votes1_6_"><use xlink:href="#votes1_5_" overflow="visible"/></clipPath><path class="votes19" d="M61.4 55.2l37.5 37.6-14.6 14.7h-9.8L52.4 85.4z"/><path class="votes110" d="M47 100.9s.3 2.3-.8 3.2c-1.1.9-3.2 1.7-3.2 2.4s.5.3 1.4.3c.9 0 2.1.9 3.2.8s2.2-.9 2.8-.8c.6.1 1.4.8 1.9.5.5-.4 0-1.4-.5-1.9s-2.8-1.2-2.9-2.5c-.1-1.3.2-2.1.2-2.1H47z"/><path class="votes111" d="M67 67.9c1.4 15.8-9.1 34.1-18.6 34.9-9.5.9-23.1-14.8-24.5-31.1-1.1-11.9 7.7-22.4 19.6-23.5 11.9-1 22.4 7.8 23.5 19.7z"/><g><path class="votes112" d="M27.2 71.5c-.7-8.7 3-16.6 9.1-21.3-8.1 3.7-13.3 12.2-12.5 21.6 1.2 13.2 10.3 26 18.8 29.9-7.4-5.8-14.4-17.8-15.4-30.2z"/></g><path class="votes113" d="M84.6 99.3h-3.5c-.6 0-1-.4-1-1s.4-1 1-1h3.5c.6 0 1 .4 1 1s-.5 1-1 1zM49.7 104.1h-3.5c-.6 0-1-.4-1-1s.4-1 1-1h3.5c.6 0 1 .4 1 1s-.5 1-1 1z"/></svg>
