<svg xmlns="http://www.w3.org/2000/svg" xmlns:xlink="http://www.w3.org/1999/xlink" viewBox="0 0 128 128"><circle fill="#474564" cx="64" cy="64" r="64"/><defs><circle id="a" cx="64" cy="64" r="64"/></defs><clipPath id="b"><use xlink:href="#a" overflow="visible"/></clipPath><path opacity=".71" clip-path="url(#b)" fill="#363152" d="M31.42 97.87l30.104 30.106H128v-59.31l-53.562-53.54-2.344 2.17-3.047-3.062-.97.22-3.374-3.392-.78 6.766L60.24 14.2l-1.21 7.316-6.186.375 2.468 2.486.02 1.097-5.582.86 3.708 3.71-.625.54 3.128 3.13-2.126 2.315 3.744 3.743z"/><path fill="#41BFED" d="M64 102.528c-16.386 0-26.627-2.335-31.22-3.7a2.62 2.62 0 0 1-1.636-3.6l15.83-34.867 15.35-33.81c.654-1.437 2.697-1.437 3.35 0l15.35 33.81 15.83 34.87a2.62 2.62 0 0 1-1.636 3.6c-4.59 1.365-14.832 3.7-31.218 3.7z"/><defs><path id="c" d="M64 102.528c-16.386 0-26.627-2.335-31.22-3.7a2.62 2.62 0 0 1-1.636-3.6l15.83-34.867 15.35-33.81c.654-1.437 2.697-1.437 3.35 0l15.35 33.81 15.83 34.87a2.62 2.62 0 0 1-1.636 3.6c-4.59 1.365-14.832 3.7-31.218 3.7z"/></defs><clipPath id="d"><use xlink:href="#c" overflow="visible"/></clipPath><g clip-path="url(#d)" fill="none" stroke="#2597CE" stroke-width="8" stroke-miterlimit="10"><path d="M35 49.4s20.282 1.21 41.376-16.683M30 67.467s26.473 1.35 52.588-19.86m-61.42 38.705s35.22 1.426 68.946-21.722m-55.09 39.912c16.52-2.338 39.802-7.915 62.33-21.136a143.633 143.633 0 0 0 6.98-4.368"/></g><path opacity=".17" fill="#1A3586" d="M75.18 61.576L64.153 25.492c.62.05 1.22.394 1.52 1.058l15.352 33.81 15.83 34.868a2.62 2.62 0 0 1-1.637 3.6c-1.806.537-4.5 1.223-8.086 1.86L75.18 61.575z"/><path opacity=".17" fill="#FFF" d="M52.82 61.576l11.027-36.084c-.62.05-1.22.394-1.52 1.058L46.973 60.362 31.143 95.23a2.62 2.62 0 0 0 1.638 3.598c1.808.538 4.503 1.224 8.088 1.86L52.82 61.576z"/><defs><path id="e" d="M64 102.528c-16.386 0-26.627-2.335-31.22-3.7a2.62 2.62 0 0 1-1.636-3.6l15.83-34.867 15.35-33.81c.654-1.437 2.697-1.437 3.35 0l15.35 33.81 15.83 34.87a2.62 2.62 0 0 1-1.636 3.6c-4.59 1.365-14.832 3.7-31.218 3.7z"/></defs><clipPath id="f"><use xlink:href="#e" overflow="visible"/></clipPath><path opacity=".17" clip-path="url(#f)" fill="#1A3586" d="M56.715 38.908L84.997 67.19l-15.56-35.565-11.08-.51z"/><circle fill="#C1DD00" cx="64" cy="25.472" r="9.75"/><path d="M50.25 25.472h27.5M64 39.222v-27.5m-9.723 23.472L73.723 15.75m-19.446 0l19.446 19.444M53.445 21.12l21.11 8.702M59.65 36.027l8.7-21.11M53.46 29.86l21.08-8.776M59.613 14.93l8.774 21.082" fill="none" stroke="#C1DD00" stroke-width="2" stroke-linecap="round" stroke-linejoin="round" stroke-miterlimit="10"/><circle fill="#FFF" cx="61.366" cy="22.838" r="3.009"/><path fill="none" stroke="#736E88" stroke-width="3" stroke-linecap="round" stroke-linejoin="round" stroke-miterlimit="10" d="M102.777 20.702l-9.11 9.11"/><circle fill="none" stroke="#736E88" stroke-width="3" stroke-miterlimit="10" cx="32.569" cy="33.638" r="5.583"/><path fill="none" stroke="#545174" stroke-width="3" stroke-linecap="round" stroke-linejoin="round" stroke-miterlimit="10" d="M115.696 71.48l-1.23 6.75-1.23 6.748-5.23-4.44-5.23-4.438 6.46-2.31z"/><path fill="none" stroke="#736E88" stroke-width="3" stroke-linecap="round" stroke-linejoin="round" stroke-miterlimit="10" d="M93.667 20.702l9.11 9.11M14.505 77.583l5.917-5.917 5.917 5.917-5.92 5.917z"/><circle fill="#736E88" cx="34.694" cy="56.5" r="2.125"/><circle fill="#545174" cx="71.611" cy="113.833" r="4.042"/><circle fill="#545174" cx="91.875" cy="48" r="2.875"/></svg>
