<svg id="welcome_back_svg" xmlns="http://www.w3.org/2000/svg" xmlns:xlink="http://www.w3.org/1999/xlink" width="128" height="128" viewBox="0 0 128 128"><style>.welcome_back0{fill:#78e3ff}.welcome_back1{clip-path:url(#welcome_back_2_);fill:#45d0f5}.welcome_back2{fill:#d9f8ff}.welcome_back3{fill:#427300}.welcome_back4{clip-path:url(#welcome_back_4_);fill:#67b302}.welcome_back5{fill:#2d4f00}.welcome_back5,.welcome_back6{clip-path:url(#welcome_back_6_)}.welcome_back6{fill:#35bce0}.welcome_back7{clip-path:url(#welcome_back_10_)}.welcome_back8{fill:#cf652f}.welcome_back9{fill:#e68352}.welcome_back10{fill:#528f00}.welcome_back11{fill:#ade600}.welcome_back12{fill:#ecf0f1}.welcome_back13{fill:none;welcome_backroke:#9c415f;welcome_backroke-width:7;welcome_backroke-linecap:round;welcome_backroke-linejoin:round;welcome_backroke-miterlimit:10}.welcome_back14{fill:#4baaf4}.welcome_back15{fill:#FFF}.welcome_back16{clip-path:url(#welcome_back_12_)}.welcome_back17{fill:#78c3ff}</style><circle class="welcome_back0" cx="64" cy="64" r="64"/><defs><circle id="welcome_back_1_" cx="64" cy="64" r="64"/></defs><clipPath id="welcome_back_2_"><use xlink:href="#welcome_back_1_" overflow="visible"/></clipPath><path class="welcome_back1" d="M4.9 77.6l3.2 3.2 6.8-2.6 2.8 2.8 6.3-3.4 5 5 4.5-5 3.4 3.4V64.4L29.5 57l2.5-1.7-16.3-16.8 19.7-14.3 14.7 14.3 14-9.6L103.4 55 75.1 26.4l15.6-11.7L128 51.5V128H2.8z"/><path class="welcome_back2" d="M112.3 47c-.5-4.2-4-7.5-8.3-7.5-3.7 0-6.9 2.5-7.9 5.9-.6-.4-1.3-.6-2-.6-2.1 0-3.7 1.7-3.7 3.7 0 .3 0 .6.1.9-2.6.4-4.7 2.8-4.7 5.5 0 3 2.4 5.6 5.5 5.6h21.1c3.7 0 6.6-3.1 6.6-6.8 0-3.6-3-6.7-6.7-6.7zM37.6 28.6s-.1 0 0 0c-.4-3.6-3.5-6.5-7.2-6.5-3.2 0-6 2.1-6.9 5.1-.5-.3-1.1-.5-1.8-.5-1.8 0-3.2 1.4-3.2 3.2 0 .3 0 .5.1.8-2.3.3-4 2.4-4 4.8 0 2.6 2.1 4.8 4.7 4.8h18.2c3.2 0 5.7-2.7 5.7-5.9.1-3.1-2.5-5.8-5.6-5.8zM92.3 18.1c-.3-2.9-2.8-5.1-5.7-5.1a5.7 5.7 0 0 0-5.5 4.1c-.4-.3-.9-.4-1.4-.4-1.4 0-2.6 1.2-2.6 2.6 0 .2 0 .4.1.6-1.8.3-3.2 1.9-3.2 3.8 0 2.1 1.7 3.9 3.8 3.9h14.6c2.5 0 4.6-2.2 4.6-4.7-.1-2.6-2.2-4.8-4.7-4.8z"/><path class="welcome_back3" d="M27.1 84.7H25.5c-3.4-.4-6-3.3-6-6.9 0-3.5 2.6-6.4 6-6.9v-.1c0-3.8 3.1-6.9 6.9-6.9 3.8 0 6.9 3.1 6.9 6.9v13.8H27.1zM99.9 84.7H101.5c3.4-.4 6-3.3 6-6.9 0-3.5-2.6-6.4-6-6.9v-.1c0-3.8-3.1-6.9-6.9-6.9-3.8 0-6.9 3.1-6.9 6.9v13.8h12.2z"/><defs><circle id="welcome_back_3_" cx="64" cy="64" r="64"/></defs><clipPath id="welcome_back_4_"><use xlink:href="#welcome_back_3_" overflow="visible"/></clipPath><path class="welcome_back4" d="M0 96.2h128V128H0z"/><defs><circle id="welcome_back_5_" cx="64" cy="64" r="64"/></defs><clipPath id="welcome_back_6_"><use xlink:href="#welcome_back_5_" overflow="visible"/></clipPath><path class="welcome_back5" d="M38.2 87.8l-14.8-.1.6-10.1 5 5 4.5-5 3.4 3.4z"/><path class="welcome_back6" d="M124.4 87.8l-14.8-.1.3-5.4.3-4.7 5 5 4.5-5 3.4 3.4z"/><path class="welcome_back5" d="M104.2 81.2l-3.6-3.6-.2 4.7-.3 5.4h4.1z"/><g><defs><circle id="welcome_back_7_" cx="64" cy="64" r="64"/></defs><clipPath id="welcome_back_8_"><use xlink:href="#welcome_back_7_" overflow="visible"/></clipPath></g><g><defs><circle id="welcome_back_9_" cx="64" cy="64" r="64"/></defs><clipPath id="welcome_back_10_"><use xlink:href="#welcome_back_9_" overflow="visible"/></clipPath><g class="welcome_back7"><path class="welcome_back8" d="M26.6 78.7c-.6 1.1-.9 2.3-.9 3.5 0-1.2-.3-2.5-.9-3.5-1.7-3.1-6.1-3.1-7.7 0-.6 1.1-.9 2.3-.9 3.5 0-1.2-.3-2.5-.9-3.5-1.7-3.1-6.1-3.1-7.7 0-.6 1.1-.9 2.3-.9 3.5 0-1.2-.3-2.5-.9-3.5C4.5 76.5 2 75.9 0 76.8v22.3h35.2V82.3c0-1.2-.3-2.5-.9-3.5-1.6-3.2-6.1-3.2-7.7-.1zm95.8 0c-.6 1.1-.9 2.3-.9 3.5 0-1.2-.3-2.5-.9-3.5-1.7-3.1-6.1-3.1-7.7 0-.6 1.1-.9 2.3-.9 3.5 0-1.2-.3-2.5-.9-3.5-1.7-3.1-6.1-3.1-7.7 0-.6 1.1-.9 2.3-.9 3.5 0-1.2-.3-2.5-.9-3.5-1.7-3.1-6.1-3.1-7.7 0-.6 1.1-.9 2.3-.9 3.5v16.9h35V76.8c-2-.9-4.5-.2-5.6 1.9z"/><path class="welcome_back9" d="M17 78.7c-.6 1.1-.9 2.3-.9 3.5v16.9h9.5V82.3c0-1.2-.3-2.5-.9-3.5-1.6-3.2-6-3.2-7.7-.1zM103.3 78.7c-.6 1.1-.9 2.3-.9 3.5v16.9h9.5V82.3c0-1.2-.3-2.5-.9-3.5-1.7-3.2-6.1-3.2-7.7-.1zM128 76.8c-2-.9-4.5-.2-5.6 1.9-.6 1.1-.9 2.3-.9 3.5v16.9h6.5V76.8zM5.7 78.7C4.5 76.5 2 75.9 0 76.8v22.3h6.6V82.3c0-1.3-.3-2.5-.9-3.6z"/></g></g><g><path class="welcome_back10" d="M39 107.9c-.1 0-.2 0-.3-.1l-1.7-1.3c-.2-.2-.3-.5-.1-.7.2-.2.5-.3.7-.1l1.7 1.3c.2.2.3.5.1.7-.1.2-.2.2-.4.2zM69 106.7c-.1 0-.3-.1-.4-.2-.2-.2-.1-.5.1-.7l1.7-1.3c.2-.2.5-.1.7.1.2.2.1.5-.1.7l-1.7 1.3c-.1 0-.2.1-.3.1zM51.3 103.4c-.1 0-.3-.1-.4-.2-.2-.2-.1-.5.1-.7l1.7-1.3c.2-.2.5-.1.7.1.2.2.1.5-.1.7l-1.7 1.3c-.1 0-.2.1-.3.1zM90.3 115.1c-.1 0-.3-.1-.4-.2-.2-.2-.1-.5.1-.7l1.7-1.3c.2-.2.5-.1.7.1.2.2.1.5-.1.7l-1.7 1.3c-.1.1-.2.1-.3.1zM56.5 110.9h-.2c-.3-.1-.4-.4-.3-.7l.8-2c.1-.3.4-.4.7-.3.3.1.4.4.3.7l-.8 2c-.2.2-.3.3-.5.3zM95.8 106.8c-.1 0-.2 0-.3-.1l-1.7-1.3c-.2-.2-.3-.5-.1-.7.2-.2.5-.3.7-.1l1.7 1.3c.2.2.3.5.1.7-.1.1-.3.2-.4.2zM46 111.5c-.1 0-.3-.1-.4-.2-.2-.2-.1-.5.1-.7l1.7-1.3c.2-.2.5-.1.7.1s.1.5-.1.7l-1.7 1.3c0 .1-.2.1-.3.1zM74.5 111.5c-.2 0-.3-.1-.4-.3l-1-1.9c-.1-.2 0-.5.2-.7.2-.1.5 0 .7.2l1 1.9c.1.2 0 .5-.2.7-.2.1-.3.1-.3.1zM27.7 112.4c-.3 0-.5-.2-.5-.5l-.2-2.2c0-.3.2-.5.5-.5s.5.2.5.5l.2 2.2c0 .2-.2.4-.5.5zM16.9 103.9c-.2.1-.5 0-.7-.2l-1.1-1.9c-.1-.2-.1-.5.2-.7.3-.1.5-.1.7.2l1.1 1.9c.2.3.1.6-.2.7.1 0 .1 0 0 0zM101 109c-.3 0-.5-.2-.5-.5l-.1-2.2c0-.3.2-.5.5-.5s.5.2.5.5l.1 2.2c0 .2-.2.5-.5.5zM60.8 105.6c-.3 0-.5-.2-.5-.5s.2-.5.5-.5l2.2-.2c.3 0 .5.2.5.5s-.2.5-.5.5l-2.2.2c.1 0 .1 0 0 0zM29.8 105.7c-.3 0-.5-.2-.5-.5s.2-.5.5-.5l2.2-.2c.3 0 .5.2.5.5s-.2.5-.5.5l-2.2.2zM23.8 107.5c-.1 0-.2 0-.3-.1-.2-.2-.3-.5-.1-.7l1.2-1.8c.2-.2.5-.3.7-.1.2.2.3.5.1.7l-1.2 1.8c-.1.1-.2.2-.4.2zM79 106.1c-.3 0-.5-.2-.5-.5s.2-.5.5-.5l2.2-.2c.3 0 .5.2.5.5s-.2.5-.5.5l-2.2.2zM86.3 109.5c-.1 0-.2 0-.3-.1-.2-.2-.3-.5-.1-.7l1.3-1.8c.2-.2.5-.3.7-.1.2.2.3.5.1.7l-1.3 1.8c-.1.2-.2.2-.4.2zM47.3 107.1c-.2 0-.4-.1-.5-.3l-.9-2c-.1-.3 0-.5.2-.7.2-.1.5 0 .7.2l.9 2c.1.3 0 .5-.2.7 0 .1-.1.1-.2.1zM48.2 119.3c-.2 0-.4-.1-.5-.3l-.9-2c-.1-.3 0-.5.3-.7.2-.1.5 0 .7.3l.9 2c.1.3 0 .5-.3.7-.1-.1-.1 0-.2 0zM79.5 117.5c-.1 0-.3-.1-.4-.2-.2-.2-.1-.5.1-.7l1.7-1.3c.2-.2.5-.1.7.1.2.2.1.5-.1.7l-1.7 1.3c-.1 0-.2.1-.3.1zM62.7 118.7c-.1 0-.3-.1-.4-.2-.2-.2-.1-.5.1-.7l1.7-1.3c.2-.2.5-.1.7.1.2.2.1.5-.1.7l-1.7 1.3c-.1.1-.2.1-.3.1zM74.8 124.5c-.1 0-.3-.1-.4-.2-.2-.2-.1-.5.1-.7l1.7-1.3c.2-.2.5-.1.7.1.2.2.1.5-.1.7l-1.7 1.3c-.1 0-.2.1-.3.1zM69.5 122c-.1 0-.2 0-.3-.1l-1.7-1.3c-.2-.2-.3-.5-.1-.7.2-.2.5-.3.7-.1l1.7 1.3c.2.2.3.5.1.7-.1.2-.3.2-.4.2zM104.6 103.8c-.1 0-.2 0-.3-.1l-1.7-1.3c-.2-.2-.3-.5-.1-.7.2-.2.5-.3.7-.1l1.7 1.3c.2.2.3.5.1.7-.1.1-.2.2-.4.2zM53.8 122.7c-.1 0-.3-.1-.4-.2-.2-.2-.1-.5.1-.7l1.7-1.3c.2-.2.5-.1.7.1.2.2.1.5-.1.7l-1.7 1.3c0 .1-.2.1-.3.1zM86.9 122c-.1 0-.2 0-.3-.1l-1.7-1.3c-.2-.2-.3-.5-.1-.7.2-.2.5-.3.7-.1l1.7 1.3c.2.2.3.5.1.7-.1.2-.2.2-.4.2zM37.1 120c-.3 0-.5-.2-.5-.5l-.1-2.2c0-.3.2-.5.5-.5s.5.2.5.5l.1 2.2c0 .3-.2.5-.5.5zM112 103.4c-.1 0-.2 0-.3-.1-.2-.2-.3-.5-.1-.7l1.2-1.8c.2-.2.5-.3.7-.1.2.2.3.5.1.7l-1.2 1.8c-.1.1-.3.2-.4.2zM71.3 116.4c-.3 0-.5-.2-.5-.5s.2-.5.5-.5l2.2-.2c.3 0 .5.2.5.5s-.2.5-.5.5l-2.2.2zM40.3 116.5c-.3 0-.5-.2-.5-.5s.2-.5.5-.5l2.2-.2c.3 0 .5.2.5.5s-.2.5-.5.5l-2.2.2zM90.1 118.5c-.3 0-.5-.2-.5-.5s.2-.5.5-.5l2.2-.2c.3 0 .5.2.5.5s-.2.5-.5.5l-2.2.2zM61.7 125.1c-.2 0-.4-.2-.5-.4 0-.3.1-.5.4-.6l2.1-.4c.3-.1.5.1.6.4 0 .3-.1.5-.4.6l-2.2.4c.1 0 0 0 0 0zM57.8 117.9c-.2 0-.4-.1-.5-.3l-.9-2c-.1-.3 0-.5.2-.7.2-.1.5 0 .7.2l.9 2c.1.3 0 .5-.2.7-.1.1-.1.1-.2.1z"/><path class="welcome_back11" d="M27.7 104c-.1 0-.2 0-.3-.1l-1.7-1.3c-.2-.2-.3-.5-.1-.7.2-.2.5-.3.7-.1l1.7 1.3c.2.2.3.5.1.7-.1.1-.3.2-.4.2zM57.7 102.7c-.1 0-.3-.1-.4-.2-.2-.2-.1-.5.1-.7l1.7-1.3c.2-.2.5-.1.7.1.2.2.1.5-.1.7l-1.7 1.3c-.1.1-.2.1-.3.1zM43.5 101.4c.1 0 .3.2.3.3.1.3-.1.5-.3.6l-2.1.7c-.3.1-.5-.1-.6-.3-.1-.3.1-.5.3-.6l2.1-.7c0-.1.2-.1.3 0zM81.2 110.3c-.1 0-.3-.1-.4-.2-.2-.2-.1-.5.1-.7l1.7-1.3c.2-.2.5-.1.7.1.2.2.1.5-.1.7l-1.7 1.3c-.1.1-.2.1-.3.1zM44 107.5c-.1 0-.2 0-.3-.1l-1.7-1.3c-.2-.2-.3-.5-.1-.7.2-.2.5-.3.7-.1l1.7 1.3c.2.2.3.5.1.7-.1.1-.2.2-.4.2zM84.4 102.8c-.1 0-.2 0-.3-.1l-1.7-1.3c-.2-.2-.3-.5-.1-.7.2-.2.5-.3.7-.1l1.7 1.3c.2.2.3.5.1.7-.1.1-.2.2-.4.2zM32.6 109.3c-.1 0-.3-.1-.4-.2-.2-.2-.1-.5.1-.7l1.7-1.3c.2-.2.5-.1.7.1.2.2.1.5-.1.7l-1.7 1.3c-.1.1-.2.1-.3.1zM66 110c-.1 0-.2 0-.3-.1l-1.7-1.3c-.2-.2-.3-.5-.1-.7.2-.2.5-.3.7-.1l1.7 1.3c.2.2.3.5.1.7-.1.1-.3.2-.4.2zM20.7 107.8c-.3 0-.5-.2-.5-.5l-.1-2.2c0-.3.2-.5.5-.5s.5.2.5.5l.1 2.2c0 .3-.2.5-.5.5zM89.6 105.1c-.3 0-.5-.2-.5-.5l-.1-2.2c0-.3.2-.5.5-.5s.5.2.5.5l.1 2.2c.1.2-.1.4-.5.5.1 0 .1 0 0 0zM52 106.9c-.3 0-.5-.2-.5-.5s.2-.5.5-.5l2.2-.2c.3 0 .5.2.5.5s-.2.5-.5.5l-2.2.2c.1 0 0 0 0 0zM18.5 101.8c-.3 0-.5-.2-.5-.5s.2-.5.5-.5l2.2-.2c.3 0 .5.2.5.5s-.2.5-.5.5l-2.2.2zM67.6 102.2c-.3 0-.5-.2-.5-.5s.2-.5.5-.5l2.2-.2c.3 0 .5.2.5.5s-.2.5-.5.5l-2.2.2c.1 0 .1 0 0 0zM76 103.8c-.3 0-.5-.2-.5-.5l-.2-2.2c0-.3.2-.5.5-.5s.5.2.5.5l.2 2.2c.1.2-.2.4-.5.5.1 0 0 0 0 0zM36 103.1c-.2 0-.4-.1-.5-.3l-.9-2c-.1-.3 0-.5.2-.7.2-.1.5 0 .7.2l.9 2c.1.3 0 .5-.2.7-.1.1-.2.1-.2.1zM97.1 116.3c-.1 0-.3-.1-.4-.2l-1.5-1.6c-.2-.2-.2-.5 0-.7.2-.2.5-.2.7 0l1.5 1.6c.2.2.2.5 0 .7-.1.2-.2.2-.3.2zM90.4 110.7c-.1 0-.2 0-.3-.1-.2-.2-.2-.5 0-.7l1.5-1.6c.2-.2.5-.2.7 0 .2.2.2.5 0 .7l-1.5 1.6c-.1.1-.2.1-.4.1zM61.3 114.7c-.1 0-.2 0-.3-.1l-1.7-1.3c-.2-.2-.3-.5-.1-.7.2-.2.5-.3.7-.1l1.7 1.3c.2.2.3.5.1.7-.1.2-.2.2-.4.2zM78.7 114.1c-.1 0-.2 0-.3-.1l-1.7-1.3c-.2-.2-.3-.5-.1-.7s.5-.3.7-.1l1.7 1.3c.2.2.3.5.1.7-.1.1-.2.2-.4.2zM44 121.7c-.1 0-.2 0-.3-.1l-1.7-1.3c-.2-.2-.3-.5-.1-.7.2-.2.5-.3.7-.1l1.7 1.3c.2.2.3.5.1.7-.1.1-.2.2-.4.2zM73.1 121c-.2 0-.3-.1-.4-.2-.2-.2-.1-.5.1-.7l1.7-1.3c.2-.2.5-.1.7.1.2.2.1.5-.1.7l-1.7 1.3c-.1 0-.2.1-.3.1zM37.1 113.4c-.1 0-.3-.1-.4-.2l-1.5-1.6c-.2-.2-.2-.5 0-.7.2-.2.5-.2.7 0l1.5 1.6c.2.2.2.5 0 .7-.1.1-.2.2-.3.2zM80.4 123.2c-.3 0-.5-.2-.5-.5v-2.2c0-.3.2-.5.5-.5s.5.2.5.5v2.2c0 .2-.3.4-.5.5zM49.8 124.2c-.3 0-.5-.2-.5-.5v-2.2c0-.3.2-.5.5-.5s.5.2.5.5v2.2c0 .3-.2.5-.5.5zM52.2 117.5c-.2 0-.3-.1-.4-.2-.2-.2-.1-.5.1-.7l1.7-1.3c.2-.2.5-.1.7.1.2.2.1.5-.1.7l-1.7 1.3c0 .1-.2.1-.3.1zM59.2 124.2c-.3 0-.5-.3-.5-.5l.1-2.2c0-.3.3-.5.5-.5.3 0 .5.3.5.5l-.1 2.2c0 .3-.2.5-.5.5zM31.1 115.9c-.1 0-.3-.1-.4-.2-.2-.2-.2-.5 0-.7l1.6-1.4c.2-.2.5-.2.7 0 .2.2.2.5 0 .7l-1.6 1.4c0 .1-.1.2-.3.2zM68.6 113.9l-2.2-.2c-.3 0-.5-.3-.5-.5 0-.3.3-.5.5-.5l2.2.2c.3 0 .5.3.5.5 0 .3-.2.5-.5.5zM70.6 125.2c-.1 0-.1 0 0 0l-2.2-.2c-.3 0-.5-.3-.5-.5 0-.3.3-.5.5-.5l2.2.2c.3 0 .5.3.5.5-.1.3-.3.5-.5.5zM98.7 102.8c-.1 0-.1 0 0 0l-2.2-.2c-.3 0-.5-.3-.5-.5 0-.3.3-.5.5-.5l2.2.2c.3 0 .5.3.5.5-.1.3-.3.5-.5.5zM100.7 112.9h-.1l-2.1-.6c-.3-.1-.4-.4-.3-.6.1-.3.4-.4.6-.3l2.1.6c.3.1.4.4.3.6-.1.2-.3.3-.5.3zM104.9 109h-.2c-.3-.1-.4-.4-.3-.7l.9-2c.1-.3.4-.4.7-.3.3.1.4.4.3.7l-.9 2c-.1.2-.3.3-.5.3zM109.4 104.8c-.1 0-.3-.1-.4-.2l-1.5-1.6c-.2-.2-.2-.5 0-.7.2-.2.5-.2.7 0l1.5 1.6c.2.2.2.5 0 .7 0 .1-.1.2-.3.2zM52.7 112.7l-2.2-.2c-.3 0-.5-.3-.5-.5 0-.3.3-.5.5-.5l2.2.2c.3 0 .5.3.5.5 0 .3-.2.5-.5.5zM41.2 113.4c-.3 0-.5-.3-.5-.5l.2-2.2c0-.3.3-.5.5-.5.3 0 .5.3.5.5l-.2 2.2c0 .3-.2.5-.5.5zM85.9 115.1c-.2 0-.3-.1-.4-.2l-1.2-1.8c-.1-.2-.1-.5.2-.7.2-.1.5-.1.7.2l1.2 1.8c.1.2.1.5-.2.7h-.3z"/></g><path class="welcome_back12" d="M64.1 32.3L35.2 55.1v44h57.6v-44z"/><path class="welcome_back13" d="M32 54.5l32.1-25.6 32.3 25.6"/><g><path class="welcome_back14" d="M51 86.8c-1.2 0-2.1-1-2.1-2.1V58.6c0-1.2 1-2.1 2.1-2.1h26.5c1.2 0 2.1 1 2.1 2.1v26.1c0 1.2-1 2.1-2.1 2.1H51z"/><path class="welcome_back15" d="M77.4 57.1c.8 0 1.4.6 1.4 1.4v26.1c0 .8-.6 1.4-1.4 1.4H51c-.8 0-1.4-.6-1.4-1.4v-26c0-.8.6-1.4 1.4-1.4h26.4m0-1.5H51c-1.6 0-2.8 1.3-2.8 2.8v26.1c0 1.6 1.3 2.8 2.8 2.8h26.5c1.6 0 2.8-1.3 2.8-2.8v-26c0-1.6-1.3-2.9-2.9-2.9z"/><g><defs><path id="welcome_back_11_" d="M77.4 86.1H51c-.8 0-1.4-.6-1.4-1.4V58.6c0-.8.6-1.4 1.4-1.4h26.5c.8 0 1.4.6 1.4 1.4v26.1c0 .7-.7 1.4-1.5 1.4z"/></defs><clipPath id="welcome_back_12_"><use xlink:href="#welcome_back_11_" overflow="visible"/></clipPath><g class="welcome_back16"><path class="welcome_back17" d="M76.5 56.3L46.1 86.7l1 1.1 30.7-30.6zM78.7 58.1L47.3 89.5l5 5L83.8 63zM85.4 69.9L60 95.3h2.8l22.6-22.6zM43.6 72.9L65 51.5l1.2 1.3-22.6 22.7z"/></g></g></g></svg>
