<svg id="yearling_svg" xmlns="http://www.w3.org/2000/svg" xmlns:xlink="http://www.w3.org/1999/xlink" width="128" height="128" viewBox="0 0 128 128"><style>.yearling0{fill:#a4489a}.yearling1{clip-path:url(#yearling_2_);fill:#883785}.yearling2{fill:#6f2c6f}.yearling3{fill:#ffcc02}.yearling4{fill:#fff1eb}.yearling5{fill:#fff1e5}.yearling6{opacity:.85;clip-path:url(#yearling_4_);fill:#d6ccbe}.yearling7{fill:#614e9f}.yearling8{fill:#8c3b88}</style><circle class="yearling0" cx="64" cy="64" r="64"/><defs><circle id="yearling_1_" cx="64" cy="64" r="64"/></defs><clipPath id="yearling_2_"><use xlink:href="#yearling_1_" overflow="visible"/></clipPath><path class="yearling1" d="M97.4 32.8L128 63.5V128H62.7L31.2 96.3l7.5-24.6-5.5-17.3-8.4-8.4 16.7-10.2 50.7-4.7z"/><path class="yearling2" d="M42.8 50.2l5.1 5.1 4.5-3.3-5.5-5.5zM81.1 50.2l5.1 5.1 4.6-3.3-5.5-5.5z"/><path class="yearling3" d="M44.8 41.6c2.8 0 5.2 2.4 6 4.4h26.3c.8-2 3.2-4.4 6-4.4s5.2 2.4 6 4.4H103c-2-18-18.3-22.6-39.2-22.6S26.9 28 24.8 46h13.9c.8-2 3.2-4.4 6.1-4.4z"/><path class="yearling4" d="M88.9 51c-1 2-3.2 3.6-5.7 3.6S78.5 53 77.5 51h-27c-1 2-3.2 3.6-5.7 3.6S40.1 53 39.1 51H24.6c0 52 4.2 51.5 39.4 51.5s39.3.5 39.4-51.5H88.9z"/><circle class="yearling5" cx="44.9" cy="48.3" r="2.8"/><circle class="yearling5" cx="83.2" cy="48.3" r="2.8"/><defs><path id="yearling_3_" d="M88.9 51c-1 2-3.2 3.6-5.7 3.6S78.5 53 77.5 51h-27c-1 2-3.2 3.6-5.7 3.6S40.1 53 39.1 51H24.6c0 52 4.2 51.5 39.4 51.5s39.3.5 39.4-51.5H88.9z"/></defs><clipPath id="yearling_4_"><use xlink:href="#yearling_3_" overflow="visible"/></clipPath><path class="yearling6" d="M41.3 71.5l8.4 8.5-4.6 5.1-4.2 7.2L51.6 103H91l6.9-5.5 4.8-10.5.7-5.3L85 63.3l-15.1.8-.1 6.8 1.5 3.7-10.9-10.9-9.3-1.2-8.6 7.1z"/><g><path class="yearling7" d="M42.4 86c.9-2.1 3-4.4 6.3-6.8 2.9-2.1 4.8-3.6 5.6-4.4 1.3-1.4 2-2.9 2-4.6 0-1.4-.4-2.5-1.1-3.4-.7-.9-1.8-1.3-3.2-1.3-1.9 0-3.2.7-3.9 2.1-.4.8-.6 2.1-.7 3.9h-6.1c.1-2.7.6-4.9 1.5-6.6 1.7-3.2 4.7-4.8 8.9-4.8 3.4 0 6.1.9 8.1 2.8s3 4.3 3 7.4c0 2.4-.7 4.5-2.1 6.3-.9 1.2-2.4 2.6-4.6 4.1l-2.5 1.8c-1.6 1.1-2.7 1.9-3.2 2.4-.6.5-1.1 1.1-1.5 1.7h13.9v5.5H40.9c.1-2.1.6-4.2 1.5-6.1zM67 78.6c.8-1.5 2-2.5 3.6-3.3-1.5-1-2.6-2.1-3-3.3-.5-1.2-.7-2.3-.7-3.4 0-2.3.9-4.3 2.6-5.9 1.8-1.6 4.2-2.5 7.4-2.5s5.7.8 7.4 2.5c1.8 1.6 2.6 3.6 2.6 5.9 0 1-.2 2.2-.7 3.4-.5 1.2-1.5 2.2-3 3.1 1.6.9 2.8 2 3.6 3.5.8 1.5 1.2 3.1 1.2 4.9 0 2.7-1 5-3 6.9s-4.8 2.8-8.3 2.8c-3.6 0-6.3-.9-8.1-2.8-1.8-1.9-2.8-4.2-2.8-6.9 0-1.9.4-3.5 1.2-4.9zm6.5 8.1c.8.9 1.9 1.3 3.4 1.3 1.4 0 2.6-.4 3.4-1.3.8-.9 1.2-2.1 1.2-3.7s-.4-2.9-1.2-3.7c-.8-.8-1.9-1.3-3.4-1.3-1.4 0-2.5.4-3.4 1.3-.8.8-1.2 2.1-1.2 3.7s.4 2.8 1.2 3.7zm.4-14.6c.7.7 1.7 1.1 3 1.1s2.3-.4 3-1.1c.7-.7 1-1.7 1-2.8 0-1.3-.3-2.2-1-3-.7-.7-1.7-1.1-3-1.1s-2.3.4-3 1.1c-.7.7-1.1 1.7-1.1 3 .1 1.1.4 2.1 1.1 2.8z"/></g><path class="yearling8" d="M70.8 36.2H57.2c-1.4 0-2.6-1.2-2.6-2.6 0-1.4 1.2-2.6 2.6-2.6h13.7c1.4 0 2.6 1.2 2.6 2.6-.1 1.4-1.2 2.6-2.7 2.6z"/></svg>
