<svg width="47" height="47" fill="none" xmlns="http://www.w3.org/2000/svg"><circle cx="23.5" cy="23.5" r="22.5" fill="#F6E9BE" stroke="#927ABC"/><circle cx="23.5" cy="23.5" r="22.5" fill="#F6E9BE"/><circle cx="23.5" cy="23.5" r="22.5" fill="#EDE2FF"/><circle cx="23.499" cy="23.5" r="20.375" fill="#EDE2FF" stroke="#927ABC" stroke-width=".5"/><path d="M10.806 39.756a20.625 20.625 0 0017.21 3.868L23.498 23.5 10.806 39.756z" fill="#927ABC"/><path d="M6.76 11.45a20.625 20.625 0 00-3.618 15.366L23.5 23.5 6.76 11.45z" fill="#927ABC"/><path d="M19.36 3.295a20.625 20.625 0 0118.053 4.98L23.499 23.5 19.36 3.294zM43.89 20.405c.821 5.408-.54 10.921-3.784 15.326L23.5 23.5l20.392-3.095z" fill="#927ABC"/><circle cx="23.499" cy="23.5" r="1.775" fill="#927ABC" stroke="#612DBC" stroke-width=".2"/><circle cx="18.812" cy="3.813" r=".838" fill="#927ABC" stroke="#722BEF" stroke-width=".2"/><circle cx="7.563" cy="11.312" r=".838" fill="#927ABC" stroke="#722BEF" stroke-width=".2"/><circle cx="3.812" cy="26.313" r=".838" fill="#927ABC" stroke="#722BEF" stroke-width=".2"/><circle cx="11.311" cy="39.438" r=".838" fill="#927ABC" stroke="#722BEF" stroke-width=".2"/><circle cx="28.188" cy="43.188" r=".838" fill="#927ABC" stroke="#722BEF" stroke-width=".2"/><circle cx="39.437" cy="35.687" r=".838" fill="#927ABC" stroke="#722BEF" stroke-width=".2"/><circle cx="43.188" cy="20.688" r=".838" fill="#927ABC" stroke="#722BEF" stroke-width=".2"/><circle cx="37.562" cy="9.437" r=".838" fill="#927ABC" stroke="#722BEF" stroke-width=".2"/></svg>