<svg width="47" height="47" fill="none" xmlns="http://www.w3.org/2000/svg"><g filter="url(#filter0_i)"><rect x="1.556" y="1" width="44.444" height="44.444" rx="22.222" fill="url(#paint0_linear)"/></g><rect x="1.056" y=".5" width="45.444" height="45.444" rx="22.722" stroke="#fff"/><g filter="url(#filter1_i)"><rect x="1.556" y="1" width="44.444" height="44.444" rx="22.222" fill="url(#paint1_linear)"/></g><mask id="a" maskUnits="userSpaceOnUse" x="1" y="1" width="45" height="45"><rect x="1.556" y="1" width="44.444" height="44.444" rx="22.222" fill="url(#paint2_linear)"/></mask><g mask="url(#a)"><g filter="url(#filter2_i)"><rect x="1.556" y="1" width="44.444" height="44.444" rx="22.222" fill="url(#paint3_radial)"/></g><g filter="url(#filter3_i)"><rect x="1.556" y="1" width="44.444" height="44.444" rx="22.222" fill="url(#paint4_linear)" fill-opacity=".71"/></g><g filter="url(#filter4_i)"><path d="M1.556 22.632C1.556 10.685 11.24 1 23.188 1h1.18C36.315 1 46 10.685 46 22.632c0 4.589-14.173-5.9-21.697 0-3.169 2.484-7.364 4.67-11.16 6.367-5.609 2.509-11.587-.223-11.587-6.367z" fill="url(#paint5_linear)" fill-opacity=".34"/></g></g><path d="M15.83 5.058c.167 1.393 2.822-.339 6.303-.757 3.482-.418 6.472.636 6.304-.757-.167-1.393-3.365-2.177-6.846-1.758-3.482.418-5.929 1.88-5.762 3.272z" fill="url(#paint6_linear)"/><path d="M12.36 8.268c.356.412 1.229-.01 2.095-.76.866-.748 1.398-1.538 1.041-1.951-.356-.413-1.347-.14-2.213.608-.867.749-1.28 1.69-.923 2.103z" fill="url(#paint7_linear)" fill-opacity=".6"/><path fill-rule="evenodd" clip-rule="evenodd" d="M21.71 20.51h7.283-7.283zm-1.885-.838l-.234.365.234-.365zm-.415.648l.101-.16-.101.16zm13.067-7.373H24.14l-4.083 6.363 4.083-6.362h-8.337l-4.729 7.563L24.14 37.212l13.065-16.701-4.728-7.563z" fill="#85CEE7"/><path fill-rule="evenodd" clip-rule="evenodd" d="M24.141 12.948l-4.977 7.466h9.954l-4.977-7.466z" fill="#CDEAF2"/><path fill-rule="evenodd" clip-rule="evenodd" d="M24.141 37.212l4.977-16.799h-9.954l4.977 16.799z" fill="#85CEE7"/><path fill-rule="evenodd" clip-rule="evenodd" d="M28.849 20.414l3.38-7.466h-8.088l4.708 7.466z" fill="#A9DBEB"/><path fill-rule="evenodd" clip-rule="evenodd" d="M32.55 12.948l4.657 7.466h-8.089l3.432-7.466z" fill="#85CEE7"/><path fill-rule="evenodd" clip-rule="evenodd" d="M19.433 20.414l-3.38-7.466h8.088l-4.708 7.466z" fill="#A9DBEB"/><path fill-rule="evenodd" clip-rule="evenodd" d="M15.731 12.947l-4.657 7.466h8.088l-3.43-7.466z" fill="#85CEE7"/><path fill-rule="evenodd" clip-rule="evenodd" d="M10.956 20.441l13.084 16.89.12-.119-12.966-16.77h-.238z" fill="#384042"/><path fill-rule="evenodd" clip-rule="evenodd" d="M11.076 20.413L24.14 37.212l-4.853-16.799h-8.212z" fill="#2BA2C4"/><path d="M28.994 20.413L24.14 37.212l13.065-16.799h-8.212z" fill="#2BA2C4"/><path fill-rule="evenodd" clip-rule="evenodd" d="M33.902 14.167l3.317-.545-3.317-.545.876-1.22-1.22.876-.546-3.318-.545 3.318-1.22-.877.876 1.221-3.318.545 3.318.545-.876 1.22 1.22-.876.545 3.318.545-3.318 1.221.876-.876-1.22z" fill="#FFFFFE"/><defs><linearGradient id="paint0_linear" x1="1.556" y1="-2.989" x2="22.832" y2="45.856" gradientUnits="userSpaceOnUse"><stop stop-color="#FF9040"/><stop offset="1" stop-color="#B90000"/></linearGradient><linearGradient id="paint1_linear" x1="1.556" y1="-2.989" x2="22.832" y2="45.856" gradientUnits="userSpaceOnUse"><stop stop-color="#FF9040"/><stop offset="1" stop-color="#B90000"/></linearGradient><linearGradient id="paint2_linear" x1="1.556" y1="-2.989" x2="22.832" y2="45.856" gradientUnits="userSpaceOnUse"><stop stop-color="#FF9040"/><stop offset="1" stop-color="#B90000"/></linearGradient><linearGradient id="paint4_linear" x1="23.778" y1="1" x2="23.778" y2="45.444" gradientUnits="userSpaceOnUse"><stop stop-color="#FFE355"/><stop offset="1" stop-color="#FFD500"/></linearGradient><linearGradient id="paint5_linear" x1="23.778" y1="1" x2="23.778" y2="44.264" gradientUnits="userSpaceOnUse"><stop stop-color="#FF9040"/><stop offset="1" stop-color="#FFCAAC" stop-opacity=".1"/></linearGradient><linearGradient id="paint6_linear" x1="12.714" y1="3.77" x2="30.113" y2="4.878" gradientUnits="userSpaceOnUse"><stop stop-color="#F9E0E0"/><stop offset="1" stop-color="#fff" stop-opacity="0"/></linearGradient><linearGradient id="paint7_linear" x1="11.162" y1="8.331" x2="16.013" y2="5.301" gradientUnits="userSpaceOnUse"><stop stop-color="#fff"/><stop offset="1" stop-color="#fff"/></linearGradient><filter id="filter0_i" x=".556" y="0" width="50.444" height="50.444" filterUnits="userSpaceOnUse" color-interpolation-filters="sRGB"><feFlood flood-opacity="0" result="BackgroundImageFix"/><feBlend in="SourceGraphic" in2="BackgroundImageFix" result="shape"/><feColorMatrix in="SourceAlpha" values="0 0 0 0 0 0 0 0 0 0 0 0 0 0 0 0 0 0 127 0" result="hardAlpha"/><feOffset dx="4" dy="4"/><feGaussianBlur stdDeviation="4.5"/><feComposite in2="hardAlpha" operator="arithmetic" k2="-1" k3="1"/><feColorMatrix values="0 0 0 0 1 0 0 0 0 0.720833 0 0 0 0 0.737583 0 0 0 0.69 0"/><feBlend in2="shape" result="effect1_innerShadow"/></filter><filter id="filter1_i" x="1.556" y="1" width="48.444" height="48.444" filterUnits="userSpaceOnUse" color-interpolation-filters="sRGB"><feFlood flood-opacity="0" result="BackgroundImageFix"/><feBlend in="SourceGraphic" in2="BackgroundImageFix" result="shape"/><feColorMatrix in="SourceAlpha" values="0 0 0 0 0 0 0 0 0 0 0 0 0 0 0 0 0 0 127 0" result="hardAlpha"/><feOffset dx="4" dy="4"/><feGaussianBlur stdDeviation="4.5"/><feComposite in2="hardAlpha" operator="arithmetic" k2="-1" k3="1"/><feColorMatrix values="0 0 0 0 1 0 0 0 0 0.720833 0 0 0 0 0.737583 0 0 0 0.69 0"/><feBlend in2="shape" result="effect1_innerShadow"/></filter><filter id="filter2_i" x="1.556" y="1" width="48.444" height="48.444" filterUnits="userSpaceOnUse" color-interpolation-filters="sRGB"><feFlood flood-opacity="0" result="BackgroundImageFix"/><feBlend in="SourceGraphic" in2="BackgroundImageFix" result="shape"/><feColorMatrix in="SourceAlpha" values="0 0 0 0 0 0 0 0 0 0 0 0 0 0 0 0 0 0 127 0" result="hardAlpha"/><feOffset dx="4" dy="4"/><feGaussianBlur stdDeviation="4.5"/><feComposite in2="hardAlpha" operator="arithmetic" k2="-1" k3="1"/><feColorMatrix values="0 0 0 0 1 0 0 0 0 0 0 0 0 0 0.0599999 0 0 0 0.69 0"/><feBlend in2="shape" result="effect1_innerShadow"/></filter><filter id="filter3_i" x="1.556" y="1" width="44.444" height="45.444" filterUnits="userSpaceOnUse" color-interpolation-filters="sRGB"><feFlood flood-opacity="0" result="BackgroundImageFix"/><feBlend in="SourceGraphic" in2="BackgroundImageFix" result="shape"/><feColorMatrix in="SourceAlpha" values="0 0 0 0 0 0 0 0 0 0 0 0 0 0 0 0 0 0 127 0" result="hardAlpha"/><feOffset dy="1"/><feGaussianBlur stdDeviation="1"/><feComposite in2="hardAlpha" operator="arithmetic" k2="-1" k3="1"/><feColorMatrix values="0 0 0 0 0.920833 0 0 0 0 0.920833 0 0 0 0 0.920833 0 0 0 1 0"/><feBlend in2="shape" result="effect1_innerShadow"/></filter><filter id="filter4_i" x="1.556" y="1" width="44.444" height="29.927" filterUnits="userSpaceOnUse" color-interpolation-filters="sRGB"><feFlood flood-opacity="0" result="BackgroundImageFix"/><feBlend in="SourceGraphic" in2="BackgroundImageFix" result="shape"/><feColorMatrix in="SourceAlpha" values="0 0 0 0 0 0 0 0 0 0 0 0 0 0 0 0 0 0 127 0" result="hardAlpha"/><feOffset dy="1"/><feGaussianBlur stdDeviation="1"/><feComposite in2="hardAlpha" operator="arithmetic" k2="-1" k3="1"/><feColorMatrix values="0 0 0 0 1 0 0 0 0 0.732333 0 0 0 0 0.695833 0 0 0 1 0"/><feBlend in2="shape" result="effect1_innerShadow"/></filter><radialGradient id="paint3_radial" cx="0" cy="0" r="1" gradientUnits="userSpaceOnUse" gradientTransform="rotate(92.234 -.796 24.613) scale(69.3319 68.7419)"><stop stop-color="#FFE355"/><stop offset="1" stop-color="#FF9040"/></radialGradient></defs></svg>