<svg width="47" height="47" fill="none" xmlns="http://www.w3.org/2000/svg"><path d="M46 23.5C46 11.074 35.926 1 23.5 1S1 11.074 1 23.5 11.074 46 23.5 46 46 35.926 46 23.5z" fill="#B732E6" stroke="#B732E6"/><path fill-rule="evenodd" clip-rule="evenodd" d="M33.322 12.149a4.44 4.44 0 014.446 4.434c0 1.774-1.048 3.3-2.557 4.009.444 1.19.687 2.47.687 3.805 0 6.336-5.441 11.473-12.154 11.473S11.59 30.733 11.59 24.397c0-1.278.224-2.506.633-3.654a4.432 4.432 0 01-2.92-4.16 4.44 4.44 0 014.445-4.434c1.688 0 3.155.937 3.909 2.318a12.646 12.646 0 016.087-1.544c2.09 0 4.056.498 5.773 1.375a4.442 4.442 0 013.805-2.15zM18.243 18.61c1.054-.175 2.06.591 2.248 1.712a2.117 2.117 0 01-.33 1.546v-.006c0-.062-.001-.123-.012-.185-.117-.699-.818-1.164-1.566-1.04-.747.126-1.259.793-1.142 1.492.01.06.03.115.048.17l.004.013a2.12 2.12 0 01-.816-1.354c-.188-1.12.513-2.172 1.566-2.348zm10.392-.019c-1.065-.081-1.999.772-2.086 1.905-.044.575.139 1.11.467 1.51a1.213 1.213 0 01-.006-.19c.055-.707.711-1.233 1.467-1.175.756.058 1.325.677 1.271 1.383-.005.063-.02.123-.034.182l-.001.006c.386-.345.648-.847.692-1.421.087-1.134-.706-2.119-1.77-2.2zM18.2 26.408c0-2.317 2.388-4.196 5.335-4.196s5.335 1.879 5.335 4.196c0 2.317-2.388 4.196-5.335 4.196S18.2 28.725 18.2 26.408zm5.335-2.91c1.398 0 2.531.784 2.531 1.75 0 .968-1.133 1.753-2.53 1.753-1.399 0-2.532-.785-2.532-1.752s1.133-1.751 2.531-1.751z" fill="#FCFCFC"/></svg>