<svg width="47" height="47" fill="none" xmlns="http://www.w3.org/2000/svg"><circle cx="23.5" cy="23.5" r="22.5" fill="#F6E9BE" stroke="#927ABC"/><circle cx="23.5" cy="23.5" r="22.5" fill="#F6E9BE"/><circle cx="23.499" cy="23.5" r="20.375" fill="#FFF4C8" stroke="#BEBEBE" stroke-width=".5"/><path d="M17.046 42.918a20.625 20.625 0 0013.884-.095l-7.075-19.374-6.81 19.469zM2.874 23.5c0 4.717 1.617 9.292 4.582 12.961L23.499 23.5H2.874zM6.853 11.322A20.625 20.625 0 0117.974 3.63l5.525 19.87L6.853 11.324zM31.142 4.343a20.625 20.625 0 019.323 7.43L23.5 23.5l7.643-19.157z" fill="#FC5"/><path d="M44.124 23.5c0 4.323-1.358 8.536-3.882 12.045L23.499 23.5h20.625z" fill="#FC5"/><circle cx="7.562" cy="11.312" r=".838" fill="#FFF4C8" stroke="#7B3F14" stroke-width=".2"/><circle cx="18.154" cy="3.762" r=".838" fill="#FFF4C8" stroke="#7B3F14" stroke-width=".2"/><circle cx="31.532" cy="4.573" r=".838" fill="#FFF4C8" stroke="#7B3F14" stroke-width=".2"/><circle cx="7.41" cy="36.194" r=".838" fill="#FFF4C8" stroke="#7B3F14" stroke-width=".2"/><circle cx="2.951" cy="23.627" r=".838" fill="#FFF4C8" stroke="#7B3F14" stroke-width=".2"/><circle cx="17.14" cy="42.681" r=".838" fill="#FFF4C8" stroke="#7B3F14" stroke-width=".2"/><circle cx="30.721" cy="42.478" r=".838" fill="#FFF4C8" stroke="#7B3F14" stroke-width=".2"/><circle cx="40.045" cy="35.282" r=".838" fill="#FFF4C8" stroke="#7B3F14" stroke-width=".2"/><circle cx="43.694" cy="23.829" r=".838" fill="#FFF4C8" stroke="#7B3F14" stroke-width=".2"/><circle cx="40.248" cy="11.464" r=".838" fill="#FFF4C8" stroke="#7B3F14" stroke-width=".2"/><g filter="url(#filter0_i)"><rect x="18.635" y="17.947" width="9.81" height="9.81" rx="4.905" fill="url(#paint0_linear)"/></g><rect x="18.135" y="17.447" width="10.81" height="10.81" rx="5.405" stroke="#A96432"/><g filter="url(#filter1_i)"><rect x="18.758" y="17.824" width="9.81" height="9.81" rx="4.905" fill="url(#paint1_linear)"/></g><rect x="18.258" y="17.324" width="10.81" height="10.81" rx="5.405" stroke="#fff"/><g filter="url(#filter2_i)"><rect x="18.758" y="17.824" width="9.81" height="9.81" rx="4.905" fill="url(#paint2_linear)"/></g><mask id="a" maskUnits="userSpaceOnUse" x="18" y="17" width="11" height="11"><rect x="18.758" y="17.824" width="9.81" height="9.81" rx="4.905" fill="url(#paint3_linear)"/></mask><g mask="url(#a)"><g filter="url(#filter3_i)"><rect x="18.758" y="17.824" width="9.81" height="9.81" rx="4.905" fill="url(#paint4_radial)"/></g><g filter="url(#filter4_i)"><rect x="18.758" y="17.824" width="9.81" height="9.81" rx="4.905" fill="url(#paint5_linear)" fill-opacity=".71"/></g><g filter="url(#filter5_i)"><path d="M18.758 22.599a4.775 4.775 0 014.774-4.775h.26a4.775 4.775 0 014.775 4.775c0 1.013-3.128-1.302-4.788 0-.7.548-1.626 1.03-2.464 1.405-1.238.554-2.557-.049-2.557-1.405z" fill="url(#paint6_linear)" fill-opacity=".34"/></g></g><path d="M21.908 18.72c.037.307.623-.075 1.392-.167.768-.092 1.428.14 1.391-.167-.037-.308-.743-.48-1.511-.388-.768.092-1.309.415-1.272.722z" fill="url(#paint7_linear)"/><path d="M21.142 19.428c.08.091.272-.002.463-.167s.308-.34.23-.431c-.079-.091-.298-.03-.489.134-.191.166-.282.373-.204.464z" fill="url(#paint8_linear)" fill-opacity=".6"/><path fill-rule="evenodd" clip-rule="evenodd" d="M23.206 22.13h1.608-1.608zm-.416-.184l-.052.08.052-.08zm-.092.142l.023-.035-.023.035zm2.885-1.627h-1.84l-.902 1.405.901-1.405h-1.84l-1.043 1.67 2.883 3.686 2.884-3.686-1.043-1.67z" fill="#85CEE7"/><path fill-rule="evenodd" clip-rule="evenodd" d="M23.743 20.461l-1.099 1.648h2.197l-1.098-1.648z" fill="#CDEAF2"/><path fill-rule="evenodd" clip-rule="evenodd" d="M23.743 25.817l1.098-3.708h-2.197l1.099 3.708z" fill="#85CEE7"/><path fill-rule="evenodd" clip-rule="evenodd" d="M24.782 22.11l.746-1.649h-1.785l1.039 1.648z" fill="#A9DBEB"/><path fill-rule="evenodd" clip-rule="evenodd" d="M25.599 20.461l1.027 1.648h-1.785l.758-1.648z" fill="#85CEE7"/><path fill-rule="evenodd" clip-rule="evenodd" d="M22.704 22.11l-.747-1.649h1.786l-1.04 1.648z" fill="#A9DBEB"/><path fill-rule="evenodd" clip-rule="evenodd" d="M21.887 20.461l-1.028 1.648h1.785l-.757-1.648z" fill="#85CEE7"/><path fill-rule="evenodd" clip-rule="evenodd" d="M20.833 22.115l2.888 3.728.026-.026-2.862-3.702h-.052z" fill="#384042"/><path fill-rule="evenodd" clip-rule="evenodd" d="M20.859 22.11l2.884 3.707-1.071-3.708h-1.813z" fill="#2BA2C4"/><path d="M24.814 22.11l-1.071 3.707 2.884-3.708h-1.813z" fill="#2BA2C4"/><path fill-rule="evenodd" clip-rule="evenodd" d="M25.897 20.73l.733-.12-.733-.12.194-.27-.27.194-.12-.733-.12.733-.27-.194.194.27-.733.12.733.12-.194.27.27-.194.12.733.12-.733.27.194-.194-.27z" fill="#FFFFFE"/><defs><linearGradient id="paint0_linear" x1="18.635" y1="17.067" x2="23.331" y2="27.848" gradientUnits="userSpaceOnUse"><stop stop-color="#FF9040"/><stop offset="1" stop-color="#B90000"/></linearGradient><linearGradient id="paint1_linear" x1="18.758" y1="16.944" x2="23.454" y2="27.725" gradientUnits="userSpaceOnUse"><stop stop-color="#FF9040"/><stop offset="1" stop-color="#B90000"/></linearGradient><linearGradient id="paint2_linear" x1="18.758" y1="16.944" x2="23.454" y2="27.725" gradientUnits="userSpaceOnUse"><stop stop-color="#FF9040"/><stop offset="1" stop-color="#B90000"/></linearGradient><linearGradient id="paint3_linear" x1="18.758" y1="16.944" x2="23.454" y2="27.725" gradientUnits="userSpaceOnUse"><stop stop-color="#FF9040"/><stop offset="1" stop-color="#B90000"/></linearGradient><linearGradient id="paint5_linear" x1="23.663" y1="17.824" x2="23.663" y2="27.634" gradientUnits="userSpaceOnUse"><stop stop-color="#FFE355"/><stop offset="1" stop-color="#FFD500"/></linearGradient><linearGradient id="paint6_linear" x1="23.663" y1="17.824" x2="23.663" y2="27.374" gradientUnits="userSpaceOnUse"><stop stop-color="#FF9040"/><stop offset="1" stop-color="#FFCAAC" stop-opacity=".1"/></linearGradient><linearGradient id="paint7_linear" x1="21.221" y1="18.436" x2="25.061" y2="18.68" gradientUnits="userSpaceOnUse"><stop stop-color="#F9E0E0"/><stop offset="1" stop-color="#fff" stop-opacity="0"/></linearGradient><linearGradient id="paint8_linear" x1="20.878" y1="19.442" x2="21.949" y2="18.773" gradientUnits="userSpaceOnUse"><stop stop-color="#fff"/><stop offset="1" stop-color="#fff"/></linearGradient><filter id="filter0_i" x="17.635" y="16.947" width="15.81" height="15.81" filterUnits="userSpaceOnUse" color-interpolation-filters="sRGB"><feFlood flood-opacity="0" result="BackgroundImageFix"/><feBlend in="SourceGraphic" in2="BackgroundImageFix" result="shape"/><feColorMatrix in="SourceAlpha" values="0 0 0 0 0 0 0 0 0 0 0 0 0 0 0 0 0 0 127 0" result="hardAlpha"/><feOffset dx="4" dy="4"/><feGaussianBlur stdDeviation="4.5"/><feComposite in2="hardAlpha" operator="arithmetic" k2="-1" k3="1"/><feColorMatrix values="0 0 0 0 1 0 0 0 0 0.720833 0 0 0 0 0.737583 0 0 0 0.69 0"/><feBlend in2="shape" result="effect1_innerShadow"/></filter><filter id="filter1_i" x="17.758" y="16.824" width="15.81" height="15.81" filterUnits="userSpaceOnUse" color-interpolation-filters="sRGB"><feFlood flood-opacity="0" result="BackgroundImageFix"/><feBlend in="SourceGraphic" in2="BackgroundImageFix" result="shape"/><feColorMatrix in="SourceAlpha" values="0 0 0 0 0 0 0 0 0 0 0 0 0 0 0 0 0 0 127 0" result="hardAlpha"/><feOffset dx="4" dy="4"/><feGaussianBlur stdDeviation="4.5"/><feComposite in2="hardAlpha" operator="arithmetic" k2="-1" k3="1"/><feColorMatrix values="0 0 0 0 1 0 0 0 0 0.720833 0 0 0 0 0.737583 0 0 0 0.69 0"/><feBlend in2="shape" result="effect1_innerShadow"/></filter><filter id="filter2_i" x="18.758" y="17.824" width="13.81" height="13.81" filterUnits="userSpaceOnUse" color-interpolation-filters="sRGB"><feFlood flood-opacity="0" result="BackgroundImageFix"/><feBlend in="SourceGraphic" in2="BackgroundImageFix" result="shape"/><feColorMatrix in="SourceAlpha" values="0 0 0 0 0 0 0 0 0 0 0 0 0 0 0 0 0 0 127 0" result="hardAlpha"/><feOffset dx="4" dy="4"/><feGaussianBlur stdDeviation="4.5"/><feComposite in2="hardAlpha" operator="arithmetic" k2="-1" k3="1"/><feColorMatrix values="0 0 0 0 1 0 0 0 0 0.720833 0 0 0 0 0.737583 0 0 0 0.69 0"/><feBlend in2="shape" result="effect1_innerShadow"/></filter><filter id="filter3_i" x="18.758" y="17.824" width="13.81" height="13.81" filterUnits="userSpaceOnUse" color-interpolation-filters="sRGB"><feFlood flood-opacity="0" result="BackgroundImageFix"/><feBlend in="SourceGraphic" in2="BackgroundImageFix" result="shape"/><feColorMatrix in="SourceAlpha" values="0 0 0 0 0 0 0 0 0 0 0 0 0 0 0 0 0 0 127 0" result="hardAlpha"/><feOffset dx="4" dy="4"/><feGaussianBlur stdDeviation="4.5"/><feComposite in2="hardAlpha" operator="arithmetic" k2="-1" k3="1"/><feColorMatrix values="0 0 0 0 1 0 0 0 0 0 0 0 0 0 0.0599999 0 0 0 0.69 0"/><feBlend in2="shape" result="effect1_innerShadow"/></filter><filter id="filter4_i" x="18.758" y="17.824" width="9.81" height="10.81" filterUnits="userSpaceOnUse" color-interpolation-filters="sRGB"><feFlood flood-opacity="0" result="BackgroundImageFix"/><feBlend in="SourceGraphic" in2="BackgroundImageFix" result="shape"/><feColorMatrix in="SourceAlpha" values="0 0 0 0 0 0 0 0 0 0 0 0 0 0 0 0 0 0 127 0" result="hardAlpha"/><feOffset dy="1"/><feGaussianBlur stdDeviation="1"/><feComposite in2="hardAlpha" operator="arithmetic" k2="-1" k3="1"/><feColorMatrix values="0 0 0 0 0.920833 0 0 0 0 0.920833 0 0 0 0 0.920833 0 0 0 1 0"/><feBlend in2="shape" result="effect1_innerShadow"/></filter><filter id="filter5_i" x="18.758" y="17.824" width="9.81" height="7.385" filterUnits="userSpaceOnUse" color-interpolation-filters="sRGB"><feFlood flood-opacity="0" result="BackgroundImageFix"/><feBlend in="SourceGraphic" in2="BackgroundImageFix" result="shape"/><feColorMatrix in="SourceAlpha" values="0 0 0 0 0 0 0 0 0 0 0 0 0 0 0 0 0 0 127 0" result="hardAlpha"/><feOffset dy="1"/><feGaussianBlur stdDeviation="1"/><feComposite in2="hardAlpha" operator="arithmetic" k2="-1" k3="1"/><feColorMatrix values="0 0 0 0 1 0 0 0 0 0.732333 0 0 0 0 0.695833 0 0 0 1 0"/><feBlend in2="shape" result="effect1_innerShadow"/></filter><radialGradient id="paint4_radial" cx="0" cy="0" r="1" gradientUnits="userSpaceOnUse" gradientTransform="rotate(92.234 .566 23.09) scale(15.303 15.1728)"><stop stop-color="#FFE355"/><stop offset="1" stop-color="#FF9040"/></radialGradient></defs></svg>