<svg width="45" height="45" fill="none" xmlns="http://www.w3.org/2000/svg"><circle cx="22.5" cy="22.5" r="22" fill="#222" stroke="#fff"/><path fill-rule="evenodd" clip-rule="evenodd" d="M15.53 24.87c-2.05 0-6.163-4.145-7.786-5.87a1.614 1.614 0 00-.68-3.074c-.889 0-1.61.723-1.61 1.614a1.612 1.612 0 001.895 1.587l3.565 10.81a6 6 0 005.698 4.121h5.613v-20.85S20.232 24.87 15.531 24.87z" fill="url(#vip0_linear)"/><path fill-rule="evenodd" clip-rule="evenodd" d="M18.16 22.338s-1.627-2.329-2.528-4.13a1.168 1.168 0 00-.352-2.281 1.167 1.167 0 00-.037 2.333c-.156 1.278-.552 3.931-1.276 5.225 0 0 2.096 2.378 4.193-1.146z" fill="url(#vip1_linear)"/><path fill-rule="evenodd" clip-rule="evenodd" d="M30.483 23.485c-.724-1.294-1.12-3.947-1.276-5.225a1.165 1.165 0 001.128-1.166c0-.645-.521-1.167-1.165-1.167a1.168 1.168 0 00-.352 2.281c-.9 1.801-2.527 4.13-2.527 4.13 2.097 3.525 4.192 1.147 4.192 1.147z" fill="#A25E2F"/><path fill-rule="evenodd" clip-rule="evenodd" d="M37.386 15.927a1.612 1.612 0 00-.68 3.074c-1.622 1.724-5.736 5.87-7.787 5.87-4.7 0-6.694-11.662-6.694-11.662v20.85h5.613a6 6 0 005.699-4.121l3.564-10.81a1.612 1.612 0 001.895-1.586c0-.892-.72-1.615-1.61-1.615z" fill="url(#vip2_linear)"/><path fill-rule="evenodd" clip-rule="evenodd" d="M24.62 13.311a2.4 2.4 0 01-2.395 2.402 2.4 2.4 0 01-2.396-2.402 2.4 2.4 0 012.396-2.402 2.4 2.4 0 012.396 2.402z" fill="url(#vip3_radial)"/><path d="M21.055 11.528c.025.213.43-.051.96-.115s.985.097.959-.116c-.026-.212-.512-.332-1.042-.268s-.903.287-.877.5z" fill="url(#vip4_linear)"/><path d="M20.526 12.018c.055.063.187-.001.32-.116.131-.114.212-.234.158-.297-.055-.063-.205-.022-.337.092-.132.115-.195.258-.14.321z" fill="url(#vip5_linear)" fill-opacity=".85"/><g filter="url(#vip_filter0_i)"><path d="M19.83 13.305a2.396 2.396 0 114.79 0v.06c0 .52-1.527-.67-2.338 0-.33.271-.762.512-1.16.701-.622.297-1.293-.012-1.293-.702v-.059z" fill="url(#vip6_linear)" fill-opacity=".32"/></g><path fill-rule="evenodd" clip-rule="evenodd" d="M8.877 17.43c0 .947-.766 1.715-1.711 1.715a1.714 1.714 0 01-1.712-1.715c0-.948.767-1.716 1.712-1.716s1.711.768 1.711 1.716z" fill="#E47914"/><path d="M6.33 16.156c.018.152.306-.037.685-.082.379-.046.704.069.685-.083-.018-.152-.365-.237-.744-.192-.379.046-.645.205-.626.357z" fill="url(#vip7_linear)"/><path d="M5.953 16.506c.038.045.133-.001.227-.083.095-.081.152-.168.114-.213-.04-.045-.147-.015-.241.067-.094.081-.14.184-.1.229z" fill="url(#vip8_linear)"/><g filter="url(#vip_filter1_i)"><path d="M5.454 17.425a1.712 1.712 0 113.423 0v.043c0 .372-1.091-.479-1.67 0a4.152 4.152 0 01-.829.501c-.445.212-.924-.009-.924-.501v-.043z" fill="url(#vip9_linear)" fill-opacity=".32"/></g><path fill-rule="evenodd" clip-rule="evenodd" d="M38.996 17.43c0 .947-.766 1.715-1.712 1.715a1.714 1.714 0 01-1.71-1.715c0-.948.766-1.716 1.71-1.716.946 0 1.712.768 1.712 1.716z" fill="#E47914"/><path d="M36.448 16.156c.019.152.307-.037.686-.082.378-.046.703.069.685-.083-.018-.152-.366-.237-.744-.192-.379.046-.645.205-.627.357z" fill="url(#vip10_linear)"/><path d="M36.071 16.506c.039.045.134-.001.228-.083.094-.081.152-.168.113-.213-.039-.045-.146-.015-.24.067-.095.081-.14.184-.101.229z" fill="url(#vip11_linear)"/><g filter="url(#vip_filter2_i)"><path d="M35.573 17.425a1.712 1.712 0 113.423 0v.043c0 .372-1.092-.479-1.671 0a4.153 4.153 0 01-.828.501c-.445.212-.924-.009-.924-.501v-.043z" fill="url(#vip12_linear)" fill-opacity=".32"/></g><defs><linearGradient id="vip0_linear" x1="8.193" y1="28.754" x2="23.256" y2="25.339" gradientUnits="userSpaceOnUse"><stop stop-color="#FFB544"/><stop offset="1" stop-color="#FFD622"/></linearGradient><linearGradient id="vip1_linear" x1="16.063" y1="15.927" x2="16.063" y2="24.27" gradientUnits="userSpaceOnUse"><stop stop-color="#9C461E"/><stop offset="1" stop-color="#E49730"/></linearGradient><linearGradient id="vip2_linear" x1="38.996" y1="23.95" x2="9.538" y2="36.248" gradientUnits="userSpaceOnUse"><stop stop-color="#FFB643"/><stop offset="1" stop-color="#FFD623"/></linearGradient><linearGradient id="vip4_linear" x1="20.581" y1="11.332" x2="23.229" y2="11.5" gradientUnits="userSpaceOnUse"><stop stop-color="#F9E0E0"/><stop offset="1" stop-color="#fff" stop-opacity="0"/></linearGradient><linearGradient id="vip5_linear" x1="20.344" y1="12.028" x2="21.083" y2="11.567" gradientUnits="userSpaceOnUse"><stop stop-color="#fff"/><stop offset="1" stop-color="#fff"/></linearGradient><linearGradient id="vip6_linear" x1="22.225" y1="10.909" x2="22.225" y2="15.82" gradientUnits="userSpaceOnUse"><stop stop-color="#FF9040"/><stop offset="1" stop-color="#FFCAAC" stop-opacity=".1"/></linearGradient><linearGradient id="vip7_linear" x1="5.991" y1="16.016" x2="7.883" y2="16.136" gradientUnits="userSpaceOnUse"><stop stop-color="#F9E0E0"/><stop offset="1" stop-color="#fff" stop-opacity=".97"/></linearGradient><linearGradient id="vip8_linear" x1="5.822" y1="16.513" x2="6.351" y2="16.184" gradientUnits="userSpaceOnUse"><stop stop-color="#fff"/><stop offset="1" stop-color="#fff"/></linearGradient><linearGradient id="vip9_linear" x1="7.166" y1="15.714" x2="7.166" y2="19.221" gradientUnits="userSpaceOnUse"><stop stop-color="#FF9040"/><stop offset="1" stop-color="#FFCAAC" stop-opacity=".1"/></linearGradient><linearGradient id="vip10_linear" x1="36.11" y1="16.016" x2="38.001" y2="16.136" gradientUnits="userSpaceOnUse"><stop stop-color="#F9E0E0"/><stop offset="1" stop-color="#fff" stop-opacity=".97"/></linearGradient><linearGradient id="vip11_linear" x1="35.941" y1="16.513" x2="36.469" y2="16.184" gradientUnits="userSpaceOnUse"><stop stop-color="#fff"/><stop offset="1" stop-color="#fff"/></linearGradient><linearGradient id="vip12_linear" x1="37.285" y1="15.714" x2="37.285" y2="19.221" gradientUnits="userSpaceOnUse"><stop stop-color="#FF9040"/><stop offset="1" stop-color="#FFCAAC" stop-opacity=".1"/></linearGradient><filter id="vip_filter0_i" x="19.829" y="10.909" width="4.792" height="4.27" filterUnits="userSpaceOnUse" color-interpolation-filters="sRGB"><feFlood flood-opacity="0" result="BackgroundImageFix"/><feBlend in="SourceGraphic" in2="BackgroundImageFix" result="shape"/><feColorMatrix in="SourceAlpha" values="0 0 0 0 0 0 0 0 0 0 0 0 0 0 0 0 0 0 127 0" result="hardAlpha"/><feOffset dy="1"/><feGaussianBlur stdDeviation="1"/><feComposite in2="hardAlpha" operator="arithmetic" k2="-1" k3="1"/><feColorMatrix values="0 0 0 0 1 0 0 0 0 0.732333 0 0 0 0 0.695833 0 0 0 1 0"/><feBlend in2="shape" result="effect1_innerShadow"/></filter><filter id="vip_filter1_i" x="5.454" y="15.714" width="3.423" height="3.336" filterUnits="userSpaceOnUse" color-interpolation-filters="sRGB"><feFlood flood-opacity="0" result="BackgroundImageFix"/><feBlend in="SourceGraphic" in2="BackgroundImageFix" result="shape"/><feColorMatrix in="SourceAlpha" values="0 0 0 0 0 0 0 0 0 0 0 0 0 0 0 0 0 0 127 0" result="hardAlpha"/><feOffset dy="1"/><feGaussianBlur stdDeviation="1"/><feComposite in2="hardAlpha" operator="arithmetic" k2="-1" k3="1"/><feColorMatrix values="0 0 0 0 1 0 0 0 0 0.732333 0 0 0 0 0.695833 0 0 0 1 0"/><feBlend in2="shape" result="effect1_innerShadow"/></filter><filter id="vip_filter2_i" x="35.573" y="15.714" width="3.423" height="3.336" filterUnits="userSpaceOnUse" color-interpolation-filters="sRGB"><feFlood flood-opacity="0" result="BackgroundImageFix"/><feBlend in="SourceGraphic" in2="BackgroundImageFix" result="shape"/><feColorMatrix in="SourceAlpha" values="0 0 0 0 0 0 0 0 0 0 0 0 0 0 0 0 0 0 127 0" result="hardAlpha"/><feOffset dy="1"/><feGaussianBlur stdDeviation="1"/><feComposite in2="hardAlpha" operator="arithmetic" k2="-1" k3="1"/><feColorMatrix values="0 0 0 0 1 0 0 0 0 0.732333 0 0 0 0 0.695833 0 0 0 1 0"/><feBlend in2="shape" result="effect1_innerShadow"/></filter><radialGradient id="vip3_radial" cx="0" cy="0" r="1" gradientUnits="userSpaceOnUse" gradientTransform="matrix(0 2.4022 -2.39581 0 22.225 13.311)"><stop stop-color="#FFD193"/><stop offset="1" stop-color="#EC7205"/></radialGradient></defs></svg>