<svg id="Слой_1" data-name="Слой 1" xmlns="http://www.w3.org/2000/svg" xmlns:xlink="http://www.w3.org/1999/xlink" viewBox="0 0 110 110"><defs><style>.cls-1{fill:url(#Безымянный_градиент_4);}.cls-2{fill:#f6e9be;stroke:#927abc;}.cls-3{fill:#ffe8f7;}.cls-4{fill:#f5c8e6;stroke:#bebebe;stroke-width:0.5px;}.cls-5{fill:#e361b8;}.cls-6{fill:#ff93db;stroke:#7b3f14;stroke-width:0.2px;}.cls-7{fill:url(#Безымянный_градиент_17);}.cls-8{fill:none;stroke:#fff;}.cls-9{mask:url(#mask);}.cls-10{fill:url(#Безымянный_градиент_5);}.cls-11{fill-opacity:0.71;fill:url(#Безымянный_градиент_6);}.cls-12{fill-opacity:0.34;fill:url(#Безымянный_градиент_7);}.cls-13{fill:url(#Безымянный_градиент_8);}.cls-14{fill-opacity:0.6;fill:url(#Безымянный_градиент_9);}.cls-15{fill:#85cee7;}.cls-15,.cls-16,.cls-17,.cls-18,.cls-19,.cls-21{fill-rule:evenodd;}.cls-16{fill:#cdeaf2;}.cls-17{fill:#a9dbeb;}.cls-18{fill:#384042;}.cls-19,.cls-20{fill:#2ba2c4;}.cls-21{fill:#fffffe;}</style><linearGradient id="Безымянный_градиент_4" x1="49.15" y1="73.25" x2="60.53" y2="47.13" gradientTransform="matrix(1, 0, 0, -1, 0, 112)" gradientUnits="userSpaceOnUse"><stop offset="0" stop-color="#ff9040"/><stop offset="1" stop-color="#b90000"/></linearGradient><linearGradient id="Безымянный_градиент_17" x1="49.02" y1="73.89" x2="60.78" y2="46.9" gradientTransform="matrix(1, 0, 0, -1, 0, 112)" gradientUnits="userSpaceOnUse"><stop offset="0" stop-color="#ff9040"/><stop offset="1" stop-color="#ffad00"/></linearGradient><mask id="mask" x="43.8" y="42.5" width="23.76" height="23.76" maskUnits="userSpaceOnUse"><g transform="translate(-0.5 -0.5)"><g id="mask0"><path class="cls-1" d="M56.18,43h0A11.88,11.88,0,0,1,68.06,54.88h0A11.88,11.88,0,0,1,56.18,66.76h0A11.88,11.88,0,0,1,44.3,54.88h0A11.88,11.88,0,0,1,56.18,43Z"/></g></g></mask><radialGradient id="Безымянный_градиент_5" cx="-241.1" cy="459.16" r="1" gradientTransform="matrix(-1.44, 37.04, 36.72, 1.43, -17154.24, 8328.78)" gradientUnits="userSpaceOnUse"><stop offset="0" stop-color="#ffe355"/><stop offset="1" stop-color="#ff9040"/></radialGradient><linearGradient id="Безымянный_градиент_6" x1="56.18" y1="69" x2="56.18" y2="45.24" gradientTransform="matrix(1, 0, 0, -1, 0, 112)" gradientUnits="userSpaceOnUse"><stop offset="0" stop-color="#ffe355"/><stop offset="1" stop-color="#ffd500"/></linearGradient><linearGradient id="Безымянный_градиент_7" x1="56.18" y1="69" x2="56.18" y2="45.87" gradientTransform="matrix(1, 0, 0, -1, 0, 112)" gradientUnits="userSpaceOnUse"><stop offset="0" stop-color="#ff9040"/><stop offset="1" stop-color="#ffcaac" stop-opacity="0.1"/></linearGradient><linearGradient id="Безымянный_градиент_8" x1="50.28" y1="67.85" x2="59.59" y2="67.25" gradientTransform="matrix(1, 0, 0, -1, 0, 112)" gradientUnits="userSpaceOnUse"><stop offset="0" stop-color="#f9e0e0"/><stop offset="1" stop-color="#fff" stop-opacity="0"/></linearGradient><linearGradient id="Безымянный_градиент_9" x1="49.48" y1="65" x2="52.08" y2="66.62" gradientTransform="matrix(1, 0, 0, -1, 0, 112)" gradientUnits="userSpaceOnUse"><stop offset="0" stop-color="#fff"/><stop offset="1" stop-color="#fff"/></linearGradient></defs><title>Purple Spinner</title><circle class="cls-2" cx="55" cy="55" r="54.5"/><circle class="cls-3" cx="55" cy="55" r="54.5"/><circle class="cls-4" cx="55" cy="55" r="49.71"/><path class="cls-5" d="M39.87,102.54a50,50,0,0,0,33.63-.24L56.36,55.38Z" transform="translate(-0.5 -0.5)"/><path class="cls-5" d="M5.54,55.5a50,50,0,0,0,11.1,31.4L55.5,55.5Z" transform="translate(-0.5 -0.5)"/><path class="cls-5" d="M15.18,26A50,50,0,0,1,42.12,7.37L55.5,55.5Z" transform="translate(-0.5 -0.5)"/><path class="cls-5" d="M74,9.1a49.87,49.87,0,0,1,22.58,18L55.5,55.5Z" transform="translate(-0.5 -0.5)"/><path class="cls-5" d="M105.46,55.5a49.94,49.94,0,0,1-9.41,29.18L55.5,55.5Z" transform="translate(-0.5 -0.5)"/><circle class="cls-6" cx="16.4" cy="25.48" r="2.17"/><circle class="cls-6" cx="42.05" cy="7.19" r="2.17"/><circle class="cls-6" cx="74.46" cy="9.15" r="2.17"/><circle class="cls-6" cx="16.03" cy="85.75" r="2.17"/><circle class="cls-6" cx="5.23" cy="55.31" r="2.17"/><circle class="cls-6" cx="39.6" cy="101.46" r="2.17"/><circle class="cls-6" cx="72.49" cy="100.97" r="2.17"/><circle class="cls-6" cx="95.08" cy="83.54" r="2.17"/><circle class="cls-6" cx="103.92" cy="55.8" r="2.17"/><circle class="cls-6" cx="95.57" cy="25.85" r="2.17"/><path class="cls-7" d="M56.28,42.5h0A12.28,12.28,0,0,1,68.56,54.78h0A12.28,12.28,0,0,1,56.28,67.06h0A12.28,12.28,0,0,1,44,54.78h0A12.28,12.28,0,0,1,56.28,42.5Z" transform="translate(-0.5 -0.5)"/><path class="cls-8" d="M56.18,42.5h0A12.38,12.38,0,0,1,68.56,54.88h0A12.38,12.38,0,0,1,56.18,67.26h0A12.38,12.38,0,0,1,43.8,54.88h0A12.38,12.38,0,0,1,56.18,42.5Z" transform="translate(-0.5 -0.5)"/><g class="cls-9"><path class="cls-10" d="M56.18,43h0A11.88,11.88,0,0,1,68.06,54.88h0A11.88,11.88,0,0,1,56.18,66.76h0A11.88,11.88,0,0,1,44.3,54.88h0A11.88,11.88,0,0,1,56.18,43Z" transform="translate(-0.5 -0.5)"/><path class="cls-11" d="M56.18,43h0A11.88,11.88,0,0,1,68.06,54.88h0A11.88,11.88,0,0,1,56.18,66.76h0A11.88,11.88,0,0,1,44.3,54.88h0A11.88,11.88,0,0,1,56.18,43Z" transform="translate(-0.5 -0.5)"/><path class="cls-12" d="M44.3,54.57A11.56,11.56,0,0,1,55.86,43h.63A11.57,11.57,0,0,1,68.06,54.57c0,2.45-7.58-3.16-11.6,0a30.38,30.38,0,0,1-6,3.4C47.49,59.31,44.3,57.85,44.3,54.57Z" transform="translate(-0.5 -0.5)"/></g><path class="cls-13" d="M51.93,45.17c.09.74,1.51-.18,3.37-.41s3.46.34,3.37-.4-1.8-1.16-3.66-.94S51.84,44.42,51.93,45.17Z" transform="translate(-0.5 -0.5)"/><path class="cls-14" d="M50.07,46.89c.19.22.66,0,1.12-.41s.75-.82.56-1-.72-.08-1.18.32S49.88,46.66,50.07,46.89Z" transform="translate(-0.5 -0.5)"/><path class="cls-15" d="M55.07,53.43h0Zm-1-.45-.12.2Zm-.22.35.06-.09Zm7-3.94H56.37l-2.18,3.4,2.18-3.4H51.91l-2.52,4,7,8.93,7-8.93Z" transform="translate(-0.5 -0.5)"/><path class="cls-16" d="M56.37,49.39l-2.66,4H59Z" transform="translate(-0.5 -0.5)"/><path class="cls-15" d="M56.37,62.36l2.66-9H53.71Z" transform="translate(-0.5 -0.5)"/><path class="cls-17" d="M58.89,53.38l1.81-4H56.37Z" transform="translate(-0.5 -0.5)"/><path class="cls-15" d="M60.87,49.39l2.49,4H59Z" transform="translate(-0.5 -0.5)"/><path class="cls-17" d="M53.85,53.38l-1.8-4h4.32Z" transform="translate(-0.5 -0.5)"/><path class="cls-15" d="M51.88,49.39l-2.49,4h4.32Z" transform="translate(-0.5 -0.5)"/><path class="cls-18" d="M49.32,53.39l7,9,.06-.06-6.93-9Z" transform="translate(-0.5 -0.5)"/><path class="cls-19" d="M49.39,53.38l7,9-2.59-9Z" transform="translate(-0.5 -0.5)"/><path class="cls-20" d="M59,53.38l-2.6,9,7-9Z" transform="translate(-0.5 -0.5)"/><path class="cls-21" d="M61.59,50l1.77-.29-1.77-.29.47-.66-.65.47-.3-1.77-.29,1.77-.65-.47.47.66-1.77.29,1.77.29-.47.65.65-.47L61.11,52l.3-1.78.65.47Z" transform="translate(-0.5 -0.5)"/></svg>