<svg xmlns="http://www.w3.org/2000/svg" xmlns:xlink="http://www.w3.org/1999/xlink" viewBox="0 0 72.41 64.74"><defs><style>.cls-1{isolation:isolate}.cls-11,.cls-2{fill:#1d1d1b}.cls-2{opacity:.4}.cls-12,.cls-15,.cls-2,.cls-25,.cls-6{mix-blend-mode:multiply}.cls-28,.cls-3,.cls-7{fill:#fff}.cls-4{fill:#3fb3c9}.cls-5{fill:#2fbdd4}.cls-12,.cls-15,.cls-25,.cls-6{opacity:.7}.cls-6{fill:url(#radial-gradient)}.cls-11,.cls-20,.cls-7{opacity:.3}.cls-11,.cls-13,.cls-17,.cls-20,.cls-21,.cls-22,.cls-23,.cls-27,.cls-7,.cls-8{mix-blend-mode:overlay}.cls-8{fill:url(#radial-gradient-2)}.cls-9{fill:#37cadc}.cls-10,.cls-19{mix-blend-mode:hard-light}.cls-10{fill:url(#radial-gradient-3)}.cls-12{fill:url(#radial-gradient-5)}.cls-13{fill:url(#radial-gradient-6)}.cls-14{fill:#58fcfc}.cls-15{fill:url(#radial-gradient-7)}.cls-16{fill:#52ebfc}.cls-17{fill:url(#radial-gradient-8)}.cls-18{fill:#1698bc}.cls-19{fill:url(#radial-gradient-9)}.cls-20{fill:#474742}.cls-21{fill:url(#radial-gradient-10)}.cls-22{fill:url(#radial-gradient-11)}.cls-23{fill:url(#radial-gradient-12)}.cls-24,.cls-28{mix-blend-mode:screen}.cls-24{fill:url(#linear-gradient)}.cls-25{fill:url(#radial-gradient-13)}.cls-26{fill:#c2fbfc}.cls-27{fill:url(#radial-gradient-14)}.cls-28{opacity:.8}</style><radialGradient id="radial-gradient" cx="20.1" cy="37.2" r="16.8" gradientUnits="userSpaceOnUse"><stop offset=".4" stop-color="#0697bf"/><stop offset=".6" stop-color="#61bdd6"/><stop offset=".8" stop-color="#b5e0ec"/><stop offset=".9" stop-color="#ebf6fa"/><stop offset=".9" stop-color="#fff"/></radialGradient><radialGradient id="radial-gradient-2" cx="1.7" cy="20.4" r="14.9" gradientUnits="userSpaceOnUse"><stop offset="0" stop-color="#fff"/><stop offset=".1" stop-color="#f8f8f8"/><stop offset=".3" stop-color="#e5e5e5"/><stop offset=".6" stop-color="#c6c6c6"/><stop offset=".8" stop-color="#9c9c9c"/><stop offset="1" stop-color="gray"/></radialGradient><radialGradient id="radial-gradient-3" cx="30.1" cy="69" r="25.2" gradientUnits="userSpaceOnUse"><stop offset="0" stop-color="#88f1ff"/><stop offset="1" stop-color="gray"/></radialGradient><radialGradient id="radial-gradient-5" cx="20.8" cy="44.3" r="29.2" xlink:href="#radial-gradient"/><radialGradient id="radial-gradient-6" cx="64.5" cy="71.6" r="53.6" xlink:href="#radial-gradient-2"/><radialGradient id="radial-gradient-7" cx="52.9" cy="54.4" r="27.6" xlink:href="#radial-gradient"/><radialGradient id="radial-gradient-8" cx="43.6" cy="9.6" r="20.3" xlink:href="#radial-gradient-2"/><radialGradient id="radial-gradient-9" cx="48.2" cy="52.3" r="33" xlink:href="#radial-gradient-3"/><radialGradient id="radial-gradient-10" cx="76.3" cy="3.2" r="52.2" xlink:href="#radial-gradient-2"/><radialGradient id="radial-gradient-11" cx="68.9" cy="87.1" r="72" gradientUnits="userSpaceOnUse"><stop offset=".3" stop-color="#fff"/><stop offset=".4" stop-color="#f8f8f8"/><stop offset=".5" stop-color="#e5e5e5"/><stop offset=".6" stop-color="#c6c6c6"/><stop offset=".8" stop-color="#9c9c9c"/><stop offset=".9" stop-color="gray"/></radialGradient><radialGradient id="radial-gradient-12" cx="68.9" cy="85.1" r="71" xlink:href="#radial-gradient-11"/><linearGradient id="linear-gradient" x1="27.8" y1="47.4" x2="28.6" y2="16.2" gradientUnits="userSpaceOnUse"><stop offset=".2"/><stop offset=".2" stop-color="#0a0a0a"/><stop offset=".3" stop-color="#262626"/><stop offset=".5" stop-color="#525252"/><stop offset=".7" stop-color="#909090"/><stop offset=".9" stop-color="#dedede"/><stop offset="1" stop-color="#fff"/></linearGradient><radialGradient id="radial-gradient-13" cx="11.4" cy="66.5" r="28.8" gradientUnits="userSpaceOnUse"><stop offset=".4" stop-color="#0697bf"/><stop offset=".6" stop-color="#61bdd6"/><stop offset=".8" stop-color="#b5e0ec"/><stop offset=".9" stop-color="#ebf6fa"/><stop offset=".9" stop-color="#fff"/></radialGradient><radialGradient id="radial-gradient-14" cx="19.1" cy="90.4" r="51.8" xlink:href="#radial-gradient-2"/></defs><title>Asset 2</title><g class="cls-1"><g id="Layer_2" data-name="Layer 2"><g id="treasure_set" data-name="treasure set"><g id="gem"><path class="cls-2" d="M9.7 50.7L2.5 56l10 4.7 22.3 3 19.7-6.3-1-5.4-7-2-4.5-1.7-26 .4-6.3 2z"/><path class="cls-3" d="M0 44.3l5.7-17 10.5-8 27-1.2 14.3 6.4 8 14.3-31 25.5-1.4.7L0 44.2z"/><path class="cls-4" d="M7.5 28.6l-5 14.8 30.7 19L62.8 38 56 26l-13-5.7-26 1-9.5 7.3z"/><path class="cls-5" d="M17 21.4l-4 13-10.5 9 5-14.8 9.4-7.2z"/><path class="cls-6" d="M17 21.4l-4 13-10.5 9 5-14.8 9.4-7.2z"/><path class="cls-7" d="M9 31.6l8-10.2-9.5 7.2-5 14.8L9 31.6z"/><path class="cls-8" d="M9 31.6l8-10.2-9.5 7.2-5 14.8L9 31.6z"/><path class="cls-9" d="M33.2 62.3l-30.7-19 10.5-9 20.2 28z"/><path class="cls-10" d="M33.2 62.3l-30.7-19 10.5-9 20.2 28z"/><path class="cls-10" d="M33.2 62.3l-30.7-19 10.5-9 20.2 28z"/><path class="cls-11" d="M6.6 42.3c4-3 8.6-1.4 12.6.7L13 34.4l-10.4 9 1.8 1a5 5 0 0 1 2.2-2z"/><path class="cls-7" d="M33.2 62.3L13 34.3 11.3 36 32 61.6l1.2.7z"/><path class="cls-5" d="M62.8 38L33.2 62.4l12-30.2L63 38z"/><path class="cls-12" d="M62.8 38L33.2 62.4l12-30.2L63 38z"/><path class="cls-13" d="M59.2 37L36.7 59.4l26-21.4-3.5-1z"/><path class="cls-11" d="M45.4 32l-4 9.8C45 37.4 51 35 57 38.6a5.8 5.8 0 0 1 2 2.5l3.7-3z"/><path class="cls-14" d="M62.8 38l-17.4-6L43 20.4 56 26l6.8 12z"/><path class="cls-15" d="M62.8 38l-17.4-6L43 20.4 56 26l6.8 12z"/><path class="cls-7" d="M50 24.6a6.5 6.5 0 0 1 3 1.5c2 1.8 4 3.3 5.7 5L56 26l-13-5.7 1.4 7.2c1.2-2 3.2-3.7 5.5-3z"/><path class="cls-16" d="M45.4 32L13 34.5l4-13 26-1L45.3 32z"/><path class="cls-17" d="M45.4 32L13 34.5l4-13 26-1L45.3 32z"/><path class="cls-7" d="M17 21.4l-2.2 7c3-2 6-4.2 9.7-4.7a34 34 0 0 1 15 1.7 21.3 21.3 0 0 1 5 2.4L43 20.3z"/><path class="cls-18" d="M45.4 32L33.2 62.4 13 34.4 45.4 32z"/><path class="cls-19" d="M45.4 32L33.2 62.4 13 34.4 45.4 32z"/><path class="cls-11" d="M13 34.4l20.2 28V62l-19-28-1.2.2z"/><path class="cls-20" d="M13 34.4l5.3 7.2a25 25 0 0 1 2.5-1.8 19.5 19.5 0 0 1 17.7-3.2 11.5 11.5 0 0 1 4 2.4l2.8-7z"/><path class="cls-21" d="M7.5 28.6l-5 14.8 30.7 19L62.8 38 56 26l-13-5.7-26 1-9.5 7.3z"/><path class="cls-22" d="M19.2 27.6l14 34.7 4.8-33-18.8-1.7z"/><path class="cls-23" d="M36.7 30l-3.3 31L38 29.3l-18.8-1.6.4 1 17 1.5z"/><path class="cls-24" d="M43 20.3l-13.6.6L13.8 34l17-1.2 12-12.7z"/><path class="cls-25" d="M5.8 45.4l27.4 17-14-34.6L6 45.4z"/><path class="cls-26" d="M43.2 21.6l1 9.6c-9 1.2-27.3 3-29.3 1l1-7.5-3 8.7-10.6 10 10.4-9 31.4-2.2-9 24.8 10-23c.3-.8 2-1 2.6-1l14.8 5-.6-1a36 36 0 0 1-15.5-6.3z"/><path class="cls-27" d="M7.5 28.6l-5 14.8 30.7 19L62.8 38 56 26l-13-5.7-26 1-9.5 7.3z"/><path class="cls-28" d="M72.4 21.6A21.6 21.6 0 0 1 50.8 0a21.6 21.6 0 0 1-21.6 21.6 21.6 21.6 0 0 1 21.6 21.7 21.6 21.6 0 0 1 21.6-21.7z"/></g></g></g></g></svg>