<svg id="Слой_1" data-name="Слой 1" xmlns="http://www.w3.org/2000/svg" xmlns:xlink="http://www.w3.org/1999/xlink" viewBox="0 0 110 110"><defs><style>.cls-1{fill:url(#Безымянный_градиент_4);}.cls-2,.cls-3{fill:#f6e9be;}.cls-2{stroke:#927abc;}.cls-4,.cls-6{fill:#fff4c8;}.cls-4{stroke:#bebebe;stroke-width:0.5px;}.cls-5{fill:#fc5;}.cls-6{stroke:#7b3f14;stroke-width:0.2px;}.cls-7{fill:url(#Безымянный_градиент_13);}.cls-8{fill:none;stroke:#fff;}.cls-9{mask:url(#mask);}.cls-10{fill:url(#Безымянный_градиент_5);}.cls-11{fill-opacity:0.71;fill:url(#Безымянный_градиент_6);}.cls-12{fill-opacity:0.34;fill:url(#Безымянный_градиент_7);}.cls-13{fill:url(#Безымянный_градиент_8);}.cls-14{fill-opacity:0.6;fill:url(#Безымянный_градиент_9);}.cls-15{fill:#85cee7;}.cls-15,.cls-16,.cls-17,.cls-18,.cls-19,.cls-21{fill-rule:evenodd;}.cls-16{fill:#cdeaf2;}.cls-17{fill:#a9dbeb;}.cls-18{fill:#384042;}.cls-19,.cls-20{fill:#2ba2c4;}.cls-21{fill:#fffffe;}</style><linearGradient id="Безымянный_градиент_4" x1="48.87" y1="74.5" x2="60.24" y2="48.38" gradientTransform="matrix(1, 0, 0, -1, 0, 112)" gradientUnits="userSpaceOnUse"><stop offset="0" stop-color="#ff9040"/><stop offset="1" stop-color="#b90000"/></linearGradient><linearGradient id="Безымянный_градиент_13" x1="48.51" y1="75.08" x2="60.23" y2="48.18" gradientTransform="matrix(1, 0, 0, -1, 0, 112)" gradientUnits="userSpaceOnUse"><stop offset="0" stop-color="#ff9040"/><stop offset="1" stop-color="#ffa900"/></linearGradient><mask id="mask" x="43.51" y="41.25" width="23.76" height="23.76" maskUnits="userSpaceOnUse"><g transform="translate(-0.5 -0.5)"><g id="mask0"><path class="cls-1" d="M55.89,41.75h0A11.88,11.88,0,0,1,67.77,53.63h0A11.88,11.88,0,0,1,55.89,65.51h0A11.88,11.88,0,0,1,44,53.63h0A11.88,11.88,0,0,1,55.89,41.75Z"/></g></g></mask><radialGradient id="Безымянный_градиент_5" cx="-241.1" cy="459.16" r="1" gradientTransform="matrix(-1.44, 37.04, 36.72, 1.43, -17154.53, 8327.53)" gradientUnits="userSpaceOnUse"><stop offset="0" stop-color="#ffe355"/><stop offset="1" stop-color="#ff9040"/></radialGradient><linearGradient id="Безымянный_градиент_6" x1="55.89" y1="70.25" x2="55.89" y2="46.49" gradientTransform="matrix(1, 0, 0, -1, 0, 112)" gradientUnits="userSpaceOnUse"><stop offset="0" stop-color="#ffe355"/><stop offset="1" stop-color="#ffd500"/></linearGradient><linearGradient id="Безымянный_градиент_7" x1="55.89" y1="70.25" x2="55.89" y2="47.12" gradientTransform="matrix(1, 0, 0, -1, 0, 112)" gradientUnits="userSpaceOnUse"><stop offset="0" stop-color="#ff9040"/><stop offset="1" stop-color="#ffcaac" stop-opacity="0.1"/></linearGradient><linearGradient id="Безымянный_градиент_8" x1="50" y1="69.09" x2="59.3" y2="68.5" gradientTransform="matrix(1, 0, 0, -1, 0, 112)" gradientUnits="userSpaceOnUse"><stop offset="0" stop-color="#f9e0e0"/><stop offset="1" stop-color="#fff" stop-opacity="0"/></linearGradient><linearGradient id="Безымянный_градиент_9" x1="49.2" y1="66.25" x2="51.79" y2="67.87" gradientTransform="matrix(1, 0, 0, -1, 0, 112)" gradientUnits="userSpaceOnUse"><stop offset="0" stop-color="#fff"/><stop offset="1" stop-color="#fff"/></linearGradient></defs><title>Yellow Spinner</title><circle class="cls-2" cx="55" cy="55" r="54.5"/><circle class="cls-3" cx="55" cy="55" r="54.5"/><circle class="cls-4" cx="55" cy="55" r="49.71"/><path class="cls-5" d="M39.87,102.54a50,50,0,0,0,33.63-.24L56.36,55.38Z" transform="translate(-0.5 -0.5)"/><path class="cls-5" d="M5.54,55.5a50,50,0,0,0,11.1,31.4L55.5,55.5Z" transform="translate(-0.5 -0.5)"/><path class="cls-5" d="M15.18,26A50,50,0,0,1,42.12,7.37L55.5,55.5Z" transform="translate(-0.5 -0.5)"/><path class="cls-5" d="M74,9.1a49.87,49.87,0,0,1,22.58,18L55.5,55.5Z" transform="translate(-0.5 -0.5)"/><path class="cls-5" d="M105.46,55.5a49.94,49.94,0,0,1-9.41,29.18L55.5,55.5Z" transform="translate(-0.5 -0.5)"/><circle class="cls-6" cx="16.4" cy="25.48" r="2.17"/><circle class="cls-6" cx="42.05" cy="7.19" r="2.17"/><circle class="cls-6" cx="74.46" cy="9.15" r="2.17"/><circle class="cls-6" cx="16.03" cy="85.75" r="2.17"/><circle class="cls-6" cx="5.23" cy="55.31" r="2.17"/><circle class="cls-6" cx="39.6" cy="101.46" r="2.17"/><circle class="cls-6" cx="72.49" cy="100.97" r="2.17"/><circle class="cls-6" cx="95.08" cy="83.54" r="2.17"/><circle class="cls-6" cx="103.92" cy="55.8" r="2.17"/><circle class="cls-6" cx="95.57" cy="25.85" r="2.17"/><path class="cls-7" d="M55.75,41.25h0a12.15,12.15,0,0,1,12,12.28h0a12.15,12.15,0,0,1-12,12.28h0a12.15,12.15,0,0,1-12-12.28h0A12.15,12.15,0,0,1,55.75,41.25Z" transform="translate(-0.5 -0.5)"/><path class="cls-8" d="M55.89,41.25h0A12.38,12.38,0,0,1,68.27,53.63h0A12.38,12.38,0,0,1,55.89,66h0A12.38,12.38,0,0,1,43.51,53.63h0A12.39,12.39,0,0,1,55.89,41.25Z" transform="translate(-0.5 -0.5)"/><g class="cls-9"><path class="cls-10" d="M55.89,41.75h0A11.88,11.88,0,0,1,67.77,53.63h0A11.88,11.88,0,0,1,55.89,65.51h0A11.88,11.88,0,0,1,44,53.63h0A11.88,11.88,0,0,1,55.89,41.75Z" transform="translate(-0.5 -0.5)"/><path class="cls-11" d="M55.89,41.75h0A11.88,11.88,0,0,1,67.77,53.63h0A11.88,11.88,0,0,1,55.89,65.51h0A11.88,11.88,0,0,1,44,53.63h0A11.88,11.88,0,0,1,55.89,41.75Z" transform="translate(-0.5 -0.5)"/><path class="cls-12" d="M44,53.32A11.57,11.57,0,0,1,55.58,41.75h.63A11.56,11.56,0,0,1,67.77,53.32c0,2.45-7.57-3.16-11.6,0a29.53,29.53,0,0,1-6,3.4C47.21,58.06,44,56.6,44,53.32Z" transform="translate(-0.5 -0.5)"/></g><path class="cls-13" d="M51.64,43.92c.09.75,1.51-.18,3.37-.4s3.46.34,3.38-.41-1.8-1.16-3.67-.94S51.56,43.18,51.64,43.92Z" transform="translate(-0.5 -0.5)"/><path class="cls-14" d="M49.79,45.64c.19.22.66,0,1.12-.41s.75-.82.56-1-.72-.08-1.19.32S49.6,45.42,49.79,45.64Z" transform="translate(-0.5 -0.5)"/><path class="cls-15" d="M54.79,52.18h0Zm-1-.45-.12.2Zm-.22.35,0-.08Zm7-3.94H56.09l-2.19,3.4,2.19-3.4H51.63l-2.53,4,7,8.93,7-8.93Z" transform="translate(-0.5 -0.5)"/><path class="cls-16" d="M56.09,48.14l-2.66,4h5.32Z" transform="translate(-0.5 -0.5)"/><path class="cls-15" d="M56.09,61.11l2.66-9H53.43Z" transform="translate(-0.5 -0.5)"/><path class="cls-17" d="M58.6,52.13l1.81-4H56.09Z" transform="translate(-0.5 -0.5)"/><path class="cls-15" d="M60.58,48.14l2.49,4H58.75Z" transform="translate(-0.5 -0.5)"/><path class="cls-17" d="M53.57,52.13l-1.81-4h4.33Z" transform="translate(-0.5 -0.5)"/><path class="cls-15" d="M51.59,48.14l-2.49,4h4.33Z" transform="translate(-0.5 -0.5)"/><path class="cls-18" d="M49,52.15l7,9,.07-.07-6.93-9Z" transform="translate(-0.5 -0.5)"/><path class="cls-19" d="M49.1,52.13l7,9-2.6-9Z" transform="translate(-0.5 -0.5)"/><path class="cls-20" d="M58.68,52.13l-2.59,9,7-9Z" transform="translate(-0.5 -0.5)"/><path class="cls-21" d="M61.31,48.79l1.77-.29-1.77-.29.47-.65-.66.46-.29-1.77L60.54,48l-.65-.46.47.65-1.78.29,1.78.29-.47.65.65-.46.29,1.77L61.12,49l.66.46Z" transform="translate(-0.5 -0.5)"/></svg>