<svg width="74" height="86" viewBox="0 0 74 86" fill="none" xmlns="http://www.w3.org/2000/svg">
<circle cx="37.1935" cy="49.3548" r="35.3064" fill="#222222" stroke="white"/>
<circle cx="56.5" cy="16.5" r="16" fill="#222222" stroke="white"/>
<path fill-rule="evenodd" clip-rule="evenodd" d="M51.3894 18.2379C49.8858 18.2379 46.869 15.1981 45.6793 13.9338C46.0811 13.7451 46.3604 13.3368 46.3604 12.8627C46.3604 12.2094 45.8318 11.6793 45.1801 11.6793C44.5286 11.6793 44 12.2094 44 12.8627C44 13.516 44.5286 14.0459 45.1801 14.0459C45.2518 14.0459 45.3214 14.0384 45.3894 14.0261L47.6413 20.855C48.4523 23.3144 50.7498 24.9759 53.3395 24.9759H56.2984V9.68635C56.2984 9.68635 54.837 18.2379 51.3894 18.2379Z" fill="url(#paint0_linear)"/>
<path fill-rule="evenodd" clip-rule="evenodd" d="M53.3173 16.3816C53.3173 16.3816 52.1246 14.6734 51.4633 13.3523C51.8086 13.2426 52.0593 12.9186 52.0593 12.5358C52.0593 12.063 51.677 11.6795 51.2051 11.6795C50.7337 11.6795 50.3508 12.063 50.3508 12.5358C50.3508 12.9997 50.7192 13.3766 51.1783 13.3907C51.0638 14.3279 50.7735 16.2734 50.2423 17.2225C50.2423 17.2225 51.7798 18.9662 53.3173 16.3816Z" fill="url(#paint1_linear)"/>
<path fill-rule="evenodd" clip-rule="evenodd" d="M62.3544 17.2225C61.8237 16.2734 61.5332 14.3279 61.4188 13.3907C61.8781 13.3766 62.2457 12.9997 62.2457 12.5358C62.2457 12.063 61.8636 11.6795 61.3917 11.6795C60.9201 11.6795 60.5376 12.063 60.5376 12.5358C60.5376 12.9186 60.7882 13.2426 61.1338 13.3523C60.4726 14.6734 59.2802 16.3816 59.2802 16.3816C60.8177 18.9662 62.3544 17.2225 62.3544 17.2225Z" fill="#A25E2F"/>
<path fill-rule="evenodd" clip-rule="evenodd" d="M67.4166 11.6797C66.7654 11.6797 66.2367 12.2098 66.2367 12.8631C66.2367 13.3372 66.5156 13.7455 66.9177 13.9342C65.7281 15.1985 62.7114 18.2383 61.2075 18.2383C57.7601 18.2383 56.2985 9.68676 56.2985 9.68676V24.9763H59.2577C61.8474 24.9763 64.1449 23.3148 64.9559 20.8553L67.2077 14.0265C67.2755 14.0388 67.3453 14.0463 67.4166 14.0463C68.0687 14.0463 68.5971 13.5164 68.5971 12.8631C68.5971 12.2098 68.0687 11.6797 67.4166 11.6797Z" fill="url(#paint2_linear)"/>
<path fill-rule="evenodd" clip-rule="evenodd" d="M58.0553 9.76161C58.0553 10.7345 57.2686 11.5232 56.2982 11.5232C55.3287 11.5232 54.5414 10.7345 54.5414 9.76161C54.5414 8.78875 55.3287 8 56.2982 8C57.2686 8 58.0553 8.78875 58.0553 9.76161Z" fill="url(#paint3_radial)"/>
<path d="M55.4402 8.45422C55.4589 8.6101 55.7553 8.41628 56.1439 8.36948C56.5326 8.32268 56.8663 8.44061 56.8476 8.28474C56.8289 8.12887 56.472 8.04113 56.0833 8.08793C55.6947 8.13474 55.4215 8.29835 55.4402 8.45422Z" fill="url(#paint4_linear)"/>
<path d="M55.0526 8.81339C55.0924 8.85957 55.1898 8.81222 55.2865 8.72844C55.3832 8.64465 55.4425 8.55616 55.4027 8.50998C55.3629 8.4638 55.2523 8.49428 55.1556 8.57807C55.0589 8.66185 55.0127 8.76721 55.0526 8.81339Z" fill="url(#paint5_linear)" fill-opacity="0.85"/>
<g filter="url(#filter0_i)">
<path d="M54.5414 9.75724C54.5414 8.78691 55.328 8 56.2984 8C57.2687 8 58.0553 8.78687 58.0553 9.7572C58.0553 9.77284 58.0553 9.78734 58.0553 9.80059C58.0553 10.1825 56.9347 9.30952 56.3399 9.80059C56.0983 10 55.7812 10.1763 55.4897 10.3153C55.0331 10.5332 54.5414 10.3065 54.5414 9.80059C54.5414 9.78646 54.5414 9.772 54.5414 9.75724Z" fill="url(#paint6_linear)" fill-opacity="0.32"/>
</g>
<path fill-rule="evenodd" clip-rule="evenodd" d="M46.5099 12.7818C46.5099 13.4767 45.9479 14.0401 45.2549 14.0401C44.5623 14.0401 44 13.4767 44 12.7818C44 12.0869 44.5623 11.5235 45.2549 11.5235C45.9479 11.5235 46.5099 12.0869 46.5099 12.7818Z" fill="#E47914"/>
<path d="M44.6418 11.8478C44.6552 11.9592 44.8669 11.8207 45.1445 11.7873C45.4221 11.7539 45.6604 11.8381 45.6471 11.7268C45.6338 11.6154 45.3788 11.5528 45.1012 11.5862C44.8236 11.6196 44.6285 11.7365 44.6418 11.8478Z" fill="url(#paint7_linear)"/>
<path d="M44.3653 12.1043C44.3937 12.1373 44.4633 12.1035 44.5324 12.0436C44.6014 11.9838 44.6438 11.9206 44.6154 11.8876C44.587 11.8546 44.5079 11.8764 44.4389 11.9362C44.3698 11.9961 44.3369 12.0713 44.3653 12.1043Z" fill="url(#paint8_linear)"/>
<g filter="url(#filter1_i)">
<path d="M44 12.7786C44 12.0856 44.5619 11.5235 45.2549 11.5235C45.948 11.5235 46.5099 12.0855 46.5099 12.7786C46.5099 12.7898 46.5099 12.8001 46.5099 12.8096C46.5099 13.0824 45.7095 12.4588 45.2846 12.8096C45.112 12.952 44.8855 13.078 44.6773 13.1773C44.3512 13.3329 44 13.171 44 12.8096C44 12.7995 44 12.7892 44 12.7786Z" fill="url(#paint9_linear)" fill-opacity="0.32"/>
</g>
<path fill-rule="evenodd" clip-rule="evenodd" d="M68.597 12.7818C68.597 13.4767 68.0351 14.0401 67.342 14.0401C66.6495 14.0401 66.0871 13.4767 66.0871 12.7818C66.0871 12.0869 66.6495 11.5235 67.342 11.5235C68.0351 11.5235 68.597 12.0869 68.597 12.7818Z" fill="#E47914"/>
<path d="M66.7289 11.8478C66.7422 11.9592 66.9539 11.8207 67.2315 11.7873C67.5091 11.7539 67.7475 11.8381 67.7342 11.7268C67.7208 11.6154 67.4659 11.5528 67.1883 11.5862C66.9107 11.6196 66.7156 11.7365 66.7289 11.8478Z" fill="url(#paint10_linear)"/>
<path d="M66.4522 12.1043C66.4806 12.1373 66.5502 12.1035 66.6193 12.0436C66.6883 11.9838 66.7308 11.9206 66.7023 11.8876C66.6739 11.8546 66.5949 11.8764 66.5258 11.9362C66.4567 11.9961 66.4238 12.0713 66.4522 12.1043Z" fill="url(#paint11_linear)"/>
<g filter="url(#filter2_i)">
<path d="M66.0871 12.7786C66.0871 12.0856 66.649 11.5235 67.3421 11.5235C68.0352 11.5235 68.597 12.0855 68.597 12.7786C68.597 12.7898 68.597 12.8001 68.597 12.8096C68.597 13.0824 67.7966 12.4588 67.3717 12.8096C67.1992 12.952 66.9727 13.078 66.7645 13.1773C66.4383 13.3329 66.0871 13.171 66.0871 12.8096C66.0871 12.7995 66.0871 12.7892 66.0871 12.7786Z" fill="url(#paint12_linear)" fill-opacity="0.32"/>
</g>
<path d="M25.7266 54.7695L29.5938 41.9375H33.5078L27.5664 59H23.8984L17.9805 41.9375H21.8828L25.7266 54.7695ZM38.8633 59H35.3477V41.9375H38.8633V59ZM45.6484 52.9883V59H42.1328V41.9375H48.7891C50.0703 41.9375 51.1953 42.1719 52.1641 42.6406C53.1406 43.1094 53.8906 43.7773 54.4141 44.6445C54.9375 45.5039 55.1992 46.4844 55.1992 47.5859C55.1992 49.2578 54.625 50.5781 53.4766 51.5469C52.3359 52.5078 50.7539 52.9883 48.7305 52.9883H45.6484ZM45.6484 50.1406H48.7891C49.7188 50.1406 50.4258 49.9219 50.9102 49.4844C51.4023 49.0469 51.6484 48.4219 51.6484 47.6094C51.6484 46.7734 51.4023 46.0977 50.9102 45.582C50.418 45.0664 49.7383 44.8008 48.8711 44.7852H45.6484V50.1406Z" fill="#FFD500"/>
<defs>
<filter id="filter0_i" x="54.5414" y="8" width="3.51386" height="3.39802" filterUnits="userSpaceOnUse" color-interpolation-filters="sRGB">
<feFlood flood-opacity="0" result="BackgroundImageFix"/>
<feBlend mode="normal" in="SourceGraphic" in2="BackgroundImageFix" result="shape"/>
<feColorMatrix in="SourceAlpha" type="matrix" values="0 0 0 0 0 0 0 0 0 0 0 0 0 0 0 0 0 0 127 0" result="hardAlpha"/>
<feOffset dy="1"/>
<feGaussianBlur stdDeviation="1"/>
<feComposite in2="hardAlpha" operator="arithmetic" k2="-1" k3="1"/>
<feColorMatrix type="matrix" values="0 0 0 0 1 0 0 0 0 0.732333 0 0 0 0 0.695833 0 0 0 1 0"/>
<feBlend mode="normal" in2="shape" result="effect1_innerShadow"/>
</filter>
<filter id="filter1_i" x="44" y="11.5235" width="2.5099" height="2.71287" filterUnits="userSpaceOnUse" color-interpolation-filters="sRGB">
<feFlood flood-opacity="0" result="BackgroundImageFix"/>
<feBlend mode="normal" in="SourceGraphic" in2="BackgroundImageFix" result="shape"/>
<feColorMatrix in="SourceAlpha" type="matrix" values="0 0 0 0 0 0 0 0 0 0 0 0 0 0 0 0 0 0 127 0" result="hardAlpha"/>
<feOffset dy="1"/>
<feGaussianBlur stdDeviation="1"/>
<feComposite in2="hardAlpha" operator="arithmetic" k2="-1" k3="1"/>
<feColorMatrix type="matrix" values="0 0 0 0 1 0 0 0 0 0.732333 0 0 0 0 0.695833 0 0 0 1 0"/>
<feBlend mode="normal" in2="shape" result="effect1_innerShadow"/>
</filter>
<filter id="filter2_i" x="66.0871" y="11.5235" width="2.5099" height="2.71287" filterUnits="userSpaceOnUse" color-interpolation-filters="sRGB">
<feFlood flood-opacity="0" result="BackgroundImageFix"/>
<feBlend mode="normal" in="SourceGraphic" in2="BackgroundImageFix" result="shape"/>
<feColorMatrix in="SourceAlpha" type="matrix" values="0 0 0 0 0 0 0 0 0 0 0 0 0 0 0 0 0 0 127 0" result="hardAlpha"/>
<feOffset dy="1"/>
<feGaussianBlur stdDeviation="1"/>
<feComposite in2="hardAlpha" operator="arithmetic" k2="-1" k3="1"/>
<feColorMatrix type="matrix" values="0 0 0 0 1 0 0 0 0 0.732333 0 0 0 0 0.695833 0 0 0 1 0"/>
<feBlend mode="normal" in2="shape" result="effect1_innerShadow"/>
</filter>
<linearGradient id="paint0_linear" x1="46.0079" y1="21.0861" x2="57.0543" y2="18.5822" gradientUnits="userSpaceOnUse">
<stop stop-color="#FFB544"/>
<stop offset="1" stop-color="#FFD622"/>
</linearGradient>
<linearGradient id="paint1_linear" x1="51.7798" y1="11.6795" x2="51.7798" y2="17.7977" gradientUnits="userSpaceOnUse">
<stop stop-color="#9C461E"/>
<stop offset="1" stop-color="#E49730"/>
</linearGradient>
<linearGradient id="paint2_linear" x1="68.5971" y1="17.5632" x2="46.9949" y2="26.582" gradientUnits="userSpaceOnUse">
<stop stop-color="#FFB643"/>
<stop offset="1" stop-color="#FFD623"/>
</linearGradient>
<radialGradient id="paint3_radial" cx="0" cy="0" r="1" gradientUnits="userSpaceOnUse" gradientTransform="translate(56.2984 9.76161) rotate(90) scale(1.76161 1.75693)">
<stop stop-color="#FFD193"/>
<stop offset="1" stop-color="#EC7205"/>
</radialGradient>
<linearGradient id="paint4_linear" x1="55.0924" y1="8.31007" x2="57.0347" y2="8.43339" gradientUnits="userSpaceOnUse">
<stop stop-color="#F9E0E0"/>
<stop offset="1" stop-color="white" stop-opacity="0"/>
</linearGradient>
<linearGradient id="paint5_linear" x1="54.9188" y1="8.82051" x2="55.4612" y2="8.48261" gradientUnits="userSpaceOnUse">
<stop stop-color="white"/>
<stop offset="1" stop-color="white"/>
</linearGradient>
<linearGradient id="paint6_linear" x1="56.2984" y1="8" x2="56.2984" y2="11.6012" gradientUnits="userSpaceOnUse">
<stop stop-color="#FF9040"/>
<stop offset="1" stop-color="#FFCAAC" stop-opacity="0.1"/>
</linearGradient>
<linearGradient id="paint7_linear" x1="44.3934" y1="11.7449" x2="45.7807" y2="11.8329" gradientUnits="userSpaceOnUse">
<stop stop-color="#F9E0E0"/>
<stop offset="1" stop-color="white" stop-opacity="0.97"/>
</linearGradient>
<linearGradient id="paint8_linear" x1="44.2698" y1="12.1094" x2="44.6572" y2="11.868" gradientUnits="userSpaceOnUse">
<stop stop-color="white"/>
<stop offset="1" stop-color="white"/>
</linearGradient>
<linearGradient id="paint9_linear" x1="45.255" y1="11.5235" x2="45.255" y2="14.0957" gradientUnits="userSpaceOnUse">
<stop stop-color="#FF9040"/>
<stop offset="1" stop-color="#FFCAAC" stop-opacity="0.1"/>
</linearGradient>
<linearGradient id="paint10_linear" x1="66.4805" y1="11.7449" x2="67.8678" y2="11.8329" gradientUnits="userSpaceOnUse">
<stop stop-color="#F9E0E0"/>
<stop offset="1" stop-color="white" stop-opacity="0.97"/>
</linearGradient>
<linearGradient id="paint11_linear" x1="66.3567" y1="12.1094" x2="66.7441" y2="11.868" gradientUnits="userSpaceOnUse">
<stop stop-color="white"/>
<stop offset="1" stop-color="white"/>
</linearGradient>
<linearGradient id="paint12_linear" x1="67.3421" y1="11.5235" x2="67.3421" y2="14.0957" gradientUnits="userSpaceOnUse">
<stop stop-color="#FF9040"/>
<stop offset="1" stop-color="#FFCAAC" stop-opacity="0.1"/>
</linearGradient>
</defs>
</svg>
