<svg xmlns="http://www.w3.org/2000/svg" fill="none" viewBox="0 0 108 150"><g clip-path="url(#clip0)"><path fill="#E75397" d="M85.348 119.618c3.305-8.406 7.585-19.596-8.978-26.801-12.522-5.452-11.228-.683-21.738-.683h-.393c-10.51 0-9.198-4.769-21.738.683-16.557 7.205-12.265 18.395-8.978 26.801 2.68 6.816-11.798 8.04-8.744 20.898 2.894 12.183 9.394 7.651 24.338 4.995 8.806-1.565 20.85-1.626 30.661 0 14.975 2.497 21.463 7.181 24.339-4.995 3.029-12.834-11.443-14.052-8.77-20.898z"/><path fill="#EF58A0" d="M85.6 118.18c3.304-8.4 7.579-19.589-8.984-26.8-12.522-5.452-11.228-.683-21.74-.683h-.41c-10.51 0-9.198-4.77-21.739.682-16.556 7.212-12.264 18.401-8.983 26.801 2.686 6.816-11.799 8.04-8.739 20.899 2.895 12.182 9.389 7.65 24.34 4.994 8.805-1.565 20.849-1.626 30.63 0 14.98 2.498 21.462 7.182 24.338-4.994 3.078-12.859-11.4-14.083-8.714-20.899z"/><path fill="url(#paint0_radial)" d="M54.374 116.718c-1.962 3.369-4.568-1.127-.656-1.127-3.912 0-1.306-4.495.656-1.12-1.962-3.375 3.262-3.375 1.306 0 1.956-3.375 4.569 1.12.65 1.12 3.919 0 1.306 4.496-.65 1.127 1.956 3.338-3.268 3.338-1.306 0z"/><path fill="url(#paint1_radial)" d="M54.215 133.213c-2.453 4.185-5.673-1.395-.81-1.395-4.863 0-1.619-5.579.81-1.395-2.453-4.184 4.053-4.184 1.625 0 2.452-4.184 5.672 1.395.81 1.395 4.862 0 1.618 5.58-.81 1.395 2.428 4.215-4.054 4.215-1.625 0z"/><path fill="url(#paint2_radial)" d="M54.466 99.084c-1.723 2.967-4.023-.986-.576-.986-3.447 0-1.147-3.954.576-.987-1.723-2.967 2.87-2.967 1.147 0 1.723-2.967 4.016.987.576.987 3.44 0 1.147 3.953-.576.986 1.71 2.967-2.882 2.967-1.147 0z"/><path fill="#E75397" d="M34.34 129.016c.368 12.323-.76 17.78-8.658 20.156-8.806 2.643-16.196-2.01-21.72-13.054-5.268-10.543-.835-20.709 9.627-23.822 11.755-3.496 20.383 4.422 20.751 16.72z"/><path fill="#F59DCB" d="M27.883 128.766c.319 10.483-.147 16.922-6.132 18.92-6.641 2.223-13.405-3.125-17.612-12.536-4.01-8.978.11-18.06 8.003-20.661 8.891-2.924 15.428 3.795 15.741 14.277z"/><path fill="url(#paint3_radial)" d="M12.559 127.591a1.608 1.608 0 01-.954 1.524 1.626 1.626 0 01-.936.122 1.625 1.625 0 01-1.317-1.227 1.606 1.606 0 01.638-1.679 1.63 1.63 0 01.895-.299c.43-.014.847.143 1.161.435.314.293.498.697.513 1.124z"/><path fill="url(#paint4_radial)" d="M18.832 125.1a1.62 1.62 0 01-.958 1.52 1.63 1.63 0 01-1.78-.297 1.601 1.601 0 01-.406-1.747 1.619 1.619 0 011.47-1.042 1.648 1.648 0 011.163.438 1.618 1.618 0 01.51 1.128z"/><path fill="url(#paint5_radial)" d="M21.965 120.245c.01.319-.076.634-.246.904a1.633 1.633 0 01-2.491.319 1.607 1.607 0 01.17-2.489c.261-.185.572-.29.893-.299a1.618 1.618 0 011.535.949c.087.194.135.404.14.616z"/><path fill="url(#paint6_radial)" d="M13.123 120.507a1.62 1.62 0 01-.958 1.52 1.633 1.633 0 01-1.78-.297 1.61 1.61 0 01-.406-1.747 1.63 1.63 0 013.002-.09c.087.193.136.402.142.614z"/><path fill="url(#paint7_radial)" d="M24.418 126.464a1.608 1.608 0 01-.954 1.525 1.63 1.63 0 01-2.253-1.109 1.602 1.602 0 01.643-1.678c.263-.185.575-.289.896-.297a1.617 1.617 0 011.668 1.559z"/><path fill="url(#paint8_radial)" d="M7.524 124.899c.01.319-.076.633-.247.904a1.626 1.626 0 01-1.646.735 1.62 1.62 0 01-1.315-1.229 1.605 1.605 0 01.64-1.677c.262-.185.573-.289.894-.299a1.64 1.64 0 011.162.44c.314.293.498.698.512 1.126z"/><path fill="url(#paint9_radial)" d="M17.722 131.897a1.62 1.62 0 01-.953 1.525 1.635 1.635 0 01-1.783-.293 1.612 1.612 0 01-.408-1.748c.113-.299.314-.557.575-.743a1.631 1.631 0 012.056.136c.314.292.499.696.513 1.123z"/><path fill="url(#paint10_radial)" d="M20.157 138.287a1.62 1.62 0 01-.958 1.52 1.633 1.633 0 01-1.78-.297 1.61 1.61 0 01-.406-1.747 1.63 1.63 0 012.632-.602c.313.294.497.698.511 1.126z"/><path fill="url(#paint11_radial)" d="M8.812 131.702a1.61 1.61 0 01-.958 1.52 1.633 1.633 0 01-1.78-.296 1.614 1.614 0 01-.406-1.748 1.621 1.621 0 011.47-1.041 1.628 1.628 0 011.532.951c.087.194.136.402.142.614z"/><path fill="url(#paint12_radial)" d="M25.123 133.682a1.607 1.607 0 01-.959 1.521 1.636 1.636 0 01-1.78-.3 1.607 1.607 0 01.176-2.49c.262-.185.574-.288.896-.296a1.609 1.609 0 011.668 1.565z"/><path fill="url(#paint13_radial)" d="M24.897 141.527a1.61 1.61 0 01-.958 1.52 1.633 1.633 0 01-1.78-.296 1.614 1.614 0 01-.406-1.748 1.621 1.621 0 011.47-1.041 1.64 1.64 0 011.162.44c.313.293.497.698.512 1.125z"/><path fill="url(#paint14_radial)" d="M18.286 143.879c.01.319-.076.633-.247.904a1.626 1.626 0 01-1.646.735 1.62 1.62 0 01-1.315-1.229 1.605 1.605 0 01.64-1.677c.262-.185.573-.289.894-.299a1.617 1.617 0 011.535.949 1.6 1.6 0 01.14.617z"/><path fill="url(#paint15_radial)" d="M13.172 137.727a1.607 1.607 0 01-.96 1.52 1.627 1.627 0 01-2.249-1.113 1.606 1.606 0 01.645-1.677 1.64 1.64 0 011.522-.193 1.61 1.61 0 011.042 1.463z"/><path fill="#E75397" d="M35.002 119.155c-6.56-3.655-10.069-4.039-10.725-4.727-.76-.664-.325-4.599 10.725 4.727z"/><path fill="#F8CAC3" d="M27.828 112.85c-2.097 2.01-5.415-4.129-7.488 1.328-1.422 3.74-3.679 1.468-4.292-.17-.613 3.898-3.606 3.088-4.2.53-.24 3.106-3.404 3.904-3.846.31-.705 3.204-3.029 3.277-2.943 1.042.172-4.331 4.544-12.182 13.577-11.47 6.396.494 11.964 5.769 9.192 8.43z"/><path fill="#E75397" d="M74.206 129.016c-.368 12.323.76 17.78 8.658 20.156 8.806 2.643 16.195-2.01 21.72-13.054 5.268-10.543.834-20.709-9.627-23.822-11.755-3.496-20.383 4.422-20.751 16.72z"/><path fill="#F59DCB" d="M80.663 128.766c-.32 10.483.147 16.922 6.132 18.92 6.641 2.223 13.411-3.125 17.612-12.536 4.01-8.978-.105-18.06-7.972-20.661-8.923-2.924-15.46 3.795-15.772 14.277z"/><path fill="url(#paint16_radial)" d="M95.987 127.591a1.609 1.609 0 00.953 1.524c.293.132.619.175.936.122a1.625 1.625 0 001.318-1.227 1.606 1.606 0 00-.638-1.679 1.63 1.63 0 00-.895-.299 1.628 1.628 0 00-1.161.435 1.612 1.612 0 00-.513 1.124z"/><path fill="url(#paint17_radial)" d="M89.714 125.1a1.62 1.62 0 00.958 1.52 1.63 1.63 0 001.78-.297 1.614 1.614 0 00.406-1.747 1.619 1.619 0 00-1.47-1.042 1.648 1.648 0 00-1.164.438 1.618 1.618 0 00-.51 1.128z"/><path fill="url(#paint18_radial)" d="M86.611 120.245a1.62 1.62 0 00.958 1.52 1.633 1.633 0 001.78-.297 1.607 1.607 0 00-.17-2.489 1.629 1.629 0 00-1.52-.195 1.614 1.614 0 00-1.048 1.461z"/><path fill="url(#paint19_radial)" d="M95.423 120.507a1.62 1.62 0 00.958 1.52 1.633 1.633 0 001.78-.297 1.61 1.61 0 00.406-1.747 1.63 1.63 0 00-3.002-.09 1.603 1.603 0 00-.142.614z"/><path fill="url(#paint20_radial)" d="M84.103 126.464a1.607 1.607 0 00.955 1.525 1.629 1.629 0 002.253-1.109 1.603 1.603 0 00-.644-1.678 1.627 1.627 0 00-.896-.297 1.616 1.616 0 00-1.668 1.559z"/><path fill="url(#paint21_radial)" d="M101.022 124.899a1.605 1.605 0 00.957 1.52 1.634 1.634 0 001.781-.297 1.611 1.611 0 00-1.064-2.789 1.64 1.64 0 00-1.162.44 1.612 1.612 0 00-.512 1.126z"/><path fill="url(#paint22_radial)" d="M90.824 131.897a1.62 1.62 0 00.953 1.525 1.635 1.635 0 001.782-.293 1.612 1.612 0 00.409-1.748 1.631 1.631 0 00-2.632-.607 1.608 1.608 0 00-.512 1.123z"/><path fill="url(#paint23_radial)" d="M90.337 139.92a1.615 1.615 0 001.264-1.906 1.625 1.625 0 00-1.919-1.256 1.614 1.614 0 00-1.264 1.906 1.625 1.625 0 001.919 1.256z"/><path fill="url(#paint24_radial)" d="M99.734 131.702a1.61 1.61 0 00.958 1.52 1.631 1.631 0 002.25-1.109 1.606 1.606 0 00-.64-1.677 1.639 1.639 0 00-.894-.299 1.637 1.637 0 00-1.162.44 1.616 1.616 0 00-.512 1.125z"/><path fill="url(#paint25_radial)" d="M86.222 134.332a1.613 1.613 0 001.105-2.002 1.627 1.627 0 00-2.015-1.098 1.613 1.613 0 00-1.105 2.002 1.627 1.627 0 002.015 1.098z"/><path fill="url(#paint26_radial)" d="M83.65 141.527a1.61 1.61 0 00.957 1.52 1.633 1.633 0 001.78-.296 1.614 1.614 0 00.406-1.748 1.621 1.621 0 00-1.47-1.041 1.64 1.64 0 00-1.162.44 1.615 1.615 0 00-.512 1.125z"/><path fill="url(#paint27_radial)" d="M90.235 143.879c-.01.319.076.633.247.904a1.627 1.627 0 001.646.735 1.62 1.62 0 001.315-1.229 1.605 1.605 0 00-.64-1.677 1.636 1.636 0 00-2.057.139 1.623 1.623 0 00-.51 1.128z"/><path fill="url(#paint28_radial)" d="M95.374 137.727c-.01.319.076.633.247.904a1.626 1.626 0 001.646.735 1.62 1.62 0 001.315-1.229 1.605 1.605 0 00-.64-1.677 1.637 1.637 0 00-2.06.137 1.602 1.602 0 00-.509 1.13z"/><path fill="#E75397" d="M73.543 119.155c6.562-3.655 10.07-4.039 10.725-4.727.767-.664.326-4.599-10.725 4.727z"/><path fill="#F8CAC3" d="M80.718 112.85c2.097 2.01 5.415-4.129 7.487 1.328 1.423 3.74 3.68 1.468 4.293-.17.613 3.898 3.606 3.088 4.2.53.24 3.106 3.404 3.904 3.845.31.705 3.204 3.03 3.277 2.944 1.042-.172-4.331-4.544-12.182-13.577-11.47-6.39.494-11.964 5.769-9.192 8.43zM101.034 52.816c0 1.164-.043 2.309-.135 3.43a36.88 36.88 0 01-7.8 20.484c-8.346 10.501-22.383 16.178-38.02 16.166-16.22 0-31.421-6.231-39.994-17.664A36.389 36.389 0 017.93 54.589c0-.61-.037-1.182-.037-1.779 0-2.748.167-5.495.503-8.223a63.635 63.635 0 012.625-11.939C16.827 14.784 30.919.172 54.705-.006c22.597-.17 36.634 13.98 42.754 31.442a62.753 62.753 0 012.894 11.957c.456 3.12.683 6.27.681 9.423z"/><path fill="#F8CAC3" d="M107.724 69.061c-1.294 5.33-7.659 9.527-13.03 8.241-5.373-1.285-7.727-7.565-6.421-12.9 1.306-5.336 6.665-9.6 12.062-8.315 5.396 1.285 8.707 7.638 7.389 12.974zM.282 67.624c1.294 5.336 7.66 9.526 13.031 8.241 5.372-1.285 7.708-7.565 6.414-12.901-1.294-5.336-6.69-9.593-12.056-8.308C2.306 55.94-1.012 62.288.282 67.624z"/><path fill="#8A5D3B" d="M96.778 72.052c-1.067-.658 1.668-2.887 2.57-4.574 1.226-2.272.858-5.482 2.698-4.873 2.22.706 2.581 3.928 1.379 6.188-1.661 3.143-5.15 4.167-6.647 3.259zM11.087 70.535c1.153-.505-1.453-3.045-2.116-4.842-.889-2.437.092-5.561-1.809-5.232-2.3.402-3.096 3.538-2.213 5.945 1.22 3.344 4.537 4.83 6.138 4.13z" opacity=".2"/><path fill="#fff" d="M71.189 7.194c1.655 6.816-13.608.195-25.848 3.654-12.24 3.46-16.722 6.201-26.166 11.762-3.403 2.01 1.037-10.135 18.562-16.69C52.627.379 70.067 2.584 71.19 7.195z" opacity=".2"/><path fill="#F59DCB" d="M55.662 91.994c10.871 0 19.684-6.048 19.684-13.51 0-7.461-8.813-13.51-19.684-13.51s-19.684 6.049-19.684 13.51c0 7.462 8.813 13.51 19.684 13.51z"/><path fill="#540027" d="M56.55 84.865c8.999-9.455 15.759.691 15.759.691 9.502-12.453-5.776-20.582-16.647-20.582-10.871 0-29.473 9.744-14.177 22.658 0 0 4.827-13.376 15.064-2.767z"/><path fill="#EF58A0" d="M100.353 43.4C80.399 8.441 30.232 14.161 8.37 44.617a63.633 63.633 0 012.625-11.94C30.777 5.507 81.368 5.702 97.459 31.462a62.761 62.761 0 012.894 11.938z"/><path fill="#E75397" d="M89.352 30.833c-.576 3.466-15.944-.737-25.614-8.85-9.652 4.976-26.368 2.174-25.798-1.291.57-3.466 14.582-3.954 26.264-2.029 11.682 1.925 25.725 8.68 25.148 12.17z"/><path fill="#EF58A0" d="M89.119 31.308c-8.193-9.636-24.449-10.27-24.449-10.27s-16.312-4.123-26.706-.066c-.742-1.292-.576-11.915 5.562-17.177 4.802-4.106 23.4 9.654 23.4 9.654s19.151-3.837 22.653.61c2.907 3.617 2.514 13.564-.46 17.25z"/><path fill="#E75397" d="M69.245 17.585c-.78 4.05-2.57 6.298-4.581 5.915-3.514-.67-3.747-1.931-2.71-7.31.784-4.05 2.68-6.73 5.322-5.95 1.969.584 2.754 3.294 1.969 7.345z"/><path fill="#EF58A0" d="M68.852 17.5c-.699 3.612-2.287 5.61-4.084 5.269-3.133-.61-3.342-1.718-2.416-6.506.7-3.612 2.385-6 4.746-5.305 1.754.518 2.453 2.936 1.754 6.542z"/><path fill="#8A5D3B" d="M87.751 43.96c0 .694-.9 2.735-2.422 2.735-1.52 0-2.422.365-2.422-.33 0-.694.901-1.12 2.422-1.12 1.521 0 2.422-1.986 2.422-1.285z"/><path fill="#8A5D3B" d="M85.495 42.37c.178.676-.172 2.875-1.644 3.259-1.471.383-2.25.962-2.452.286-.203-.676.613-1.31 2.06-1.693 1.447-.384 1.864-2.522 2.036-1.852zM88.892 45.379c0 .694-.901 2.735-2.422 2.735-1.52 0-2.422.365-2.422-.33 0-.694.901-1.12 2.422-1.12 1.52 0 2.422-1.98 2.422-1.285z"/><path fill="#FFD8EC" fill-opacity=".5" d="M21.698 65.629c.464 3.414 3.826 5.78 7.51 5.285 3.683-.496 6.294-3.665 5.83-7.08-.464-3.414-3.826-5.78-7.51-5.284-3.683.495-6.294 3.665-5.83 7.079zM70.584 63.535c.584 4.294 4.813 7.27 9.446 6.647 4.634-.623 7.917-4.61 7.334-8.904-.584-4.295-4.813-7.271-9.446-6.648-4.634.623-7.917 4.61-7.334 8.904z"/><path fill="#8A5D3B" d="M22.836 43.887c0 .706.92 2.79 2.453 2.79s2.453.37 2.453-.336-.92-1.145-2.453-1.145-2.453-2.022-2.453-1.31z"/><path fill="#8A5D3B" d="M25.136 42.266c-.178.689.178 2.93 1.68 3.32 1.502.39 2.3.98 2.453.299.153-.683-.613-1.34-2.103-1.73-1.49-.39-1.852-2.577-2.03-1.889zM21.671 45.336c0 .707.92 2.79 2.453 2.79s2.453.372 2.453-.335c0-.707-.92-1.145-2.453-1.145s-2.453-2.022-2.453-1.31zM30.163 34.34c-.446.403 4.03-1.509 8.31.066 4.28 1.574 4.893 3.039 5.273 2.577.773-.953.43-2.69-3.85-4.264-4.281-1.574-8.632.65-9.733 1.622zM76.935 34.432c.504.328-4.217-.862-8.196 1.36-3.98 2.222-4.354 3.765-4.803 3.368-.913-.82-.847-2.59 3.132-4.812 3.98-2.222 8.627-.704 9.867.084z"/><path fill="#8A5D3B" d="M58.544 60.442c0 1.255-1.558 0-3.483 0-1.926 0-3.477 1.255-3.477 0s1.557-2.619 3.477-2.619 3.483 1.37 3.483 2.62z" opacity=".2"/><path stroke="#8A5D3B" stroke-linecap="round" stroke-linejoin="round" stroke-width="3" d="M22.69 50.861s4.013-3.125 10.452-3.125c6.438 0 9.783 3.125 9.783 3.125M68.578 50.17s4.013-3.126 10.452-3.126 9.784 3.125 9.784 3.125"/><path fill="#78D6ED" d="M29.508 54.715c-2.567 1.178-5.232.87-5.953-.685-.721-1.556.774-3.773 3.34-4.95 2.567-1.178 6.824-1.3 9.084.104-4.374 2.803-3.905 4.353-6.471 5.53zM83.004 54.254c2.566 1.178 5.231.87 5.953-.685.72-1.556-.775-3.773-3.341-4.95-2.567-1.178-6.824-1.3-9.083.104 4.374 2.803 3.905 4.353 6.471 5.53zM13.29 91.347c-1.011 1.23-2.632 1.573-3.62.769-.989-.805-.97-2.454.04-3.683 1.01-1.23 3.37-2.152 5.171-1.747-1.425 2.58-.581 3.432-1.592 4.66zM99.222 90.886c1.011 1.229 2.631 1.573 3.62.768.988-.804.97-2.453-.04-3.682-1.011-1.23-3.371-2.152-5.172-1.747 1.425 2.58.582 3.431 1.592 4.66zM16.726 70.612c-1.138 2.015-3.06 3.09-4.294 2.4-1.234-.69-1.312-2.883-.175-4.898 1.138-2.015 3.913-4.138 6.097-4.288-1.554 3.964-.49 4.771-1.628 6.786zM95.786 70.15c1.137 2.016 3.06 3.09 4.294 2.4 1.234-.69 1.312-2.882.174-4.897-1.137-2.015-3.912-4.138-6.096-4.288 1.553 3.964.49 4.771 1.628 6.786z"/></g><defs><radialGradient id="paint0_radial" cx="0" cy="0" r="1" gradientTransform="matrix(3.51374 0 0 3.49022 55.024 115.561)" gradientUnits="userSpaceOnUse"><stop stop-color="#E5BCFF"/><stop offset="1" stop-color="#E5BCFF"/></radialGradient><radialGradient id="paint1_radial" cx="0" cy="0" r="1" gradientTransform="matrix(59.0117 0 0 64.6262 2523.47 4379.25)" gradientUnits="userSpaceOnUse"><stop stop-color="#E5BCFF"/><stop offset="1" stop-color="#E5BCFF"/></radialGradient><radialGradient id="paint2_radial" cx="0" cy="0" r="1" gradientTransform="matrix(29.5265 0 0 32.3082 1800.86 2743.96)" gradientUnits="userSpaceOnUse"><stop stop-color="#E5BCFF"/><stop offset="1" stop-color="#E5BCFF"/></radialGradient><radialGradient id="paint3_radial" cx="0" cy="0" r="1" gradientTransform="matrix(1.6243 -.04817 .04784 1.61343 10.94 127.621)" gradientUnits="userSpaceOnUse"><stop stop-color="#EF58A0"/><stop offset="1" stop-color="#EF58A0"/></radialGradient><radialGradient id="paint4_radial" cx="0" cy="0" r="1" gradientTransform="matrix(8.61266 0 0 8.55504 769.077 1571.82)" gradientUnits="userSpaceOnUse"><stop stop-color="#EF58A0"/><stop offset="1" stop-color="#EF58A0"/></radialGradient><radialGradient id="paint5_radial" cx="0" cy="0" r="1" gradientTransform="matrix(8.61266 0 0 8.55605 789.436 1541.86)" gradientUnits="userSpaceOnUse"><stop stop-color="#EF58A0"/><stop offset="1" stop-color="#EF58A0"/></radialGradient><radialGradient id="paint6_radial" cx="0" cy="0" r="1" gradientTransform="matrix(8.61266 0 0 8.55508 733.857 1541.96)" gradientUnits="userSpaceOnUse"><stop stop-color="#EF58A0"/><stop offset="1" stop-color="#EF58A0"/></radialGradient><radialGradient id="paint7_radial" cx="0" cy="0" r="1" gradientTransform="matrix(8.61266 0 0 8.55553 804.206 1581.41)" gradientUnits="userSpaceOnUse"><stop stop-color="#EF58A0"/><stop offset="1" stop-color="#EF58A0"/></radialGradient><radialGradient id="paint8_radial" cx="0" cy="0" r="1" gradientTransform="matrix(8.61263 0 0 8.55462 697.901 1568.68)" gradientUnits="userSpaceOnUse"><stop stop-color="#EF58A0"/><stop offset="1" stop-color="#EF58A0"/></radialGradient><radialGradient id="paint9_radial" cx="0" cy="0" r="1" gradientTransform="matrix(8.61266 0 0 8.555 761.012 1614.45)" gradientUnits="userSpaceOnUse"><stop stop-color="#EF58A0"/><stop offset="1" stop-color="#EF58A0"/></radialGradient><radialGradient id="paint10_radial" cx="0" cy="0" r="1" gradientTransform="matrix(8.61268 0 0 8.55451 775.343 1654.94)" gradientUnits="userSpaceOnUse"><stop stop-color="#EF58A0"/><stop offset="1" stop-color="#EF58A0"/></radialGradient><radialGradient id="paint11_radial" cx="0" cy="0" r="1" gradientTransform="matrix(8.61266 0 0 8.55492 704.943 1611.78)" gradientUnits="userSpaceOnUse"><stop stop-color="#EF58A0"/><stop offset="1" stop-color="#EF58A0"/></radialGradient><radialGradient id="paint12_radial" cx="0" cy="0" r="1" gradientTransform="matrix(8.61265 0 0 8.55589 807.348 1626.97)" gradientUnits="userSpaceOnUse"><stop stop-color="#EF58A0"/><stop offset="1" stop-color="#EF58A0"/></radialGradient><radialGradient id="paint13_radial" cx="0" cy="0" r="1" gradientTransform="matrix(8.61265 0 0 8.55443 804.684 1676.11)" gradientUnits="userSpaceOnUse"><stop stop-color="#EF58A0"/><stop offset="1" stop-color="#EF58A0"/></radialGradient><radialGradient id="paint14_radial" cx="0" cy="0" r="1" gradientTransform="matrix(8.61265 0 0 8.55601 762.81 1690.14)" gradientUnits="userSpaceOnUse"><stop stop-color="#EF58A0"/><stop offset="1" stop-color="#EF58A0"/></radialGradient><radialGradient id="paint15_radial" cx="0" cy="0" r="1" gradientTransform="matrix(8.61265 0 0 8.55601 731.435 1650.57)" gradientUnits="userSpaceOnUse"><stop stop-color="#EF58A0"/><stop offset="1" stop-color="#EF58A0"/></radialGradient><radialGradient id="paint16_radial" cx="0" cy="0" r="1" gradientTransform="rotate(-178.293 -1349.19 803.903) scale(8.61655 8.55882)" gradientUnits="userSpaceOnUse"><stop stop-color="#EF58A0"/><stop offset="1" stop-color="#EF58A0"/></radialGradient><radialGradient id="paint17_radial" cx="0" cy="0" r="1" gradientTransform="rotate(-178.293 -1362.736 796.354) scale(8.61644 8.55894)" gradientUnits="userSpaceOnUse"><stop stop-color="#EF58A0"/><stop offset="1" stop-color="#EF58A0"/></radialGradient><radialGradient id="paint18_radial" cx="0" cy="0" r="1" gradientTransform="matrix(-8.61262 -.25667 .25496 -8.55514 -2761.8 1521.21)" gradientUnits="userSpaceOnUse"><stop stop-color="#EF58A0"/><stop offset="1" stop-color="#EF58A0"/></radialGradient><radialGradient id="paint19_radial" cx="0" cy="0" r="1" gradientTransform="matrix(-8.61267 -.25667 .25496 -8.55518 -2723.9 1522.61)" gradientUnits="userSpaceOnUse"><stop stop-color="#EF58A0"/><stop offset="1" stop-color="#EF58A0"/></radialGradient><radialGradient id="paint20_radial" cx="0" cy="0" r="1" gradientTransform="matrix(-8.61264 -.25667 .25497 -8.55563 -2772.82 1560.64)" gradientUnits="userSpaceOnUse"><stop stop-color="#EF58A0"/><stop offset="1" stop-color="#EF58A0"/></radialGradient><radialGradient id="paint21_radial" cx="0" cy="0" r="1" gradientTransform="rotate(-178.293 -1338.424 795.141) scale(8.61646 8.55852)" gradientUnits="userSpaceOnUse"><stop stop-color="#EF58A0"/><stop offset="1" stop-color="#EF58A0"/></radialGradient><radialGradient id="paint22_radial" cx="0" cy="0" r="1" gradientTransform="rotate(-178.293 -1360.137 817.725) scale(8.61644 8.5589)" gradientUnits="userSpaceOnUse"><stop stop-color="#EF58A0"/><stop offset="1" stop-color="#EF58A0"/></radialGradient><radialGradient id="paint23_radial" cx="0" cy="0" r="1" gradientTransform="matrix(-8.58204 -.2559 .2542 -8.52476 -2742.48 1628.51)" gradientUnits="userSpaceOnUse"><stop stop-color="#EF58A0"/><stop offset="1" stop-color="#EF58A0"/></radialGradient><radialGradient id="paint24_radial" cx="0" cy="0" r="1" gradientTransform="matrix(-8.61258 -.25667 .25494 -8.55466 -2705.69 1592.97)" gradientUnits="userSpaceOnUse"><stop stop-color="#EF58A0"/><stop offset="1" stop-color="#EF58A0"/></radialGradient><radialGradient id="paint25_radial" cx="0" cy="0" r="1" gradientTransform="rotate(-178.2 -1374.999 819.477) scale(8.60664 8.54907)" gradientUnits="userSpaceOnUse"><stop stop-color="#EF58A0"/><stop offset="1" stop-color="#EF58A0"/></radialGradient><radialGradient id="paint26_radial" cx="0" cy="0" r="1" gradientTransform="matrix(-8.61264 -.25667 .25494 -8.55453 -2775.22 1655.35)" gradientUnits="userSpaceOnUse"><stop stop-color="#EF58A0"/><stop offset="1" stop-color="#EF58A0"/></radialGradient><radialGradient id="paint27_radial" cx="0" cy="0" r="1" gradientTransform="rotate(-178.293 -1361.045 855.491) scale(8.61649 8.55894)" gradientUnits="userSpaceOnUse"><stop stop-color="#EF58A0"/><stop offset="1" stop-color="#EF58A0"/></radialGradient><radialGradient id="paint28_radial" cx="0" cy="0" r="1" gradientTransform="rotate(-178.293 -1350.185 835.9) scale(8.61653 8.55939)" gradientUnits="userSpaceOnUse"><stop stop-color="#EF58A0"/><stop offset="1" stop-color="#EF58A0"/></radialGradient><clipPath id="clip0"><path fill="#fff" d="M0 0h108v149.897H0z"/></clipPath></defs></svg>