<svg xmlns="http://www.w3.org/2000/svg" fill="none" viewBox="0 0 280 170"><path fill="#E6F5FF" d="M29.445 91.183c-3.439 5.095-.4 13.174 5.543 14.769a11.642 11.642 0 00-5.667 7.606 11.58 11.58 0 001.897 9.282 11.65 11.65 0 003.588 3.267 11.699 11.699 0 0013.669-1.355 16.855 16.855 0 005.781 5.814 16.925 16.925 0 0022.276-4.337 18.614 18.614 0 006.534 9.153 18.71 18.71 0 0010.63 3.739c1.363 4.623 7.41 9.304 11.026 11.15a32.343 32.343 0 0016.615 3.693 32.797 32.797 0 0015.072-4.783 32.646 32.646 0 0011.058-11.271 24.629 24.629 0 0016.13 8.357 24.665 24.665 0 0017.485-4.96c1.689 1.698 6.447 2.954 7.41 2.954 8.404.266 16.823-3.751 20.32-11.387a8.604 8.604 0 007.204 3.722c3.794-.089 6.062-2.392 8.389-5.006 2.208 2.746 8.611 4.43 9.337 4.578 7.218.797 19.268-4.017 19.268-12.553 11.457 3.958 25.448-4.785 26.871-16.792 1.423-12.006-10.123-23.747-22.232-22.58 2.653-11.564-5.929-18.697-16.763-17.516a19.664 19.664 0 00-8.893 3.648c-3.305-3.47-5.736-6.38-10.938-6.38a12.545 12.545 0 00-5.753 1.096 12.5 12.5 0 00-4.622 3.586c-1.675-8.286-6.788-15.803-15.34-18.018a22.617 22.617 0 00-15.355 1.64c-2.164 1.063-7.188 3.854-9.693 7.295-7.248-1.89-13.843-3.736-21.536-3.175a49.811 49.811 0 00-20.853 6.203 48.999 48.999 0 00-11.339 8.742 51.525 51.525 0 00-6.595 9.733c-5.929-6.705-18.2-6.085-23.447 1.181-5.929-5.095-13.77-8.122-21.64-6.823-8.137 1.33-13.487 7.768-16.733 15.005-1.882-2.954-7.944-4.43-11.19-3.81a11.775 11.775 0 00-7.514 4.533z"/><path fill="#B5D8FF" d="M261.145 111.047c-2.551 3.928-9.701 8.272-16.184 8.287a16.077 16.077 0 01-15.443-9.562c1.538.264 3.099.373 4.658.326a23.932 23.932 0 0010.266-2.861 23.467 23.467 0 007.907-6.775 47.732 47.732 0 01-8.901 4.685 29.804 29.804 0 01-9.42 1.986 26.692 26.692 0 01-9.509-1.29 35.748 35.748 0 01-8.9-4.447 20.887 20.887 0 008.055 6.656h.133c5.593 9.102-9.331 20.087-23.824 4.566 1.291 12.897-18.365 25.869-34.683 19.568a12.73 12.73 0 01-7.195-16.158c-6.299 2.44-3.828 7.152-10.577 7.471-6.723.307-13.127-8.014-19.528-10.095 0-.527.876 1.221 0 0 6.5 10.473 2.246 28.181-14.161 27.796-8.9-.208-14.315-9.325-14.923-18.442-9.776 3.899-22.637.074-22.148-11.682.936-.354 1.848-.77 2.73-1.245a23.73 23.73 0 007.906-6.789 48.166 48.166 0 01-8.9 4.684 29.843 29.843 0 01-9.435 2.001 26.71 26.71 0 01-9.509-1.289 36.21 36.21 0 01-8.9-4.448 20.76 20.76 0 008.055 6.642 22.274 22.274 0 0010.473 2.105h.163c-6.498 13.697-30.885 8.687-26.91-9.577-4.97 1.32-10.384 1.631-13.35-2.475a9.401 9.401 0 005.859 5.084 11.667 11.667 0 00-5.715 12.496 11.66 11.66 0 005.533 7.736 11.67 11.67 0 009.457 1.05 11.671 11.671 0 004.224-2.41 16.9 16.9 0 0028.082 1.482 18.695 18.695 0 0017.178 12.942c1.365 4.64 7.417 9.339 11.037 11.192a32.283 32.283 0 0016.629 3.706 32.728 32.728 0 0026.153-16.114 24.641 24.641 0 0033.645 3.41c1.691 1.705 6.453 2.965 7.417 2.965 8.411.267 16.837-3.766 20.338-11.43a8.601 8.601 0 007.21 3.736c3.797-.089 6.067-2.402 8.396-5.026 2.21 2.758 8.619 4.448 9.346 4.596 7.224.801 19.285-4.032 19.285-12.601 11.348 3.929 25.218-4.64 26.835-16.499-3.175 9.324-15.472 7.694-18.855 4.047z"/><path fill="#fff" d="M258.075 84.492c2.657-11.648-5.936-18.833-16.784-17.643a19.622 19.622 0 00-8.904 3.675c-3.31-3.496-5.744-6.427-10.953-6.427a12.497 12.497 0 00-5.76 1.104 12.534 12.534 0 00-4.628 3.612c-1.677-8.346-6.797-15.918-15.36-18.149a22.52 22.52 0 00-15.374 1.651c-2.167 1.071-7.198 3.883-9.706 7.35-7.257-1.905-13.861-3.765-21.563-3.2a49.657 49.657 0 00-20.88 6.249 49.097 49.097 0 00-11.353 8.806 51.874 51.874 0 00-6.604 9.804c-5.936-6.754-18.224-6.13-23.477 1.19-5.936-5.132-13.787-8.182-21.667-6.873-8.147 1.339-13.505 7.825-16.755 15.114-1.885-2.975-7.954-4.463-11.204-3.838a11.78 11.78 0 00-7.42 4.582c-.263.412-.491.845-.683 1.294 7.138-6.813 16.324-3.124 20.094 2.976a24.14 24.14 0 017.981-8.979 24.063 24.063 0 0111.311-4.008c7.628-.432 15.672 2.32 19.797 8.777a15.509 15.509 0 014.749-5.946 15.442 15.442 0 0114.561-2.233c2.421.87 4.588 2.331 6.305 4.251a22.848 22.848 0 017.356-11.387 22.762 22.762 0 0112.5-5.2 22.312 22.312 0 0114.425 4.18 25.483 25.483 0 00-8.904 8.034 66.848 66.848 0 0145.366-7.513c-3.086-4.135-1.098-10.785 3.443-13.225 4.541-2.44 10.552-.996 14.173 2.693a18.472 18.472 0 014.585 14.326 17.015 17.015 0 016.047-5.077 16.971 16.971 0 017.681-1.796c3.68 0 9.676 4.15 8.637 9.312a21.68 21.68 0 00-14.336 7.052 38.229 38.229 0 0134.222 0 22.245 22.245 0 00-12.258-6.71c1.276-4.076 7.746-7.824 12.139-5.489 4.868 2.574 8.83 9.298 7.598 15.055C264.887 88.747 274.281 90.517 279 98c-3.428-8.167-12.036-14.37-20.925-13.508z"/><g clip-path="url(#clip0)"><path fill="url(#paint0_radial)" d="M214.924 82.768c-3.154-.981-10.615-3.713-11.629-.751-1.13 3.308-2.923 4.223 4.472 9.09 3.656 2.407 4.512 1.458 10.411 3.97 2.265.972 5.46-1.073 5.106-4.545-.286-2.873-1.85-5.752-8.36-7.764z"/><path fill="#F59DCB" d="M216.576 84.15c-6.629-3.156-9.494-2.73-10.684-1.792-2.087 1.65-.636 5.02 1.357 6.348 5.602 3.68 13.429 7.794 14.851 3.896 1.422-3.897-.975-6.277-5.524-8.452z"/><path fill="url(#paint1_radial)" d="M214.974 88.799c-.548-.336-1.155-.388-1.357-.116-.202.272.098.76.646 1.096.548.335 1.155.387 1.352.116.197-.272-.093-.76-.641-1.096z"/><path fill="url(#paint2_radial)" d="M217.176 88.001c-.546-.315-1.171-.35-1.361-.07-.191.282.098.76.669 1.078.571.318 1.17.35 1.361.07.19-.28-.109-.759-.669-1.078z"/><path fill="url(#paint3_radial)" d="M220.555 88.236c-.651-.121-1.24.04-1.315.361-.074.32.385.673 1.036.794.652.121 1.236-.04 1.31-.36.075-.321-.382-.653-1.031-.795z"/><path fill="url(#paint4_radial)" d="M220.276 90.44c-.622-.206-1.226-.117-1.354.175-.129.293.28.722.902.927.621.206 1.225.117 1.354-.175.128-.293-.29-.72-.902-.927z"/><path fill="url(#paint5_radial)" d="M218.267 85.522c-.614-.222-1.221-.158-1.359.145-.137.304.251.73.865.952.614.222 1.221.158 1.358-.146.138-.303-.25-.725-.864-.951z"/><path fill="url(#paint6_radial)" d="M216.782 91.234c-.512-.375-1.115-.468-1.339-.213-.224.255.014.766.526 1.141.513.375 1.116.473 1.34.218.224-.255-.01-.776-.527-1.146z"/><path fill="url(#paint7_radial)" d="M213.227 85.557c-.59-.274-1.199-.26-1.368.032-.169.293.183.75.768 1.02s1.199.26 1.363-.031c.164-.293-.178-.75-.763-1.02z"/><path fill="url(#paint8_radial)" d="M209.693 83.471c-.508-.38-1.108-.489-1.337-.238-.23.25-.001.773.507 1.154.509.38 1.108.488 1.332.234.224-.255.006-.77-.502-1.15z"/><path fill="url(#paint9_radial)" d="M210.993 86.85c-.576-.286-1.187-.287-1.361.001-.175.289.153.753.734 1.04.582.285 1.188.287 1.363.003.175-.283-.153-.753-.736-1.044z"/><path fill="url(#paint10_radial)" d="M213.737 83.459c-.606-.238-1.215-.189-1.363.111-.148.3.226.734.832.971.606.238 1.216.194 1.364-.106.147-.3-.212-.74-.833-.976z"/><path fill="url(#paint11_radial)" d="M208.048 85.611c-.55-.355-1.13-.435-1.343-.172-.214.264.038.763.564 1.126.526.364 1.131.436 1.349.172.218-.264-.059-.765-.57-1.126z"/><path fill="url(#paint12_radial)" d="M206.853 79.734c-1.926 18.5-23.206 15.553-39.571 15.506-11.732-.036-34.388 9.875-36.362.095-2.065-10.33-.697-15.968 8.502-26.529 26.336-30.214 71.034-23.747 67.431 10.928z"/><path fill="#F8CAC3" d="M125.1 115.775c-2.972 2.528-5.09 1.403-3.221-3.095-2.979 3.367-6.735 2.057-3.904-2.881-3.85 4.468-6.897.341-4.085-2.211-4.1 2.303-5.016-1.924-3.517-3.509 3.9-4.123 12.46-8.95 18.682-2.777 3.945 3.895.882 10.349-3.955 14.473z"/><path fill="#E75397" d="M151.457 63.774c5.567.147 18.261 16.748 8.159 31.475-7.004 10.217-25.112 11.665-27.862 11.269-4.18-3.689-5.532-4.427-7.331-7.255-2.418-3.787 10.043-11.599 15.559-16.599 12.194-11.04 1.28-19.164 11.475-18.89z"/><path fill="#EF58A0" d="M150.41 64.457c5.568.147 18.257 16.748 8.155 31.476-7.009 10.217-25.116 11.635-27.862 11.268-4.176-3.689-5.528-4.427-7.332-7.255-2.417-3.786 10.049-11.6 15.565-16.6 12.189-11.038 1.265-19.162 11.474-18.89z"/><path fill="#E75397" d="M194.414 71.17c1.147 1.612 7.078 8.687 2.595 17.653 3.553-2.558 8.917-2.736 12.447-1.261 1.085.582 2.531 1.468 6.178 5.552 2.943 2.63 4.486 3.714 7.175 7.491 2.325 6.267-5.171 8.016-7.306 6.607-18.373-9.161-37.65 4.241-47.965-12.02-4.796-7.584-1.872-15.967 2.558-21.8 6.541-8.61 19.257-9.315 24.318-2.222z"/><path fill="url(#paint13_radial)" d="M195.63 72.106c1.146 1.608 6.236 7.407 1.748 16.373 3.553-2.558 9.673-2.197 13.19-.705 1.084.577 2.626 2.204 6.267 6.283 2.949 2.629 4.197 3.23 7.028 7.52 3.127 6.42-5.018 7.992-7.182 6.586-18.373-9.16-37.651 4.242-47.965-12.02-4.801-7.583-1.878-15.97 2.552-21.803 6.584-8.627 19.303-9.317 24.362-2.234z"/><path fill="#E75397" d="M197.749 87.88s-7.963.83-7.612 1.588c.35.757 7.612-1.589 7.612-1.589zM198.4 87.8s-5.403 5.95-4.606 6.262c.797.314 4.606-6.262 4.606-6.262zM205.452 97.77c1.504 4.247 4.028 6.634 3.81 6.863-.112.226-3.102-1.951-4.726-6.463-1.624-4.511-.765-8.898-.493-8.823.281-.011-.162 4.201 1.409 8.423z"/><path fill="#F59DCB" d="M217.782 95.952c-6.374-5.281-6.445-8.75-9.153-7.726-3.399 1.288-4.256 3.703-.82 11.146 3.079 6.671 9.472 9.958 13.394 8.185 4.408-1.991 2.948-6.323-3.421-11.605z"/><path fill="url(#paint14_radial)" d="M215.745 101.721c-.471-.521-1.105-.74-1.36-.491-.255.248-.123.879.348 1.4.471.521 1.104.735 1.36.491s.128-.88-.348-1.4z"/><path fill="url(#paint15_radial)" d="M218.925 100.957c-.407-.574-.986-.875-1.295-.65-.309.226-.232.853.185 1.427.417.573.986.875 1.295.65.309-.226.217-.851-.185-1.427z"/><path fill="url(#paint16_radial)" d="M222.558 102.248c-.623-.331-1.167-.596-1.414-.319-.246.278-.016.886.517 1.343a.679.679 0 00.883.095.676.676 0 00.214-.237.605.605 0 00.096-.485.619.619 0 00-.296-.397z"/><path fill="url(#paint17_radial)" d="M220.151 105.044c-.531-.433-1.163-.602-1.414-.319-.25.284-.011.885.522 1.343.534.457 1.167.596 1.414.318.246-.277-.004-.882-.522-1.342z"/><path fill="url(#paint18_radial)" d="M219.542 98.403c-.378-.588-.941-.881-1.265-.699-.325.183-.264.847.12 1.435.384.588.946.881 1.266.7.319-.183.266-.828-.121-1.436z"/><path fill="url(#paint19_radial)" d="M216.079 104.764c-.457-.533-1.063-.766-1.348-.518-.286.248-.145.872.313 1.404.457.533 1.062.766 1.348.518.286-.248.172-.855-.313-1.404z"/><path fill="url(#paint20_radial)" d="M214.508 97.892c-.412-.57-.997-.875-1.303-.63-.306.246-.222.857.185 1.427.407.57.996.874 1.298.635.302-.24.227-.858-.18-1.432z"/><path fill="url(#paint21_radial)" d="M212.146 94.344c-.425-.557-1.019-.822-1.318-.592-.298.23-.195.863.235 1.42.43.556 1.019.82 1.318.592.298-.23.197-.849-.235-1.42z"/><path fill="url(#paint22_radial)" d="M212.325 100.94c-.426-.563-1.015-.827-1.314-.603-.299.224-.196.863.23 1.425.426.562 1.015.827 1.313.598.298-.229.201-.864-.229-1.42z"/><path fill="url(#paint23_radial)" d="M215.355 94.58c-.371-.599-.932-.923-1.25-.726-.317.197-.284.84.086 1.44.37.599.926.918 1.249.72.322-.197.284-.84-.085-1.434z"/><path fill="url(#paint24_radial)" d="M210.455 90.599c-.476-.52-1.103-.73-1.368-.475-.264.255-.118.878.357 1.393.476.516 1.103.726 1.368.476.266-.25.119-.879-.357-1.394z"/><path fill="url(#paint25_radial)" d="M207.976 92.837c-.384-.588-.952-.88-1.27-.689-.318.192-.258.852.131 1.434.388.582.956.88 1.269.688.313-.191.238-.849-.13-1.433z"/><path fill="url(#paint26_radial)" d="M209.861 96.562c-.313-.627-.846-1-1.185-.85-.338.149-.353.813-.04 1.44s.841 1 1.18.85c.338-.148.359-.808.045-1.44z"/><path fill="#F8CAC3" d="M134.989 88.741a5.993 5.993 0 01-.322.283c-.109.09-.313.271-.453.4a40.778 40.778 0 01-1.88 1.488 38.968 38.968 0 01-17.214 7.058l-.08.01-1.161.15-.651.035c-.336.014-.669.017-1.008.01-7.486-.159-13.683-5.167-21.393-7.209-6.344-1.656-12.86-6.126-17.315-12.439a20.974 20.974 0 01-.298-.428 30.698 30.698 0 01-3.833-7.668 18.657 18.657 0 01-.323-1.047 28.137 28.137 0 01-.824-3.672 39.37 39.37 0 013.158-22.58 37.42 37.42 0 011.251-2.49 39.863 39.863 0 0114.06-14.788 40.087 40.087 0 0139.501-1.439 39.748 39.748 0 0115.07 13.727c.455.704.885 1.43 1.291 2.176a.815.815 0 01.007.05 39.41 39.41 0 014.482 13.103c2.199 13.896-2.604 26.853-12.065 35.27z"/><path fill="#231F20" d="M140.611 48.585c3.63 2.089 5.324 7.61 3.22 11.225-2.105 3.614-4.707 2.998-7.305-.278-2.909-3.688-9.15-4.781-7.026-8.398 2.124-3.618 7.48-4.643 11.111-2.55z" opacity=".21"/><path fill="#F8CAC3" d="M139.967 48.91c3.434 1.978 5.033 7.195 3.044 10.61-1.989 3.413-4.446 2.829-6.9-.266-2.749-3.467-8.63-4.517-6.656-7.929 1.974-3.412 7.083-4.39 10.512-2.416z"/><path fill="#8A5D3B" d="M139.728 58.51c-.776.557-1.556-2.002-2.484-3.126-1.254-1.508-3.607-2.187-2.657-3.304 1.142-1.347 3.52-.662 4.774.837 1.737 2.078 1.442 4.821.367 5.593z" opacity=".2"/><path fill="#603813" d="M105.36 51.692c.434.075-3.053.532-5.012 2.898-1.958 2.366-1.737 3.412-2.156 3.29-.848-.276-1.344-1.381.614-3.748 1.958-2.366 5.493-2.613 6.554-2.44zM86.616 85.756c.297.307-1.144-2.833-.087-5.89 1.056-3.058 2.103-3.51 1.76-3.771-.689-.533-1.928-.252-2.987 2.79-1.058 3.043.594 6.106 1.314 6.87z"/><path fill="#8A5D3B" d="M113.512 78.713c.795.529-.66.978-1.47 2.197-.811 1.22-.657 2.715-1.471 2.198-.813-.517-1.007-2.092-.196-3.302.812-1.209 2.342-1.623 3.137-1.093z" opacity=".2"/><path fill="#603813" d="M94.36 90.282c2.253.06 4.63.69 7.178-2.22 2.459-2.827 2.108-7.439 1.37-9.752-.176 3.586.075 5.64-2.336 8.563-1.573 1.915-3.582 2.411-6.212 3.41z"/><path fill="#603813" d="M98.17 89.588c.298.237.068.839-.509 1.722-.388-.778-.76-1.232-.499-1.556a.727.727 0 011.008-.166z"/><path fill="#603813" d="M98.77 89.395c.355.13.333.774.071 1.792-.62-.612-1.128-.923-.972-1.314a.724.724 0 01.901-.478z"/><path fill="#603813" d="M99.887 89.024c.359.124.337.77.07 1.787-.614-.613-1.128-.922-.972-1.314a.715.715 0 01.623-.502.723.723 0 01.28.029zM108.6 70c2.238-.29 4.704-.017 6.76-3.27 2.006-3.16.97-7.652-.115-9.84.366 3.57.928 5.565-1.017 8.813-1.297 2.135-3.174 2.915-5.628 4.297z"/><path fill="#603813" d="M112.262 68.748c.331.183.196.817-.24 1.772-.5-.708-.935-1.103-.729-1.46a.72.72 0 01.969-.312z"/><path fill="#603813" d="M112.825 68.464c.373.077.451.715.339 1.758-.702-.511-1.237-.748-1.158-1.15a.728.728 0 01.819-.608z"/><path fill="#603813" d="M113.877 67.936c.373.078.45.715.343 1.757-.707-.51-1.241-.742-1.158-1.15a.728.728 0 01.815-.607z"/><path fill="#E75397" d="M133.004 75.404c4.569 3.422 4.248 11.493-.71 18.077-4.958 6.584-12.678 9.17-17.248 5.748-4.57-3.423-4.243-11.494.714-18.078 4.958-6.584 12.681-9.15 17.244-5.747z"/><path fill="#EF58A0" d="M132.44 75.567c4.569 3.423 4.248 11.493-.71 18.077-4.958 6.584-12.678 9.17-17.248 5.748-4.57-3.422-4.243-11.494.714-18.078 4.958-6.583 12.679-9.17 17.244-5.747z"/><path fill="#fff" d="M136.836 91.743a13.383 13.383 0 00-2.018-2.574l-.15-.146a4.281 4.281 0 00-.218-.202 13.142 13.142 0 00-5.324-2.974 9.891 9.891 0 00-1.041-.246 13.235 13.235 0 00-9.075 1.397.87.87 0 00-.136.078l-.241.131a13.25 13.25 0 00-3.953 3.656 13.165 13.165 0 00-2.444 7.31c-.06 2.047.36 4.078 1.227 5.935a13.173 13.173 0 003.766 4.758 13.259 13.259 0 005.51 2.578 13.314 13.314 0 0011.473-2.99 13.209 13.209 0 003.541-4.936 13.134 13.134 0 00-.89-11.763l-.027-.012zm-6.592 14.719a10.107 10.107 0 01-11.171-.543 10.003 10.003 0 01-2.632-2.897 9.704 9.704 0 01-1.225-3.143l-.075-.577a8.731 8.731 0 01-.098-1.303 9.963 9.963 0 011.015-4.478 10.025 10.025 0 012.917-3.558c.073-.06.151-.12.235-.176.235-.174.481-.335.735-.482a10.046 10.046 0 018.558-.833c.221.072.434.16.647.248a10.096 10.096 0 013.186 2.201c.245.254.476.52.699.803.09.114.182.232.263.352.153.211.307.462.445.67a9.968 9.968 0 011.1 7.575 10.035 10.035 0 01-4.599 6.141z"/><path fill="#BD5397" d="M127.403 83.336c2.233 1.657 2.564 4.957.753 7.364-1.812 2.408-5.093 3.013-7.321 1.35-2.228-1.663-2.559-4.957-.748-7.365 1.812-2.407 5.093-3.013 7.316-1.35z"/><path fill="#F59DCB" d="M126.737 83.914c2.11 1.573 2.425 4.704.711 6.968-1.714 2.265-4.817 2.847-6.922 1.278-2.105-1.568-2.425-4.703-.705-6.964 1.719-2.26 4.811-2.851 6.916-1.282z"/><path fill="#EF58A0" d="M142.581 40.316a41.418 41.418 0 00-14.515-5.39 42.26 42.26 0 00-11.563-.32c-2.727.301-5.422.847-8.051 1.631a48.724 48.724 0 00-5.3 1.917l-.626.271a49.542 49.542 0 00-5.85 3.077l-.58.356a52.17 52.17 0 00-11.614 9.95 48.997 48.997 0 00-5.953 8.56c-.094.173-.191.351-.278.538a42.9 42.9 0 00-5.029 17.211 30.7 30.7 0 01-3.84-7.686 18.656 18.656 0 01-.323-1.048 37.037 37.037 0 014.39-14.865c4.202-7.891 11.042-14.629 19.067-19.382.337-.204.675-.399 1.017-.594a79.91 79.91 0 011.546-.837c.52-.273 1.103-.565 1.663-.833a42.7 42.7 0 011.504-.697c.51-.221 1.13-.497 1.702-.722 8.668-3.527 18.107-4.8 26.853-2.978a35.504 35.504 0 019.525 3.433 39.456 39.456 0 014.952 6.218c.453.72.887 1.45 1.303 2.19z"/><path fill="#E75397" d="M127.898 32.699c1.991 3.22-13.469 10.617-27.053 10.817-4.293 10.818-19.851 20.301-21.842 17.082-1.991-3.22 9.02-13.459 19.862-20.102 10.842-6.644 27.042-11.017 29.033-7.797z"/><path fill="#EF58A0" d="M128.063 33.194c-13.483-2.061-27.249 8.715-27.249 8.715s-15.87 8.48-21.423 19.075c-1.992-.776-9.213-9.63-7.965-18.212.978-6.706 25.831-8.612 25.831-8.612s12.804-16.568 18.787-15.441c4.922.928 11.81 9.394 12.019 14.475z"/><path fill="#E75397" d="M102.205 36.099c2.242 3.834 2.408 6.909.478 8.012-3.326 1.936-4.401 1.072-7.376-4.017-2.243-3.84-2.606-7.346.09-8.573 2.005-.912 4.57.737 6.808 4.578z"/><path fill="#EF58A0" d="M101.619 36.405c1.867 3.196 1.988 5.764.401 6.678-2.773 1.603-3.673.887-6.149-3.349-1.867-3.195-2.17-6.117.083-7.141 1.664-.748 3.8.627 5.665 3.812z"/></g><defs><radialGradient id="paint0_radial" cx="0" cy="0" r="1" gradientTransform="matrix(-2.53667 8.3064 -8.33499 -2.5454 215.742 82.854)" gradientUnits="userSpaceOnUse"><stop stop-color="#EF58A0"/><stop offset="1" stop-color="#EF58A0"/></radialGradient><radialGradient id="paint1_radial" cx="0" cy="0" r="1" gradientTransform="matrix(1.4466 -1.98517 3.19708 2.32971 2186.98 857.031)" gradientUnits="userSpaceOnUse"><stop stop-color="#EF58A0"/><stop offset="1" stop-color="#EF58A0"/></radialGradient><radialGradient id="paint2_radial" cx="0" cy="0" r="1" gradientTransform="matrix(1.41022 -2.05974 3.21198 2.19912 2128.64 813.98)" gradientUnits="userSpaceOnUse"><stop stop-color="#EF58A0"/><stop offset="1" stop-color="#EF58A0"/></radialGradient><radialGradient id="paint3_radial" cx="0" cy="0" r="1" gradientTransform="matrix(.66167 -2.68545 3.09706 .76308 1441.94 525.139)" gradientUnits="userSpaceOnUse"><stop stop-color="#EF58A0"/><stop offset="1" stop-color="#EF58A0"/></radialGradient><radialGradient id="paint4_radial" cx="0" cy="0" r="1" gradientTransform="matrix(.99547 -2.45949 3.20127 1.2957 1713.88 561.403)" gradientUnits="userSpaceOnUse"><stop stop-color="#EF58A0"/><stop offset="1" stop-color="#EF58A0"/></radialGradient><radialGradient id="paint5_radial" cx="0" cy="0" r="1" gradientTransform="matrix(1.10142 -2.38856 3.20253 1.47676 1762.99 616.543)" gradientUnits="userSpaceOnUse"><stop stop-color="#EF58A0"/><stop offset="1" stop-color="#EF58A0"/></radialGradient><radialGradient id="paint6_radial" cx="0" cy="0" r="1" gradientTransform="matrix(1.54305 -1.76695 3.0973 2.70482 2316.82 1027.34)" gradientUnits="userSpaceOnUse"><stop stop-color="#EF58A0"/><stop offset="1" stop-color="#EF58A0"/></radialGradient><radialGradient id="paint7_radial" cx="0" cy="0" r="1" gradientTransform="rotate(-59.89 1573.34 -1351.488) scale(2.5716 3.71817)" gradientUnits="userSpaceOnUse"><stop stop-color="#EF58A0"/><stop offset="1" stop-color="#EF58A0"/></radialGradient><radialGradient id="paint8_radial" cx="0" cy="0" r="1" gradientTransform="rotate(-48.091 2308.83 -2064.616) scale(2.35787 4.11854)" gradientUnits="userSpaceOnUse"><stop stop-color="#EF58A0"/><stop offset="1" stop-color="#EF58A0"/></radialGradient><radialGradient id="paint9_radial" cx="0" cy="0" r="1" gradientTransform="matrix(1.33345 -2.15085 3.1938 1.98005 1987.98 728.113)" gradientUnits="userSpaceOnUse"><stop stop-color="#EF58A0"/><stop offset="1" stop-color="#EF58A0"/></radialGradient><radialGradient id="paint10_radial" cx="0" cy="0" r="1" gradientTransform="matrix(1.14564 -2.37235 3.23764 1.5635 1814.86 636.301)" gradientUnits="userSpaceOnUse"><stop stop-color="#EF58A0"/><stop offset="1" stop-color="#EF58A0"/></radialGradient><radialGradient id="paint11_radial" cx="0" cy="0" r="1" gradientTransform="matrix(1.51282 -1.83848 3.12336 2.5701 2231.21 960.707)" gradientUnits="userSpaceOnUse"><stop stop-color="#EF58A0"/><stop offset="1" stop-color="#EF58A0"/></radialGradient><radialGradient id="paint12_radial" cx="0" cy="0" r="1" gradientTransform="matrix(13133.18847 355.5342 -212.27405 7841.25725 57167.2 -1631.89)" gradientUnits="userSpaceOnUse"><stop stop-color="#EF58A0"/><stop offset="1" stop-color="#EF58A0"/></radialGradient><radialGradient id="paint13_radial" cx="0" cy="0" r="1" gradientTransform="rotate(10.601 -11376.18 224285.155) scale(6812.48 5554.12)" gradientUnits="userSpaceOnUse"><stop stop-color="#EF58A0"/><stop offset="1" stop-color="#EF58A0"/></radialGradient><radialGradient id="paint14_radial" cx="0" cy="0" r="1" gradientTransform="matrix(1.84088 -1.6305 3.77422 4.2612 2381.92 2253.6)" gradientUnits="userSpaceOnUse"><stop stop-color="#EF58A0"/><stop offset="1" stop-color="#EF58A0"/></radialGradient><radialGradient id="paint15_radial" cx="0" cy="0" r="1" gradientTransform="matrix(1.88364 -1.33218 3.4609 4.89354 2387.34 2694.82)" gradientUnits="userSpaceOnUse"><stop stop-color="#EF58A0"/><stop offset="1" stop-color="#EF58A0"/></radialGradient><radialGradient id="paint16_radial" cx="0" cy="0" r="1" gradientTransform="matrix(1.42095 -1.6475 3.09982 2.67354 1867.89 1451.55)" gradientUnits="userSpaceOnUse"><stop stop-color="#EF58A0"/><stop offset="1" stop-color="#EF58A0"/></radialGradient><radialGradient id="paint17_radial" cx="0" cy="0" r="1" gradientTransform="matrix(1.77385 -2.05669 4.04418 3.488 2268.96 1871.86)" gradientUnits="userSpaceOnUse"><stop stop-color="#EF58A0"/><stop offset="1" stop-color="#EF58A0"/></radialGradient><radialGradient id="paint18_radial" cx="0" cy="0" r="1" gradientTransform="matrix(1.8836 -1.21715 3.25193 5.03249 2364.93 2752.92)" gradientUnits="userSpaceOnUse"><stop stop-color="#EF58A0"/><stop offset="1" stop-color="#EF58A0"/></radialGradient><radialGradient id="paint19_radial" cx="0" cy="0" r="1" gradientTransform="matrix(1.89239 -1.5906 3.71352 4.41811 2383.85 2364.66)" gradientUnits="userSpaceOnUse"><stop stop-color="#EF58A0"/><stop offset="1" stop-color="#EF58A0"/></radialGradient><radialGradient id="paint20_radial" cx="0" cy="0" r="1" gradientTransform="matrix(1.88782 -1.33513 3.44636 4.87302 2383.91 2636.97)" gradientUnits="userSpaceOnUse"><stop stop-color="#EF58A0"/><stop offset="1" stop-color="#EF58A0"/></radialGradient><radialGradient id="paint21_radial" cx="0" cy="0" r="1" gradientTransform="matrix(1.87332 -1.44602 3.59999 4.66379 2380.8 2507.17)" gradientUnits="userSpaceOnUse"><stop stop-color="#EF58A0"/><stop offset="1" stop-color="#EF58A0"/></radialGradient><radialGradient id="paint22_radial" cx="0" cy="0" r="1" gradientTransform="rotate(-37.665 4913.82 -2228.742) scale(2.35675 5.911)" gradientUnits="userSpaceOnUse"><stop stop-color="#EF58A0"/><stop offset="1" stop-color="#EF58A0"/></radialGradient><radialGradient id="paint23_radial" cx="0" cy="0" r="1" gradientTransform="matrix(1.89892 -1.16146 3.16523 5.17497 2352.25 2825.97)" gradientUnits="userSpaceOnUse"><stop stop-color="#EF58A0"/><stop offset="1" stop-color="#EF58A0"/></radialGradient><radialGradient id="paint24_radial" cx="0" cy="0" r="1" gradientTransform="rotate(-42.41 4020.376 -1962.967) scale(2.51601 5.69312)" gradientUnits="userSpaceOnUse"><stop stop-color="#EF58A0"/><stop offset="1" stop-color="#EF58A0"/></radialGradient><radialGradient id="paint25_radial" cx="0" cy="0" r="1" gradientTransform="matrix(1.87974 -1.21464 3.26225 5.04858 2351.41 2703.6)" gradientUnits="userSpaceOnUse"><stop stop-color="#EF58A0"/><stop offset="1" stop-color="#EF58A0"/></radialGradient><radialGradient id="paint26_radial" cx="0" cy="0" r="1" gradientTransform="matrix(1.89145 -.95256 2.80042 5.56066 2237.62 3083.64)" gradientUnits="userSpaceOnUse"><stop stop-color="#EF58A0"/><stop offset="1" stop-color="#EF58A0"/></radialGradient><clipPath id="clip0"><path fill="#fff" d="M63 25.352h150.584v102.671H63z" transform="rotate(-7.384 63 25.352)"/></clipPath></defs></svg>