<?xml version="1.0" encoding="UTF-8"?>
<svg width="84px" height="71px" viewBox="0 0 84 71" version="1.1" xmlns="http://www.w3.org/2000/svg" xmlns:xlink="http://www.w3.org/1999/xlink">
    <defs></defs>
    <g fill="#927ABC" id="iOS" stroke="none" stroke-width="1">
        <g fill="#927ABC" id="8.1---[Home---Coach]" transform="translate(-146.000000, -176.000000)">
            <g fill="#927ABC" id="Group-7">
                <path d="M230,189.096559 C230,181.864256 224.126322,176 216.880054,176 C212.111169,176 207.949291,178.548446 205.651489,182.347528 C200.584352,179.758198 194.782087,178.286368 188.616458,178.286368 C182.068562,178.286368 175.936539,179.952135 170.653064,182.848621 C168.429825,178.768591 164.098867,176 159.119946,176 C151.873678,176 146,181.864256 146,189.096559 C146,194.748008 149.592679,199.549276 154.617808,201.38487 C153.412197,204.776159 152.749531,208.403318 152.749531,212.178288 C152.749531,230.895896 168.807891,246.06916 188.616458,246.06916 C208.425024,246.06916 224.483385,230.895896 224.483385,212.178288 C224.483385,208.237684 223.764009,204.456424 222.45548,200.938289 C226.909309,198.844811 230,194.33707 230,189.096559 Z M208.272748,201.529537 C208.142525,203.226754 207.36959,204.708019 206.23014,205.728026 C206.274248,205.546668 206.319406,205.36531 206.334108,205.173469 C206.493736,203.087329 204.815543,201.258024 202.583902,201.08715 C200.353312,200.916275 198.415723,202.469873 198.255045,204.556013 C198.241392,204.747854 198.257145,204.933406 198.272898,205.120005 C197.303578,203.939606 196.764834,202.356655 196.895057,200.660487 C197.151301,197.312179 199.906984,194.792037 203.049134,195.032101 C206.190233,195.272164 208.528993,198.181229 208.272748,201.529537 Z M188,230.513262 C179.304478,230.513262 172.255645,224.964547 172.255645,218.119071 C172.255645,211.274644 179.304478,205.725929 188,205.725929 C196.695522,205.725929 203.744355,211.274644 203.744355,218.119071 C203.744355,224.964547 196.695522,230.513262 188,230.513262 Z M188.000105,209.522286 C183.874983,209.522286 180.531198,211.839055 180.531198,214.695704 C180.531198,217.553402 183.874983,219.870171 188.000105,219.870171 C192.125227,219.870171 195.469012,217.553402 195.469012,214.695704 C195.469012,211.839055 192.125227,209.522286 188.000105,209.522286 Z M170.017703,205.481673 C170.050259,205.671417 170.111169,205.847533 170.16998,206.024698 C168.945465,205.11057 168.042307,203.703736 167.760858,202.025389 C167.206361,198.712723 169.276273,195.607624 172.383767,195.08871 C175.492311,194.569795 178.461181,196.834149 179.015678,200.145766 C179.297127,201.824113 178.902258,203.447948 178.042157,204.711163 C178.041107,204.523516 178.041107,204.336916 178.008551,204.147172 C177.663041,202.084094 175.594179,200.709757 173.387743,201.077715 C171.181307,201.446721 169.672193,203.417547 170.017703,205.481673 Z" id="Combined-Shape"></path>
            </g>
        </g>
    </g>
</svg>