<svg xmlns="http://www.w3.org/2000/svg" width="57" height="64" fill="none"><g clip-path="url(#boy)"><path fill="#1461CF" d="M57 46.86c0 2.396-3.455 3.058-6.783 3.058-3.329 0-6.022-1.944-6.022-4.34 0-2.397 2.702-4.137 6.022-4.343C55.184 40.918 57 44.46 57 46.86z"/><path fill="#146DE2" d="M56.38 47.136c0 2.396-3.456 3.057-6.784 3.057-3.329 0-6.022-1.944-6.022-4.34s2.702-4.136 6.022-4.343c4.953-.317 6.783 3.227 6.783 5.626z"/><path fill="#1461CF" d="M39.073 54.418c3.786.151 11.42 1.674 14.784-.408 2.795-1.73 2.505-4.928 1.026-7.032-4.639-6.601-16.975-8.358-20.56-8.5l4.75 15.94z"/><path fill="#146DE2" d="M39.227 53.293c3.784.151 10.979 1.756 13.926.226 2.947-1.53 3.256-4.506 1.656-6.524-5.52-6.987-17.307-7.806-20.894-7.95l5.312 14.248z"/><path fill="#146DE2" d="M43.513 46.893c0 6.284-6.654 11.377-14.858 11.377-8.205 0-14.867-5.104-14.867-11.377 0-6.273 5.431-14.63 15.576-14.543 8.71.078 14.15 8.259 14.15 14.543z"/><path fill="#F8CAC3" d="M17.375 62.147c-1.178.67-1.962-2.501-3.532-.276-1.08 1.536-1.824.246-1.918-.573-.734 1.701-1.99.99-1.96-.243-.469 1.379-1.992 1.379-1.774-.303-.69 1.378-1.75 1.139-1.449.132.58-1.93 3.466-5.002 7.465-3.642 2.84.976 4.744 4.017 3.168 4.905z"/><path fill="#1461CF" d="M17.792 38.767C8.395 41.734 5.52 53.947 8.41 57.69c.883 1.147 8.28 2.313 8.986-.375 1.35-5.24-1.01-8.976 4.691-13.377l-4.294-5.172z"/><path fill="#146DE2" d="M18.675 37.724C9.75 42.506 6.162 52.157 8.74 57.08c.67 1.282 7.266 2.578 7.96-.108 1.352-5.239-.15-8.961 5.563-13.362l-3.588-5.885z"/><path fill="#F8CAC3" d="M37.764 63.057c1.104.791 2.225-2.275 3.544.121.905 1.655 1.785.441 1.968-.361.552 1.77 1.868 1.197 1.973-.03.317 1.425 1.832 1.588 1.796-.11.552 1.441 1.618 1.32 1.427.275-.367-1.996-2.906-5.346-7.026-4.428-2.914.664-5.139 3.48-3.681 4.533z"/><path fill="#1461CF" d="M36.39 34.333C45.898 37.04 50.757 51.66 47.462 58.3c-.635 1.285-8.039 2.576-8.911-.11-1.708-5.24 1.846-9.949-4.112-14.209l1.951-9.648z"/><path fill="#146DE2" d="M36.39 34.333C45.898 37.04 50.136 51.23 46.844 57.87c-.637 1.285-6.66 2.162-7.385.433-2.125-5.082 2.555-10.29-5.164-14.573l2.095-9.397z"/><path fill="#F8CAC3" d="M44.421 19.801c2.62 11.581-5.326 20.29-16.575 22.818-11.16 2.512-22.732-1.781-25.348-13.349C-.12 17.703 3.6 4.004 18.157.593c14.121-3.3 23.642 7.64 26.264 19.208z"/><path fill="#F8CAC3" d="M49.008 26.607c-.036 2.547-2.484 5.095-5.02 5.06-2.536-.036-4.248-2.642-4.212-5.19.036-2.548 2.029-5.027 4.579-4.991 2.55.036 4.689 2.575 4.653 5.12zM.5 36.897c1.128 2.284 4.415 3.535 6.708 2.407 2.294-1.127 2.697-4.21 1.568-6.493-1.129-2.283-3.996-3.668-6.281-2.537C.21 31.404-.63 34.6.5 36.897z"/><path fill="#1461CF" d="M27.924 42.29c4.894-1.106 8.242-4.742 7.477-8.121-.765-3.38-5.352-5.222-10.246-4.117-4.894 1.106-8.242 4.741-7.477 8.12.765 3.38 5.352 5.223 10.246 4.118z"/><path fill="#146DE2" d="M27.605 42.137c4.894-1.106 8.242-4.741 7.477-8.12-.764-3.38-5.352-5.223-10.246-4.118-4.894 1.106-8.241 4.742-7.477 8.121.765 3.38 5.352 5.223 10.246 4.117z"/><path fill="#fff" d="M25.93 34.948a8.05 8.05 0 00-6.156 6.484 8.037 8.037 0 003.64 8.164 8.056 8.056 0 0011.811-3.924 8.036 8.036 0 00-.943-7.525 8.043 8.043 0 00-5.212-3.283 8.056 8.056 0 00-3.14.084zm3.036 13.362a6.118 6.118 0 01-6.342-2.43 6.104 6.104 0 012.506-9.107 6.116 6.116 0 018.448 4.235 6.103 6.103 0 01-.793 4.605 6.113 6.113 0 01-3.819 2.697z"/><path fill="#1457B6" d="M29.678 35.648c.373 1.655-.775 3.31-2.566 3.717-1.791.408-3.544-.604-3.916-2.253-.373-1.649.775-3.309 2.566-3.717 1.791-.408 3.544.604 3.916 2.253z"/><path fill="#6AB2F5" d="M26.713 39.17c1.693-.382 2.78-1.955 2.428-3.513-.353-1.559-2.011-2.512-3.705-2.13-1.693.383-2.78 1.957-2.427 3.515.352 1.558 2.01 2.511 3.704 2.128z"/><path fill="#fff" d="M22.343 3c1.788 2.722-3.312 2.132-8.08 5.545-4.77 3.414-6.102 6.48-9.334 10.38C3.764 20.33 3.273 12.168 9.86 6.578 15.443 1.836 21.129 1.16 22.343 3z" opacity=".2"/><path fill="#8A5D3B" d="M36.663 12.009c.105.19-1.131-1.015-2.646-1.051-1.515-.036-1.852.37-1.932.168-.152-.413.127-.943 1.642-.907 1.515.036 2.69 1.326 2.936 1.79zM8.232 19.117c-.052.221.903-1.332 2.55-1.77 1.648-.438 2.15-.119 2.167-.345.03-.457-.45-.92-2.098-.48-1.647.442-2.497 2.06-2.619 2.595z"/><path fill="#8A5D3B" d="M25.989 27.707c.13.568-.701.16-1.568.355-.866.196-1.438.921-1.565.353-.127-.568.43-1.345 1.297-1.541.867-.196 1.709.268 1.836.833z" opacity=".2"/><path fill="#8A5D3B" d="M19.517 6.877c4.968-1.379 5.704-3.477 4.785-6.42 5.263 3.301.091 7.697-4.785 6.42z"/><path fill="#8A5D3B" d="M19.638 6.98c4.593 2.042 6.458.9 7.623-1.906 1.863 5.777-4.777 5.903-7.623 1.905z"/><path fill="#8A5D3B" d="M44.393 29.074c-.551-.187.453-1.475.685-2.332.314-1.153-.174-2.56.717-2.482 1.071.094 1.562 1.514 1.256 2.66-.422 1.597-1.896 2.416-2.658 2.154zM5.66 37.104c.467-.347-.966-1.235-1.446-1.98-.651-1.004-.53-2.528-1.352-2.184-.994.414-1.03 1.93-.386 2.918.891 1.39 2.539 1.726 3.184 1.246z" opacity=".2"/><path fill="#8A5D3B" d="M37.108 16.236c.071.314-.124 1.323-.806 1.478-.682.154-1.049.408-1.118.096-.069-.311.29-.595.969-.75.679-.154.883-1.136.955-.824z"/><path fill="#8A5D3B" d="M35.935 15.75c.149.276.215 1.313-.406 1.633-.62.32-.908.662-1.057.375-.149-.287.13-.648.75-.97.622-.323.566-1.322.713-1.038zM37.762 16.768c.072.311-.124 1.32-.806 1.475-.682.155-1.046.411-1.118.1-.072-.312.29-.599.972-.75.681-.152.883-1.145.952-.825z"/><path fill="#8A5D3B" d="M34.8 27.186c2.697-.61 4.352-3.453 3.696-6.35-.656-2.899-3.374-4.754-6.07-4.145-2.697.61-4.352 3.452-3.696 6.35.656 2.898 3.374 4.754 6.07 4.145z"/><path fill="#fff" d="M34.732 27.297c2.569-.58 4.145-3.289 3.52-6.05-.625-2.762-3.214-4.53-5.783-3.95-2.569.58-4.145 3.29-3.52 6.051.625 2.762 3.214 4.53 5.783 3.95z"/><path fill="#26A9E0" d="M34.635 26.85c2.165-.49 3.493-2.772 2.967-5.098-.527-2.326-2.708-3.815-4.873-3.326-2.164.489-3.492 2.77-2.966 5.097.526 2.326 2.708 3.815 4.872 3.326z"/><path fill="url(#boy_paint0_radial)" d="M34.314 26.767c1.949-.44 3.145-2.495 2.67-4.59-.473-2.094-2.437-3.435-4.386-2.995-1.95.44-3.145 2.495-2.671 4.59.474 2.094 2.438 3.435 4.387 2.995z"/><path fill="#fff" d="M38.236 22.148a1.24 1.24 0 01-1.252 1.425 1.243 1.243 0 01-1.196-1.472 1.24 1.24 0 01.944-.979 1.292 1.292 0 011.504 1.026z"/><path fill="#fff" d="M31.693 21.706a.552.552 0 11-1.088.183.552.552 0 011.088-.183z" opacity=".7"/><path fill="#8A5D3B" d="M8.04 22.768c.071.32.695 1.164 1.38 1.006.684-.157 1.142-.08 1.07-.4-.072-.32-.527-.421-1.223-.275-.695.146-1.302-.648-1.228-.33z"/><path fill="#8A5D3B" d="M8.903 21.809c0 .325.38 1.301 1.09 1.323.71.022 1.129.21 1.14-.116.01-.325-.406-.551-1.104-.551-.698 0-1.115-.985-1.126-.656zM7.667 23.54c.071.32.695 1.164 1.38 1.007.684-.157 1.145-.083 1.07-.403-.074-.32-.527-.422-1.222-.276-.696.147-1.3-.648-1.228-.328z"/><path fill="#8A5D3B" d="M14.96 31.838c2.75-.622 4.438-3.521 3.77-6.477-.67-2.956-3.442-4.849-6.192-4.228-2.75.622-4.437 3.522-3.769 6.477.67 2.956 3.441 4.849 6.191 4.228z"/><path fill="#fff" d="M9.184 27.883c.638 2.815 3.279 4.619 5.898 4.029 2.62-.59 4.23-3.356 3.588-6.174-.643-2.818-3.279-4.619-5.9-4.029-2.622.59-4.226 3.356-3.586 6.174z"/><path fill="#26A9E0" d="M14.976 31.458c2.207-.499 3.562-2.826 3.025-5.198-.537-2.372-2.762-3.891-4.97-3.392-2.207.498-3.561 2.826-3.025 5.198.537 2.372 2.762 3.89 4.97 3.392z"/><path fill="url(#boy_paint1_radial)" d="M10.752 28.186c.483 2.137 2.484 3.505 4.474 3.056 1.99-.45 3.21-2.545 2.723-4.688-.485-2.142-2.483-3.505-4.473-3.055-1.99.45-3.199 2.55-2.724 4.687z"/><path fill="#fff" d="M9.596 28.708a1.266 1.266 0 10.932-1.605 1.313 1.313 0 00-.932 1.605z"/><path fill="#fff" d="M15.424 25.432a.551.551 0 10.406-.7.571.571 0 00-.406.7z" opacity=".7"/></g><defs><radialGradient id="boy_paint0_radial" cx="0" cy="0" r="1" gradientTransform="matrix(3.66625 -.82821 .82759 3.66347 33.461 22.973)" gradientUnits="userSpaceOnUse"><stop stop-color="#404041"/><stop offset="1" stop-color="#231F20"/></radialGradient><radialGradient id="boy_paint1_radial" cx="0" cy="0" r="1" gradientTransform="rotate(167.358 -4033.533 2654.268) scale(103.332 110.413)" gradientUnits="userSpaceOnUse"><stop stop-color="#404041"/><stop offset="1" stop-color="#231F20"/></radialGradient><clipPath id="boy"><path fill="#fff" d="M0 0h57v64H0z"/></clipPath></defs></svg>