<svg xmlns="http://www.w3.org/2000/svg" fill="none" viewBox="0 0 30 30"><circle cx="15" cy="15" r="15" fill="#262626"/><g fill="#fff" clip-path="url(#clip0)"><path d="M22.501 10.436a1.613 1.613 0 00-1.184-.499h-2.366V9.91a1.28 1.28 0 00-.385-.927 1.305 1.305 0 00-.927-.385H13.36a1.313 1.313 0 00-1.326 1.312v.028H9.683c-.471 0-.885.186-1.184.5-.3.299-.499.727-.499 1.183v7.1c0 .471.185.885.5 1.184.298.3.726.499 1.183.499h11.634c.471 0 .884-.185 1.184-.499.3-.3.499-.727.499-1.183V11.62c0-.47-.185-.884-.499-1.184zm-.242 8.285h-.015c0 .256-.1.484-.27.655a.915.915 0 01-.657.271H9.683a.915.915 0 01-.656-.27.915.915 0 01-.271-.656V11.62c0-.257.1-.485.27-.656.172-.171.4-.271.657-.271h2.751a.383.383 0 00.385-.385v-.414c0-.156.057-.299.157-.399a.56.56 0 01.4-.157h4.263c.157 0 .3.057.399.157.1.1.157.243.157.4v.413c0 .214.171.385.385.385h2.752c.256 0 .485.1.656.27.17.172.27.4.27.657v7.1z"/><path d="M15.5 11.662c-.97 0-1.854.4-2.481 1.027a3.514 3.514 0 000 4.962 3.514 3.514 0 004.962 0 3.513 3.513 0 000-4.962 3.514 3.514 0 00-2.481-1.027zm1.94 5.462a2.786 2.786 0 01-1.94.798c-.756 0-1.44-.314-1.94-.798-.498-.5-.798-1.184-.798-1.94 0-.755.314-1.44.799-1.939a2.726 2.726 0 011.939-.798c.756 0 1.44.313 1.94.798.498.5.798 1.184.798 1.94.014.755-.3 1.44-.799 1.939zM20.576 13.046a.699.699 0 100-1.398.699.699 0 000 1.398z"/></g><defs><clipPath id="clip0"><path fill="#fff" d="M8 7h15v15H8z"/></clipPath></defs></svg>