<svg xmlns="http://www.w3.org/2000/svg" width="100" height="70" fill="none"><path fill="#F3F2F7" fill-rule="evenodd" d="M29.932 41.737c-6.09 0-18.31-12.314-23.13-17.435a4.793 4.793 0 002.759-4.338 4.788 4.788 0 00-4.78-4.794A4.788 4.788 0 000 19.963a4.788 4.788 0 004.78 4.793c.29 0 .572-.03.848-.08l13.267 40.233a6 6 0 005.698 4.12h25.223V7.098s-5.92 34.64-19.884 34.64z" clip-rule="evenodd"/><path fill="#F3F2F7" fill-rule="evenodd" d="M37.741 34.218s-4.831-6.92-7.51-12.271a3.47 3.47 0 002.415-3.307 3.464 3.464 0 00-3.46-3.469 3.466 3.466 0 00-3.46 3.469 3.462 3.462 0 003.351 3.462c-.464 3.797-1.64 11.677-3.791 15.522 0 0 6.228 7.063 12.455-3.407zM74.347 37.624c-2.15-3.845-3.326-11.725-3.79-15.522a3.46 3.46 0 003.35-3.462 3.464 3.464 0 00-3.46-3.469 3.465 3.465 0 00-3.46 3.469 3.469 3.469 0 002.416 3.307c-2.679 5.351-7.509 12.27-7.509 12.27 6.228 10.47 12.453 3.407 12.453 3.407z" clip-rule="evenodd"/><path fill="#F3F2F7" fill-rule="evenodd" d="M94.852 15.172c-2.638 0-4.78 2.147-4.78 4.794a4.79 4.79 0 002.76 4.338c-4.82 5.122-17.039 17.435-23.13 17.435-13.965 0-19.885-34.64-19.885-34.64v61.933H75.04a6 6 0 005.698-4.121l13.267-40.233c.275.05.557.08.846.08a4.788 4.788 0 004.782-4.792 4.788 4.788 0 00-4.782-4.794z" clip-rule="evenodd"/><path fill="#F3F2F7" fill-rule="evenodd" d="M56.933 7.403c0 3.94-3.187 7.136-7.117 7.136-3.927 0-7.116-3.195-7.116-7.136 0-3.94 3.189-7.136 7.116-7.136 3.93 0 7.117 3.195 7.117 7.136z" clip-rule="evenodd"/><path fill="#F3F2F7" d="M46.34 2.107c.075.631 1.276-.154 2.85-.344 1.574-.19 2.926.289 2.85-.343-.075-.631-1.52-.987-3.095-.797-1.574.19-2.68.852-2.605 1.484zM44.77 3.561c.162.187.556-.005.948-.344.391-.34.632-.698.47-.885-.16-.187-.609-.063-1 .276-.392.34-.579.766-.418.953z"/><path fill="#F3F2F7" d="M42.7 7.385a7.118 7.118 0 1114.233 0v.176c0 1.547-4.539-1.99-6.949 0-.978.807-2.263 1.522-3.443 2.085-1.85.882-3.841-.036-3.841-2.085v-.176z"/><path fill="#F3F2F7" fill-rule="evenodd" d="M10.167 19.636a5.09 5.09 0 01-5.084 5.097C2.278 24.733 0 22.451 0 19.636c0-2.815 2.278-5.097 5.083-5.097a5.09 5.09 0 015.084 5.097z" clip-rule="evenodd"/><path fill="#F3F2F7" d="M2.6 15.853c.054.451.912-.11 2.036-.245 1.125-.135 2.09.206 2.036-.245-.054-.451-1.087-.705-2.211-.57-1.125.136-1.915.61-1.86 1.06zM1.48 16.892c.115.134.397-.003.677-.246.28-.242.451-.498.336-.632-.115-.133-.435-.045-.715.197-.28.243-.413.547-.298.681z"/><path fill="#F3F2F7" d="M0 19.623a5.084 5.084 0 1110.167 0v.126c0 1.105-3.242-1.42-4.964 0-.699.577-1.616 1.087-2.46 1.49-1.32.63-2.743-.026-2.743-1.49v-.125z"/><path fill="#F3F2F7" fill-rule="evenodd" d="M99.633 19.636a5.09 5.09 0 01-5.083 5.097c-2.805 0-5.083-2.282-5.083-5.097 0-2.815 2.278-5.097 5.083-5.097a5.09 5.09 0 015.083 5.097z" clip-rule="evenodd"/><path fill="#F3F2F7" d="M92.066 15.853c.054.451.911-.11 2.036-.245 1.124-.135 2.09.206 2.036-.245-.054-.451-1.087-.705-2.212-.57-1.124.136-1.914.61-1.86 1.06zM90.945 16.892c.116.134.398-.003.677-.246.28-.242.452-.498.337-.632-.115-.133-.436-.045-.716.197-.28.243-.413.547-.297.681z"/><path fill="#F3F2F7" d="M89.467 19.623a5.084 5.084 0 1110.166 0v.126c0 1.105-3.242-1.42-4.963 0-.699.577-1.616 1.087-2.46 1.49-1.32.63-2.743-.026-2.743-1.49v-.125z"/></svg>