<svg xmlns="http://www.w3.org/2000/svg" fill="none" viewBox="0 0 31 28"><circle cx="15" cy="16" r="11.5" fill="#B5B5B5" stroke="#fff"/><path fill="#777" d="M12.174 6h6.153l.665-3.137a.373.373 0 00-.016-.208.355.355 0 00-.124-.164.33.33 0 00-.382-.002l-1.724 1.204-1.191-2.496a.351.351 0 00-.126-.144.33.33 0 00-.358 0 .351.351 0 00-.126.144l-1.19 2.496-1.725-1.204a.33.33 0 00-.382.002.355.355 0 00-.124.164.373.373 0 00-.016.208L12.174 6z"/><path fill="#fff" d="M11.742 17.59l1.29-4.277h1.304L12.356 19h-1.223L9.16 13.312h1.3l1.282 4.278zm4.38 1.41h-1.173v-5.688h1.172V19zm2.26-2.004V19h-1.171v-5.688h2.219c.427 0 .802.079 1.125.235.325.156.575.379.75.668.174.286.261.613.261.98 0 .558-.191.998-.574 1.32-.38.32-.907.481-1.582.481h-1.027zm0-.95h1.048c.31 0 .545-.072.707-.218.164-.146.246-.354.246-.625 0-.278-.082-.504-.246-.676-.164-.171-.39-.26-.68-.265h-1.074v1.785z"/></svg>