<svg xmlns="http://www.w3.org/2000/svg" width="46" height="46" fill="none"><circle cx="23" cy="23" r="22.5" stroke="#927ABC"/><path fill="url(#paint0_linear)" d="M23.094 43.211c11.098 0 20.095-8.996 20.095-20.094S34.192 3.023 23.094 3.023C11.996 3.023 3 12.019 3 23.117S11.996 43.21 23.094 43.21z"/><path fill="url(#paint1_linear)" d="M42.528 23.733c-2.242 2.03-7.197-4.913-15.071-4.23-8.672.75-11.977 8.989-19.232 8.444-1.338-.1-2.74-.862-4.3-2.628-1.728-3.586-.034-11.973 5.867-17.256C15.09 3.32 21.618 3.005 22.956 3c10.221-.021 15.514 7.101 16.201 8.1 2.417 3.517 5.248 10.93 3.37 12.633z"/><path fill="url(#paint2_linear)" d="M11.33 12.907c.784-.987 1.03-2.1.544-2.486-.486-.386-1.515.104-2.298 1.091-.784.987-1.029 2.1-.543 2.486.485.381 1.514-.104 2.298-1.091z"/><path fill="url(#paint3_linear)" d="M18.27 7.533c3.651-1.63 4.915-1.222 4.915-2.266 0-1.045-3.39-1.254-6.22.005-2.877 1.274-5.269 3.65-4.224 4.695 1.044 1.044 1.467-.627 5.53-2.434z"/><path fill="#fff" d="M13.541 22.919h-2.813v1.904h3.301V26H9.264v-7.11h4.756v1.187h-3.291v1.694h2.812v1.148zM20.67 26h-1.465l-2.851-4.678V26h-1.465v-7.11h1.465l2.856 4.688v-4.687h1.46V26zm6.484-5.923h-2.177V26h-1.465v-5.923h-2.149v-1.186h5.791v1.186zm5.118 2.842h-2.813v1.904h3.3V26h-4.765v-7.11h4.756v1.187h-3.291v1.694h2.813v1.148zm3.979.479h-1.167V26h-1.465v-7.11h2.642c.84 0 1.487.188 1.943.562.456.374.684.903.684 1.587 0 .485-.106.89-.318 1.216-.208.322-.525.58-.952.771l1.538 2.906V26h-1.572l-1.333-2.602zm-1.167-1.187h1.182c.367 0 .652-.093.854-.278.202-.19.303-.448.303-.777 0-.335-.096-.599-.288-.79-.189-.193-.48-.289-.874-.289h-1.177v2.134z"/><circle cx="23" cy="23" r="22.5" stroke="#927ABC"/><defs><linearGradient id="paint0_linear" x1="3" x2="43.189" y1="23.117" y2="23.117" gradientUnits="userSpaceOnUse"><stop stop-color="#D400A6"/><stop offset="1" stop-color="#FD48BA"/></linearGradient><linearGradient id="paint1_linear" x1="2.704" x2="43.206" y1="15.739" y2="15.739" gradientUnits="userSpaceOnUse"><stop stop-color="#fff" stop-opacity=".3"/><stop offset="1" stop-color="#FF3999" stop-opacity=".31"/></linearGradient><linearGradient id="paint2_linear" x1="9.315" x2="11.568" y1="14.164" y2="10.238" gradientUnits="userSpaceOnUse"><stop stop-color="#fff" stop-opacity=".3"/><stop offset="1" stop-color="#fff" stop-opacity=".19"/></linearGradient><linearGradient id="paint3_linear" x1="12.929" x2="19.982" y1="10.138" y2="2.2" gradientUnits="userSpaceOnUse"><stop stop-color="#fff" stop-opacity=".3"/><stop offset="1" stop-color="#fff" stop-opacity=".19"/></linearGradient></defs></svg>