<svg width="116" height="32" fill="none" xmlns="http://www.w3.org/2000/svg"><rect width="116" height="32" rx="3" fill="#00288B"/><path d="M23.623 5.004L21.225 5c-2.695 0-4.436 1.793-4.436 4.568v2.107h-2.412a.378.378 0 00-.377.378v3.052c0 .21.169.379.377.379h2.412v7.7c0 .21.168.379.377.379h3.146c.209 0 .378-.17.378-.379v-7.7h2.82c.208 0 .377-.17.377-.379v-3.052a.38.38 0 00-.377-.378h-2.82V9.889c0-.858.203-1.294 1.317-1.294h1.616c.208 0 .377-.17.377-.379V5.382a.378.378 0 00-.377-.378z" fill="#fff"/></svg>