<svg width="58" height="58" viewBox="0 0 58 58" fill="none" xmlns="http://www.w3.org/2000/svg">
<g filter="url(#filter0_i)">
<rect x="3" y="4" width="51" height="51" rx="25.5" fill="url(#paint0_linear)"/>
</g>
<rect x="1.5" y="2.5" width="54" height="54" rx="27" stroke="#9E4200" stroke-width="3"/>
<g filter="url(#filter1_i)">
<rect x="1" width="57" height="57" rx="28.5" fill="white"/>
</g>
<mask id="mask0" mask-type="alpha" maskUnits="userSpaceOnUse" x="4" y="3" width="51" height="51">
<rect x="4" y="3" width="51" height="51" rx="25.5" fill="url(#paint1_linear)"/>
</mask>
<g mask="url(#mask0)">
<g filter="url(#filter2_i)">
<rect x="4" y="3" width="51" height="51" rx="25.5" fill="url(#paint2_radial)"/>
</g>
<g filter="url(#filter3_i)">
<rect x="4" y="3" width="51" height="51" rx="25.5" fill="url(#paint3_linear)" fill-opacity="0.71"/>
</g>
<g filter="url(#filter4_i)">
<path d="M4 26.823C4 13.1136 15.1136 2 28.823 2H30.177C43.8864 2 55 13.1136 55 26.823C55 32.0885 38.7362 20.0531 30.1024 26.823C26.4669 29.6736 21.6525 32.1813 17.2966 34.1294C10.8606 37.0079 4 33.8734 4 26.823Z" fill="url(#paint4_linear)" fill-opacity="0.34"/>
</g>
</g>
<path d="M20.3792 7.6568C20.5712 9.25483 23.6179 7.26782 27.613 6.78799C31.6081 6.30816 35.0386 7.51721 34.8467 5.91918C34.6548 4.32115 30.9854 3.42168 26.9903 3.90151C22.9953 4.38134 20.1873 6.05877 20.3792 7.6568Z" fill="url(#paint5_linear)"/>
<path d="M16.398 11.3395C16.8072 11.813 17.8085 11.3275 18.8025 10.4685C19.7965 9.60953 20.4068 8.70233 19.9977 8.22886C19.5885 7.7554 18.451 8.06792 17.457 8.9269C16.463 9.78588 15.9889 10.866 16.398 11.3395Z" fill="url(#paint6_linear)" fill-opacity="0.6"/>
<path fill-rule="evenodd" clip-rule="evenodd" d="M27.412 20.1119H35.4765H27.412ZM25.3251 19.1833L25.0658 19.5871L25.3251 19.1833ZM24.865 19.9001L24.9778 19.7242L24.865 19.9001ZM39.3344 11.7368H30.1029L25.5824 18.7819L30.1029 11.7368H20.8713L15.6353 20.1119L30.1029 38.6051L44.5703 20.1119L39.3344 11.7368Z" fill="#85CEE7"/>
<path fill-rule="evenodd" clip-rule="evenodd" d="M30.1032 11.7368L24.5918 20.004H35.6147L30.1032 11.7368Z" fill="#CDEAF2"/>
<path fill-rule="evenodd" clip-rule="evenodd" d="M30.1032 38.605L35.6147 20.0039H24.5918L30.1032 38.605Z" fill="#85CEE7"/>
<path fill-rule="evenodd" clip-rule="evenodd" d="M35.3166 20.004L39.0594 11.7368H30.1033L35.3166 20.004Z" fill="#A9DBEB"/>
<path fill-rule="evenodd" clip-rule="evenodd" d="M39.4142 11.7368L44.5708 20.004H35.6147L39.4142 11.7368Z" fill="#85CEE7"/>
<path fill-rule="evenodd" clip-rule="evenodd" d="M24.89 20.004L21.1472 11.7368H30.1033L24.89 20.004Z" fill="#A9DBEB"/>
<path fill-rule="evenodd" clip-rule="evenodd" d="M20.792 11.7368L15.6353 20.004H24.5913L20.792 11.7368Z" fill="#85CEE7"/>
<path fill-rule="evenodd" clip-rule="evenodd" d="M15.5039 20.0344L29.9917 38.7368L30.1234 38.6051L15.7673 20.0344H15.5039Z" fill="#384042"/>
<path fill-rule="evenodd" clip-rule="evenodd" d="M15.6357 20.0039L30.1033 38.605L24.7296 20.0039H15.6357Z" fill="#2BA2C4"/>
<path d="M35.477 20.0039L30.1033 38.605L44.5708 20.0039H35.477Z" fill="#2BA2C4"/>
<defs>
<filter id="filter0_i" x="0" y="1" width="61" height="61" filterUnits="userSpaceOnUse" color-interpolation-filters="sRGB">
<feFlood flood-opacity="0" result="BackgroundImageFix"/>
<feBlend mode="normal" in="SourceGraphic" in2="BackgroundImageFix" result="shape"/>
<feColorMatrix in="SourceAlpha" type="matrix" values="0 0 0 0 0 0 0 0 0 0 0 0 0 0 0 0 0 0 127 0" result="hardAlpha"/>
<feOffset dx="4" dy="4"/>
<feGaussianBlur stdDeviation="4.5"/>
<feComposite in2="hardAlpha" operator="arithmetic" k2="-1" k3="1"/>
<feColorMatrix type="matrix" values="0 0 0 0 1 0 0 0 0 0.720833 0 0 0 0 0.737583 0 0 0 0.69 0"/>
<feBlend mode="normal" in2="shape" result="effect1_innerShadow"/>
</filter>
<filter id="filter1_i" x="0" y="0" width="58" height="61" filterUnits="userSpaceOnUse" color-interpolation-filters="sRGB">
<feFlood flood-opacity="0" result="BackgroundImageFix"/>
<feBlend mode="normal" in="SourceGraphic" in2="BackgroundImageFix" result="shape"/>
<feColorMatrix in="SourceAlpha" type="matrix" values="0 0 0 0 0 0 0 0 0 0 0 0 0 0 0 0 0 0 127 0" result="hardAlpha"/>
<feOffset dx="-1" dy="4"/>
<feGaussianBlur stdDeviation="4.5"/>
<feComposite in2="hardAlpha" operator="arithmetic" k2="-1" k3="1"/>
<feColorMatrix type="matrix" values="0 0 0 0 0.95 0 0 0 0 0.95 0 0 0 0 0.95 0 0 0 1 0"/>
<feBlend mode="normal" in2="shape" result="effect1_innerShadow"/>
</filter>
<filter id="filter2_i" x="4" y="3" width="55" height="55" filterUnits="userSpaceOnUse" color-interpolation-filters="sRGB">
<feFlood flood-opacity="0" result="BackgroundImageFix"/>
<feBlend mode="normal" in="SourceGraphic" in2="BackgroundImageFix" result="shape"/>
<feColorMatrix in="SourceAlpha" type="matrix" values="0 0 0 0 0 0 0 0 0 0 0 0 0 0 0 0 0 0 127 0" result="hardAlpha"/>
<feOffset dx="4" dy="4"/>
<feGaussianBlur stdDeviation="4.5"/>
<feComposite in2="hardAlpha" operator="arithmetic" k2="-1" k3="1"/>
<feColorMatrix type="matrix" values="0 0 0 0 1 0 0 0 0 0 0 0 0 0 0.0599999 0 0 0 0.69 0"/>
<feBlend mode="normal" in2="shape" result="effect1_innerShadow"/>
</filter>
<filter id="filter3_i" x="4" y="3" width="51" height="52" filterUnits="userSpaceOnUse" color-interpolation-filters="sRGB">
<feFlood flood-opacity="0" result="BackgroundImageFix"/>
<feBlend mode="normal" in="SourceGraphic" in2="BackgroundImageFix" result="shape"/>
<feColorMatrix in="SourceAlpha" type="matrix" values="0 0 0 0 0 0 0 0 0 0 0 0 0 0 0 0 0 0 127 0" result="hardAlpha"/>
<feOffset dy="1"/>
<feGaussianBlur stdDeviation="1"/>
<feComposite in2="hardAlpha" operator="arithmetic" k2="-1" k3="1"/>
<feColorMatrix type="matrix" values="0 0 0 0 0.920833 0 0 0 0 0.920833 0 0 0 0 0.920833 0 0 0 1 0"/>
<feBlend mode="normal" in2="shape" result="effect1_innerShadow"/>
</filter>
<filter id="filter4_i" x="4" y="2" width="51" height="34.1936" filterUnits="userSpaceOnUse" color-interpolation-filters="sRGB">
<feFlood flood-opacity="0" result="BackgroundImageFix"/>
<feBlend mode="normal" in="SourceGraphic" in2="BackgroundImageFix" result="shape"/>
<feColorMatrix in="SourceAlpha" type="matrix" values="0 0 0 0 0 0 0 0 0 0 0 0 0 0 0 0 0 0 127 0" result="hardAlpha"/>
<feOffset dy="1"/>
<feGaussianBlur stdDeviation="1"/>
<feComposite in2="hardAlpha" operator="arithmetic" k2="-1" k3="1"/>
<feColorMatrix type="matrix" values="0 0 0 0 1 0 0 0 0 0.732333 0 0 0 0 0.695833 0 0 0 1 0"/>
<feBlend mode="normal" in2="shape" result="effect1_innerShadow"/>
</filter>
<linearGradient id="paint0_linear" x1="3" y1="-0.576923" x2="27.415" y2="55.4726" gradientUnits="userSpaceOnUse">
<stop stop-color="#FF9040"/>
<stop offset="1" stop-color="#B90000"/>
</linearGradient>
<linearGradient id="paint1_linear" x1="4" y1="-1.57692" x2="28.415" y2="54.4726" gradientUnits="userSpaceOnUse">
<stop stop-color="#FF9040"/>
<stop offset="1" stop-color="#B90000"/>
</linearGradient>
<radialGradient id="paint2_radial" cx="0" cy="0" r="1" gradientUnits="userSpaceOnUse" gradientTransform="translate(29.4879 32.1092) rotate(92.234) scale(79.5583 78.8814)">
<stop stop-color="#FFE355"/>
<stop offset="1" stop-color="#FF9040"/>
</radialGradient>
<linearGradient id="paint3_linear" x1="29.5" y1="3" x2="29.5" y2="54" gradientUnits="userSpaceOnUse">
<stop stop-color="#FFE355"/>
<stop offset="1" stop-color="#FFD500"/>
</linearGradient>
<linearGradient id="paint4_linear" x1="29.5" y1="2" x2="29.5" y2="51.646" gradientUnits="userSpaceOnUse">
<stop stop-color="#C95400"/>
<stop offset="1" stop-color="#FFCAAC" stop-opacity="0.1"/>
</linearGradient>
<linearGradient id="paint5_linear" x1="16.804" y1="6.17889" x2="36.7694" y2="7.44997" gradientUnits="userSpaceOnUse">
<stop stop-color="#F9E0E0"/>
<stop offset="1" stop-color="white" stop-opacity="0"/>
</linearGradient>
<linearGradient id="paint6_linear" x1="15.0232" y1="11.4125" x2="20.5902" y2="7.9349" gradientUnits="userSpaceOnUse">
<stop stop-color="white"/>
<stop offset="1" stop-color="white"/>
</linearGradient>
</defs>
</svg>
