<svg xmlns="http://www.w3.org/2000/svg" width="17" height="16" fill="none"><path fill="#85CEE7" fill-rule="evenodd" d="M6.606 4.698h4.524-4.524zm-1.17-.521l-.146.227.145-.227zm-.259.402l.064-.099-.064.1zM13.294 0H8.115L5.58 3.952 8.115 0H2.937L0 4.698 8.115 15.07l8.116-10.373L13.294 0z" clip-rule="evenodd"/><path fill="#CDEAF2" fill-rule="evenodd" d="M8.115 0L5.024 4.637h6.183L8.115 0z" clip-rule="evenodd"/><path fill="#85CEE7" fill-rule="evenodd" d="M8.115 15.071l3.092-10.434H5.024l3.091 10.434z" clip-rule="evenodd"/><path fill="#A9DBEB" fill-rule="evenodd" d="M11.04 4.637L13.14 0H8.114l2.925 4.637z" clip-rule="evenodd"/><path fill="#85CEE7" fill-rule="evenodd" d="M13.338 0l2.893 4.637h-5.024L13.338 0z" clip-rule="evenodd"/><path fill="#A9DBEB" fill-rule="evenodd" d="M5.191 4.637L3.091 0h5.024L5.191 4.637z" clip-rule="evenodd"/><path fill="#85CEE7" fill-rule="evenodd" d="M2.893 0L0 4.637h5.024L2.893 0z" clip-rule="evenodd"/><path fill="#2BA2C4" fill-rule="evenodd" d="M0 4.637l8.115 10.434L5.101 4.637H0z" clip-rule="evenodd"/><path fill="#000" d="M11.13 4.637L8.115 15.071l8.116-10.434H11.13z"/><path fill="#2BA2C4" d="M11.13 4.637L8.115 15.071l8.116-10.434H11.13z"/></svg>