<svg width="98" height="98" fill="none" xmlns="http://www.w3.org/2000/svg"><g filter="url(#filter0_d)"><path d="M80 2H20C11.716 2 5 8.716 5 17v60c0 8.284 6.716 15 15 15h60c8.284 0 15-6.716 15-15V17c0-8.284-6.716-15-15-15z" fill="#000"/></g><path d="M80 2H20C11.716 2 5 8.716 5 17v60c0 8.284 6.716 15 15 15h60c8.284 0 15-6.716 15-15V17c0-8.284-6.716-15-15-15z" fill="#FAB4D5" stroke="#F597CA" stroke-width="2" stroke-dasharray="1 1"/><path d="M24 88h52c8.284 0 15-6.716 15-15V21c0-8.284-6.716-15-15-15H24C15.716 6 9 12.716 9 21v52c0 8.284 6.716 15 15 15z" fill="url(#paint0_linear)"/><g filter="url(#filter1_i)"><path d="M24 88h52c8.284 0 15-6.716 15-15V21c0-8.284-6.716-15-15-15H24C15.716 6 9 12.716 9 21v52c0 8.284 6.716 15 15 15z" fill="#000"/></g><path d="M24 6h52c8.284 0 15 6.716 15 15v53c0 8.284-6.716 15-15 15H24c-8.284 0-15-6.716-15-15V21c0-8.284 6.716-15 15-15z" fill="url(#paint1_linear)"/><g filter="url(#filter2_i)"><path d="M24 6h52c8.284 0 15 6.716 15 15v53c0 8.284-6.716 15-15 15H24c-8.284 0-15-6.716-15-15V21c0-8.284 6.716-15 15-15z" fill="url(#paint2_linear)"/></g><g filter="url(#filter3_i)"><path d="M24 6h52c8.284 0 15 6.716 15 15v53c0 8.284-6.716 15-15 15H24c-8.284 0-15-6.716-15-15V21c0-8.284 6.716-15 15-15z" fill="url(#paint3_linear)"/></g><path fill-rule="evenodd" clip-rule="evenodd" d="M46.094 31.157H57.8 46.094zm-3.029-1.348l-.376.586.376-.586zm-.668 1.04l.164-.255-.164.255zM63.4 19H50L43.44 29.226 50 19H36.6L29 31.157 50 58l21-26.843L63.4 19z" fill="#85CEE7"/><path fill-rule="evenodd" clip-rule="evenodd" d="M50 19l-8 12h16l-8-12z" fill="#CDEAF2"/><path fill-rule="evenodd" clip-rule="evenodd" d="M50 58l8-27H42l8 27z" fill="#85CEE7"/><path fill-rule="evenodd" clip-rule="evenodd" d="M57.567 31L63 19H50l7.567 12z" fill="#A9DBEB"/><path fill-rule="evenodd" clip-rule="evenodd" d="M63.515 19L71 31H58l5.515-12z" fill="#85CEE7"/><path fill-rule="evenodd" clip-rule="evenodd" d="M42.433 31L37 19h13l-7.567 12z" fill="#A9DBEB"/><path fill-rule="evenodd" clip-rule="evenodd" d="M36.485 19L29 31h13l-5.515-12z" fill="#85CEE7"/><path fill-rule="evenodd" clip-rule="evenodd" d="M29 31l21 27-7.8-27H29z" fill="#2BA2C4"/><g filter="url(#filter4_d)"><path d="M57.8 31L50 58l21-27H57.8z" fill="#000"/></g><path d="M57.8 31L50 58l21-27H57.8z" fill="#2BA2C4"/><path fill-rule="evenodd" clip-rule="evenodd" d="M69.931 20.99L79 19.5l-9.069-1.49 2.396-3.336-3.337 2.396L67.5 8l-1.49 9.07-3.336-2.396 2.396 3.336L56 19.5l9.07 1.49-2.396 3.336 3.336-2.395L67.5 31l1.49-9.069 3.337 2.395-2.396-3.336z" fill="#FFFFFE"/><defs><filter id="filter0_d" x="0" y="0" width="98" height="98" filterUnits="userSpaceOnUse" color-interpolation-filters="sRGB"><feFlood flood-opacity="0" result="BackgroundImageFix"/><feColorMatrix in="SourceAlpha" values="0 0 0 0 0 0 0 0 0 0 0 0 0 0 0 0 0 0 127 0"/><feOffset dx="-1" dy="2"/><feGaussianBlur stdDeviation="2"/><feColorMatrix values="0 0 0 0 0.647843 0 0 0 0 0.138049 0 0 0 0 0.378381 0 0 0 1 0"/><feBlend in2="BackgroundImageFix" result="effect1_dropShadow"/><feBlend in="SourceGraphic" in2="effect1_dropShadow" result="shape"/></filter><filter id="filter1_i" x="6" y="6" width="85" height="85" filterUnits="userSpaceOnUse" color-interpolation-filters="sRGB"><feFlood flood-opacity="0" result="BackgroundImageFix"/><feBlend in="SourceGraphic" in2="BackgroundImageFix" result="shape"/><feColorMatrix in="SourceAlpha" values="0 0 0 0 0 0 0 0 0 0 0 0 0 0 0 0 0 0 127 0" result="hardAlpha"/><feOffset dx="-3" dy="3"/><feGaussianBlur stdDeviation="1.5"/><feComposite in2="hardAlpha" operator="arithmetic" k2="-1" k3="1"/><feColorMatrix values="0 0 0 0 0.747481 0 0 0 0 0.136862 0 0 0 0 0.433612 0 0 0 1 0"/><feBlend in2="shape" result="effect1_innerShadow"/></filter><filter id="filter2_i" x="6" y="6" width="85" height="86" filterUnits="userSpaceOnUse" color-interpolation-filters="sRGB"><feFlood flood-opacity="0" result="BackgroundImageFix"/><feBlend in="SourceGraphic" in2="BackgroundImageFix" result="shape"/><feColorMatrix in="SourceAlpha" values="0 0 0 0 0 0 0 0 0 0 0 0 0 0 0 0 0 0 127 0" result="hardAlpha"/><feOffset dx="-3" dy="3"/><feGaussianBlur stdDeviation="2.5"/><feComposite in2="hardAlpha" operator="arithmetic" k2="-1" k3="1"/><feColorMatrix values="0 0 0 0 0.841667 0 0 0 0 0.189375 0 0 0 0 0.506377 0 0 0 1 0"/><feBlend in2="shape" result="effect1_innerShadow"/></filter><filter id="filter3_i" x="9" y="3" width="85" height="86" filterUnits="userSpaceOnUse" color-interpolation-filters="sRGB"><feFlood flood-opacity="0" result="BackgroundImageFix"/><feBlend in="SourceGraphic" in2="BackgroundImageFix" result="shape"/><feColorMatrix in="SourceAlpha" values="0 0 0 0 0 0 0 0 0 0 0 0 0 0 0 0 0 0 127 0" result="hardAlpha"/><feOffset dx="3" dy="-3"/><feGaussianBlur stdDeviation="2.5"/><feComposite in2="hardAlpha" operator="arithmetic" k2="-1" k3="1"/><feColorMatrix values="0 0 0 0 0.841667 0 0 0 0 0.189375 0 0 0 0 0.506377 0 0 0 1 0"/><feBlend in2="shape" result="effect1_innerShadow"/></filter><filter id="filter4_d" x="46" y="29" width="29" height="35" filterUnits="userSpaceOnUse" color-interpolation-filters="sRGB"><feFlood flood-opacity="0" result="BackgroundImageFix"/><feColorMatrix in="SourceAlpha" values="0 0 0 0 0 0 0 0 0 0 0 0 0 0 0 0 0 0 127 0"/><feOffset dy="2"/><feGaussianBlur stdDeviation="2"/><feColorMatrix values="0 0 0 0 0.168627 0 0 0 0 0.635294 0 0 0 0 0.768627 0 0 0 1 0"/><feBlend in2="BackgroundImageFix" result="effect1_dropShadow"/><feBlend in="SourceGraphic" in2="effect1_dropShadow" result="shape"/></filter><linearGradient id="paint0_linear" x1="84.365" y1="13.271" x2="16.006" y2="88" gradientUnits="userSpaceOnUse"><stop stop-color="#F731B5"/><stop offset="1" stop-color="#EC167E"/></linearGradient><linearGradient id="paint1_linear" x1="50" y1="89" x2="49" y2="5.5" gradientUnits="userSpaceOnUse"><stop stop-color="#F731B5"/><stop offset="1" stop-color="#EC167E"/></linearGradient><linearGradient id="paint2_linear" x1="13" y1="81.5" x2="86.5" y2="11" gradientUnits="userSpaceOnUse"><stop stop-color="#F731B5"/><stop offset="1" stop-color="#FF31BA"/></linearGradient><linearGradient id="paint3_linear" x1="13" y1="81.5" x2="91" y2="8" gradientUnits="userSpaceOnUse"><stop stop-color="#F546BB"/><stop offset="1" stop-color="#FF31BA"/></linearGradient></defs></svg>