<svg xmlns="http://www.w3.org/2000/svg" width="26" height="24" fill="none"><g clip-path="url(#clip1)"><path fill="#927ABC" fill-rule="evenodd" stroke="#fff" stroke-width=".2" d="M25.917 7.3L21.753.253A.497.497 0 0021.33 0H4.69c-.17 0-.33.095-.424.254L.097 7.277a.612.612 0 00.029.702l7.122 9.023 5.372 6.806a.488.488 0 00.382.192c.146 0 .285-.07.382-.192l8.595-10.893 3.895-4.936a.612.612 0 00.043-.68zm-24.29.871l6.384 8.088 3.879 4.914L8.458 8.171h-6.83zm12.487 13.001l7.101-8.999 3.158-4.002h-6.827l-3.432 13.001zM4.69 1.59L1.451 7.045h6.463L4.69 1.589zm7.371-.462h-6.43l3.215 5.44 3.215-5.44zm4.164 5.918L13.002 1.59 9.778 7.045h6.447zM9.515 8.17l3.487 13.205 3.485-13.205H9.516zm4.427-7.044l3.223 5.454 3.224-5.454h-6.447zm7.387.464l-3.224 5.454h6.447L21.33 1.59z" clip-rule="evenodd"/></g><defs><clipPath id="clip1"><path fill="#fff" d="M0 0h26v24H0z"/></clipPath></defs></svg>