<svg xmlns="http://www.w3.org/2000/svg" viewBox="0 0 23 40"><path d="M11.435 0c-.318 0-.627.039-.924.11a3.946 3.946 0 010 7.67A3.945 3.945 0 1011.435 0zM15.71 14.052a.815.815 0 01.789-1.018h-1.612a.815.815 0 00-.788 1.018l3.463 13.462h1.611L15.71 14.052zM8.76 38.525c0 .515-.264.967-.663 1.231.215.144.47.233.746.243.84.03 1.529-.642 1.529-1.474v-11.01H9.208c-.247 0-.448.2-.448.447v10.563z"/><path d="M22.815 22.492l-2.999-10.765h-.002A4.586 4.586 0 0015.42 8.45h-1.611a4.586 4.586 0 014.395 3.279h.002l2.999 10.764a1.476 1.476 0 01-.614 1.63 1.475 1.475 0 002.226-1.63zM13.838 38.525c0 .517-.267.971-.67 1.235a1.475 1.475 0 002.28-1.235v-11.01h-1.163c-.247 0-.448.2-.448.447v10.563zM2.897 23.284l2.69-9.654a.814.814 0 01.784-.596H4.76a.815.815 0 00-.785.596l-2.69 9.654c-.1.36-.326.65-.616.839a1.475 1.475 0 002.228-.84z"/><path d="M2.896 23.284a1.475 1.475 0 11-2.842-.792l3-10.765h.001A4.587 4.587 0 017.45 8.45h7.968a4.586 4.586 0 014.396 3.279h.002l2.998 10.764a1.475 1.475 0 11-2.842.792l-2.689-9.654a.815.815 0 00-1.574.422l3.464 13.462h-3.725v11.01a1.475 1.475 0 11-2.95 0v-11.01H10.37v11.01c0 .833-.69 1.505-1.528 1.475-.8-.029-1.422-.71-1.422-1.51V27.514H3.696L7.16 14.052a.815.815 0 00-1.574-.422l-2.69 9.654zM15.38 3.945a3.945 3.945 0 11-7.89 0 3.945 3.945 0 017.89 0z"/></svg>