<svg xmlns="http://www.w3.org/2000/svg" viewBox="0 0 18 40"><path d="M12.514 3.945a3.945 3.945 0 11-7.89 0 3.945 3.945 0 017.89 0zM12.553 8.449H4.585A4.585 4.585 0 000 13.034v9.819c0 .8.622 1.48 1.421 1.51.84.029 1.53-.642 1.53-1.475v-9.052a.803.803 0 111.605 0V38.49c0 .8.622 1.482 1.421 1.51.84.03 1.53-.642 1.53-1.474v-10.68a1.063 1.063 0 112.125 0v10.68a1.475 1.475 0 102.95 0V13.837a.803.803 0 111.606 0v9.051a1.475 1.475 0 102.95 0v-9.854a4.585 4.585 0 00-4.585-4.585z"/><path d="M8.57 0c-.319 0-.628.039-.924.11a3.945 3.945 0 010 7.67A3.945 3.945 0 108.57 0zM11.178 39.998c.794-.037 1.404-.722 1.404-1.517V13.836c0-.443.36-.802.803-.802h-1.071c-.742 0-1.343.601-1.343 1.343v24.148c0 .517-.266.971-.67 1.235.25.163.553.254.877.238zM5.894 28.125v10.4c0 .515-.264.967-.663 1.231.215.144.47.233.746.243.839.03 1.529-.642 1.529-1.474v-10.68c0-.587.476-1.063 1.063-1.063H7.237c-.742 0-1.343.601-1.343 1.343z"/><path d="M12.553 8.449h-1.612a4.585 4.585 0 014.585 4.585v9.854c0 .517-.266.972-.669 1.235a1.475 1.475 0 002.28-1.235v-9.854a4.584 4.584 0 00-4.584-4.585zM2.682 13.034c-.742 0-1.343.601-1.343 1.343v8.511c0 .515-.264.968-.664 1.231.216.144.47.233.746.243.84.03 1.53-.641 1.53-1.474v-9.052c0-.443.359-.802.802-.802H2.682z"/></svg>