<svg xmlns="http://www.w3.org/2000/svg" width="49" height="64" fill="none"><path fill="#e75397" d="M36.334 50.764c1.438-3.677 3.296-8.57-3.9-11.725-5.442-2.385-4.889-.298-9.448-.298h-.167c-4.567 0-4.004-2.087-9.448.298-7.204 3.155-5.339 8.048-3.9 11.725 1.165 2.982-5.128 3.52-3.8 9.144 1.258 5.328 4.08 3.345 10.576 2.184 3.826-.684 9.07-.71 13.313 0 6.509 1.094 9.318 3.144 10.577-2.184 1.325-5.63-4.969-6.167-3.803-9.144z"/><path fill="#e75397" d="M36.455 50.131c1.438-3.677 3.296-8.573-3.9-11.724-5.442-2.385-4.89-.299-9.448-.299h-.17c-4.567 0-4.003-2.086-9.448.299-7.204 3.151-5.66 7.829-4.214 11.505 1.166 2.982-4.814 3.736-3.486 9.36 1.258 5.329 4.08 3.345 10.577 2.187 3.828-.684 9.07-.712 13.312 0 6.51 1.091 9.319 3.142 10.577-2.187 1.315-5.624-4.979-6.159-3.8-9.14z"/><path fill="url(#paint2_radial)" d="M23.81 49.717c-.822 1.422-1.918-.476-.273-.476-1.645 0-.549-1.9.272-.474-.82-1.425 1.372-1.425.548 0 .824-1.425 1.92.474.276.474 1.644 0 .548 1.898-.276.476.824 1.422-1.369 1.422-.548 0zM23.745 56.697c-1.03 1.767-2.383-.59-.342-.59-2.04 0-.68-2.356.342-.588-1.03-1.768 1.7-1.768.68 0 1.028-1.768 2.382.589.339.589 2.043 0 .682 2.357-.34.589 1.022 1.767-1.7 1.767-.68 0z"/><path fill="url(#paint3_radial)" d="M23.848 42.274c-.723 1.253-1.685-.417-.24-.417-1.445 0-.483-1.67.24-.417-.723-1.253 1.204-1.253.483 0 .72-1.253 1.686.417.24.417 1.446 0 .48 1.67-.24.417.716 1.26-1.211 1.26-.483 0z"/><path fill="#F8CAC3" d="M46.275 25.324a22.69 22.69 0 01-.257 1.443 15.815 15.815 0 01-4.52 8.192c-4.138 3.942-10.377 5.5-16.935 4.56-6.813-.981-12.82-4.521-15.73-9.878a15.607 15.607 0 01-1.765-9.144c.025-.25.056-.503.092-.756.165-1.163.4-2.314.705-3.448a27.285 27.285 0 011.832-4.894C13.214 4.195 20.014-1.14 30.023.21c9.501 1.287 14.544 8.108 16.06 15.858.333 1.722.498 3.473.493 5.227a28.268 28.268 0 01-.3 4.03z"/><path fill="#F8CAC3" d="M48.105 32.594c-.867 2.177-3.793 3.569-5.972 2.704-2.18-.864-2.781-3.66-1.917-5.84.865-2.18 3.389-3.659 5.568-2.792 2.18.867 3.185 3.75 2.32 5.928zM3.064 25.55c.221 2.33 2.643 4.487 4.976 4.266 2.334-.222 3.695-2.738 3.474-5.071-.222-2.334-2.231-4.46-4.565-4.238-2.333.221-4.106 2.707-3.885 5.043z"/><path fill="#8A5D3B" d="M43.33 33.204c-.41-.342.874-1.122 1.353-1.78.648-.89.692-2.26 1.43-1.902.89.433.847 1.814.206 2.7-.89 1.232-2.42 1.456-2.99.982zM7.425 27.426c.515-.144-.424-1.38-.594-2.177-.23-1.076.375-2.344-.445-2.316-.988.031-1.513 1.313-1.287 2.38.31 1.485 1.614 2.313 2.326 2.113z" opacity=".2"/><path fill="#fff" d="M36.49 4.244c.286 2.982-5.724-.733-11.063 0-5.338.733-7.397 1.618-11.698 3.404-1.544.646 1.044-4.225 8.804-5.943C29.107.24 36.3 2.227 36.491 4.244z" opacity=".2"/><path fill="#E75397" d="M33.933 34.634c.45-3.155-2.886-6.241-7.452-6.893-4.567-.651-8.633 1.378-9.083 4.534-.45 3.155 2.886 6.24 7.452 6.892 4.566.652 8.633-1.378 9.083-4.533z"/><path fill="#EF58A0" d="M33.71 34.398c.451-3.156-2.886-6.242-7.452-6.893-4.566-.651-8.633 1.378-9.083 4.533-.45 3.156 2.887 6.242 7.453 6.893 4.566.652 8.633-1.378 9.083-4.533z"/><path fill="#fff" d="M25.54 32.206a7.399 7.399 0 10-2.084 14.65 7.399 7.399 0 002.085-14.65zm-1.777 12.48a5.616 5.616 0 111.589-11.119 5.616 5.616 0 01-1.59 11.12z"/><path fill="#BD5397" d="M28.535 34.04c-.218 1.544-1.752 2.594-3.422 2.355-1.67-.24-2.845-1.678-2.626-3.22.218-1.54 1.752-2.592 3.422-2.353 1.67.239 2.848 1.675 2.626 3.218z"/><path fill="#F59DCB" d="M28.07 33.868c-.206 1.456-1.657 2.454-3.237 2.228-1.58-.226-2.691-1.587-2.483-3.044.209-1.456 1.657-2.454 3.237-2.228 1.58.227 2.691 1.588 2.483 3.044z"/><path fill="#EF58A0" d="M46.558 21.302C40.286 5.324 18.87 4.73 7.86 16.292A27.29 27.29 0 019.697 11.4c9.95-10.292 31.183-7.189 36.378 4.667.33 1.726.492 3.48.483 5.236z"/><path fill="#E75397" d="M42.697 15.318c-.453 1.43-6.662-1.269-10.225-5.277-4.353 1.528-11.21-.662-10.757-2.092.453-1.43 6.363-.798 11.153.718 4.79 1.515 10.276 5.22 9.828 6.65z"/><path fill="#EF58A0" d="M42.57 15.516c-2.86-4.565-9.653-5.81-9.653-5.81s-6.602-2.72-11.212-1.626c-.232-.592.478-5.076 3.375-6.931 2.262-1.449 9.245 5.485 9.245 5.485s8.274-.476 9.478 1.606c.993 1.71.237 5.894-1.232 7.276z"/><path fill="#E75397" d="M35.05 8.523c-.574 1.664-1.459 2.506-2.282 2.223-1.436-.494-1.456-1.03-.697-3.247.573-1.667 1.53-2.686 2.596-2.2.79.363.954 1.56.383 3.224z"/><path fill="#EF58A0" d="M34.888 8.463c-.515 1.482-1.286 2.234-2.033 1.982-1.286-.44-1.286-.927-.62-2.897.515-1.482 1.364-2.393 2.316-1.958.7.324.849 1.389.337 2.873z"/><path fill="#8A5D3B" d="M41.233 20.782c-.044.294-.546 1.102-1.184 1.012-.638-.09-1.029 0-.998-.284.03-.283.448-.422 1.086-.329.638.093 1.137-.692 1.096-.399z"/><path fill="#8A5D3B" d="M40.381 19.977c.033.293-.257 1.204-.89 1.287-.633.082-1.004.272-1.03-.021-.025-.293.327-.515.968-.594.64-.08.916-.968.952-.672zM41.624 21.451c-.041.294-.543 1.104-1.184 1.012-.64-.093-1.029 0-.998-.284.03-.282.448-.419 1.086-.329.638.09 1.137-.692 1.096-.399z"/><path fill="#8A5D3B" d="M40.921 25.208c.389-2.72-1.347-5.219-3.877-5.58-2.529-.36-4.894 1.552-5.282 4.273-.388 2.72 1.348 5.219 3.877 5.58 2.53.36 4.894-1.553 5.282-4.273z"/><path fill="#fff" d="M40.564 25.485c.37-2.595-1.284-4.976-3.696-5.32-2.41-.344-4.665 1.48-5.035 4.074-.37 2.594 1.284 4.975 3.695 5.32 2.411.343 4.666-1.48 5.036-4.075z"/><path fill="#26A9E0" d="M39.839 25.713c.312-2.185-1.082-4.19-3.114-4.48-2.03-.29-3.93 1.246-4.242 3.43-.312 2.185 1.082 4.19 3.114 4.48 2.031.29 3.93-1.246 4.242-3.43z"/><path fill="url(#paint4_radial)" d="M38.945 25.753c.279-1.968-.978-3.773-2.807-4.032-1.829-.259-3.537 1.127-3.815 3.095-.279 1.968.978 3.773 2.807 4.032 1.829.259 3.537-1.127 3.815-3.095z"/><path fill="#fff" d="M40.258 26.265a1.148 1.148 0 11-.96-1.381 1.194 1.194 0 01.96 1.381z"/><path fill="#fff" d="M34.754 23.728a.502.502 0 11-.988-.141.499.499 0 11.988.141z" opacity=".7"/><path fill="#8A5D3B" d="M13.968 16.861c-.041.299.219 1.235.87 1.328.65.093 1.016.306 1.06 0 .043-.306-.32-.538-.97-.63-.651-.093-.916-.999-.96-.698z"/><path fill="#8A5D3B" d="M15.033 16.313c-.118.28-.1 1.25.515 1.505.615.255.905.553 1.029.276.123-.278-.173-.602-.772-.857-.6-.255-.656-1.207-.772-.924zM13.394 17.404c-.044.299.219 1.235.87 1.328.65.092 1.029.306 1.057 0 .029-.306-.316-.54-.97-.633-.653-.093-.916-.996-.957-.695z"/><path fill="#8A5D3B" d="M22.346 22.61c.396-2.775-1.374-5.324-3.954-5.692-2.58-.368-4.992 1.584-5.388 4.36-.396 2.774 1.374 5.323 3.954 5.691 2.58.368 4.992-1.584 5.388-4.359z"/><path fill="#fff" d="M22.171 22.923c.378-2.644-1.31-5.072-3.769-5.423s-4.758 1.508-5.135 4.153c-.377 2.645 1.31 5.073 3.769 5.424 2.459.35 4.758-1.509 5.135-4.154z"/><path fill="#26A9E0" d="M21.419 23.155c.318-2.228-1.103-4.274-3.174-4.57-2.07-.295-4.007 1.272-4.325 3.5-.318 2.228 1.103 4.274 3.174 4.57 2.07.295 4.007-1.272 4.325-3.5z"/><path fill="url(#paint5_radial)" d="M21.289 23.399c.286-2.006-.994-3.848-2.86-4.114-1.864-.266-3.609 1.144-3.895 3.15-.286 2.006.994 3.848 2.86 4.114 1.865.266 3.609-1.144 3.895-3.15z"/><path fill="#fff" d="M15.665 22.832c.098-.687-.34-1.319-.979-1.41-.639-.091-1.236.393-1.334 1.08-.098.688.34 1.32.979 1.411.638.091 1.236-.393 1.334-1.08z"/><path fill="#fff" d="M19.474 21.593a.515.515 0 10.581-.471.53.53 0 00-.581.47z" opacity=".7"/><path fill="#8A5D3B" d="M15.2 13.002c-.115.172 1.215-.85 2.774-.69 1.56.16 1.886.603 1.973.415.175-.384-.085-.94-1.644-1.099-1.559-.16-2.82.952-3.103 1.374zM40.425 17.716c.062.198-.929-1.156-2.47-1.436-1.541-.28-1.979.049-2.01-.157-.061-.417.343-.877 1.886-.594 1.544.283 2.44 1.703 2.594 2.187z"/><path fill="#8A5D3B" d="M27.964 26.003c-.074.53-.653-.093-1.461-.209-.808-.115-1.544.322-1.461-.208.082-.53.813-1.016 1.62-.9.808.115 1.382.79 1.302 1.317z" opacity=".2"/><path fill="#E75397" d="M14.169 54.88c.16 5.403-.33 7.78-3.762 8.818-3.826 1.157-7.04-.878-9.44-5.71-2.29-4.61-.362-9.069 4.184-10.422 5.107-1.529 8.856 1.911 9.018 7.314z"/><path fill="#F59DCB" d="M11.364 54.762c.137 4.588-.067 7.402-2.655 8.277-2.887.973-5.827-1.366-7.654-5.483-1.742-3.931.046-7.903 3.476-9.04 3.854-1.28 6.71 1.659 6.833 6.246z"/><path fill="url(#paint6_radial)" d="M4.703 54.25a.708.708 0 11-1.415.04.708.708 0 011.415-.04z"/><path fill="url(#paint7_radial)" d="M7.428 53.16a.705.705 0 11-1.41.04.705.705 0 011.41-.04z"/><path fill="url(#paint8_radial)" d="M8.779 51.034a.708.708 0 11-1.416.04.708.708 0 011.416-.04z"/><path fill="url(#paint9_radial)" d="M4.948 51.147a.708.708 0 11-1.415.046.708.708 0 011.415-.046z"/><path fill="url(#paint10_radial)" d="M9.87 53.759a.708.708 0 11-1.415.045.708.708 0 011.414-.045z"/><path fill="url(#paint11_radial)" d="M2.516 53.08a.707.707 0 11-1.414.045.707.707 0 011.414-.045z"/><path fill="url(#paint12_radial)" d="M6.947 56.133a.708.708 0 11-1.415.046.708.708 0 011.415-.046z"/><path fill="url(#paint13_radial)" d="M8.004 58.928a.705.705 0 11-1.41.04.705.705 0 011.41-.04z"/><path fill="url(#paint14_radial)" d="M3.075 56.046a.705.705 0 11-1.41.04.705.705 0 011.41-.04z"/><path fill="url(#paint15_radial)" d="M10.165 56.91a.708.708 0 11-1.415.046.708.708 0 011.415-.046z"/><path fill="url(#paint16_radial)" d="M10.065 60.345a.708.708 0 11-1.416.046.708.708 0 011.416-.046z"/><path fill="url(#paint17_radial)" d="M7.204 61.372a.707.707 0 11-1.414.045.707.707 0 011.414-.045z"/><path fill="url(#paint18_radial)" d="M4.97 58.68a.707.707 0 11-1.414.046.707.707 0 011.415-.045z"/><path fill="#E75397" d="M14.457 50.566c-2.85-1.6-4.374-1.768-4.662-2.059-.332-.316-.142-2.03 4.662 2.059zM31.494 54.88c-.162 5.403.33 7.78 3.762 8.818 3.826 1.157 7.04-.878 9.437-5.71 2.292-4.61.365-9.069-4.18-10.422-5.11-1.529-8.86 1.911-9.019 7.314z"/><path fill="#F59DCB" d="M34.299 54.762c-.14 4.588.064 7.402 2.655 8.277 2.887.973 5.825-1.366 7.652-5.483 1.744-3.931-.047-7.903-3.476-9.04-3.855-1.28-6.695 1.659-6.831 6.246z"/><path fill="url(#paint19_radial)" d="M40.957 54.25a.708.708 0 101.416.04.708.708 0 00-1.416-.04z"/><path fill="url(#paint20_radial)" d="M38.233 53.16a.707.707 0 101.413.045.707.707 0 00-1.413-.046z"/><path fill="url(#paint21_radial)" d="M36.885 51.034a.705.705 0 101.409.036.705.705 0 00-1.41-.036z"/><path fill="url(#paint22_radial)" d="M40.715 51.147a.705.705 0 101.41.04.705.705 0 00-1.41-.04z"/><path fill="url(#paint23_radial)" d="M35.794 53.759a.705.705 0 101.409.04.705.705 0 00-1.41-.04z"/><path fill="url(#paint24_radial)" d="M43.144 53.08a.705.705 0 101.41.04.705.705 0 00-1.41-.04z"/><path fill="url(#paint25_radial)" d="M38.716 56.133a.704.704 0 101.408.042.704.704 0 00-1.408-.041z"/><path fill="url(#paint26_radial)" d="M37.656 58.928a.706.706 0 001.192.538.708.708 0 10-1.192-.538z"/><path fill="url(#paint27_radial)" d="M42.586 56.046a.707.707 0 101.413.046.707.707 0 00-1.413-.046z"/><path fill="url(#paint28_radial)" d="M35.498 56.91a.705.705 0 101.409.041.705.705 0 00-1.41-.04z"/><path fill="url(#paint29_radial)" d="M35.596 60.345a.707.707 0 101.413.046.707.707 0 00-1.413-.046z"/><path fill="url(#paint30_radial)" d="M38.46 61.372a.704.704 0 001.39.178.705.705 0 10-1.39-.178z"/><path fill="url(#paint31_radial)" d="M40.692 58.68a.705.705 0 101.41.041.705.705 0 00-1.41-.04z"/><path fill="#E75397" d="M31.206 50.566c2.848-1.6 4.374-1.768 4.66-2.059.331-.316.141-2.03-4.66 2.059z"/><path fill="#F8CAC3" d="M34.324 47.8c.909.877 2.352-1.801 3.253.579.617 1.636 1.59.643 1.865-.075.257 1.706 1.567 1.354 1.824.232.105 1.358 1.482 1.708 1.672.136.306 1.402 1.318 1.433 1.287.456-.075-1.894-1.976-5.324-5.9-5.017-2.784.22-5.215 2.536-4 3.689z"/><path fill="url(#paint32_radial)" d="M15.409 47.718c.288.805 0 1.641-.626 1.87-.635.23-1.384-.236-1.674-1.042l-5.635-15.65c-.29-.806 0-1.642.623-1.87.635-.23 1.384.236 1.675 1.041l5.637 15.65z"/><path fill="url(#paint33_radial)" d="M14.619 27.758a7.1 7.1 0 01.195 2.03A7.253 7.253 0 012.117 34.25a7.15 7.15 0 01-1.286-2.107 1.406 1.406 0 01-.067-.172c-.015-.031-.026-.065-.039-.098a6.693 6.693 0 01-.151-.489 7.113 7.113 0 01-.258-2.315 7.256 7.256 0 0114.143-1.863c.062.18.126.365.16.55z"/><path fill="#fff" d="M14.619 27.758a7.106 7.106 0 01.195 2.03c-.79 1.909-2.634 3.684-5.13 4.674-2.781 1.102-5.66.945-7.567-.21a7.15 7.15 0 01-1.286-2.108 1.401 1.401 0 01-.067-.172c1.801 1.8 5.233 2.28 8.537.967 2.712-1.078 4.662-3.082 5.318-5.181z" opacity=".5"/><path fill="#fff" d="M10.06 24.798c.46 1.153-.772 2.73-2.769 3.523-1.996.792-3.972.499-4.43-.651-.458-1.15.772-2.73 2.768-3.523 1.997-.792 3.973-.499 4.43.651z" opacity=".4"/><path fill="#F8CAC3" d="M11.845 38.345c1.709.257 1.163 1.469.34 1.906 2.03.23 1.716 2.059.42 2.501 1.605.03 2.127 1.901.293 2.295 1.675.309 1.8 1.7.638 1.729-2.234.054-4.631-.515-5.234-4.744-.265-1.891 1.096-4.042 3.543-3.687z"/><defs><radialGradient id="paint0_radial" cx="0" cy="0" r="1" gradientTransform="translate(23.004 50.03) scale(15.2751)" gradientUnits="userSpaceOnUse"><stop stop-color="#EF58A0"/><stop offset="1" stop-color="#EF58A0"/></radialGradient><radialGradient id="paint1_radial" cx="0" cy="0" r="1" gradientTransform="translate(24.084 49.24) scale(1.47425)" gradientUnits="userSpaceOnUse"><stop stop-color="#E5BCFF"/><stop offset="1" stop-color="#E5BCFF"/></radialGradient><radialGradient id="paint2_radial" cx="0" cy="0" r="1" gradientTransform="matrix(24.7615 0 0 27.2293 2209.16 1841.79)" gradientUnits="userSpaceOnUse"><stop stop-color="#E5BCFF"/><stop offset="1" stop-color="#E5BCFF"/></radialGradient><radialGradient id="paint3_radial" cx="0" cy="0" r="1" gradientTransform="matrix(12.3859 0 0 13.6759 1569.05 1159.07)" gradientUnits="userSpaceOnUse"><stop stop-color="#E5BCFF"/><stop offset="1" stop-color="#E5BCFF"/></radialGradient><radialGradient id="paint4_radial" cx="0" cy="0" r="1" gradientTransform="rotate(8.049 -161.849 265.843) scale(3.47285)" gradientUnits="userSpaceOnUse"><stop stop-color="#404041"/><stop offset="1" stop-color="#231F20"/></radialGradient><radialGradient id="paint5_radial" cx="0" cy="0" r="1" gradientTransform="rotate(-171.88 -671.34 1284.979) scale(101.042 93.956)" gradientUnits="userSpaceOnUse"><stop stop-color="#404041"/><stop offset="1" stop-color="#231F20"/></radialGradient><radialGradient id="paint6_radial" cx="0" cy="0" r="1" gradientTransform="matrix(3.87732 0 0 3.8775 781.37 704.006)" gradientUnits="userSpaceOnUse"><stop stop-color="#EF58A0"/><stop offset="1" stop-color="#EF58A0"/></radialGradient><radialGradient id="paint7_radial" cx="0" cy="0" r="1" gradientTransform="matrix(3.86322 0 0 3.86345 796.201 694.583)" gradientUnits="userSpaceOnUse"><stop stop-color="#EF58A0"/><stop offset="1" stop-color="#EF58A0"/></radialGradient><radialGradient id="paint8_radial" cx="0" cy="0" r="1" gradientTransform="translate(807.855 683.069) scale(3.87729)" gradientUnits="userSpaceOnUse"><stop stop-color="#EF58A0"/><stop offset="1" stop-color="#EF58A0"/></radialGradient><radialGradient id="paint9_radial" cx="0" cy="0" r="1" gradientTransform="translate(782.955 683.81) scale(3.8773)" gradientUnits="userSpaceOnUse"><stop stop-color="#EF58A0"/><stop offset="1" stop-color="#EF58A0"/></radialGradient><radialGradient id="paint10_radial" cx="0" cy="0" r="1" gradientTransform="translate(814.935 700.78) scale(3.87731)" gradientUnits="userSpaceOnUse"><stop stop-color="#EF58A0"/><stop offset="1" stop-color="#EF58A0"/></radialGradient><radialGradient id="paint11_radial" cx="0" cy="0" r="1" gradientTransform="translate(767.139 696.315) scale(3.87731)" gradientUnits="userSpaceOnUse"><stop stop-color="#EF58A0"/><stop offset="1" stop-color="#EF58A0"/></radialGradient><radialGradient id="paint12_radial" cx="0" cy="0" r="1" gradientTransform="translate(795.938 716.223) scale(3.87731)" gradientUnits="userSpaceOnUse"><stop stop-color="#EF58A0"/><stop offset="1" stop-color="#EF58A0"/></radialGradient><radialGradient id="paint13_radial" cx="0" cy="0" r="1" gradientTransform="matrix(3.86318 0 0 3.86343 799.928 731.96)" gradientUnits="userSpaceOnUse"><stop stop-color="#EF58A0"/><stop offset="1" stop-color="#EF58A0"/></radialGradient><radialGradient id="paint14_radial" cx="0" cy="0" r="1" gradientTransform="translate(767.992 713.251) scale(3.86322)" gradientUnits="userSpaceOnUse"><stop stop-color="#EF58A0"/><stop offset="1" stop-color="#EF58A0"/></radialGradient><radialGradient id="paint15_radial" cx="0" cy="0" r="1" gradientTransform="translate(816.86 721.28) scale(3.87732)" gradientUnits="userSpaceOnUse"><stop stop-color="#EF58A0"/><stop offset="1" stop-color="#EF58A0"/></radialGradient><radialGradient id="paint16_radial" cx="0" cy="0" r="1" gradientTransform="matrix(3.87729 0 0 3.87753 816.216 743.635)" gradientUnits="userSpaceOnUse"><stop stop-color="#EF58A0"/><stop offset="1" stop-color="#EF58A0"/></radialGradient><radialGradient id="paint17_radial" cx="0" cy="0" r="1" gradientTransform="translate(797.609 750.265) scale(3.87731)" gradientUnits="userSpaceOnUse"><stop stop-color="#EF58A0"/><stop offset="1" stop-color="#EF58A0"/></radialGradient><radialGradient id="paint18_radial" cx="0" cy="0" r="1" gradientTransform="translate(783.093 732.776) scale(3.87731)" gradientUnits="userSpaceOnUse"><stop stop-color="#EF58A0"/><stop offset="1" stop-color="#EF58A0"/></radialGradient><radialGradient id="paint19_radial" cx="0" cy="0" r="1" gradientTransform="translate(1026.2 703.968) scale(3.87729)" gradientUnits="userSpaceOnUse"><stop stop-color="#EF58A0"/><stop offset="1" stop-color="#EF58A0"/></radialGradient><radialGradient id="paint20_radial" cx="0" cy="0" r="1" gradientTransform="translate(1008.49 696.89) scale(3.87733)" gradientUnits="userSpaceOnUse"><stop stop-color="#EF58A0"/><stop offset="1" stop-color="#EF58A0"/></radialGradient><radialGradient id="paint21_radial" cx="0" cy="0" r="1" gradientTransform="matrix(3.86323 0 0 3.86342 996.221 680.803)" gradientUnits="userSpaceOnUse"><stop stop-color="#EF58A0"/><stop offset="1" stop-color="#EF58A0"/></radialGradient><radialGradient id="paint22_radial" cx="0" cy="0" r="1" gradientTransform="matrix(3.86324 0 0 3.86345 1021.05 681.545)" gradientUnits="userSpaceOnUse"><stop stop-color="#EF58A0"/><stop offset="1" stop-color="#EF58A0"/></radialGradient><radialGradient id="paint23_radial" cx="0" cy="0" r="1" gradientTransform="matrix(3.86324 0 0 3.8634 989.154 698.459)" gradientUnits="userSpaceOnUse"><stop stop-color="#EF58A0"/><stop offset="1" stop-color="#EF58A0"/></radialGradient><radialGradient id="paint24_radial" cx="0" cy="0" r="1" gradientTransform="translate(1036.8 693.972) scale(3.86324)" gradientUnits="userSpaceOnUse"><stop stop-color="#EF58A0"/><stop offset="1" stop-color="#EF58A0"/></radialGradient><radialGradient id="paint25_radial" cx="0" cy="0" r="1" gradientTransform="matrix(3.86324 0 0 3.8634 1008.09 713.848)" gradientUnits="userSpaceOnUse"><stop stop-color="#EF58A0"/><stop offset="1" stop-color="#EF58A0"/></radialGradient><radialGradient id="paint26_radial" cx="0" cy="0" r="1" gradientTransform="translate(1004.75 734.377) scale(3.87733)" gradientUnits="userSpaceOnUse"><stop stop-color="#EF58A0"/><stop offset="1" stop-color="#EF58A0"/></radialGradient><radialGradient id="paint27_radial" cx="0" cy="0" r="1" gradientTransform="translate(1036.77 715.649) scale(3.87729)" gradientUnits="userSpaceOnUse"><stop stop-color="#EF58A0"/><stop offset="1" stop-color="#EF58A0"/></radialGradient><radialGradient id="paint28_radial" cx="0" cy="0" r="1" gradientTransform="translate(987.216 718.863) scale(3.86316)" gradientUnits="userSpaceOnUse"><stop stop-color="#EF58A0"/><stop offset="1" stop-color="#EF58A0"/></radialGradient><radialGradient id="paint29_radial" cx="0" cy="0" r="1" gradientTransform="translate(991.347 743.598) scale(3.87729)" gradientUnits="userSpaceOnUse"><stop stop-color="#EF58A0"/><stop offset="1" stop-color="#EF58A0"/></radialGradient><radialGradient id="paint30_radial" cx="0" cy="0" r="1" gradientTransform="translate(1006.42 747.757) scale(3.86323)" gradientUnits="userSpaceOnUse"><stop stop-color="#EF58A0"/><stop offset="1" stop-color="#EF58A0"/></radialGradient><radialGradient id="paint31_radial" cx="0" cy="0" r="1" gradientTransform="translate(1020.89 730.322) scale(3.8632)" gradientUnits="userSpaceOnUse"><stop stop-color="#EF58A0"/><stop offset="1" stop-color="#EF58A0"/></radialGradient><radialGradient id="paint32_radial" cx="0" cy="0" r="1" gradientTransform="matrix(228.565 0 0 523.222 4730.28 7602.84)" gradientUnits="userSpaceOnUse"><stop stop-color="#E5BCFF"/><stop offset="1" stop-color="#E5BCFF"/></radialGradient><radialGradient id="paint33_radial" cx="0" cy="0" r="1" gradientTransform="matrix(409.356 0 0 409.287 8183.36 5293.88)" gradientUnits="userSpaceOnUse"><stop stop-color="#E5BCFF"/><stop offset="1" stop-color="#E5BCFF"/></radialGradient></defs></svg>