<svg xmlns="http://www.w3.org/2000/svg" fill="none" viewBox="0 0 159 159"><circle cx="79.5" cy="79.5" r="79.5" fill="#B8B8B8"/><g fill="#fff" clip-path="url(#clip0)"><path d="M116.855 55.313c-1.587-1.662-3.778-2.645-6.272-2.645H98.038v-.15c0-1.89-.756-3.703-2.04-4.913a6.914 6.914 0 00-4.912-2.04H68.414c-1.964 0-3.703.756-4.987 2.04a6.914 6.914 0 00-2.04 4.912v.151h-12.47c-2.494 0-4.685.983-6.272 2.645C41.058 56.9 40 59.168 40 61.587V99.22c0 2.494.982 4.685 2.645 6.272 1.587 1.587 3.854 2.645 6.272 2.645h61.666c2.494 0 4.685-.982 6.272-2.645 1.587-1.587 2.645-3.854 2.645-6.272V61.586c0-2.494-.982-4.685-2.645-6.273zM115.57 99.22h-.075c0 1.36-.529 2.569-1.436 3.476a4.851 4.851 0 01-3.476 1.436H48.917a4.85 4.85 0 01-3.476-1.436 4.852 4.852 0 01-1.436-3.476V61.586c0-1.36.53-2.57 1.436-3.476a4.851 4.851 0 013.476-1.436h14.585c1.134 0 2.04-.907 2.04-2.04v-2.192c0-.831.303-1.587.832-2.116.529-.53 1.285-.831 2.116-.831h22.596c.83 0 1.587.302 2.115.83.53.53.832 1.286.832 2.117v2.191c0 1.134.907 2.04 2.04 2.04h14.585c1.361 0 2.57.53 3.477 1.437a4.854 4.854 0 011.435 3.476V99.22z"/><path d="M79.75 61.812a18.623 18.623 0 00-13.15 5.441c-3.4 3.4-5.44 8.01-5.44 13.15 0 5.138 2.116 9.823 5.44 13.149 3.401 3.4 8.011 5.44 13.15 5.44 5.139 0 9.824-2.115 13.15-5.44 3.4-3.401 5.44-8.01 5.44-13.15 0-5.139-2.115-9.824-5.44-13.149a18.623 18.623 0 00-13.15-5.441zm10.278 28.944c-2.645 2.569-6.273 4.231-10.278 4.231-4.005 0-7.632-1.662-10.278-4.231-2.644-2.645-4.231-6.273-4.231-10.278 0-4.005 1.662-7.633 4.231-10.278 2.646-2.645 6.273-4.232 10.278-4.232 4.005 0 7.633 1.663 10.278 4.232 2.645 2.645 4.232 6.273 4.232 10.278.075 4.005-1.587 7.633-4.232 10.278zM106.653 69.143a3.703 3.703 0 100-7.406 3.703 3.703 0 000 7.406z"/></g><defs><clipPath id="clip0"><path fill="#fff" d="M40 37.1h79.5v79.5H40z"/></clipPath></defs></svg>