<svg xmlns="http://www.w3.org/2000/svg" fill="none" viewBox="0 0 13 13"><path fill="#444" d="M6.5 0A6.507 6.507 0 000 6.5C0 10.084 2.916 13 6.5 13S13 10.084 13 6.5 10.084 0 6.5 0zm0 12.458A5.965 5.965 0 01.542 6.5 5.965 5.965 0 016.5.542 5.965 5.965 0 0112.458 6.5 5.965 5.965 0 016.5 12.458z"/><path fill="#444" d="M9.129 3.871a.27.27 0 00-.383 0L6.5 6.117 4.254 3.871a.27.27 0 10-.383.383L6.117 6.5 3.87 8.746a.27.27 0 10.383.383L6.5 6.883l2.246 2.246a.27.27 0 00.383 0 .27.27 0 000-.383L6.883 6.5l2.246-2.246a.27.27 0 000-.383z"/></svg>