<svg xmlns="http://www.w3.org/2000/svg" width="90" height="75" fill="none"><path fill="#FF90C6" fill-rule="evenodd" d="M75.943 0C83.707 0 90 6.277 90 14.018c0 5.61-3.311 10.434-8.083 12.675a34.392 34.392 0 012.172 12.031C84.09 58.76 66.884 75 45.66 75 24.437 75 7.232 58.759 7.232 38.724c0-4.04.71-7.923 2.001-11.553C3.85 25.206 0 20.067 0 14.018 0 6.277 6.293 0 14.057 0a14.06 14.06 0 0112.357 7.33c5.66-3.1 12.231-4.883 19.246-4.883 6.607 0 12.823 1.576 18.252 4.347C66.374 2.728 70.834 0 75.942 0zM28.268 20.432c3.33-.555 6.512 1.868 7.106 5.413.301 1.796-.122 3.535-1.043 4.887v-.019a3.51 3.51 0 00-.036-.585c-.37-2.208-2.587-3.68-4.951-3.285-2.364.395-3.981 2.504-3.61 4.713.032.19.09.366.15.542l.012.04c-1.312-.979-2.28-2.485-2.58-4.281-.595-3.546 1.623-6.87 4.952-7.425zm32.856-.06c-3.367-.258-6.319 2.44-6.594 6.024-.14 1.815.438 3.51 1.477 4.773a3.835 3.835 0 01-.02-.604c.173-2.232 2.249-3.895 4.639-3.713 2.39.183 4.189 2.142 4.018 4.374-.016.2-.062.388-.107.576l-.005.018c1.221-1.092 2.05-2.677 2.189-4.494.274-3.584-2.231-6.698-5.597-6.955zM28.131 45.082c0-7.326 7.552-13.265 16.869-13.265s16.869 5.939 16.869 13.265c0 7.327-7.552 13.266-16.869 13.266S28.131 52.41 28.131 45.083zm16.87-9.202c4.419 0 8.002 2.48 8.002 5.538 0 3.059-3.583 5.538-8.003 5.538s-8.002-2.48-8.002-5.538c0-3.058 3.582-5.538 8.002-5.538z" clip-rule="evenodd"/></svg>