<svg xmlns="http://www.w3.org/2000/svg" xmlns:xlink="http://www.w3.org/1999/xlink" width="138" height="35"><defs><filter id="a" width="200%" height="200%" x="-50%" y="-50%" filterUnits="objectBoundingBox"><feOffset dy="2" in="SourceAlpha" result="shadowOffsetOuter1"/><feGaussianBlur in="shadowOffsetOuter1" result="shadowBlurOuter1" stdDeviation="2"/><feColorMatrix in="shadowBlurOuter1" values="0 0 0 0 0 0 0 0 0 0 0 0 0 0 0 0 0 0 0.0546591938 0"/></filter><path id="b" fill="#fff" d="M117.195 6.905h-1.889v-.598c0-1.133-.935-2.06-2.079-2.06-1.143 0-2.079.927-2.079 2.06v7.55c0 4.476 4.146 5.987 4.146 5.987 1.344.596 2.86-.394 2.86-1.853v-.085c0-.798-.482-1.506-1.21-1.846a2.823 2.823 0 01-1.638-2.51v-2.524h1.89c1.143 0 2.078-.927 2.078-2.06 0-1.134-.935-2.061-2.079-2.061zm-22.332-.557a2.327 2.327 0 00-3.154.837l-3.452 5.927-3.452-5.927a2.327 2.327 0 00-3.154-.837 2.284 2.284 0 00-.845 3.126l5.431 9.324a2.318 2.318 0 002.02 1.141 2.318 2.318 0 002.02-1.141l5.432-9.324a2.284 2.284 0 00-.846-3.126zm31.58-.305c-3.623 0-6.559 2.91-6.559 6.5-.005.269 0 .679 0 .679 0 3.59 2.936 6.5 6.558 6.5.832 0 1.628-.154 2.36-.435 1.423-.544 1.676-2.434.455-3.34a1.932 1.932 0 00-1.842-.263 2.68 2.68 0 01-.973.181 2.67 2.67 0 01-2.369-1.428 2.384 2.384 0 01-.15-.353H131.446c.854 0 1.554-.683 1.555-1.53.006-3.595-2.932-6.511-6.558-6.511zm-2.231 5.05a2.67 2.67 0 012.23-1.194 2.67 2.67 0 012.231 1.195h-4.461zm-21.138-5.038c-3.823 0-6.921 3.071-6.921 6.86 0 3.788 3.098 6.86 6.92 6.86 3.823 0 6.922-3.072 6.922-6.86 0-3.789-3.099-6.86-6.921-6.86zm0 9.65c-1.555 0-2.815-1.25-2.815-2.79 0-1.541 1.26-2.79 2.815-2.79 1.554 0 2.815 1.249 2.815 2.79 0 1.54-1.26 2.79-2.815 2.79zM61.632 8.169c0-1.133-.936-2.06-2.08-2.06-1.143 0-2.079.927-2.079 2.06l-.002 5.514a2.83 2.83 0 01-2.824 2.53c-1.568 0-2.838-1.26-2.838-2.814l.006-5.295c0-1.134-.936-2.061-2.08-2.061-1.143 0-2.078.927-2.078 2.06l.01 5.296c0 3.82 3.125 6.917 6.98 6.917 1.004 0 1.959-.21 2.821-.589v1.081c0 .055.003.11.007.164a2.79 2.79 0 01-1.612 2.341c-.72.335-1.194 1.036-1.194 1.824v.082c0 1.44 1.496 2.418 2.823 1.83 2.266-1.006 3.887-3.185 4.075-5.757.039-.155.06-.317.06-.484l.005-12.639zM34.905 20.045c.675 0 1.278-.324 1.658-.822a6.989 6.989 0 003.3.822c3.848 0 6.969-3.093 6.969-6.908 0-3.815-3.12-6.908-6.97-6.908-1.026 0-2 .22-2.878.614V2.061C36.984.927 36.05 0 34.905 0c-1.143 0-2.079.927-2.079 2.06v15.924c0 1.133.936 2.06 2.08 2.06zm4.957-9.718c1.566 0 2.835 1.258 2.835 2.81s-1.27 2.81-2.835 2.81-2.835-1.258-2.835-2.81 1.27-2.81 2.835-2.81zM24.8 19.86a6.99 6.99 0 003.269-.806c.38.49.977.806 1.645.806 1.144 0 2.08-.927 2.08-2.06V8.103c0-1.134-.936-2.061-2.08-2.061-.668 0-1.264.317-1.645.806a6.988 6.988 0 00-3.269-.806c-3.849 0-6.97 3.093-6.97 6.908 0 3.815 3.121 6.908 6.97 6.908zm0-9.718c1.566 0 2.835 1.258 2.835 2.81s-1.269 2.81-2.835 2.81c-1.565 0-2.834-1.258-2.834-2.81s1.269-2.81 2.834-2.81zM5.08 20.045c.663 0 1.256-.313 1.638-.797.97.508 2.077.797 3.252.797 3.85 0 6.97-3.093 6.97-6.908 0-3.815-3.12-6.908-6.97-6.908-1 0-1.952.21-2.812.585V2.061C7.158.927 6.223 0 5.08 0 3.936 0 3 .927 3 2.06v15.924c0 1.133.936 2.06 2.08 2.06zm4.89-9.718c1.565 0 2.835 1.258 2.835 2.81s-1.27 2.81-2.835 2.81a2.826 2.826 0 01-2.812-2.457v-.707a2.826 2.826 0 012.812-2.456zm69.869-1.38a2.7 2.7 0 00-5.016-1.391 7.698 7.698 0 00-3.51-.837 7.681 7.681 0 00-3.701.94 2.703 2.703 0 00-2.376-1.411 2.7 2.7 0 00-2.703 2.698c0 1.164.74 2.154 1.775 2.532a6.622 6.622 0 00-.385 2.224c0 3.856 3.309 6.982 7.39 6.982 4.08 0 7.39-3.126 7.39-6.982 0-.812-.149-1.591-.418-2.316a2.696 2.696 0 001.554-2.44zm-4.476 2.56a1.29 1.29 0 01-.421.866c.009-.038.018-.075.021-.115.033-.43-.313-.806-.772-.842-.46-.035-.86.285-.892.715-.003.04 0 .078.003.116a1.29 1.29 0 01-.284-.918c.053-.69.621-1.21 1.268-1.16.648.05 1.13.649 1.077 1.339zm-4.177 5.972c-1.792 0-3.244-1.143-3.244-2.554 0-1.41 1.452-2.553 3.244-2.553 1.791 0 3.244 1.143 3.244 2.553s-1.453 2.554-3.244 2.554zm0-4.325c-.85 0-1.539.478-1.539 1.066 0 .589.689 1.066 1.539 1.066s1.539-.477 1.539-1.066c0-.588-.69-1.066-1.54-1.066zm-3.705-.832c.007.039.02.075.031.112a1.29 1.29 0 01-.496-.824c-.114-.683.312-1.322.953-1.43.64-.106 1.252.36 1.366 1.043a1.29 1.29 0 01-.2.94c0-.039 0-.077-.008-.116-.07-.425-.497-.708-.952-.632-.454.076-.765.482-.694.907z"/></defs><g transform="translate(1 2)"><use filter="url(#a)" xlink:href="#b"/><use xlink:href="#b"/></g></svg>