<svg xmlns="http://www.w3.org/2000/svg" xmlns:xlink="http://www.w3.org/1999/xlink" id="Layer_1" viewBox="0 0 128 128"><circle cx="64" cy="64" r="64" fill="#9257a2"/><defs><circle id="SVGID_1_" cx="64" cy="64" r="64"/></defs><clipPath id="SVGID_2_"><use overflow="visible" xlink:href="#SVGID_1_"/></clipPath><path fill="#764b8f" d="M26.3 95.2L58.8 128H128V67.9l-26.3-26.3z" clip-path="url(#SVGID_2_)"/><path d="M61.8 23.2L38 41h3.1l21.5-17.5zm4.4 0L90 41h-3.2L65.4 23.5z" class="st2"/><circle cx="64.8" cy="23.8" r="3.9" class="st2"/><path fill="none" stroke="#dfd8eb" stroke-miterlimit="10" d="M32.2 42.1L64 21.8l31.8 20.3"/><circle cx="63.9" cy="21.9" r="3.9" fill="#a8ce38"/><path fill="#2bc3ef" d="M97.9 39.9h-68c-2.8 0-5 2.2-5 5v46.8c0 2.8 2.2 5 5 5h68c2.8 0 5-2.2 5-5V44.9c0-2.8-2.2-5-5-5z"/><defs><path id="SVGID_3_" d="M97.9 39.9h-68c-2.8 0-5 2.2-5 5v46.8c0 2.8 2.2 5 5 5h68c2.8 0 5-2.2 5-5V44.9c0-2.8-2.2-5-5-5z"/></defs><clipPath id="SVGID_4_"><use overflow="visible" xlink:href="#SVGID_3_"/></clipPath><path fill="#6ecef1" d="M16.8 68.2c0-4.3 3.5-7.9 7.9-7.9.9 0 1.7.2 2.5.4.7-5.7 5.6-10.1 11.5-10.1 6.4 0 11.6 5.2 11.6 11.6 0 .5 0 1-.1 1.5 1.3-.9 2.8-1.4 4.5-1.4 1.1 0 2.2.2 3.2.7v-.8c0-4.3 3.5-7.9 7.9-7.9 2.5 0 4.7 1.2 6.2 3 1.9-.6 4-1 6.1-1 5.2 0 9.9 2 13.4 5.3 1.2-.8 2.7-1.3 4.4-1.3 4.3 0 7.9 3.5 7.9 7.8 0 .4.2 1.1.1 1.1h-.3v28.5h-87V69.3h.5c-.3 0-.3-.7-.3-1.1z" clip-path="url(#SVGID_4_)"/><defs><path id="SVGID_5_" d="M97.9 39.9h-68c-2.8 0-5 2.2-5 5v46.8c0 2.8 2.2 5 5 5h68c2.8 0 5-2.2 5-5V44.9c0-2.8-2.2-5-5-5z"/></defs><clipPath id="SVGID_6_"><use overflow="visible" xlink:href="#SVGID_5_"/></clipPath><g clip-path="url(#SVGID_6_)"><path fill="#ecebeb" d="M19.1 97.3l42.5.1-21.1-20.8z"/><path fill="#c9d4e8" d="M40.5 76.6L44.6 87l-6 4.4 4.1 1.2 2.9 4.8h16z"/><path fill="#fffffa" d="M41.7 97.3l68.3.1-33.9-33.6z"/><path fill="#d2deee" d="M76.1 63.8l6.5 16.8-9.6 7.1 6.7 1.9 4.5 7.8H110z"/></g><g><circle cx="47.7" cy="58.9" r="11.8" fill="#fff365"/><circle cx="47.7" cy="58.9" r="7.8" fill="#ffcd03"/><circle cx="47.7" cy="58.9" r="3.8" fill="#fff9c3"/></g></svg>