<svg xmlns="http://www.w3.org/2000/svg" fill="none" viewBox="0 0 24 24"><g fill="#7A7A7A" clip-path="url(#clip0)"><path d="M23.737 10.311l-3.453-1.747L21.498 4.9a.48.48 0 00-.116-.49L19.59 2.618a.482.482 0 00-.49-.116l-3.667 1.21L13.69.263A.48.48 0 0013.261 0h-2.522a.48.48 0 00-.428.263L8.567 3.711 4.899 2.502a.482.482 0 00-.49.116L2.62 4.41a.48.48 0 00-.117.49l1.214 3.664-3.453 1.747A.48.48 0 000 10.74v2.522c0 .18.102.346.263.428l3.445 1.743-1.206 3.67a.48.48 0 00.116.488l1.792 1.792a.48.48 0 00.49.116l3.667-1.209 1.744 3.448a.48.48 0 00.428.263h2.522a.48.48 0 00.428-.263l1.744-3.448 3.668 1.21a.48.48 0 00.49-.117l1.79-1.792a.48.48 0 00.117-.489l-1.207-3.669 3.446-1.743a.48.48 0 00.263-.428v-2.522a.48.48 0 00-.263-.428zm-.697 2.655l-3.415 1.727a.48.48 0 00-.232.26l-.087.216a.478.478 0 00-.007.32l1.195 3.631-1.373 1.374-3.623-1.194a.48.48 0 00-.302 0c-.05.017-.098.036-.145.055-.027.011-.054.023-.082.032a.48.48 0 00-.276.239l-1.727 3.414h-1.932l-1.727-3.414a.48.48 0 00-.275-.239l-.082-.031a2.07 2.07 0 00-.146-.056.477.477 0 00-.302 0L4.88 20.494 3.506 19.12 4.7 15.489a.48.48 0 00-.006-.318l-.088-.22a.481.481 0 00-.232-.258L.96 12.966v-1.932l3.414-1.727a.478.478 0 00.233-.259c.02-.055.048-.117.076-.173a.48.48 0 00.026-.365L3.506 4.88 4.88 3.506l3.623 1.195a.477.477 0 00.303-.001c.05-.017.096-.035.143-.055l.082-.032a.48.48 0 00.277-.238L11.034.96h1.932l1.727 3.414c.057.114.157.2.277.24.029.009.055.02.083.032.046.019.093.037.142.054a.477.477 0 00.303 0l3.623-1.194 1.373 1.373L19.29 8.51a.48.48 0 00.026.366c.028.055.055.116.076.17a.48.48 0 00.233.261l3.414 1.727v1.932z"/><path d="M12.001 6.99a5.014 5.014 0 00-5.008 5.008A5.014 5.014 0 0012 17.008a5.014 5.014 0 005.009-5.009A5.014 5.014 0 0012 6.99zm0 9.057a4.053 4.053 0 01-4.048-4.049 4.053 4.053 0 014.048-4.048 4.053 4.053 0 014.049 4.048A4.053 4.053 0 0112 16.047z"/></g><defs><clipPath id="clip0"><path fill="#fff" d="M0 0h24v24H0z"/></clipPath></defs></svg>