<svg xmlns="http://www.w3.org/2000/svg" width="26" height="24" fill="none"><circle cx="13" cy="12" r="12" fill="#927ABC"/><circle cx="13" cy="12" r="11.85" fill="#fff" stroke="#927ABC" stroke-width=".3"/><circle cx="13" cy="12" r="10.75" fill="#fff" stroke="#927ABC" stroke-width=".5"/><path fill="#927ABC" d="M6.23 20.67a10.999 10.999 0 009.179 2.063L13 12l-6.77 8.67zM4.073 5.573a11 11 0 00-1.93 8.195L13 12 4.073 5.573zM10.793 1.224A11 11 0 0120.42 3.88L13 12 10.793 1.224zM23.875 10.35a11 11 0 01-2.018 8.173L13 12l10.875-1.65z"/><circle cx="13" cy="12" r=".9" fill="#927ABC" stroke="#612DBC" stroke-width=".2"/></svg>