<svg xmlns="http://www.w3.org/2000/svg" preserveAspectRatio="none" viewBox="0 0 200 200"><g fill="#D8D8D8" fill-rule="evenodd" opacity=".273"><path d="M100.703 132L83-26h36.91z"/><path d="M100.7 116.068l17.236 162.53H82M99.53 122.7L-63 139.936V104"/><path d="M102.374 124.46L-47 58.122-29.032 27"/><path d="M101.352 124.496L-9.724-26.2l37.639-21.73z"/><path d="M100.46 122.35L34.122 271.724 3 253.755"/><path d="M103.105 121.195l-132.137 96.192L-47 186.265"/><path d="M99 123.236L261.53 106v35.936"/><path d="M100.332 125.684L164-20l31.965 18.455z"/><path d="M101.195 121.618l96.192 132.137-31.122 17.969M102.618 123.192L234.755 27l17.969 31.122"/><path d="M101.35 122.927l18.057 7.47 131.317 58.868-17.969 31.122"/></g></svg>