<svg width="22" height="22" fill="none" xmlns="http://www.w3.org/2000/svg"><path fill-rule="evenodd" clip-rule="evenodd" d="M5.805 21.694a3.116 3.116 0 01-2.02-.708c-2.419-1.977-1.373-6.006-.86-7.528C1.82 12.568-.53 10.366.108 8.243.858 5.8 4.531 4.928 5.965 4.68 6.46 3.372 8.025 0 10.868 0c2.844 0 4.176 3.201 4.617 4.544 1.462.175 5.084.868 6.004 3.518.92 2.65-1.414 4.685-2.572 5.524.616 1.569 1.83 5.575-.77 7.16a3.484 3.484 0 01-1.831.498c-2.007 0-4.068-1.554-5.077-2.437-1.069 1.018-3.304 2.887-5.434 2.887z" fill="#fff"/><path d="M10.88.823c2.884 0 3.95 4.483 3.95 4.483s4.895.238 5.86 3.016c.966 2.777-2.816 4.956-2.816 4.956s2.448 5.177-.174 6.77c-2.622 1.595-6.489-2.398-6.489-2.398s-4.372 4.762-6.889 2.706c-2.517-2.056-.402-7.174-.402-7.174S.266 10.584.91 8.481c.754-2.45 5.684-3.067 5.684-3.067S7.994.809 10.88.823z" fill="#FD0"/><path d="M10.88.823c2.884 0 3.95 4.483 3.95 4.483s4.895.238 5.86 3.016c.966 2.777-2.816 4.956-2.816 4.956s2.448 5.177-.174 6.77c-2.622 1.595-6.489-2.398-6.489-2.398s-4.372 4.762-6.889 2.706c-2.517-2.056-.402-7.174-.402-7.174S.266 10.584.91 8.481c.754-2.45 5.684-3.067 5.684-3.067S7.994.809 10.88.823z" fill="url(#paint0_radial)"/><path d="M11.648 17.818c.071-.224 4.832 1.663 6.157-1.148 1.677-3.571 2.238 8.192-6.157 1.148z" fill="url(#paint1_linear)"/><path d="M14.799 6.134l-.632-.032-.144-.603c0-.04-.977-3.845-3.146-3.856-1.83 0-3.128 2.892-3.468 4.006l-.16.514-.543.067c-1.144.141-4.5.897-4.985 2.488-.35 1.144 1.601 2.998 2.647 3.758 4.697 3.363 11.023-5.522 13.956-5.448a9.726 9.726 0 00-3.525-.894z" fill="url(#paint2_linear)"/><path d="M17.524 12.902c3.322-1.82 4.138-4.764 1.224-5.587-1.504-.269 1.679 2.332-1.224 5.587z" fill="url(#paint3_linear)"/><path d="M3.675 14.444c-.524 1.121.247 4.286 1.992 4.008 3.945-.625 5.745-1.766 5.361-.829-6.61 6.51-8.612 1.242-7.353-3.179z" fill="url(#paint4_linear)"/><path d="M5.354 7.111c-.819-.448-3.114.856-2.624 1.473.49.616 3.498-.993 2.624-1.473zM10.284 2.484c-.663-.35-1.329 1.029-.84 1.12.49.093 1.296-.88.84-1.12zM8.99 4.06c-.572-.119-1.083 1.44-.593 1.57.49.13 1.082-1.467.592-1.57z" fill="#fff"/><defs><linearGradient id="paint1_linear" x1="11.648" y1="18.047" x2="18.821" y2="18.047" gradientUnits="userSpaceOnUse"><stop offset=".09" stop-color="#FF8A1C" stop-opacity=".4"/><stop offset=".59" stop-color="#FF8A1C" stop-opacity=".4"/></linearGradient><linearGradient id="paint2_linear" x1="10.001" y1="10.353" x2="10.001" y2=".968" gradientUnits="userSpaceOnUse"><stop offset=".26" stop-color="#FF0" stop-opacity=".4"/><stop offset=".85" stop-color="#FF0" stop-opacity=".4"/></linearGradient><linearGradient id="paint3_linear" x1="264.304" y1="291.062" x2="303.922" y2="291.062" gradientUnits="userSpaceOnUse"><stop offset=".09" stop-color="#FF8A1C" stop-opacity=".4"/><stop offset=".59" stop-color="#FF8A1C" stop-opacity=".4"/></linearGradient><linearGradient id="paint4_linear" x1="157.186" y1="537.163" x2="420.304" y2="537.163" gradientUnits="userSpaceOnUse"><stop offset=".09" stop-color="#FF8A1C" stop-opacity=".4"/><stop offset=".59" stop-color="#FF8A1C" stop-opacity=".4"/></linearGradient><radialGradient id="paint0_radial" cx="0" cy="0" r="1" gradientUnits="userSpaceOnUse" gradientTransform="matrix(15.8989 0 0 15.5785 9.971 7.932)"><stop offset=".42" stop-color="#FF8A1C" stop-opacity="0"/><stop offset=".91" stop-color="#FF8A1C" stop-opacity=".4"/></radialGradient></defs></svg>